G04 #@! TF.GenerationSoftware,KiCad,Pcbnew,(5.1.9-0-10_14)*
G04 #@! TF.CreationDate,2021-04-05T09:48:25+08:00*
G04 #@! TF.ProjectId,tigard,74696761-7264-42e6-9b69-6361645f7063,v1.1*
G04 #@! TF.SameCoordinates,Original*
G04 #@! TF.FileFunction,Copper,L4,Bot*
G04 #@! TF.FilePolarity,Positive*
%FSLAX46Y46*%
G04 Gerber Fmt 4.6, Leading zero omitted, Abs format (unit mm)*
G04 Created by KiCad (PCBNEW (5.1.9-0-10_14)) date 2021-04-05 09:48:25*
%MOMM*%
%LPD*%
G01*
G04 APERTURE LIST*
G04 #@! TA.AperFunction,EtchedComponent*
%ADD10C,0.100000*%
G04 #@! TD*
G04 #@! TA.AperFunction,ComponentPad*
%ADD11O,0.900000X0.900000*%
G04 #@! TD*
G04 #@! TA.AperFunction,ComponentPad*
%ADD12R,0.900000X0.900000*%
G04 #@! TD*
G04 #@! TA.AperFunction,ComponentPad*
%ADD13O,2.100000X1.000000*%
G04 #@! TD*
G04 #@! TA.AperFunction,ComponentPad*
%ADD14O,1.600000X1.000000*%
G04 #@! TD*
G04 #@! TA.AperFunction,ComponentPad*
%ADD15O,1.700000X1.700000*%
G04 #@! TD*
G04 #@! TA.AperFunction,ComponentPad*
%ADD16C,2.000000*%
G04 #@! TD*
G04 #@! TA.AperFunction,ComponentPad*
%ADD17C,1.400000*%
G04 #@! TD*
G04 #@! TA.AperFunction,SMDPad,CuDef*
%ADD18C,0.100000*%
G04 #@! TD*
G04 #@! TA.AperFunction,ComponentPad*
%ADD19C,0.500000*%
G04 #@! TD*
G04 #@! TA.AperFunction,SMDPad,CuDef*
%ADD20R,4.350000X4.350000*%
G04 #@! TD*
G04 #@! TA.AperFunction,ViaPad*
%ADD21C,0.500000*%
G04 #@! TD*
G04 #@! TA.AperFunction,ViaPad*
%ADD22C,0.800000*%
G04 #@! TD*
G04 #@! TA.AperFunction,Conductor*
%ADD23C,0.150000*%
G04 #@! TD*
G04 #@! TA.AperFunction,Conductor*
%ADD24C,0.250000*%
G04 #@! TD*
G04 #@! TA.AperFunction,Conductor*
%ADD25C,0.200000*%
G04 #@! TD*
G04 #@! TA.AperFunction,Conductor*
%ADD26C,0.100000*%
G04 #@! TD*
G04 APERTURE END LIST*
D10*
G36*
X35600000Y-53100000D02*
G01*
X36100000Y-53100000D01*
X36100000Y-53700000D01*
X35600000Y-53700000D01*
X35600000Y-53100000D01*
G37*
D11*
X45137580Y-71128420D03*
X45137580Y-69858420D03*
X46407580Y-71128420D03*
X46407580Y-69858420D03*
X47677580Y-71128420D03*
X47677580Y-69858420D03*
X48947580Y-71128420D03*
X48947580Y-69858420D03*
X50217580Y-71128420D03*
X50217580Y-69858420D03*
X51487580Y-71128420D03*
X51487580Y-69858420D03*
X52757580Y-71128420D03*
D12*
X52757580Y-69858420D03*
D11*
X71145000Y-43860000D03*
X72415000Y-43860000D03*
X71145000Y-42590000D03*
X72415000Y-42590000D03*
X71145000Y-41320000D03*
X72415000Y-41320000D03*
X71145000Y-40050000D03*
X72415000Y-40050000D03*
X72415000Y-38780000D03*
D12*
X71145000Y-38780000D03*
D13*
X36130000Y-64720000D03*
X36130000Y-56080000D03*
D14*
X31950000Y-56080000D03*
X31950000Y-64720000D03*
G04 #@! TA.AperFunction,ComponentPad*
G36*
G01*
X70930000Y-49365000D02*
X70930000Y-48515000D01*
G75*
G02*
X71355000Y-48090000I425000J0D01*
G01*
X72205000Y-48090000D01*
G75*
G02*
X72630000Y-48515000I0J-425000D01*
G01*
X72630000Y-49365000D01*
G75*
G02*
X72205000Y-49790000I-425000J0D01*
G01*
X71355000Y-49790000D01*
G75*
G02*
X70930000Y-49365000I0J425000D01*
G01*
G37*
G04 #@! TD.AperFunction*
D15*
X71780000Y-51480000D03*
X71780000Y-54020000D03*
X71780000Y-56560000D03*
X71780000Y-59100000D03*
X71780000Y-61640000D03*
X71780000Y-64180000D03*
X71780000Y-66720000D03*
X71780000Y-69260000D03*
D16*
X38890000Y-33700000D03*
D17*
X64080000Y-40200000D03*
X61580000Y-40200000D03*
G04 #@! TA.AperFunction,ComponentPad*
G36*
G01*
X58380000Y-40550000D02*
X58380000Y-39850000D01*
G75*
G02*
X58730000Y-39500000I350000J0D01*
G01*
X59430000Y-39500000D01*
G75*
G02*
X59780000Y-39850000I0J-350000D01*
G01*
X59780000Y-40550000D01*
G75*
G02*
X59430000Y-40900000I-350000J0D01*
G01*
X58730000Y-40900000D01*
G75*
G02*
X58380000Y-40550000I0J350000D01*
G01*
G37*
G04 #@! TD.AperFunction*
X64080000Y-36900000D03*
X61580000Y-36900000D03*
X59080000Y-36900000D03*
G04 #@! TA.AperFunction,ComponentPad*
G36*
G01*
X66275000Y-68410000D02*
X67125000Y-68410000D01*
G75*
G02*
X67550000Y-68835000I0J-425000D01*
G01*
X67550000Y-69685000D01*
G75*
G02*
X67125000Y-70110000I-425000J0D01*
G01*
X66275000Y-70110000D01*
G75*
G02*
X65850000Y-69685000I0J425000D01*
G01*
X65850000Y-68835000D01*
G75*
G02*
X66275000Y-68410000I425000J0D01*
G01*
G37*
G04 #@! TD.AperFunction*
D15*
X66700000Y-71800000D03*
X64160000Y-69260000D03*
X64160000Y-71800000D03*
X61620000Y-69260000D03*
X61620000Y-71800000D03*
X59080000Y-69260000D03*
X59080000Y-71800000D03*
G04 #@! TA.AperFunction,ComponentPad*
G36*
G01*
X46805000Y-34550000D02*
X45955000Y-34550000D01*
G75*
G02*
X45530000Y-34125000I0J425000D01*
G01*
X45530000Y-33275000D01*
G75*
G02*
X45955000Y-32850000I425000J0D01*
G01*
X46805000Y-32850000D01*
G75*
G02*
X47230000Y-33275000I0J-425000D01*
G01*
X47230000Y-34125000D01*
G75*
G02*
X46805000Y-34550000I-425000J0D01*
G01*
G37*
G04 #@! TD.AperFunction*
X48920000Y-33700000D03*
X51460000Y-33700000D03*
X54000000Y-33700000D03*
X56540000Y-33700000D03*
X59080000Y-33700000D03*
X61620000Y-33700000D03*
X64160000Y-33700000D03*
X66700000Y-33700000D03*
D17*
X33200000Y-50400000D03*
X33200000Y-48400000D03*
X33200000Y-46400000D03*
X33200000Y-42400000D03*
G04 #@! TA.AperFunction,ComponentPad*
G36*
G01*
X32850000Y-39700000D02*
X33550000Y-39700000D01*
G75*
G02*
X33900000Y-40050000I0J-350000D01*
G01*
X33900000Y-40750000D01*
G75*
G02*
X33550000Y-41100000I-350000J0D01*
G01*
X32850000Y-41100000D01*
G75*
G02*
X32500000Y-40750000I0J350000D01*
G01*
X32500000Y-40050000D01*
G75*
G02*
X32850000Y-39700000I350000J0D01*
G01*
G37*
G04 #@! TD.AperFunction*
X36500000Y-50400000D03*
X36500000Y-48400000D03*
X36500000Y-46400000D03*
X36500000Y-42400000D03*
X36500000Y-40400000D03*
G04 #@! TA.AperFunction,SMDPad,CuDef*
D18*
G36*
X36000000Y-52650000D02*
G01*
X36500000Y-52650000D01*
X36500000Y-52650602D01*
X36524534Y-52650602D01*
X36573365Y-52655412D01*
X36621490Y-52664984D01*
X36668445Y-52679228D01*
X36713778Y-52698005D01*
X36757051Y-52721136D01*
X36797850Y-52748396D01*
X36835779Y-52779524D01*
X36870476Y-52814221D01*
X36901604Y-52852150D01*
X36928864Y-52892949D01*
X36951995Y-52936222D01*
X36970772Y-52981555D01*
X36985016Y-53028510D01*
X36994588Y-53076635D01*
X36999398Y-53125466D01*
X36999398Y-53150000D01*
X37000000Y-53150000D01*
X37000000Y-53650000D01*
X36999398Y-53650000D01*
X36999398Y-53674534D01*
X36994588Y-53723365D01*
X36985016Y-53771490D01*
X36970772Y-53818445D01*
X36951995Y-53863778D01*
X36928864Y-53907051D01*
X36901604Y-53947850D01*
X36870476Y-53985779D01*
X36835779Y-54020476D01*
X36797850Y-54051604D01*
X36757051Y-54078864D01*
X36713778Y-54101995D01*
X36668445Y-54120772D01*
X36621490Y-54135016D01*
X36573365Y-54144588D01*
X36524534Y-54149398D01*
X36500000Y-54149398D01*
X36500000Y-54150000D01*
X36000000Y-54150000D01*
X36000000Y-52650000D01*
G37*
G04 #@! TD.AperFunction*
G04 #@! TA.AperFunction,SMDPad,CuDef*
G36*
X35200000Y-54149398D02*
G01*
X35175466Y-54149398D01*
X35126635Y-54144588D01*
X35078510Y-54135016D01*
X35031555Y-54120772D01*
X34986222Y-54101995D01*
X34942949Y-54078864D01*
X34902150Y-54051604D01*
X34864221Y-54020476D01*
X34829524Y-53985779D01*
X34798396Y-53947850D01*
X34771136Y-53907051D01*
X34748005Y-53863778D01*
X34729228Y-53818445D01*
X34714984Y-53771490D01*
X34705412Y-53723365D01*
X34700602Y-53674534D01*
X34700602Y-53650000D01*
X34700000Y-53650000D01*
X34700000Y-53150000D01*
X34700602Y-53150000D01*
X34700602Y-53125466D01*
X34705412Y-53076635D01*
X34714984Y-53028510D01*
X34729228Y-52981555D01*
X34748005Y-52936222D01*
X34771136Y-52892949D01*
X34798396Y-52852150D01*
X34829524Y-52814221D01*
X34864221Y-52779524D01*
X34902150Y-52748396D01*
X34942949Y-52721136D01*
X34986222Y-52698005D01*
X35031555Y-52679228D01*
X35078510Y-52664984D01*
X35126635Y-52655412D01*
X35175466Y-52650602D01*
X35200000Y-52650602D01*
X35200000Y-52650000D01*
X35700000Y-52650000D01*
X35700000Y-54150000D01*
X35200000Y-54150000D01*
X35200000Y-54149398D01*
G37*
G04 #@! TD.AperFunction*
D19*
X47075000Y-58475000D03*
X48358333Y-58475000D03*
X49641667Y-58475000D03*
X50925000Y-58475000D03*
X47075000Y-59758333D03*
X48358333Y-59758333D03*
X49641667Y-59758333D03*
X50925000Y-59758333D03*
X47075000Y-61041667D03*
X48358333Y-61041667D03*
X49641667Y-61041667D03*
X50925000Y-61041667D03*
X47075000Y-62325000D03*
X48358333Y-62325000D03*
X49641667Y-62325000D03*
X50925000Y-62325000D03*
D20*
X49000000Y-60400000D03*
G04 #@! TA.AperFunction,SMDPad,CuDef*
D18*
G36*
X64400000Y-41900000D02*
G01*
X64900000Y-41900000D01*
X64900000Y-41900602D01*
X64924534Y-41900602D01*
X64973365Y-41905412D01*
X65021490Y-41914984D01*
X65068445Y-41929228D01*
X65113778Y-41948005D01*
X65157051Y-41971136D01*
X65197850Y-41998396D01*
X65235779Y-42029524D01*
X65270476Y-42064221D01*
X65301604Y-42102150D01*
X65328864Y-42142949D01*
X65351995Y-42186222D01*
X65370772Y-42231555D01*
X65385016Y-42278510D01*
X65394588Y-42326635D01*
X65399398Y-42375466D01*
X65399398Y-42400000D01*
X65400000Y-42400000D01*
X65400000Y-42900000D01*
X65399398Y-42900000D01*
X65399398Y-42924534D01*
X65394588Y-42973365D01*
X65385016Y-43021490D01*
X65370772Y-43068445D01*
X65351995Y-43113778D01*
X65328864Y-43157051D01*
X65301604Y-43197850D01*
X65270476Y-43235779D01*
X65235779Y-43270476D01*
X65197850Y-43301604D01*
X65157051Y-43328864D01*
X65113778Y-43351995D01*
X65068445Y-43370772D01*
X65021490Y-43385016D01*
X64973365Y-43394588D01*
X64924534Y-43399398D01*
X64900000Y-43399398D01*
X64900000Y-43400000D01*
X64400000Y-43400000D01*
X64400000Y-41900000D01*
G37*
G04 #@! TD.AperFunction*
G04 #@! TA.AperFunction,SMDPad,CuDef*
G36*
X63600000Y-43399398D02*
G01*
X63575466Y-43399398D01*
X63526635Y-43394588D01*
X63478510Y-43385016D01*
X63431555Y-43370772D01*
X63386222Y-43351995D01*
X63342949Y-43328864D01*
X63302150Y-43301604D01*
X63264221Y-43270476D01*
X63229524Y-43235779D01*
X63198396Y-43197850D01*
X63171136Y-43157051D01*
X63148005Y-43113778D01*
X63129228Y-43068445D01*
X63114984Y-43021490D01*
X63105412Y-42973365D01*
X63100602Y-42924534D01*
X63100602Y-42900000D01*
X63100000Y-42900000D01*
X63100000Y-42400000D01*
X63100602Y-42400000D01*
X63100602Y-42375466D01*
X63105412Y-42326635D01*
X63114984Y-42278510D01*
X63129228Y-42231555D01*
X63148005Y-42186222D01*
X63171136Y-42142949D01*
X63198396Y-42102150D01*
X63229524Y-42064221D01*
X63264221Y-42029524D01*
X63302150Y-41998396D01*
X63342949Y-41971136D01*
X63386222Y-41948005D01*
X63431555Y-41929228D01*
X63478510Y-41914984D01*
X63526635Y-41905412D01*
X63575466Y-41900602D01*
X63600000Y-41900602D01*
X63600000Y-41900000D01*
X64100000Y-41900000D01*
X64100000Y-43400000D01*
X63600000Y-43400000D01*
X63600000Y-43399398D01*
G37*
G04 #@! TD.AperFunction*
D21*
X41250000Y-61900000D03*
X43750000Y-51400000D03*
X44295020Y-56150000D03*
X41000000Y-50900000D03*
X39000000Y-52150000D03*
X40250000Y-57400000D03*
X50250000Y-51900000D03*
X52750000Y-50400000D03*
X66500000Y-64475000D03*
X60500000Y-54475000D03*
X60500000Y-53825000D03*
X56530000Y-46650000D03*
X63750000Y-44900000D03*
X68000000Y-41320000D03*
X68000000Y-43860000D03*
X68000000Y-40400000D03*
X47750000Y-43834500D03*
X53250000Y-51400000D03*
X54500000Y-65000000D03*
X59000000Y-65400000D03*
X53000000Y-52400000D03*
X41250000Y-63900000D03*
X41250000Y-56900000D03*
X41250000Y-58900000D03*
D22*
X33680000Y-55150000D03*
X33680000Y-65620010D03*
D21*
X56500000Y-55750000D03*
X63750000Y-56150000D03*
D22*
X38295000Y-69260000D03*
D21*
X49250000Y-65885000D03*
X50000000Y-65885000D03*
X50750000Y-65885000D03*
X54500000Y-63150000D03*
X49500000Y-48150000D03*
X41250000Y-65900000D03*
X58500000Y-65900000D03*
D22*
X39750000Y-47250000D03*
X44750000Y-47250000D03*
X39750000Y-43000000D03*
X44750000Y-43000000D03*
D21*
X63800000Y-62750000D03*
X63800000Y-60150000D03*
X58800000Y-38550000D03*
X62400000Y-38550000D03*
X66600000Y-36350000D03*
X66200000Y-39950000D03*
X66400000Y-55750000D03*
X63600000Y-54150000D03*
X61500000Y-53650000D03*
X62500000Y-53650000D03*
X41250000Y-62900000D03*
X41250000Y-64900000D03*
X41250000Y-55900000D03*
X50750000Y-52400000D03*
X46364124Y-54764124D03*
X44500000Y-51400000D03*
X54500000Y-47650000D03*
X51945000Y-47650000D03*
X52000000Y-54900000D03*
X68000000Y-47150000D03*
X48974990Y-47650000D03*
X55842630Y-60824212D03*
D22*
X41150000Y-45900000D03*
D21*
X51945000Y-41650000D03*
X55250000Y-40812000D03*
X58250000Y-56530000D03*
X55000000Y-59650000D03*
X45750000Y-50650000D03*
X57724990Y-46635000D03*
X55600000Y-65900000D03*
X43850000Y-65900000D03*
X52750000Y-37738500D03*
X60750000Y-57150000D03*
X50250000Y-37738500D03*
X60750000Y-57900000D03*
X48750000Y-54900000D03*
X50250000Y-43834500D03*
X67030000Y-48650000D03*
X66500000Y-57900000D03*
X68000000Y-58750000D03*
X67514980Y-54265360D03*
X63306200Y-65037500D03*
X66750000Y-58885000D03*
X68750000Y-63600000D03*
X69250000Y-63100000D03*
X62500000Y-49925000D03*
X68750000Y-62600000D03*
X63475000Y-50575000D03*
X63750000Y-51225000D03*
X57250000Y-68900059D03*
X45750000Y-55150000D03*
X45500000Y-51400000D03*
X60750000Y-58625000D03*
X55000000Y-61650000D03*
X47250000Y-65650000D03*
X61250000Y-61875000D03*
X44550000Y-64900000D03*
X61250000Y-63175000D03*
X60750000Y-62525000D03*
X45750000Y-66150000D03*
X60750000Y-59925000D03*
X54500000Y-60150000D03*
X61250000Y-59275000D03*
X54500000Y-61150000D03*
X54500000Y-59150000D03*
X61250000Y-60575000D03*
X60750000Y-61225000D03*
X55000000Y-58650000D03*
X45250000Y-65650000D03*
X55750000Y-48850000D03*
X55750000Y-49850000D03*
X47750000Y-66150000D03*
X55250000Y-49350000D03*
X46250000Y-65650000D03*
X55250000Y-50350000D03*
X48250000Y-65650000D03*
X55000000Y-60650000D03*
X55750000Y-51450000D03*
X54642260Y-73625000D03*
X75137520Y-45509980D03*
X73837040Y-46416760D03*
X64900000Y-41400000D03*
X71429120Y-45972260D03*
X68750000Y-51400000D03*
X66500000Y-47150000D03*
X66500000Y-57150000D03*
X49500000Y-49120000D03*
D22*
X69830000Y-37650000D03*
X39295000Y-72260000D03*
D21*
X55750000Y-72385000D03*
X55750000Y-69885000D03*
X61500000Y-49275000D03*
X62750000Y-64150000D03*
X53605176Y-68297084D03*
X57000000Y-53500000D03*
X55250000Y-56500000D03*
X55750000Y-64150000D03*
X54250000Y-55950000D03*
X44500000Y-55400000D03*
X43750000Y-61400000D03*
D23*
X60750000Y-57150000D02*
X58500000Y-54900000D01*
X58500000Y-54900000D02*
X58500000Y-46150000D01*
X52750000Y-40400000D02*
X52750000Y-37738500D01*
X58500000Y-46150000D02*
X52750000Y-40400000D01*
X60750000Y-57900000D02*
X58199990Y-55349990D01*
X58199990Y-55349990D02*
X58199990Y-46274268D01*
X50250000Y-38324278D02*
X50250000Y-37738500D01*
X58199990Y-46274268D02*
X50250000Y-38324278D01*
X50250000Y-43834500D02*
X50250000Y-50150000D01*
X48750000Y-51650000D02*
X48750000Y-54900000D01*
X50250000Y-50150000D02*
X48750000Y-51650000D01*
X67030000Y-57370000D02*
X66500000Y-57900000D01*
X67030000Y-48650000D02*
X67030000Y-57370000D01*
X72475001Y-39921999D02*
X72228001Y-39674999D01*
X68500000Y-65750000D02*
X60674278Y-65750000D01*
X60674278Y-65750000D02*
X57999219Y-68425059D01*
X68000000Y-58750000D02*
X70000000Y-60750000D01*
X70000000Y-60750000D02*
X70000000Y-64250000D01*
X52766719Y-69867559D02*
X53599160Y-70700000D01*
X60520000Y-70700000D02*
X61620000Y-71800000D01*
X53599160Y-70700000D02*
X60520000Y-70700000D01*
X70000000Y-64250000D02*
X68500000Y-65750000D01*
X53171120Y-69858420D02*
X52757580Y-69858420D01*
X54604481Y-68425059D02*
X53171120Y-69858420D01*
X57999219Y-68425059D02*
X54604481Y-68425059D01*
X52503580Y-68842420D02*
X51487580Y-69858420D01*
X54480211Y-68125051D02*
X53762842Y-68842420D01*
X53762842Y-68842420D02*
X52503580Y-68842420D01*
X57873505Y-68125051D02*
X54480211Y-68125051D01*
X60961056Y-65037500D02*
X57873505Y-68125051D01*
X63306200Y-65037500D02*
X60961056Y-65037500D01*
X67514980Y-47461978D02*
X64478001Y-44424999D01*
X64478001Y-44424999D02*
X63031479Y-44424999D01*
X67514980Y-54265360D02*
X67514980Y-47461978D01*
X60654999Y-37825001D02*
X61580000Y-36900000D01*
X60654999Y-42048519D02*
X60654999Y-37825001D01*
X63031479Y-44424999D02*
X60654999Y-42048519D01*
X59080000Y-42480000D02*
X59080000Y-40200000D01*
X64275011Y-47675011D02*
X59080000Y-42480000D01*
X64275011Y-57175011D02*
X64275011Y-47675011D01*
X65985000Y-58885000D02*
X64275011Y-57175011D01*
X66750000Y-58885000D02*
X65985000Y-58885000D01*
X65024999Y-72875001D02*
X53234161Y-72875001D01*
X53234161Y-72875001D02*
X51487580Y-71128420D01*
X65624999Y-72275001D02*
X65024999Y-72875001D01*
X65624999Y-70335001D02*
X65624999Y-72275001D01*
X66700000Y-69260000D02*
X65624999Y-70335001D01*
X51460000Y-33700000D02*
X55939982Y-38179982D01*
X55939982Y-38179982D02*
X55939982Y-42438538D01*
X61000000Y-47498556D02*
X61000000Y-56203553D01*
X55939982Y-42438538D02*
X61000000Y-47498556D01*
X68396447Y-63600000D02*
X68750000Y-63600000D01*
X61000000Y-56203553D02*
X68396447Y-63600000D01*
X48947580Y-69809418D02*
X48923079Y-69833919D01*
X50021130Y-67525030D02*
X48947580Y-68598580D01*
X48947580Y-68598580D02*
X48947580Y-69809418D01*
X57624970Y-67525030D02*
X50021130Y-67525030D01*
X61550000Y-63600000D02*
X57624970Y-67525030D01*
X68750000Y-63600000D02*
X61550000Y-63600000D01*
X56540000Y-33700000D02*
X56540000Y-42190000D01*
X62000000Y-47650000D02*
X62000000Y-56553002D01*
X62000000Y-56553002D02*
X68546998Y-63100000D01*
X68546998Y-63100000D02*
X69250000Y-63100000D01*
X56540000Y-42190000D02*
X62000000Y-47650000D01*
X56840010Y-35939990D02*
X56840010Y-42065732D01*
X59080000Y-33700000D02*
X56840010Y-35939990D01*
X62500000Y-47725722D02*
X62500000Y-49925000D01*
X56840010Y-42065732D02*
X62500000Y-47725722D01*
X57140020Y-36064258D02*
X57140020Y-41941464D01*
X58304278Y-34900000D02*
X57140020Y-36064258D01*
X60420000Y-34900000D02*
X58304278Y-34900000D01*
X61620000Y-33700000D02*
X60420000Y-34900000D01*
X63000000Y-47801444D02*
X63000000Y-56850000D01*
X63000000Y-56850000D02*
X68750000Y-62600000D01*
X57140020Y-41941464D02*
X63000000Y-47801444D01*
X57440030Y-36209970D02*
X57440030Y-41817196D01*
X58449990Y-35200010D02*
X57440030Y-36209970D01*
X62659990Y-35200010D02*
X58449990Y-35200010D01*
X64160000Y-33700000D02*
X62659990Y-35200010D01*
X63475000Y-47852166D02*
X63475000Y-50575000D01*
X57440030Y-41817196D02*
X63475000Y-47852166D01*
X66700000Y-33700000D02*
X64899980Y-35500020D01*
X64899980Y-35500020D02*
X58574258Y-35500020D01*
X58574258Y-35500020D02*
X57750000Y-36324278D01*
X57750000Y-36324278D02*
X57750000Y-41702888D01*
X63975001Y-47927889D02*
X63975001Y-50999999D01*
X63975001Y-50999999D02*
X63750000Y-51225000D01*
X57750000Y-41702888D02*
X63975001Y-47927889D01*
X58331389Y-70335001D02*
X62695001Y-70335001D01*
X57250000Y-69253612D02*
X58331389Y-70335001D01*
X62695001Y-70335001D02*
X64160000Y-71800000D01*
X57250000Y-68900059D02*
X57250000Y-69253612D01*
X45750000Y-51650000D02*
X45500000Y-51400000D01*
X45750000Y-55150000D02*
X45750000Y-51650000D01*
X53250000Y-57150000D02*
X59275000Y-57150000D01*
X52250000Y-58150000D02*
X53250000Y-57150000D01*
X53000000Y-61650000D02*
X52250000Y-60900000D01*
X55000000Y-61650000D02*
X53000000Y-61650000D01*
X59275000Y-57150000D02*
X60750000Y-58625000D01*
X52250000Y-60900000D02*
X52250000Y-58150000D01*
X47250000Y-66353002D02*
X47250000Y-65650000D01*
X47521999Y-66625001D02*
X47250000Y-66353002D01*
X55946997Y-66625001D02*
X47521999Y-66625001D01*
X60696998Y-61875000D02*
X55946997Y-66625001D01*
X61250000Y-61875000D02*
X60696998Y-61875000D01*
X44550000Y-66089905D02*
X44550000Y-64900000D01*
X61250000Y-63175000D02*
X60524278Y-63175000D01*
X45685115Y-67225020D02*
X44550000Y-66089905D01*
X56474258Y-67225020D02*
X45685115Y-67225020D01*
X60524278Y-63175000D02*
X56474258Y-67225020D01*
X56349990Y-66925010D02*
X46525010Y-66925010D01*
X46525010Y-66925010D02*
X45750000Y-66150000D01*
X60750000Y-62525000D02*
X56349990Y-66925010D01*
X53498536Y-57750020D02*
X58575020Y-57750020D01*
X52850020Y-58398536D02*
X53498536Y-57750020D01*
X58575020Y-57750020D02*
X60750000Y-59925000D01*
X54500000Y-60150000D02*
X53600020Y-60150000D01*
X52850020Y-59400000D02*
X52850020Y-58398536D01*
X53600020Y-60150000D02*
X52850020Y-59400000D01*
X52550010Y-60450010D02*
X52550010Y-58274268D01*
X52550010Y-58274268D02*
X53374268Y-57450010D01*
X53374268Y-57450010D02*
X58872008Y-57450010D01*
X60696998Y-59275000D02*
X61250000Y-59275000D01*
X58872008Y-57450010D02*
X60696998Y-59275000D01*
X53250000Y-61150000D02*
X52550010Y-60450010D01*
X54500000Y-61150000D02*
X53250000Y-61150000D01*
X54500000Y-59150000D02*
X54500000Y-58446998D01*
X54896968Y-58050030D02*
X58172028Y-58050030D01*
X60696998Y-60575000D02*
X61250000Y-60575000D01*
X58172028Y-58050030D02*
X60696998Y-60575000D01*
X54500000Y-58446998D02*
X54896968Y-58050030D01*
X55000000Y-58650000D02*
X58175000Y-58650000D01*
X58175000Y-58650000D02*
X60750000Y-61225000D01*
X45349970Y-57527196D02*
X45349970Y-65550030D01*
X45349970Y-65550030D02*
X45250000Y-65650000D01*
X54972169Y-48850000D02*
X54149980Y-49672189D01*
X55750000Y-48850000D02*
X54972169Y-48850000D01*
X54149980Y-49672189D02*
X54149980Y-53552908D01*
X46377196Y-56499970D02*
X45349970Y-57527196D01*
X51202918Y-56499970D02*
X46377196Y-56499970D01*
X54149980Y-53552908D02*
X51202918Y-56499970D01*
X47750000Y-65446998D02*
X47750000Y-66150000D01*
X45949990Y-63646988D02*
X47750000Y-65446998D01*
X45949990Y-57775732D02*
X45949990Y-63646988D01*
X54750000Y-50146998D02*
X54750000Y-53801444D01*
X55046998Y-49850000D02*
X54750000Y-50146998D01*
X55750000Y-49850000D02*
X55046998Y-49850000D01*
X54750000Y-53801444D02*
X51451454Y-57099990D01*
X46625732Y-57099990D02*
X45949990Y-57775732D01*
X51451454Y-57099990D02*
X46625732Y-57099990D01*
X45649980Y-65049980D02*
X46250000Y-65650000D01*
X45649980Y-57651464D02*
X45649980Y-65049980D01*
X54896447Y-49350000D02*
X54449990Y-49796457D01*
X55250000Y-49350000D02*
X54896447Y-49350000D01*
X54449990Y-49796457D02*
X54449990Y-53677176D01*
X54449990Y-53677176D02*
X51327186Y-56799980D01*
X46501464Y-56799980D02*
X45649980Y-57651464D01*
X51327186Y-56799980D02*
X46501464Y-56799980D01*
X48250000Y-65522720D02*
X48250000Y-65650000D01*
X46250000Y-63522720D02*
X48250000Y-65522720D01*
X46250000Y-57900000D02*
X46250000Y-63522720D01*
X55250000Y-50350000D02*
X55250000Y-53725722D01*
X55250000Y-53725722D02*
X51575722Y-57400000D01*
X46750000Y-57400000D02*
X46250000Y-57900000D01*
X51575722Y-57400000D02*
X46750000Y-57400000D01*
X51949990Y-57450010D02*
X55750000Y-53650000D01*
X55475001Y-61878001D02*
X55228001Y-62125001D01*
X55228001Y-62125001D02*
X53050723Y-62125001D01*
X51949990Y-61024268D02*
X51949990Y-57450010D01*
X53050723Y-62125001D02*
X51949990Y-61024268D01*
X55475001Y-61125001D02*
X55475001Y-61878001D01*
X55000000Y-60650000D02*
X55475001Y-61125001D01*
X55750000Y-53650000D02*
X55750000Y-51450000D01*
X62569949Y-40200000D02*
X63989949Y-38780000D01*
X61580000Y-40200000D02*
X62569949Y-40200000D01*
X72397105Y-38054999D02*
X72415000Y-38072894D01*
X70350003Y-38054999D02*
X72397105Y-38054999D01*
X72415000Y-38072894D02*
X72415000Y-38780000D01*
X69625002Y-38780000D02*
X70350003Y-38054999D01*
X63989949Y-38780000D02*
X69625002Y-38780000D01*
X63600000Y-40680000D02*
X64080000Y-40200000D01*
X63600000Y-42650000D02*
X63600000Y-40680000D01*
X74500000Y-45945000D02*
X72415000Y-43860000D01*
X74500000Y-64000000D02*
X74500000Y-45945000D01*
X71780000Y-66720000D02*
X74500000Y-64000000D01*
X50217580Y-72296820D02*
X50217580Y-71128420D01*
X67784989Y-74175011D02*
X52095771Y-74175011D01*
X52095771Y-74175011D02*
X50217580Y-72296820D01*
X70450000Y-71510000D02*
X67784989Y-74175011D01*
X70450000Y-68050000D02*
X70450000Y-71510000D01*
X71780000Y-66720000D02*
X70450000Y-68050000D01*
X70149990Y-71385732D02*
X67660721Y-73875001D01*
X70149990Y-65810010D02*
X70149990Y-71385732D01*
X71780000Y-64180000D02*
X70149990Y-65810010D01*
X54892261Y-73875001D02*
X54642260Y-73625000D01*
X67660721Y-73875001D02*
X54892261Y-73875001D01*
X74100019Y-56779981D02*
X74100018Y-47401462D01*
X59080000Y-36900000D02*
X60179970Y-35800030D01*
X71780000Y-59100000D02*
X74100019Y-56779981D01*
X60179970Y-35800030D02*
X70570130Y-35800030D01*
X70570130Y-35800030D02*
X70650030Y-35800030D01*
X73890380Y-41042120D02*
X73612500Y-41320000D01*
X73890380Y-38391300D02*
X73890380Y-41042120D01*
X71299110Y-35800030D02*
X73890380Y-38391300D01*
X70570130Y-35800030D02*
X71299110Y-35800030D01*
X75137520Y-43480020D02*
X75137520Y-45509980D01*
X72977500Y-41320000D02*
X75137520Y-43480020D01*
X73612500Y-41320000D02*
X72977500Y-41320000D01*
X72977500Y-41320000D02*
X72415000Y-41320000D01*
X73837040Y-47138484D02*
X73990528Y-47291972D01*
X73837040Y-46416760D02*
X73837040Y-47138484D01*
X74100018Y-47401462D02*
X73990528Y-47291972D01*
X64900000Y-42650000D02*
X64900000Y-41400000D01*
X72000000Y-42650000D02*
X72475001Y-42174999D01*
X68524520Y-46274520D02*
X64900000Y-42650000D01*
X73800009Y-47525731D02*
X72548798Y-46274520D01*
X73800009Y-54539991D02*
X73800009Y-47525731D01*
X71780000Y-56560000D02*
X73800009Y-54539991D01*
X69826380Y-46274520D02*
X71126860Y-46274520D01*
X72548798Y-46274520D02*
X69826380Y-46274520D01*
X71126860Y-46274520D02*
X71429120Y-45972260D01*
X69826380Y-46274520D02*
X68524520Y-46274520D01*
X53584100Y-71800000D02*
X53590700Y-71806600D01*
X59080000Y-71800000D02*
X53584100Y-71800000D01*
X53584100Y-71800000D02*
X53490000Y-71800000D01*
X53429160Y-71800000D02*
X52757580Y-71128420D01*
X53584100Y-71800000D02*
X53429160Y-71800000D01*
D24*
X35200000Y-47700000D02*
X36500000Y-46400000D01*
X35200000Y-53400000D02*
X35200000Y-47700000D01*
D25*
X39220000Y-49120000D02*
X48974990Y-49120000D01*
X36500000Y-46400000D02*
X39220000Y-49120000D01*
X48974990Y-49120000D02*
X49500000Y-49120000D01*
D24*
X36500000Y-53400000D02*
X36500000Y-50400000D01*
D23*
X54000000Y-33700000D02*
X56239990Y-35939990D01*
X56239990Y-35939990D02*
X56239991Y-42314269D01*
X61500000Y-47574278D02*
X61500000Y-49275000D01*
X56239991Y-42314269D02*
X61500000Y-47574278D01*
X61424278Y-64150000D02*
X57749239Y-67825039D01*
X62750000Y-64150000D02*
X61424278Y-64150000D01*
X54077221Y-67825039D02*
X53605176Y-68297084D01*
X57749239Y-67825039D02*
X54077221Y-67825039D01*
X56500000Y-53500000D02*
X57000000Y-53500000D01*
X55250000Y-54750000D02*
X56500000Y-53500000D01*
X55250000Y-56500000D02*
X55250000Y-54750000D01*
D24*
X73504636Y-30451399D02*
X73990055Y-30597955D01*
X74437754Y-30836000D01*
X74830699Y-31156479D01*
X75153907Y-31547170D01*
X75395076Y-31993204D01*
X75545017Y-32477582D01*
X75600000Y-33000712D01*
X75600000Y-45088577D01*
X75587520Y-45076097D01*
X75587520Y-43502114D01*
X75589696Y-43480020D01*
X75587520Y-43457926D01*
X75587520Y-43457915D01*
X75581009Y-43391805D01*
X75555277Y-43306979D01*
X75516807Y-43235007D01*
X75513491Y-43228803D01*
X75471348Y-43177452D01*
X75471344Y-43177448D01*
X75457257Y-43160283D01*
X75440093Y-43146197D01*
X73932866Y-41638971D01*
X73946329Y-41622566D01*
X74192946Y-41375949D01*
X74210117Y-41361857D01*
X74240365Y-41325000D01*
X74266351Y-41293337D01*
X74308137Y-41215161D01*
X74314253Y-41195000D01*
X74333869Y-41130335D01*
X74340380Y-41064225D01*
X74340380Y-41064214D01*
X74342556Y-41042120D01*
X74340380Y-41020026D01*
X74340380Y-38413393D01*
X74342556Y-38391299D01*
X74340380Y-38369205D01*
X74340380Y-38369195D01*
X74333869Y-38303085D01*
X74308137Y-38218259D01*
X74276371Y-38158829D01*
X74266351Y-38140083D01*
X74224208Y-38088732D01*
X74224204Y-38088728D01*
X74210117Y-38071563D01*
X74192953Y-38057477D01*
X71632939Y-35497464D01*
X71618847Y-35480293D01*
X71550326Y-35424059D01*
X71472151Y-35382273D01*
X71387325Y-35356541D01*
X71321215Y-35350030D01*
X71321204Y-35350030D01*
X71299110Y-35347854D01*
X71277016Y-35350030D01*
X65686365Y-35350030D01*
X66212425Y-34823970D01*
X66342681Y-34877924D01*
X66579348Y-34925000D01*
X66820652Y-34925000D01*
X67057319Y-34877924D01*
X67280255Y-34785581D01*
X67480892Y-34651519D01*
X67651519Y-34480892D01*
X67785581Y-34280255D01*
X67877924Y-34057319D01*
X67925000Y-33820652D01*
X67925000Y-33579348D01*
X67877924Y-33342681D01*
X67785581Y-33119745D01*
X67651519Y-32919108D01*
X67537890Y-32805479D01*
X71025000Y-32805479D01*
X71025000Y-33194521D01*
X71100898Y-33576086D01*
X71249778Y-33935513D01*
X71465917Y-34258989D01*
X71741011Y-34534083D01*
X72064487Y-34750222D01*
X72423914Y-34899102D01*
X72805479Y-34975000D01*
X73194521Y-34975000D01*
X73576086Y-34899102D01*
X73935513Y-34750222D01*
X74258989Y-34534083D01*
X74534083Y-34258989D01*
X74750222Y-33935513D01*
X74899102Y-33576086D01*
X74975000Y-33194521D01*
X74975000Y-32805479D01*
X74899102Y-32423914D01*
X74750222Y-32064487D01*
X74534083Y-31741011D01*
X74258989Y-31465917D01*
X73935513Y-31249778D01*
X73576086Y-31100898D01*
X73194521Y-31025000D01*
X72805479Y-31025000D01*
X72423914Y-31100898D01*
X72064487Y-31249778D01*
X71741011Y-31465917D01*
X71465917Y-31741011D01*
X71249778Y-32064487D01*
X71100898Y-32423914D01*
X71025000Y-32805479D01*
X67537890Y-32805479D01*
X67480892Y-32748481D01*
X67280255Y-32614419D01*
X67057319Y-32522076D01*
X66820652Y-32475000D01*
X66579348Y-32475000D01*
X66342681Y-32522076D01*
X66119745Y-32614419D01*
X65919108Y-32748481D01*
X65748481Y-32919108D01*
X65614419Y-33119745D01*
X65522076Y-33342681D01*
X65475000Y-33579348D01*
X65475000Y-33820652D01*
X65522076Y-34057319D01*
X65576030Y-34187575D01*
X64713585Y-35050020D01*
X63446375Y-35050020D01*
X63672425Y-34823970D01*
X63802681Y-34877924D01*
X64039348Y-34925000D01*
X64280652Y-34925000D01*
X64517319Y-34877924D01*
X64740255Y-34785581D01*
X64940892Y-34651519D01*
X65111519Y-34480892D01*
X65245581Y-34280255D01*
X65337924Y-34057319D01*
X65385000Y-33820652D01*
X65385000Y-33579348D01*
X65337924Y-33342681D01*
X65245581Y-33119745D01*
X65111519Y-32919108D01*
X64940892Y-32748481D01*
X64740255Y-32614419D01*
X64517319Y-32522076D01*
X64280652Y-32475000D01*
X64039348Y-32475000D01*
X63802681Y-32522076D01*
X63579745Y-32614419D01*
X63379108Y-32748481D01*
X63208481Y-32919108D01*
X63074419Y-33119745D01*
X62982076Y-33342681D01*
X62935000Y-33579348D01*
X62935000Y-33820652D01*
X62982076Y-34057319D01*
X63036030Y-34187575D01*
X62473595Y-34750010D01*
X62253491Y-34750010D01*
X62400892Y-34651519D01*
X62571519Y-34480892D01*
X62705581Y-34280255D01*
X62797924Y-34057319D01*
X62845000Y-33820652D01*
X62845000Y-33579348D01*
X62797924Y-33342681D01*
X62705581Y-33119745D01*
X62571519Y-32919108D01*
X62400892Y-32748481D01*
X62200255Y-32614419D01*
X61977319Y-32522076D01*
X61740652Y-32475000D01*
X61499348Y-32475000D01*
X61262681Y-32522076D01*
X61039745Y-32614419D01*
X60839108Y-32748481D01*
X60668481Y-32919108D01*
X60534419Y-33119745D01*
X60442076Y-33342681D01*
X60395000Y-33579348D01*
X60395000Y-33820652D01*
X60442076Y-34057319D01*
X60496030Y-34187575D01*
X60233605Y-34450000D01*
X60052160Y-34450000D01*
X60165581Y-34280255D01*
X60257924Y-34057319D01*
X60305000Y-33820652D01*
X60305000Y-33579348D01*
X60257924Y-33342681D01*
X60165581Y-33119745D01*
X60031519Y-32919108D01*
X59860892Y-32748481D01*
X59660255Y-32614419D01*
X59437319Y-32522076D01*
X59200652Y-32475000D01*
X58959348Y-32475000D01*
X58722681Y-32522076D01*
X58499745Y-32614419D01*
X58299108Y-32748481D01*
X58128481Y-32919108D01*
X57994419Y-33119745D01*
X57902076Y-33342681D01*
X57855000Y-33579348D01*
X57855000Y-33820652D01*
X57902076Y-34057319D01*
X57956030Y-34187575D01*
X56990000Y-35153605D01*
X56990000Y-34839534D01*
X57120255Y-34785581D01*
X57320892Y-34651519D01*
X57491519Y-34480892D01*
X57625581Y-34280255D01*
X57717924Y-34057319D01*
X57765000Y-33820652D01*
X57765000Y-33579348D01*
X57717924Y-33342681D01*
X57625581Y-33119745D01*
X57491519Y-32919108D01*
X57320892Y-32748481D01*
X57120255Y-32614419D01*
X56897319Y-32522076D01*
X56660652Y-32475000D01*
X56419348Y-32475000D01*
X56182681Y-32522076D01*
X55959745Y-32614419D01*
X55759108Y-32748481D01*
X55588481Y-32919108D01*
X55454419Y-33119745D01*
X55362076Y-33342681D01*
X55315000Y-33579348D01*
X55315000Y-33820652D01*
X55362076Y-34057319D01*
X55454419Y-34280255D01*
X55588481Y-34480892D01*
X55759108Y-34651519D01*
X55959745Y-34785581D01*
X56090000Y-34839534D01*
X56090000Y-35153604D01*
X55123970Y-34187575D01*
X55177924Y-34057319D01*
X55225000Y-33820652D01*
X55225000Y-33579348D01*
X55177924Y-33342681D01*
X55085581Y-33119745D01*
X54951519Y-32919108D01*
X54780892Y-32748481D01*
X54580255Y-32614419D01*
X54357319Y-32522076D01*
X54120652Y-32475000D01*
X53879348Y-32475000D01*
X53642681Y-32522076D01*
X53419745Y-32614419D01*
X53219108Y-32748481D01*
X53048481Y-32919108D01*
X52914419Y-33119745D01*
X52822076Y-33342681D01*
X52775000Y-33579348D01*
X52775000Y-33820652D01*
X52822076Y-34057319D01*
X52914419Y-34280255D01*
X53048481Y-34480892D01*
X53219108Y-34651519D01*
X53419745Y-34785581D01*
X53642681Y-34877924D01*
X53879348Y-34925000D01*
X54120652Y-34925000D01*
X54357319Y-34877924D01*
X54487575Y-34823970D01*
X55789990Y-36126386D01*
X55789990Y-37393595D01*
X52583970Y-34187575D01*
X52637924Y-34057319D01*
X52685000Y-33820652D01*
X52685000Y-33579348D01*
X52637924Y-33342681D01*
X52545581Y-33119745D01*
X52411519Y-32919108D01*
X52240892Y-32748481D01*
X52040255Y-32614419D01*
X51817319Y-32522076D01*
X51580652Y-32475000D01*
X51339348Y-32475000D01*
X51102681Y-32522076D01*
X50879745Y-32614419D01*
X50679108Y-32748481D01*
X50508481Y-32919108D01*
X50374419Y-33119745D01*
X50319060Y-33253395D01*
X50255594Y-33074038D01*
X50107812Y-32825504D01*
X49914383Y-32610577D01*
X49682740Y-32437515D01*
X49421786Y-32312970D01*
X49273372Y-32267955D01*
X49045000Y-32387188D01*
X49045000Y-33575000D01*
X49065000Y-33575000D01*
X49065000Y-33825000D01*
X49045000Y-33825000D01*
X49045000Y-35012812D01*
X49273372Y-35132045D01*
X49421786Y-35087030D01*
X49682740Y-34962485D01*
X49914383Y-34789423D01*
X50107812Y-34574496D01*
X50255594Y-34325962D01*
X50319060Y-34146605D01*
X50374419Y-34280255D01*
X50508481Y-34480892D01*
X50679108Y-34651519D01*
X50879745Y-34785581D01*
X51102681Y-34877924D01*
X51339348Y-34925000D01*
X51580652Y-34925000D01*
X51817319Y-34877924D01*
X51947575Y-34823970D01*
X55489982Y-38366378D01*
X55489982Y-40234909D01*
X55432306Y-40211019D01*
X55311557Y-40187000D01*
X55188443Y-40187000D01*
X55067694Y-40211019D01*
X54953952Y-40258132D01*
X54851586Y-40326531D01*
X54764531Y-40413586D01*
X54696132Y-40515952D01*
X54649019Y-40629694D01*
X54625000Y-40750443D01*
X54625000Y-40873557D01*
X54649019Y-40994306D01*
X54696132Y-41108048D01*
X54764531Y-41210414D01*
X54851586Y-41297469D01*
X54953952Y-41365868D01*
X55067694Y-41412981D01*
X55188443Y-41437000D01*
X55311557Y-41437000D01*
X55432306Y-41412981D01*
X55489983Y-41389091D01*
X55489983Y-42416434D01*
X55487806Y-42438538D01*
X55489983Y-42460643D01*
X55494438Y-42505878D01*
X55494675Y-42508279D01*
X53200000Y-40213605D01*
X53200000Y-38172383D01*
X53235469Y-38136914D01*
X53303868Y-38034548D01*
X53350981Y-37920806D01*
X53375000Y-37800057D01*
X53375000Y-37676943D01*
X53350981Y-37556194D01*
X53303868Y-37442452D01*
X53235469Y-37340086D01*
X53148414Y-37253031D01*
X53046048Y-37184632D01*
X52932306Y-37137519D01*
X52811557Y-37113500D01*
X52688443Y-37113500D01*
X52567694Y-37137519D01*
X52453952Y-37184632D01*
X52351586Y-37253031D01*
X52264531Y-37340086D01*
X52196132Y-37442452D01*
X52149019Y-37556194D01*
X52125000Y-37676943D01*
X52125000Y-37800057D01*
X52149019Y-37920806D01*
X52196132Y-38034548D01*
X52264531Y-38136914D01*
X52300001Y-38172384D01*
X52300000Y-39737883D01*
X50717250Y-38155133D01*
X50735469Y-38136914D01*
X50803868Y-38034548D01*
X50850981Y-37920806D01*
X50875000Y-37800057D01*
X50875000Y-37676943D01*
X50850981Y-37556194D01*
X50803868Y-37442452D01*
X50735469Y-37340086D01*
X50648414Y-37253031D01*
X50546048Y-37184632D01*
X50432306Y-37137519D01*
X50311557Y-37113500D01*
X50188443Y-37113500D01*
X50067694Y-37137519D01*
X49953952Y-37184632D01*
X49851586Y-37253031D01*
X49764531Y-37340086D01*
X49696132Y-37442452D01*
X49649019Y-37556194D01*
X49625000Y-37676943D01*
X49625000Y-37800057D01*
X49649019Y-37920806D01*
X49696132Y-38034548D01*
X49764531Y-38136914D01*
X49800000Y-38172383D01*
X49800000Y-38302183D01*
X49797824Y-38324278D01*
X49800000Y-38346372D01*
X49800000Y-38346382D01*
X49806511Y-38412492D01*
X49824792Y-38472756D01*
X49832243Y-38497318D01*
X49874029Y-38575494D01*
X49899852Y-38606959D01*
X49930263Y-38644015D01*
X49947434Y-38658107D01*
X57393883Y-46104557D01*
X57326576Y-46149531D01*
X57239521Y-46236586D01*
X57171122Y-46338952D01*
X57124009Y-46452694D01*
X57099990Y-46573443D01*
X57099990Y-46696557D01*
X57124009Y-46817306D01*
X57171122Y-46931048D01*
X57239521Y-47033414D01*
X57326576Y-47120469D01*
X57428942Y-47188868D01*
X57542684Y-47235981D01*
X57663433Y-47260000D01*
X57749991Y-47260000D01*
X57749990Y-55327896D01*
X57747814Y-55349990D01*
X57749990Y-55372084D01*
X57749990Y-55372094D01*
X57756501Y-55438204D01*
X57775728Y-55501586D01*
X57782233Y-55523030D01*
X57824019Y-55601206D01*
X57852138Y-55635469D01*
X57880253Y-55669727D01*
X57897424Y-55683819D01*
X58130192Y-55916587D01*
X58067694Y-55929019D01*
X57953952Y-55976132D01*
X57851586Y-56044531D01*
X57764531Y-56131586D01*
X57696132Y-56233952D01*
X57649019Y-56347694D01*
X57625000Y-56468443D01*
X57625000Y-56591557D01*
X57646571Y-56700000D01*
X55843652Y-56700000D01*
X55850981Y-56682306D01*
X55875000Y-56561557D01*
X55875000Y-56438443D01*
X55850981Y-56317694D01*
X55803868Y-56203952D01*
X55735469Y-56101586D01*
X55700000Y-56066117D01*
X55700000Y-54936395D01*
X56631164Y-54005232D01*
X56703952Y-54053868D01*
X56817694Y-54100981D01*
X56938443Y-54125000D01*
X57061557Y-54125000D01*
X57182306Y-54100981D01*
X57296048Y-54053868D01*
X57398414Y-53985469D01*
X57485469Y-53898414D01*
X57553868Y-53796048D01*
X57600981Y-53682306D01*
X57625000Y-53561557D01*
X57625000Y-53438443D01*
X57600981Y-53317694D01*
X57553868Y-53203952D01*
X57485469Y-53101586D01*
X57398414Y-53014531D01*
X57296048Y-52946132D01*
X57182306Y-52899019D01*
X57061557Y-52875000D01*
X56938443Y-52875000D01*
X56817694Y-52899019D01*
X56703952Y-52946132D01*
X56601586Y-53014531D01*
X56566117Y-53050000D01*
X56522094Y-53050000D01*
X56500000Y-53047824D01*
X56477905Y-53050000D01*
X56477895Y-53050000D01*
X56411785Y-53056511D01*
X56326959Y-53082243D01*
X56248783Y-53124029D01*
X56200000Y-53164064D01*
X56200000Y-51883883D01*
X56235469Y-51848414D01*
X56303868Y-51746048D01*
X56350981Y-51632306D01*
X56375000Y-51511557D01*
X56375000Y-51388443D01*
X56350981Y-51267694D01*
X56303868Y-51153952D01*
X56235469Y-51051586D01*
X56148414Y-50964531D01*
X56046048Y-50896132D01*
X55932306Y-50849019D01*
X55811557Y-50825000D01*
X55700000Y-50825000D01*
X55700000Y-50783883D01*
X55735469Y-50748414D01*
X55803868Y-50646048D01*
X55850981Y-50532306D01*
X55864474Y-50464474D01*
X55932306Y-50450981D01*
X56046048Y-50403868D01*
X56148414Y-50335469D01*
X56235469Y-50248414D01*
X56303868Y-50146048D01*
X56350981Y-50032306D01*
X56375000Y-49911557D01*
X56375000Y-49788443D01*
X56350981Y-49667694D01*
X56303868Y-49553952D01*
X56235469Y-49451586D01*
X56148414Y-49364531D01*
X56126667Y-49350000D01*
X56148414Y-49335469D01*
X56235469Y-49248414D01*
X56303868Y-49146048D01*
X56350981Y-49032306D01*
X56375000Y-48911557D01*
X56375000Y-48788443D01*
X56350981Y-48667694D01*
X56303868Y-48553952D01*
X56235469Y-48451586D01*
X56148414Y-48364531D01*
X56046048Y-48296132D01*
X55932306Y-48249019D01*
X55811557Y-48225000D01*
X55688443Y-48225000D01*
X55567694Y-48249019D01*
X55453952Y-48296132D01*
X55351586Y-48364531D01*
X55316117Y-48400000D01*
X54994263Y-48400000D01*
X54972169Y-48397824D01*
X54950075Y-48400000D01*
X54950064Y-48400000D01*
X54883954Y-48406511D01*
X54799128Y-48432243D01*
X54720952Y-48474029D01*
X54669601Y-48516172D01*
X54669597Y-48516176D01*
X54652432Y-48530263D01*
X54638345Y-48547428D01*
X53847413Y-49338360D01*
X53830243Y-49352452D01*
X53816152Y-49369622D01*
X53774009Y-49420973D01*
X53746535Y-49472374D01*
X53732223Y-49499149D01*
X53706491Y-49583975D01*
X53699980Y-49650085D01*
X53699980Y-49650095D01*
X53697804Y-49672189D01*
X53699980Y-49694283D01*
X53699981Y-53366511D01*
X52517287Y-54549205D01*
X52485469Y-54501586D01*
X52398414Y-54414531D01*
X52296048Y-54346132D01*
X52182306Y-54299019D01*
X52061557Y-54275000D01*
X51938443Y-54275000D01*
X51817694Y-54299019D01*
X51703952Y-54346132D01*
X51601586Y-54414531D01*
X51514531Y-54501586D01*
X51446132Y-54603952D01*
X51399019Y-54717694D01*
X51375000Y-54838443D01*
X51375000Y-54961557D01*
X51399019Y-55082306D01*
X51446132Y-55196048D01*
X51514531Y-55298414D01*
X51601586Y-55385469D01*
X51649205Y-55417287D01*
X51016523Y-56049970D01*
X46399290Y-56049970D01*
X46377196Y-56047794D01*
X46355101Y-56049970D01*
X46355091Y-56049970D01*
X46288981Y-56056481D01*
X46211450Y-56080000D01*
X46204155Y-56082213D01*
X46125979Y-56123999D01*
X46074628Y-56166142D01*
X46074624Y-56166146D01*
X46057459Y-56180233D01*
X46043372Y-56197398D01*
X45047404Y-57193367D01*
X45030233Y-57207459D01*
X45016142Y-57224629D01*
X44973999Y-57275980D01*
X44948570Y-57323555D01*
X44932213Y-57354156D01*
X44906481Y-57438982D01*
X44899970Y-57505092D01*
X44899970Y-57505102D01*
X44897794Y-57527196D01*
X44899970Y-57549290D01*
X44899971Y-64382162D01*
X44846048Y-64346132D01*
X44732306Y-64299019D01*
X44611557Y-64275000D01*
X44488443Y-64275000D01*
X44367694Y-64299019D01*
X44253952Y-64346132D01*
X44151586Y-64414531D01*
X44064531Y-64501586D01*
X43996132Y-64603952D01*
X43949019Y-64717694D01*
X43925000Y-64838443D01*
X43925000Y-64961557D01*
X43949019Y-65082306D01*
X43996132Y-65196048D01*
X44064531Y-65298414D01*
X44088350Y-65322233D01*
X44032306Y-65299019D01*
X43911557Y-65275000D01*
X43788443Y-65275000D01*
X43667694Y-65299019D01*
X43553952Y-65346132D01*
X43451586Y-65414531D01*
X43364531Y-65501586D01*
X43296132Y-65603952D01*
X43249019Y-65717694D01*
X43225000Y-65838443D01*
X43225000Y-65961557D01*
X43249019Y-66082306D01*
X43296132Y-66196048D01*
X43364531Y-66298414D01*
X43451586Y-66385469D01*
X43553952Y-66453868D01*
X43667694Y-66500981D01*
X43788443Y-66525000D01*
X43911557Y-66525000D01*
X44032306Y-66500981D01*
X44146048Y-66453868D01*
X44223879Y-66401863D01*
X44230263Y-66409642D01*
X44247434Y-66423734D01*
X45351291Y-67527592D01*
X45365378Y-67544757D01*
X45382543Y-67558844D01*
X45382547Y-67558848D01*
X45433898Y-67600991D01*
X45512074Y-67642777D01*
X45596900Y-67668509D01*
X45663010Y-67675020D01*
X45663020Y-67675020D01*
X45685114Y-67677196D01*
X45707209Y-67675020D01*
X49234744Y-67675020D01*
X48645014Y-68264751D01*
X48627843Y-68278843D01*
X48613752Y-68296013D01*
X48571609Y-68347364D01*
X48551223Y-68385504D01*
X48529823Y-68425540D01*
X48504091Y-68510366D01*
X48497580Y-68576476D01*
X48497580Y-68576486D01*
X48495404Y-68598580D01*
X48497580Y-68620675D01*
X48497580Y-69166881D01*
X48497027Y-69167251D01*
X48376776Y-69041865D01*
X48204039Y-68921149D01*
X48011071Y-68836451D01*
X47968067Y-68823412D01*
X47802580Y-68948213D01*
X47802580Y-69733420D01*
X47822580Y-69733420D01*
X47822580Y-69983420D01*
X47802580Y-69983420D01*
X47802580Y-71003420D01*
X47822580Y-71003420D01*
X47822580Y-71253420D01*
X47802580Y-71253420D01*
X47802580Y-72038627D01*
X47968067Y-72163428D01*
X48011071Y-72150389D01*
X48204039Y-72065691D01*
X48376776Y-71944975D01*
X48497027Y-71819589D01*
X48556796Y-71859526D01*
X48706936Y-71921716D01*
X48866325Y-71953420D01*
X49028835Y-71953420D01*
X49188224Y-71921716D01*
X49338364Y-71859526D01*
X49473487Y-71769239D01*
X49582580Y-71660146D01*
X49691673Y-71769239D01*
X49767580Y-71819959D01*
X49767580Y-72274725D01*
X49765404Y-72296820D01*
X49767580Y-72318914D01*
X49767580Y-72318924D01*
X49774091Y-72385034D01*
X49786215Y-72425001D01*
X49799823Y-72469860D01*
X49841609Y-72548036D01*
X49879937Y-72594738D01*
X49897843Y-72616557D01*
X49915014Y-72630649D01*
X51761947Y-74477583D01*
X51776034Y-74494748D01*
X51793199Y-74508835D01*
X51793203Y-74508839D01*
X51844554Y-74550982D01*
X51922730Y-74592768D01*
X52007556Y-74618500D01*
X52073666Y-74625011D01*
X52073676Y-74625011D01*
X52095770Y-74627187D01*
X52117864Y-74625011D01*
X67762895Y-74625011D01*
X67784989Y-74627187D01*
X67807083Y-74625011D01*
X67807094Y-74625011D01*
X67873204Y-74618500D01*
X67958030Y-74592768D01*
X68036205Y-74550982D01*
X68104726Y-74494748D01*
X68118818Y-74477577D01*
X69790916Y-72805479D01*
X71025000Y-72805479D01*
X71025000Y-73194521D01*
X71100898Y-73576086D01*
X71249778Y-73935513D01*
X71465917Y-74258989D01*
X71741011Y-74534083D01*
X72064487Y-74750222D01*
X72423914Y-74899102D01*
X72805479Y-74975000D01*
X73194521Y-74975000D01*
X73576086Y-74899102D01*
X73935513Y-74750222D01*
X74258989Y-74534083D01*
X74534083Y-74258989D01*
X74750222Y-73935513D01*
X74899102Y-73576086D01*
X74975000Y-73194521D01*
X74975000Y-72805479D01*
X74899102Y-72423914D01*
X74750222Y-72064487D01*
X74534083Y-71741011D01*
X74258989Y-71465917D01*
X73935513Y-71249778D01*
X73576086Y-71100898D01*
X73194521Y-71025000D01*
X72805479Y-71025000D01*
X72423914Y-71100898D01*
X72064487Y-71249778D01*
X71741011Y-71465917D01*
X71465917Y-71741011D01*
X71249778Y-72064487D01*
X71100898Y-72423914D01*
X71025000Y-72805479D01*
X69790916Y-72805479D01*
X70752572Y-71843824D01*
X70769737Y-71829737D01*
X70783824Y-71812572D01*
X70783828Y-71812568D01*
X70825971Y-71761217D01*
X70867757Y-71683041D01*
X70868877Y-71679348D01*
X70893489Y-71598215D01*
X70900000Y-71532105D01*
X70900000Y-71532094D01*
X70902176Y-71510000D01*
X70900000Y-71487906D01*
X70900000Y-70112411D01*
X70999108Y-70211519D01*
X71199745Y-70345581D01*
X71422681Y-70437924D01*
X71659348Y-70485000D01*
X71900652Y-70485000D01*
X72137319Y-70437924D01*
X72360255Y-70345581D01*
X72560892Y-70211519D01*
X72731519Y-70040892D01*
X72865581Y-69840255D01*
X72957924Y-69617319D01*
X73005000Y-69380652D01*
X73005000Y-69139348D01*
X72957924Y-68902681D01*
X72865581Y-68679745D01*
X72731519Y-68479108D01*
X72560892Y-68308481D01*
X72360255Y-68174419D01*
X72137319Y-68082076D01*
X71900652Y-68035000D01*
X71659348Y-68035000D01*
X71422681Y-68082076D01*
X71199745Y-68174419D01*
X70999108Y-68308481D01*
X70900000Y-68407589D01*
X70900000Y-68236395D01*
X71292425Y-67843970D01*
X71422681Y-67897924D01*
X71659348Y-67945000D01*
X71900652Y-67945000D01*
X72137319Y-67897924D01*
X72360255Y-67805581D01*
X72560892Y-67671519D01*
X72731519Y-67500892D01*
X72865581Y-67300255D01*
X72957924Y-67077319D01*
X73005000Y-66840652D01*
X73005000Y-66599348D01*
X72957924Y-66362681D01*
X72903970Y-66232425D01*
X74802573Y-64333823D01*
X74819737Y-64319737D01*
X74833824Y-64302572D01*
X74833828Y-64302568D01*
X74875971Y-64251217D01*
X74917757Y-64173041D01*
X74940433Y-64098288D01*
X74943489Y-64088215D01*
X74950000Y-64022105D01*
X74950000Y-64022095D01*
X74952176Y-64000000D01*
X74950000Y-63977906D01*
X74950000Y-46108801D01*
X74955214Y-46110961D01*
X75075963Y-46134980D01*
X75199077Y-46134980D01*
X75319826Y-46110961D01*
X75433568Y-46063848D01*
X75535934Y-45995449D01*
X75600000Y-45931383D01*
X75600001Y-72980426D01*
X75548601Y-73504637D01*
X75402046Y-73990053D01*
X75163998Y-74437757D01*
X74843522Y-74830698D01*
X74452830Y-75153907D01*
X74006795Y-75395077D01*
X73522419Y-75545016D01*
X72999288Y-75600000D01*
X33019564Y-75600000D01*
X32495363Y-75548601D01*
X32009947Y-75402046D01*
X31562243Y-75163998D01*
X31169302Y-74843522D01*
X30846093Y-74452830D01*
X30604923Y-74006795D01*
X30454984Y-73522419D01*
X30400000Y-72999288D01*
X30400000Y-72805479D01*
X31025000Y-72805479D01*
X31025000Y-73194521D01*
X31100898Y-73576086D01*
X31249778Y-73935513D01*
X31465917Y-74258989D01*
X31741011Y-74534083D01*
X32064487Y-74750222D01*
X32423914Y-74899102D01*
X32805479Y-74975000D01*
X33194521Y-74975000D01*
X33576086Y-74899102D01*
X33935513Y-74750222D01*
X34258989Y-74534083D01*
X34534083Y-74258989D01*
X34750222Y-73935513D01*
X34899102Y-73576086D01*
X34975000Y-73194521D01*
X34975000Y-72805479D01*
X34899102Y-72423914D01*
X34799589Y-72183669D01*
X38520000Y-72183669D01*
X38520000Y-72336331D01*
X38549783Y-72486059D01*
X38608204Y-72627100D01*
X38693018Y-72754034D01*
X38800966Y-72861982D01*
X38927900Y-72946796D01*
X39068941Y-73005217D01*
X39218669Y-73035000D01*
X39371331Y-73035000D01*
X39521059Y-73005217D01*
X39662100Y-72946796D01*
X39789034Y-72861982D01*
X39896982Y-72754034D01*
X39981796Y-72627100D01*
X40040217Y-72486059D01*
X40070000Y-72336331D01*
X40070000Y-72183669D01*
X40040217Y-72033941D01*
X39981796Y-71892900D01*
X39896982Y-71765966D01*
X39789034Y-71658018D01*
X39662100Y-71573204D01*
X39521059Y-71514783D01*
X39371331Y-71485000D01*
X39218669Y-71485000D01*
X39068941Y-71514783D01*
X38927900Y-71573204D01*
X38800966Y-71658018D01*
X38693018Y-71765966D01*
X38608204Y-71892900D01*
X38549783Y-72033941D01*
X38520000Y-72183669D01*
X34799589Y-72183669D01*
X34750222Y-72064487D01*
X34534083Y-71741011D01*
X34258989Y-71465917D01*
X33935513Y-71249778D01*
X33576086Y-71100898D01*
X33194521Y-71025000D01*
X32805479Y-71025000D01*
X32423914Y-71100898D01*
X32064487Y-71249778D01*
X31741011Y-71465917D01*
X31465917Y-71741011D01*
X31249778Y-72064487D01*
X31100898Y-72423914D01*
X31025000Y-72805479D01*
X30400000Y-72805479D01*
X30400000Y-69777165D01*
X44312580Y-69777165D01*
X44312580Y-69939675D01*
X44344284Y-70099064D01*
X44406474Y-70249204D01*
X44496761Y-70384327D01*
X44605854Y-70493420D01*
X44496761Y-70602513D01*
X44406474Y-70737636D01*
X44344284Y-70887776D01*
X44312580Y-71047165D01*
X44312580Y-71209675D01*
X44344284Y-71369064D01*
X44406474Y-71519204D01*
X44496761Y-71654327D01*
X44611673Y-71769239D01*
X44746796Y-71859526D01*
X44896936Y-71921716D01*
X45056325Y-71953420D01*
X45218835Y-71953420D01*
X45378224Y-71921716D01*
X45528364Y-71859526D01*
X45663487Y-71769239D01*
X45772580Y-71660146D01*
X45881673Y-71769239D01*
X46016796Y-71859526D01*
X46166936Y-71921716D01*
X46326325Y-71953420D01*
X46488835Y-71953420D01*
X46648224Y-71921716D01*
X46798364Y-71859526D01*
X46858133Y-71819589D01*
X46978384Y-71944975D01*
X47151121Y-72065691D01*
X47344089Y-72150389D01*
X47387093Y-72163428D01*
X47552580Y-72038627D01*
X47552580Y-71253420D01*
X47532580Y-71253420D01*
X47532580Y-71003420D01*
X47552580Y-71003420D01*
X47552580Y-69983420D01*
X47532580Y-69983420D01*
X47532580Y-69733420D01*
X47552580Y-69733420D01*
X47552580Y-68948213D01*
X47387093Y-68823412D01*
X47344089Y-68836451D01*
X47151121Y-68921149D01*
X46978384Y-69041865D01*
X46858133Y-69167251D01*
X46798364Y-69127314D01*
X46648224Y-69065124D01*
X46488835Y-69033420D01*
X46326325Y-69033420D01*
X46166936Y-69065124D01*
X46016796Y-69127314D01*
X45881673Y-69217601D01*
X45772580Y-69326694D01*
X45663487Y-69217601D01*
X45528364Y-69127314D01*
X45378224Y-69065124D01*
X45218835Y-69033420D01*
X45056325Y-69033420D01*
X44896936Y-69065124D01*
X44746796Y-69127314D01*
X44611673Y-69217601D01*
X44496761Y-69332513D01*
X44406474Y-69467636D01*
X44344284Y-69617776D01*
X44312580Y-69777165D01*
X30400000Y-69777165D01*
X30400000Y-64720000D01*
X30770767Y-64720000D01*
X30787661Y-64891530D01*
X30837695Y-65056468D01*
X30918944Y-65208476D01*
X31028288Y-65341712D01*
X31161524Y-65451056D01*
X31313532Y-65532305D01*
X31478470Y-65582339D01*
X31607021Y-65595000D01*
X32292979Y-65595000D01*
X32421530Y-65582339D01*
X32586468Y-65532305D01*
X32738476Y-65451056D01*
X32871712Y-65341712D01*
X32981056Y-65208476D01*
X33062305Y-65056468D01*
X33112339Y-64891530D01*
X33129233Y-64720000D01*
X34700767Y-64720000D01*
X34717661Y-64891530D01*
X34767695Y-65056468D01*
X34848944Y-65208476D01*
X34958288Y-65341712D01*
X35091524Y-65451056D01*
X35243532Y-65532305D01*
X35408470Y-65582339D01*
X35537021Y-65595000D01*
X36722979Y-65595000D01*
X36851530Y-65582339D01*
X37016468Y-65532305D01*
X37168476Y-65451056D01*
X37301712Y-65341712D01*
X37411056Y-65208476D01*
X37492305Y-65056468D01*
X37542339Y-64891530D01*
X37547567Y-64838443D01*
X40625000Y-64838443D01*
X40625000Y-64961557D01*
X40649019Y-65082306D01*
X40696132Y-65196048D01*
X40764531Y-65298414D01*
X40851586Y-65385469D01*
X40953952Y-65453868D01*
X41067694Y-65500981D01*
X41188443Y-65525000D01*
X41311557Y-65525000D01*
X41432306Y-65500981D01*
X41546048Y-65453868D01*
X41648414Y-65385469D01*
X41735469Y-65298414D01*
X41803868Y-65196048D01*
X41850981Y-65082306D01*
X41875000Y-64961557D01*
X41875000Y-64838443D01*
X41850981Y-64717694D01*
X41803868Y-64603952D01*
X41735469Y-64501586D01*
X41648414Y-64414531D01*
X41546048Y-64346132D01*
X41432306Y-64299019D01*
X41311557Y-64275000D01*
X41188443Y-64275000D01*
X41067694Y-64299019D01*
X40953952Y-64346132D01*
X40851586Y-64414531D01*
X40764531Y-64501586D01*
X40696132Y-64603952D01*
X40649019Y-64717694D01*
X40625000Y-64838443D01*
X37547567Y-64838443D01*
X37559233Y-64720000D01*
X37542339Y-64548470D01*
X37492305Y-64383532D01*
X37411056Y-64231524D01*
X37301712Y-64098288D01*
X37168476Y-63988944D01*
X37016468Y-63907695D01*
X36851530Y-63857661D01*
X36722979Y-63845000D01*
X36029351Y-63845000D01*
X36046224Y-63833726D01*
X36143726Y-63736224D01*
X36220332Y-63621574D01*
X36273099Y-63494182D01*
X36300000Y-63358944D01*
X36300000Y-63221056D01*
X36273099Y-63085818D01*
X36220332Y-62958426D01*
X36143726Y-62843776D01*
X36138393Y-62838443D01*
X40625000Y-62838443D01*
X40625000Y-62961557D01*
X40649019Y-63082306D01*
X40696132Y-63196048D01*
X40764531Y-63298414D01*
X40851586Y-63385469D01*
X40953952Y-63453868D01*
X41067694Y-63500981D01*
X41188443Y-63525000D01*
X41311557Y-63525000D01*
X41432306Y-63500981D01*
X41546048Y-63453868D01*
X41648414Y-63385469D01*
X41735469Y-63298414D01*
X41803868Y-63196048D01*
X41850981Y-63082306D01*
X41875000Y-62961557D01*
X41875000Y-62838443D01*
X41850981Y-62717694D01*
X41803868Y-62603952D01*
X41735469Y-62501586D01*
X41648414Y-62414531D01*
X41546048Y-62346132D01*
X41432306Y-62299019D01*
X41311557Y-62275000D01*
X41188443Y-62275000D01*
X41067694Y-62299019D01*
X40953952Y-62346132D01*
X40851586Y-62414531D01*
X40764531Y-62501586D01*
X40696132Y-62603952D01*
X40649019Y-62717694D01*
X40625000Y-62838443D01*
X36138393Y-62838443D01*
X36046224Y-62746274D01*
X35931574Y-62669668D01*
X35804182Y-62616901D01*
X35668944Y-62590000D01*
X35531056Y-62590000D01*
X35395818Y-62616901D01*
X35268426Y-62669668D01*
X35153776Y-62746274D01*
X35056274Y-62843776D01*
X34979668Y-62958426D01*
X34926901Y-63085818D01*
X34900000Y-63221056D01*
X34900000Y-63358944D01*
X34926901Y-63494182D01*
X34979668Y-63621574D01*
X35056274Y-63736224D01*
X35153776Y-63833726D01*
X35257939Y-63903325D01*
X35243532Y-63907695D01*
X35091524Y-63988944D01*
X34958288Y-64098288D01*
X34848944Y-64231524D01*
X34767695Y-64383532D01*
X34717661Y-64548470D01*
X34700767Y-64720000D01*
X33129233Y-64720000D01*
X33112339Y-64548470D01*
X33062305Y-64383532D01*
X32981056Y-64231524D01*
X32871712Y-64098288D01*
X32738476Y-63988944D01*
X32586468Y-63907695D01*
X32421530Y-63857661D01*
X32292979Y-63845000D01*
X31607021Y-63845000D01*
X31478470Y-63857661D01*
X31313532Y-63907695D01*
X31161524Y-63988944D01*
X31028288Y-64098288D01*
X30918944Y-64231524D01*
X30837695Y-64383532D01*
X30787661Y-64548470D01*
X30770767Y-64720000D01*
X30400000Y-64720000D01*
X30400000Y-61338443D01*
X43125000Y-61338443D01*
X43125000Y-61461557D01*
X43149019Y-61582306D01*
X43196132Y-61696048D01*
X43264531Y-61798414D01*
X43351586Y-61885469D01*
X43453952Y-61953868D01*
X43567694Y-62000981D01*
X43688443Y-62025000D01*
X43811557Y-62025000D01*
X43932306Y-62000981D01*
X44046048Y-61953868D01*
X44148414Y-61885469D01*
X44235469Y-61798414D01*
X44303868Y-61696048D01*
X44350981Y-61582306D01*
X44375000Y-61461557D01*
X44375000Y-61338443D01*
X44350981Y-61217694D01*
X44303868Y-61103952D01*
X44235469Y-61001586D01*
X44148414Y-60914531D01*
X44046048Y-60846132D01*
X43932306Y-60799019D01*
X43811557Y-60775000D01*
X43688443Y-60775000D01*
X43567694Y-60799019D01*
X43453952Y-60846132D01*
X43351586Y-60914531D01*
X43264531Y-61001586D01*
X43196132Y-61103952D01*
X43149019Y-61217694D01*
X43125000Y-61338443D01*
X30400000Y-61338443D01*
X30400000Y-56080000D01*
X30770767Y-56080000D01*
X30787661Y-56251530D01*
X30837695Y-56416468D01*
X30918944Y-56568476D01*
X31028288Y-56701712D01*
X31161524Y-56811056D01*
X31313532Y-56892305D01*
X31478470Y-56942339D01*
X31607021Y-56955000D01*
X32292979Y-56955000D01*
X32421530Y-56942339D01*
X32586468Y-56892305D01*
X32738476Y-56811056D01*
X32871712Y-56701712D01*
X32981056Y-56568476D01*
X33062305Y-56416468D01*
X33112339Y-56251530D01*
X33129233Y-56080000D01*
X34700767Y-56080000D01*
X34717661Y-56251530D01*
X34767695Y-56416468D01*
X34848944Y-56568476D01*
X34958288Y-56701712D01*
X35091524Y-56811056D01*
X35243532Y-56892305D01*
X35257939Y-56896675D01*
X35153776Y-56966274D01*
X35056274Y-57063776D01*
X34979668Y-57178426D01*
X34926901Y-57305818D01*
X34900000Y-57441056D01*
X34900000Y-57578944D01*
X34926901Y-57714182D01*
X34979668Y-57841574D01*
X35056274Y-57956224D01*
X35153776Y-58053726D01*
X35268426Y-58130332D01*
X35395818Y-58183099D01*
X35531056Y-58210000D01*
X35668944Y-58210000D01*
X35804182Y-58183099D01*
X35931574Y-58130332D01*
X36046224Y-58053726D01*
X36143726Y-57956224D01*
X36220332Y-57841574D01*
X36273099Y-57714182D01*
X36300000Y-57578944D01*
X36300000Y-57441056D01*
X36273099Y-57305818D01*
X36220332Y-57178426D01*
X36143726Y-57063776D01*
X36046224Y-56966274D01*
X36029351Y-56955000D01*
X36722979Y-56955000D01*
X36851530Y-56942339D01*
X37016468Y-56892305D01*
X37168476Y-56811056D01*
X37301712Y-56701712D01*
X37411056Y-56568476D01*
X37492305Y-56416468D01*
X37542339Y-56251530D01*
X37559233Y-56080000D01*
X37542339Y-55908470D01*
X37521097Y-55838443D01*
X40625000Y-55838443D01*
X40625000Y-55961557D01*
X40649019Y-56082306D01*
X40696132Y-56196048D01*
X40764531Y-56298414D01*
X40851586Y-56385469D01*
X40953952Y-56453868D01*
X41067694Y-56500981D01*
X41188443Y-56525000D01*
X41311557Y-56525000D01*
X41432306Y-56500981D01*
X41546048Y-56453868D01*
X41648414Y-56385469D01*
X41735469Y-56298414D01*
X41803868Y-56196048D01*
X41850981Y-56082306D01*
X41875000Y-55961557D01*
X41875000Y-55838443D01*
X41850981Y-55717694D01*
X41803868Y-55603952D01*
X41735469Y-55501586D01*
X41648414Y-55414531D01*
X41546048Y-55346132D01*
X41527485Y-55338443D01*
X43875000Y-55338443D01*
X43875000Y-55461557D01*
X43899019Y-55582306D01*
X43946132Y-55696048D01*
X44014531Y-55798414D01*
X44101586Y-55885469D01*
X44203952Y-55953868D01*
X44317694Y-56000981D01*
X44438443Y-56025000D01*
X44561557Y-56025000D01*
X44682306Y-56000981D01*
X44796048Y-55953868D01*
X44898414Y-55885469D01*
X44985469Y-55798414D01*
X45053868Y-55696048D01*
X45100981Y-55582306D01*
X45125000Y-55461557D01*
X45125000Y-55338443D01*
X45100981Y-55217694D01*
X45053868Y-55103952D01*
X44985469Y-55001586D01*
X44898414Y-54914531D01*
X44796048Y-54846132D01*
X44682306Y-54799019D01*
X44561557Y-54775000D01*
X44438443Y-54775000D01*
X44317694Y-54799019D01*
X44203952Y-54846132D01*
X44101586Y-54914531D01*
X44014531Y-55001586D01*
X43946132Y-55103952D01*
X43899019Y-55217694D01*
X43875000Y-55338443D01*
X41527485Y-55338443D01*
X41432306Y-55299019D01*
X41311557Y-55275000D01*
X41188443Y-55275000D01*
X41067694Y-55299019D01*
X40953952Y-55346132D01*
X40851586Y-55414531D01*
X40764531Y-55501586D01*
X40696132Y-55603952D01*
X40649019Y-55717694D01*
X40625000Y-55838443D01*
X37521097Y-55838443D01*
X37492305Y-55743532D01*
X37411056Y-55591524D01*
X37301712Y-55458288D01*
X37168476Y-55348944D01*
X37016468Y-55267695D01*
X36851530Y-55217661D01*
X36722979Y-55205000D01*
X35537021Y-55205000D01*
X35408470Y-55217661D01*
X35243532Y-55267695D01*
X35091524Y-55348944D01*
X34958288Y-55458288D01*
X34848944Y-55591524D01*
X34767695Y-55743532D01*
X34717661Y-55908470D01*
X34700767Y-56080000D01*
X33129233Y-56080000D01*
X33112339Y-55908470D01*
X33062305Y-55743532D01*
X32981056Y-55591524D01*
X32871712Y-55458288D01*
X32738476Y-55348944D01*
X32586468Y-55267695D01*
X32421530Y-55217661D01*
X32292979Y-55205000D01*
X31607021Y-55205000D01*
X31478470Y-55217661D01*
X31313532Y-55267695D01*
X31161524Y-55348944D01*
X31028288Y-55458288D01*
X30918944Y-55591524D01*
X30837695Y-55743532D01*
X30787661Y-55908470D01*
X30770767Y-56080000D01*
X30400000Y-56080000D01*
X30400000Y-53150000D01*
X34323186Y-53150000D01*
X34323186Y-53650000D01*
X34325594Y-53674450D01*
X34325594Y-53699009D01*
X34332834Y-53772522D01*
X34351956Y-53868655D01*
X34373399Y-53939341D01*
X34410908Y-54029897D01*
X34445730Y-54095045D01*
X34500186Y-54176544D01*
X34547047Y-54233645D01*
X34616355Y-54302953D01*
X34673456Y-54349814D01*
X34754955Y-54404270D01*
X34820103Y-54439092D01*
X34910659Y-54476601D01*
X34981345Y-54498044D01*
X35077478Y-54517166D01*
X35150991Y-54524406D01*
X35175550Y-54524406D01*
X35200000Y-54526814D01*
X35700000Y-54526814D01*
X35773513Y-54519574D01*
X35844200Y-54498131D01*
X35850000Y-54495031D01*
X35855800Y-54498131D01*
X35926487Y-54519574D01*
X36000000Y-54526814D01*
X36500000Y-54526814D01*
X36524450Y-54524406D01*
X36549009Y-54524406D01*
X36622522Y-54517166D01*
X36718655Y-54498044D01*
X36789341Y-54476601D01*
X36879897Y-54439092D01*
X36945045Y-54404270D01*
X37026544Y-54349814D01*
X37083645Y-54302953D01*
X37152953Y-54233645D01*
X37199814Y-54176544D01*
X37254270Y-54095045D01*
X37289092Y-54029897D01*
X37326601Y-53939341D01*
X37348044Y-53868655D01*
X37367166Y-53772522D01*
X37374406Y-53699009D01*
X37374406Y-53674450D01*
X37376814Y-53650000D01*
X37376814Y-53150000D01*
X37374406Y-53125550D01*
X37374406Y-53100991D01*
X37367166Y-53027478D01*
X37348044Y-52931345D01*
X37326601Y-52860659D01*
X37289092Y-52770103D01*
X37254270Y-52704955D01*
X37199814Y-52623456D01*
X37152953Y-52566355D01*
X37083645Y-52497047D01*
X37026544Y-52450186D01*
X37000000Y-52432450D01*
X37000000Y-51356464D01*
X37009203Y-51352652D01*
X37030468Y-51338443D01*
X43875000Y-51338443D01*
X43875000Y-51461557D01*
X43899019Y-51582306D01*
X43946132Y-51696048D01*
X44014531Y-51798414D01*
X44101586Y-51885469D01*
X44203952Y-51953868D01*
X44317694Y-52000981D01*
X44438443Y-52025000D01*
X44561557Y-52025000D01*
X44682306Y-52000981D01*
X44796048Y-51953868D01*
X44898414Y-51885469D01*
X44985469Y-51798414D01*
X45000000Y-51776667D01*
X45014531Y-51798414D01*
X45101586Y-51885469D01*
X45203952Y-51953868D01*
X45300001Y-51993652D01*
X45300000Y-54716117D01*
X45264531Y-54751586D01*
X45196132Y-54853952D01*
X45149019Y-54967694D01*
X45125000Y-55088443D01*
X45125000Y-55211557D01*
X45149019Y-55332306D01*
X45196132Y-55446048D01*
X45264531Y-55548414D01*
X45351586Y-55635469D01*
X45453952Y-55703868D01*
X45567694Y-55750981D01*
X45688443Y-55775000D01*
X45811557Y-55775000D01*
X45932306Y-55750981D01*
X46046048Y-55703868D01*
X46148414Y-55635469D01*
X46235469Y-55548414D01*
X46303868Y-55446048D01*
X46327446Y-55389124D01*
X46425681Y-55389124D01*
X46546430Y-55365105D01*
X46660172Y-55317992D01*
X46762538Y-55249593D01*
X46849593Y-55162538D01*
X46917992Y-55060172D01*
X46965105Y-54946430D01*
X46989124Y-54825681D01*
X46989124Y-54702567D01*
X46965105Y-54581818D01*
X46917992Y-54468076D01*
X46849593Y-54365710D01*
X46762538Y-54278655D01*
X46660172Y-54210256D01*
X46546430Y-54163143D01*
X46425681Y-54139124D01*
X46302567Y-54139124D01*
X46200000Y-54159526D01*
X46200000Y-51672091D01*
X46202176Y-51649999D01*
X46200000Y-51627907D01*
X46200000Y-51627895D01*
X46193489Y-51561785D01*
X46167757Y-51476959D01*
X46125971Y-51398784D01*
X46125000Y-51397601D01*
X46125000Y-51338443D01*
X46100981Y-51217694D01*
X46084588Y-51178117D01*
X46148414Y-51135469D01*
X46235469Y-51048414D01*
X46303868Y-50946048D01*
X46350981Y-50832306D01*
X46375000Y-50711557D01*
X46375000Y-50588443D01*
X46350981Y-50467694D01*
X46303868Y-50353952D01*
X46235469Y-50251586D01*
X46148414Y-50164531D01*
X46046048Y-50096132D01*
X45932306Y-50049019D01*
X45811557Y-50025000D01*
X45688443Y-50025000D01*
X45567694Y-50049019D01*
X45453952Y-50096132D01*
X45351586Y-50164531D01*
X45264531Y-50251586D01*
X45196132Y-50353952D01*
X45149019Y-50467694D01*
X45125000Y-50588443D01*
X45125000Y-50711557D01*
X45149019Y-50832306D01*
X45165412Y-50871883D01*
X45101586Y-50914531D01*
X45014531Y-51001586D01*
X45000000Y-51023333D01*
X44985469Y-51001586D01*
X44898414Y-50914531D01*
X44796048Y-50846132D01*
X44682306Y-50799019D01*
X44561557Y-50775000D01*
X44438443Y-50775000D01*
X44317694Y-50799019D01*
X44203952Y-50846132D01*
X44101586Y-50914531D01*
X44014531Y-51001586D01*
X43946132Y-51103952D01*
X43899019Y-51217694D01*
X43875000Y-51338443D01*
X37030468Y-51338443D01*
X37185272Y-51235007D01*
X37335007Y-51085272D01*
X37452652Y-50909203D01*
X37533688Y-50713566D01*
X37575000Y-50505878D01*
X37575000Y-50294122D01*
X37533688Y-50086434D01*
X37452652Y-49890797D01*
X37335007Y-49714728D01*
X37185272Y-49564993D01*
X37009203Y-49447348D01*
X36894896Y-49400000D01*
X37009203Y-49352652D01*
X37185272Y-49235007D01*
X37335007Y-49085272D01*
X37452652Y-48909203D01*
X37533688Y-48713566D01*
X37575000Y-48505878D01*
X37575000Y-48294122D01*
X37538407Y-48110158D01*
X38867625Y-49439377D01*
X38882499Y-49457501D01*
X38954827Y-49516859D01*
X38983727Y-49532306D01*
X39037345Y-49560966D01*
X39126884Y-49588127D01*
X39220000Y-49597298D01*
X39243332Y-49595000D01*
X49091117Y-49595000D01*
X49101586Y-49605469D01*
X49203952Y-49673868D01*
X49317694Y-49720981D01*
X49438443Y-49745000D01*
X49561557Y-49745000D01*
X49682306Y-49720981D01*
X49796048Y-49673868D01*
X49800001Y-49671227D01*
X49800001Y-49963603D01*
X48447434Y-51316171D01*
X48430263Y-51330263D01*
X48416172Y-51347433D01*
X48374029Y-51398784D01*
X48340476Y-51461557D01*
X48332243Y-51476960D01*
X48306511Y-51561786D01*
X48300000Y-51627896D01*
X48300000Y-51627906D01*
X48297824Y-51650000D01*
X48300000Y-51672095D01*
X48300001Y-54466116D01*
X48264531Y-54501586D01*
X48196132Y-54603952D01*
X48149019Y-54717694D01*
X48125000Y-54838443D01*
X48125000Y-54961557D01*
X48149019Y-55082306D01*
X48196132Y-55196048D01*
X48264531Y-55298414D01*
X48351586Y-55385469D01*
X48453952Y-55453868D01*
X48567694Y-55500981D01*
X48688443Y-55525000D01*
X48811557Y-55525000D01*
X48932306Y-55500981D01*
X49046048Y-55453868D01*
X49148414Y-55385469D01*
X49235469Y-55298414D01*
X49303868Y-55196048D01*
X49350981Y-55082306D01*
X49375000Y-54961557D01*
X49375000Y-54838443D01*
X49350981Y-54717694D01*
X49303868Y-54603952D01*
X49235469Y-54501586D01*
X49200000Y-54466117D01*
X49200000Y-52338443D01*
X50125000Y-52338443D01*
X50125000Y-52461557D01*
X50149019Y-52582306D01*
X50196132Y-52696048D01*
X50264531Y-52798414D01*
X50351586Y-52885469D01*
X50453952Y-52953868D01*
X50567694Y-53000981D01*
X50688443Y-53025000D01*
X50811557Y-53025000D01*
X50932306Y-53000981D01*
X51046048Y-52953868D01*
X51148414Y-52885469D01*
X51235469Y-52798414D01*
X51303868Y-52696048D01*
X51350981Y-52582306D01*
X51375000Y-52461557D01*
X51375000Y-52338443D01*
X51350981Y-52217694D01*
X51303868Y-52103952D01*
X51235469Y-52001586D01*
X51148414Y-51914531D01*
X51046048Y-51846132D01*
X50932306Y-51799019D01*
X50811557Y-51775000D01*
X50688443Y-51775000D01*
X50567694Y-51799019D01*
X50453952Y-51846132D01*
X50351586Y-51914531D01*
X50264531Y-52001586D01*
X50196132Y-52103952D01*
X50149019Y-52217694D01*
X50125000Y-52338443D01*
X49200000Y-52338443D01*
X49200000Y-51836395D01*
X50552572Y-50483824D01*
X50569737Y-50469737D01*
X50583824Y-50452572D01*
X50583828Y-50452568D01*
X50625971Y-50401217D01*
X50667757Y-50323041D01*
X50674746Y-50300000D01*
X50693489Y-50238215D01*
X50700000Y-50172105D01*
X50700000Y-50172093D01*
X50702176Y-50150001D01*
X50700000Y-50127909D01*
X50700000Y-47588443D01*
X51320000Y-47588443D01*
X51320000Y-47711557D01*
X51344019Y-47832306D01*
X51391132Y-47946048D01*
X51459531Y-48048414D01*
X51546586Y-48135469D01*
X51648952Y-48203868D01*
X51762694Y-48250981D01*
X51883443Y-48275000D01*
X52006557Y-48275000D01*
X52127306Y-48250981D01*
X52241048Y-48203868D01*
X52343414Y-48135469D01*
X52430469Y-48048414D01*
X52498868Y-47946048D01*
X52545981Y-47832306D01*
X52570000Y-47711557D01*
X52570000Y-47588443D01*
X53875000Y-47588443D01*
X53875000Y-47711557D01*
X53899019Y-47832306D01*
X53946132Y-47946048D01*
X54014531Y-48048414D01*
X54101586Y-48135469D01*
X54203952Y-48203868D01*
X54317694Y-48250981D01*
X54438443Y-48275000D01*
X54561557Y-48275000D01*
X54682306Y-48250981D01*
X54796048Y-48203868D01*
X54898414Y-48135469D01*
X54985469Y-48048414D01*
X55053868Y-47946048D01*
X55100981Y-47832306D01*
X55125000Y-47711557D01*
X55125000Y-47588443D01*
X55100981Y-47467694D01*
X55053868Y-47353952D01*
X54985469Y-47251586D01*
X54898414Y-47164531D01*
X54796048Y-47096132D01*
X54682306Y-47049019D01*
X54561557Y-47025000D01*
X54438443Y-47025000D01*
X54317694Y-47049019D01*
X54203952Y-47096132D01*
X54101586Y-47164531D01*
X54014531Y-47251586D01*
X53946132Y-47353952D01*
X53899019Y-47467694D01*
X53875000Y-47588443D01*
X52570000Y-47588443D01*
X52545981Y-47467694D01*
X52498868Y-47353952D01*
X52430469Y-47251586D01*
X52343414Y-47164531D01*
X52241048Y-47096132D01*
X52127306Y-47049019D01*
X52006557Y-47025000D01*
X51883443Y-47025000D01*
X51762694Y-47049019D01*
X51648952Y-47096132D01*
X51546586Y-47164531D01*
X51459531Y-47251586D01*
X51391132Y-47353952D01*
X51344019Y-47467694D01*
X51320000Y-47588443D01*
X50700000Y-47588443D01*
X50700000Y-44268383D01*
X50735469Y-44232914D01*
X50803868Y-44130548D01*
X50850981Y-44016806D01*
X50875000Y-43896057D01*
X50875000Y-43772943D01*
X50850981Y-43652194D01*
X50803868Y-43538452D01*
X50735469Y-43436086D01*
X50648414Y-43349031D01*
X50546048Y-43280632D01*
X50432306Y-43233519D01*
X50311557Y-43209500D01*
X50188443Y-43209500D01*
X50067694Y-43233519D01*
X49953952Y-43280632D01*
X49851586Y-43349031D01*
X49764531Y-43436086D01*
X49696132Y-43538452D01*
X49649019Y-43652194D01*
X49625000Y-43772943D01*
X49625000Y-43896057D01*
X49649019Y-44016806D01*
X49696132Y-44130548D01*
X49764531Y-44232914D01*
X49800000Y-44268383D01*
X49800001Y-48568773D01*
X49796048Y-48566132D01*
X49682306Y-48519019D01*
X49561557Y-48495000D01*
X49438443Y-48495000D01*
X49317694Y-48519019D01*
X49203952Y-48566132D01*
X49101586Y-48634531D01*
X49091117Y-48645000D01*
X39416752Y-48645000D01*
X38360194Y-47588443D01*
X48349990Y-47588443D01*
X48349990Y-47711557D01*
X48374009Y-47832306D01*
X48421122Y-47946048D01*
X48489521Y-48048414D01*
X48576576Y-48135469D01*
X48678942Y-48203868D01*
X48792684Y-48250981D01*
X48913433Y-48275000D01*
X49036547Y-48275000D01*
X49157296Y-48250981D01*
X49271038Y-48203868D01*
X49373404Y-48135469D01*
X49460459Y-48048414D01*
X49528858Y-47946048D01*
X49575971Y-47832306D01*
X49599990Y-47711557D01*
X49599990Y-47588443D01*
X49575971Y-47467694D01*
X49528858Y-47353952D01*
X49460459Y-47251586D01*
X49373404Y-47164531D01*
X49271038Y-47096132D01*
X49157296Y-47049019D01*
X49036547Y-47025000D01*
X48913433Y-47025000D01*
X48792684Y-47049019D01*
X48678942Y-47096132D01*
X48576576Y-47164531D01*
X48489521Y-47251586D01*
X48421122Y-47353952D01*
X48374009Y-47467694D01*
X48349990Y-47588443D01*
X38360194Y-47588443D01*
X37519520Y-46747770D01*
X37533688Y-46713566D01*
X37575000Y-46505878D01*
X37575000Y-46294122D01*
X37533688Y-46086434D01*
X37452652Y-45890797D01*
X37407799Y-45823669D01*
X40375000Y-45823669D01*
X40375000Y-45976331D01*
X40404783Y-46126059D01*
X40463204Y-46267100D01*
X40548018Y-46394034D01*
X40655966Y-46501982D01*
X40782900Y-46586796D01*
X40923941Y-46645217D01*
X41073669Y-46675000D01*
X41226331Y-46675000D01*
X41376059Y-46645217D01*
X41517100Y-46586796D01*
X41644034Y-46501982D01*
X41751982Y-46394034D01*
X41836796Y-46267100D01*
X41895217Y-46126059D01*
X41925000Y-45976331D01*
X41925000Y-45823669D01*
X41895217Y-45673941D01*
X41836796Y-45532900D01*
X41751982Y-45405966D01*
X41644034Y-45298018D01*
X41517100Y-45213204D01*
X41376059Y-45154783D01*
X41226331Y-45125000D01*
X41073669Y-45125000D01*
X40923941Y-45154783D01*
X40782900Y-45213204D01*
X40655966Y-45298018D01*
X40548018Y-45405966D01*
X40463204Y-45532900D01*
X40404783Y-45673941D01*
X40375000Y-45823669D01*
X37407799Y-45823669D01*
X37335007Y-45714728D01*
X37185272Y-45564993D01*
X37009203Y-45447348D01*
X36813566Y-45366312D01*
X36605878Y-45325000D01*
X36394122Y-45325000D01*
X36186434Y-45366312D01*
X35990797Y-45447348D01*
X35814728Y-45564993D01*
X35664993Y-45714728D01*
X35547348Y-45890797D01*
X35466312Y-46086434D01*
X35425000Y-46294122D01*
X35425000Y-46505878D01*
X35466312Y-46713566D01*
X35470124Y-46722770D01*
X34863819Y-47329076D01*
X34844737Y-47344736D01*
X34782255Y-47420871D01*
X34745478Y-47489676D01*
X34735826Y-47507733D01*
X34707235Y-47601983D01*
X34697581Y-47700000D01*
X34700001Y-47724570D01*
X34700000Y-52432450D01*
X34673456Y-52450186D01*
X34616355Y-52497047D01*
X34547047Y-52566355D01*
X34500186Y-52623456D01*
X34445730Y-52704955D01*
X34410908Y-52770103D01*
X34373399Y-52860659D01*
X34351956Y-52931345D01*
X34332834Y-53027478D01*
X34325594Y-53100991D01*
X34325594Y-53125550D01*
X34323186Y-53150000D01*
X30400000Y-53150000D01*
X30400000Y-46294122D01*
X32125000Y-46294122D01*
X32125000Y-46505878D01*
X32166312Y-46713566D01*
X32247348Y-46909203D01*
X32364993Y-47085272D01*
X32514728Y-47235007D01*
X32690797Y-47352652D01*
X32805104Y-47400000D01*
X32690797Y-47447348D01*
X32514728Y-47564993D01*
X32364993Y-47714728D01*
X32247348Y-47890797D01*
X32166312Y-48086434D01*
X32125000Y-48294122D01*
X32125000Y-48505878D01*
X32166312Y-48713566D01*
X32247348Y-48909203D01*
X32364993Y-49085272D01*
X32514728Y-49235007D01*
X32690797Y-49352652D01*
X32805104Y-49400000D01*
X32690797Y-49447348D01*
X32514728Y-49564993D01*
X32364993Y-49714728D01*
X32247348Y-49890797D01*
X32166312Y-50086434D01*
X32125000Y-50294122D01*
X32125000Y-50505878D01*
X32166312Y-50713566D01*
X32247348Y-50909203D01*
X32364993Y-51085272D01*
X32514728Y-51235007D01*
X32690797Y-51352652D01*
X32886434Y-51433688D01*
X33094122Y-51475000D01*
X33305878Y-51475000D01*
X33513566Y-51433688D01*
X33709203Y-51352652D01*
X33885272Y-51235007D01*
X34035007Y-51085272D01*
X34152652Y-50909203D01*
X34233688Y-50713566D01*
X34275000Y-50505878D01*
X34275000Y-50294122D01*
X34233688Y-50086434D01*
X34152652Y-49890797D01*
X34035007Y-49714728D01*
X33885272Y-49564993D01*
X33709203Y-49447348D01*
X33594896Y-49400000D01*
X33709203Y-49352652D01*
X33885272Y-49235007D01*
X34035007Y-49085272D01*
X34152652Y-48909203D01*
X34233688Y-48713566D01*
X34275000Y-48505878D01*
X34275000Y-48294122D01*
X34233688Y-48086434D01*
X34152652Y-47890797D01*
X34035007Y-47714728D01*
X33885272Y-47564993D01*
X33709203Y-47447348D01*
X33594896Y-47400000D01*
X33709203Y-47352652D01*
X33885272Y-47235007D01*
X34035007Y-47085272D01*
X34152652Y-46909203D01*
X34233688Y-46713566D01*
X34275000Y-46505878D01*
X34275000Y-46294122D01*
X34233688Y-46086434D01*
X34152652Y-45890797D01*
X34035007Y-45714728D01*
X33885272Y-45564993D01*
X33709203Y-45447348D01*
X33513566Y-45366312D01*
X33305878Y-45325000D01*
X33094122Y-45325000D01*
X32886434Y-45366312D01*
X32690797Y-45447348D01*
X32514728Y-45564993D01*
X32364993Y-45714728D01*
X32247348Y-45890797D01*
X32166312Y-46086434D01*
X32125000Y-46294122D01*
X30400000Y-46294122D01*
X30400000Y-40050000D01*
X32123186Y-40050000D01*
X32123186Y-40750000D01*
X32137152Y-40891794D01*
X32178511Y-41028140D01*
X32245676Y-41153796D01*
X32336065Y-41263935D01*
X32446204Y-41354324D01*
X32571860Y-41421489D01*
X32680278Y-41454376D01*
X32514728Y-41564993D01*
X32364993Y-41714728D01*
X32247348Y-41890797D01*
X32166312Y-42086434D01*
X32125000Y-42294122D01*
X32125000Y-42505878D01*
X32166312Y-42713566D01*
X32247348Y-42909203D01*
X32364993Y-43085272D01*
X32514728Y-43235007D01*
X32690797Y-43352652D01*
X32886434Y-43433688D01*
X33094122Y-43475000D01*
X33305878Y-43475000D01*
X33513566Y-43433688D01*
X33709203Y-43352652D01*
X33885272Y-43235007D01*
X34035007Y-43085272D01*
X34152652Y-42909203D01*
X34233688Y-42713566D01*
X34275000Y-42505878D01*
X34275000Y-42294122D01*
X34233688Y-42086434D01*
X34152652Y-41890797D01*
X34035007Y-41714728D01*
X33885272Y-41564993D01*
X33719722Y-41454376D01*
X33828140Y-41421489D01*
X33953796Y-41354324D01*
X34063935Y-41263935D01*
X34154324Y-41153796D01*
X34221489Y-41028140D01*
X34262848Y-40891794D01*
X34276814Y-40750000D01*
X34276814Y-40294122D01*
X35425000Y-40294122D01*
X35425000Y-40505878D01*
X35466312Y-40713566D01*
X35547348Y-40909203D01*
X35664993Y-41085272D01*
X35814728Y-41235007D01*
X35990797Y-41352652D01*
X36105104Y-41400000D01*
X35990797Y-41447348D01*
X35814728Y-41564993D01*
X35664993Y-41714728D01*
X35547348Y-41890797D01*
X35466312Y-42086434D01*
X35425000Y-42294122D01*
X35425000Y-42505878D01*
X35466312Y-42713566D01*
X35547348Y-42909203D01*
X35664993Y-43085272D01*
X35814728Y-43235007D01*
X35990797Y-43352652D01*
X36186434Y-43433688D01*
X36394122Y-43475000D01*
X36605878Y-43475000D01*
X36813566Y-43433688D01*
X37009203Y-43352652D01*
X37185272Y-43235007D01*
X37335007Y-43085272D01*
X37452652Y-42909203D01*
X37533688Y-42713566D01*
X37575000Y-42505878D01*
X37575000Y-42294122D01*
X37533688Y-42086434D01*
X37452652Y-41890797D01*
X37335007Y-41714728D01*
X37208722Y-41588443D01*
X51320000Y-41588443D01*
X51320000Y-41711557D01*
X51344019Y-41832306D01*
X51391132Y-41946048D01*
X51459531Y-42048414D01*
X51546586Y-42135469D01*
X51648952Y-42203868D01*
X51762694Y-42250981D01*
X51883443Y-42275000D01*
X52006557Y-42275000D01*
X52127306Y-42250981D01*
X52241048Y-42203868D01*
X52343414Y-42135469D01*
X52430469Y-42048414D01*
X52498868Y-41946048D01*
X52545981Y-41832306D01*
X52570000Y-41711557D01*
X52570000Y-41588443D01*
X52545981Y-41467694D01*
X52498868Y-41353952D01*
X52430469Y-41251586D01*
X52343414Y-41164531D01*
X52241048Y-41096132D01*
X52127306Y-41049019D01*
X52006557Y-41025000D01*
X51883443Y-41025000D01*
X51762694Y-41049019D01*
X51648952Y-41096132D01*
X51546586Y-41164531D01*
X51459531Y-41251586D01*
X51391132Y-41353952D01*
X51344019Y-41467694D01*
X51320000Y-41588443D01*
X37208722Y-41588443D01*
X37185272Y-41564993D01*
X37009203Y-41447348D01*
X36894896Y-41400000D01*
X37009203Y-41352652D01*
X37185272Y-41235007D01*
X37335007Y-41085272D01*
X37452652Y-40909203D01*
X37533688Y-40713566D01*
X37575000Y-40505878D01*
X37575000Y-40294122D01*
X37533688Y-40086434D01*
X37452652Y-39890797D01*
X37335007Y-39714728D01*
X37185272Y-39564993D01*
X37009203Y-39447348D01*
X36813566Y-39366312D01*
X36605878Y-39325000D01*
X36394122Y-39325000D01*
X36186434Y-39366312D01*
X35990797Y-39447348D01*
X35814728Y-39564993D01*
X35664993Y-39714728D01*
X35547348Y-39890797D01*
X35466312Y-40086434D01*
X35425000Y-40294122D01*
X34276814Y-40294122D01*
X34276814Y-40050000D01*
X34262848Y-39908206D01*
X34221489Y-39771860D01*
X34154324Y-39646204D01*
X34063935Y-39536065D01*
X33953796Y-39445676D01*
X33828140Y-39378511D01*
X33691794Y-39337152D01*
X33550000Y-39323186D01*
X32850000Y-39323186D01*
X32708206Y-39337152D01*
X32571860Y-39378511D01*
X32446204Y-39445676D01*
X32336065Y-39536065D01*
X32245676Y-39646204D01*
X32178511Y-39771860D01*
X32137152Y-39908206D01*
X32123186Y-40050000D01*
X30400000Y-40050000D01*
X30400000Y-33019564D01*
X30420991Y-32805479D01*
X31025000Y-32805479D01*
X31025000Y-33194521D01*
X31100898Y-33576086D01*
X31249778Y-33935513D01*
X31465917Y-34258989D01*
X31741011Y-34534083D01*
X32064487Y-34750222D01*
X32423914Y-34899102D01*
X32805479Y-34975000D01*
X33194521Y-34975000D01*
X33576086Y-34899102D01*
X33745896Y-34828764D01*
X37938013Y-34828764D01*
X38034171Y-35090610D01*
X38321910Y-35230854D01*
X38631481Y-35312268D01*
X38950986Y-35331723D01*
X39268147Y-35288472D01*
X39570777Y-35184178D01*
X39745829Y-35090610D01*
X39841987Y-34828764D01*
X38890000Y-33876777D01*
X37938013Y-34828764D01*
X33745896Y-34828764D01*
X33935513Y-34750222D01*
X34258989Y-34534083D01*
X34534083Y-34258989D01*
X34750222Y-33935513D01*
X34822513Y-33760986D01*
X37258277Y-33760986D01*
X37301528Y-34078147D01*
X37405822Y-34380777D01*
X37499390Y-34555829D01*
X37761236Y-34651987D01*
X38713223Y-33700000D01*
X39066777Y-33700000D01*
X40018764Y-34651987D01*
X40280610Y-34555829D01*
X40420854Y-34268090D01*
X40502268Y-33958519D01*
X40521723Y-33639014D01*
X40478472Y-33321853D01*
X40462326Y-33275000D01*
X45153186Y-33275000D01*
X45153186Y-34125000D01*
X45168593Y-34281426D01*
X45214220Y-34431841D01*
X45288316Y-34570464D01*
X45388032Y-34691968D01*
X45509536Y-34791684D01*
X45648159Y-34865780D01*
X45798574Y-34911407D01*
X45955000Y-34926814D01*
X46805000Y-34926814D01*
X46961426Y-34911407D01*
X47111841Y-34865780D01*
X47250464Y-34791684D01*
X47371968Y-34691968D01*
X47471684Y-34570464D01*
X47545780Y-34431841D01*
X47580902Y-34316058D01*
X47584406Y-34325962D01*
X47732188Y-34574496D01*
X47925617Y-34789423D01*
X48157260Y-34962485D01*
X48418214Y-35087030D01*
X48566628Y-35132045D01*
X48795000Y-35012812D01*
X48795000Y-33825000D01*
X48775000Y-33825000D01*
X48775000Y-33575000D01*
X48795000Y-33575000D01*
X48795000Y-32387188D01*
X48566628Y-32267955D01*
X48418214Y-32312970D01*
X48157260Y-32437515D01*
X47925617Y-32610577D01*
X47732188Y-32825504D01*
X47584406Y-33074038D01*
X47580902Y-33083942D01*
X47545780Y-32968159D01*
X47471684Y-32829536D01*
X47371968Y-32708032D01*
X47250464Y-32608316D01*
X47111841Y-32534220D01*
X46961426Y-32488593D01*
X46805000Y-32473186D01*
X45955000Y-32473186D01*
X45798574Y-32488593D01*
X45648159Y-32534220D01*
X45509536Y-32608316D01*
X45388032Y-32708032D01*
X45288316Y-32829536D01*
X45214220Y-32968159D01*
X45168593Y-33118574D01*
X45153186Y-33275000D01*
X40462326Y-33275000D01*
X40374178Y-33019223D01*
X40280610Y-32844171D01*
X40018764Y-32748013D01*
X39066777Y-33700000D01*
X38713223Y-33700000D01*
X37761236Y-32748013D01*
X37499390Y-32844171D01*
X37359146Y-33131910D01*
X37277732Y-33441481D01*
X37258277Y-33760986D01*
X34822513Y-33760986D01*
X34899102Y-33576086D01*
X34975000Y-33194521D01*
X34975000Y-32805479D01*
X34928407Y-32571236D01*
X37938013Y-32571236D01*
X38890000Y-33523223D01*
X39841987Y-32571236D01*
X39745829Y-32309390D01*
X39458090Y-32169146D01*
X39148519Y-32087732D01*
X38829014Y-32068277D01*
X38511853Y-32111528D01*
X38209223Y-32215822D01*
X38034171Y-32309390D01*
X37938013Y-32571236D01*
X34928407Y-32571236D01*
X34899102Y-32423914D01*
X34750222Y-32064487D01*
X34534083Y-31741011D01*
X34258989Y-31465917D01*
X33935513Y-31249778D01*
X33576086Y-31100898D01*
X33194521Y-31025000D01*
X32805479Y-31025000D01*
X32423914Y-31100898D01*
X32064487Y-31249778D01*
X31741011Y-31465917D01*
X31465917Y-31741011D01*
X31249778Y-32064487D01*
X31100898Y-32423914D01*
X31025000Y-32805479D01*
X30420991Y-32805479D01*
X30451399Y-32495364D01*
X30597955Y-32009945D01*
X30836000Y-31562246D01*
X31156479Y-31169301D01*
X31547170Y-30846093D01*
X31993204Y-30604924D01*
X32477582Y-30454983D01*
X33000712Y-30400000D01*
X72980436Y-30400000D01*
X73504636Y-30451399D01*
G04 #@! TA.AperFunction,Conductor*
D26*
G36*
X73504636Y-30451399D02*
G01*
X73990055Y-30597955D01*
X74437754Y-30836000D01*
X74830699Y-31156479D01*
X75153907Y-31547170D01*
X75395076Y-31993204D01*
X75545017Y-32477582D01*
X75600000Y-33000712D01*
X75600000Y-45088577D01*
X75587520Y-45076097D01*
X75587520Y-43502114D01*
X75589696Y-43480020D01*
X75587520Y-43457926D01*
X75587520Y-43457915D01*
X75581009Y-43391805D01*
X75555277Y-43306979D01*
X75516807Y-43235007D01*
X75513491Y-43228803D01*
X75471348Y-43177452D01*
X75471344Y-43177448D01*
X75457257Y-43160283D01*
X75440093Y-43146197D01*
X73932866Y-41638971D01*
X73946329Y-41622566D01*
X74192946Y-41375949D01*
X74210117Y-41361857D01*
X74240365Y-41325000D01*
X74266351Y-41293337D01*
X74308137Y-41215161D01*
X74314253Y-41195000D01*
X74333869Y-41130335D01*
X74340380Y-41064225D01*
X74340380Y-41064214D01*
X74342556Y-41042120D01*
X74340380Y-41020026D01*
X74340380Y-38413393D01*
X74342556Y-38391299D01*
X74340380Y-38369205D01*
X74340380Y-38369195D01*
X74333869Y-38303085D01*
X74308137Y-38218259D01*
X74276371Y-38158829D01*
X74266351Y-38140083D01*
X74224208Y-38088732D01*
X74224204Y-38088728D01*
X74210117Y-38071563D01*
X74192953Y-38057477D01*
X71632939Y-35497464D01*
X71618847Y-35480293D01*
X71550326Y-35424059D01*
X71472151Y-35382273D01*
X71387325Y-35356541D01*
X71321215Y-35350030D01*
X71321204Y-35350030D01*
X71299110Y-35347854D01*
X71277016Y-35350030D01*
X65686365Y-35350030D01*
X66212425Y-34823970D01*
X66342681Y-34877924D01*
X66579348Y-34925000D01*
X66820652Y-34925000D01*
X67057319Y-34877924D01*
X67280255Y-34785581D01*
X67480892Y-34651519D01*
X67651519Y-34480892D01*
X67785581Y-34280255D01*
X67877924Y-34057319D01*
X67925000Y-33820652D01*
X67925000Y-33579348D01*
X67877924Y-33342681D01*
X67785581Y-33119745D01*
X67651519Y-32919108D01*
X67537890Y-32805479D01*
X71025000Y-32805479D01*
X71025000Y-33194521D01*
X71100898Y-33576086D01*
X71249778Y-33935513D01*
X71465917Y-34258989D01*
X71741011Y-34534083D01*
X72064487Y-34750222D01*
X72423914Y-34899102D01*
X72805479Y-34975000D01*
X73194521Y-34975000D01*
X73576086Y-34899102D01*
X73935513Y-34750222D01*
X74258989Y-34534083D01*
X74534083Y-34258989D01*
X74750222Y-33935513D01*
X74899102Y-33576086D01*
X74975000Y-33194521D01*
X74975000Y-32805479D01*
X74899102Y-32423914D01*
X74750222Y-32064487D01*
X74534083Y-31741011D01*
X74258989Y-31465917D01*
X73935513Y-31249778D01*
X73576086Y-31100898D01*
X73194521Y-31025000D01*
X72805479Y-31025000D01*
X72423914Y-31100898D01*
X72064487Y-31249778D01*
X71741011Y-31465917D01*
X71465917Y-31741011D01*
X71249778Y-32064487D01*
X71100898Y-32423914D01*
X71025000Y-32805479D01*
X67537890Y-32805479D01*
X67480892Y-32748481D01*
X67280255Y-32614419D01*
X67057319Y-32522076D01*
X66820652Y-32475000D01*
X66579348Y-32475000D01*
X66342681Y-32522076D01*
X66119745Y-32614419D01*
X65919108Y-32748481D01*
X65748481Y-32919108D01*
X65614419Y-33119745D01*
X65522076Y-33342681D01*
X65475000Y-33579348D01*
X65475000Y-33820652D01*
X65522076Y-34057319D01*
X65576030Y-34187575D01*
X64713585Y-35050020D01*
X63446375Y-35050020D01*
X63672425Y-34823970D01*
X63802681Y-34877924D01*
X64039348Y-34925000D01*
X64280652Y-34925000D01*
X64517319Y-34877924D01*
X64740255Y-34785581D01*
X64940892Y-34651519D01*
X65111519Y-34480892D01*
X65245581Y-34280255D01*
X65337924Y-34057319D01*
X65385000Y-33820652D01*
X65385000Y-33579348D01*
X65337924Y-33342681D01*
X65245581Y-33119745D01*
X65111519Y-32919108D01*
X64940892Y-32748481D01*
X64740255Y-32614419D01*
X64517319Y-32522076D01*
X64280652Y-32475000D01*
X64039348Y-32475000D01*
X63802681Y-32522076D01*
X63579745Y-32614419D01*
X63379108Y-32748481D01*
X63208481Y-32919108D01*
X63074419Y-33119745D01*
X62982076Y-33342681D01*
X62935000Y-33579348D01*
X62935000Y-33820652D01*
X62982076Y-34057319D01*
X63036030Y-34187575D01*
X62473595Y-34750010D01*
X62253491Y-34750010D01*
X62400892Y-34651519D01*
X62571519Y-34480892D01*
X62705581Y-34280255D01*
X62797924Y-34057319D01*
X62845000Y-33820652D01*
X62845000Y-33579348D01*
X62797924Y-33342681D01*
X62705581Y-33119745D01*
X62571519Y-32919108D01*
X62400892Y-32748481D01*
X62200255Y-32614419D01*
X61977319Y-32522076D01*
X61740652Y-32475000D01*
X61499348Y-32475000D01*
X61262681Y-32522076D01*
X61039745Y-32614419D01*
X60839108Y-32748481D01*
X60668481Y-32919108D01*
X60534419Y-33119745D01*
X60442076Y-33342681D01*
X60395000Y-33579348D01*
X60395000Y-33820652D01*
X60442076Y-34057319D01*
X60496030Y-34187575D01*
X60233605Y-34450000D01*
X60052160Y-34450000D01*
X60165581Y-34280255D01*
X60257924Y-34057319D01*
X60305000Y-33820652D01*
X60305000Y-33579348D01*
X60257924Y-33342681D01*
X60165581Y-33119745D01*
X60031519Y-32919108D01*
X59860892Y-32748481D01*
X59660255Y-32614419D01*
X59437319Y-32522076D01*
X59200652Y-32475000D01*
X58959348Y-32475000D01*
X58722681Y-32522076D01*
X58499745Y-32614419D01*
X58299108Y-32748481D01*
X58128481Y-32919108D01*
X57994419Y-33119745D01*
X57902076Y-33342681D01*
X57855000Y-33579348D01*
X57855000Y-33820652D01*
X57902076Y-34057319D01*
X57956030Y-34187575D01*
X56990000Y-35153605D01*
X56990000Y-34839534D01*
X57120255Y-34785581D01*
X57320892Y-34651519D01*
X57491519Y-34480892D01*
X57625581Y-34280255D01*
X57717924Y-34057319D01*
X57765000Y-33820652D01*
X57765000Y-33579348D01*
X57717924Y-33342681D01*
X57625581Y-33119745D01*
X57491519Y-32919108D01*
X57320892Y-32748481D01*
X57120255Y-32614419D01*
X56897319Y-32522076D01*
X56660652Y-32475000D01*
X56419348Y-32475000D01*
X56182681Y-32522076D01*
X55959745Y-32614419D01*
X55759108Y-32748481D01*
X55588481Y-32919108D01*
X55454419Y-33119745D01*
X55362076Y-33342681D01*
X55315000Y-33579348D01*
X55315000Y-33820652D01*
X55362076Y-34057319D01*
X55454419Y-34280255D01*
X55588481Y-34480892D01*
X55759108Y-34651519D01*
X55959745Y-34785581D01*
X56090000Y-34839534D01*
X56090000Y-35153604D01*
X55123970Y-34187575D01*
X55177924Y-34057319D01*
X55225000Y-33820652D01*
X55225000Y-33579348D01*
X55177924Y-33342681D01*
X55085581Y-33119745D01*
X54951519Y-32919108D01*
X54780892Y-32748481D01*
X54580255Y-32614419D01*
X54357319Y-32522076D01*
X54120652Y-32475000D01*
X53879348Y-32475000D01*
X53642681Y-32522076D01*
X53419745Y-32614419D01*
X53219108Y-32748481D01*
X53048481Y-32919108D01*
X52914419Y-33119745D01*
X52822076Y-33342681D01*
X52775000Y-33579348D01*
X52775000Y-33820652D01*
X52822076Y-34057319D01*
X52914419Y-34280255D01*
X53048481Y-34480892D01*
X53219108Y-34651519D01*
X53419745Y-34785581D01*
X53642681Y-34877924D01*
X53879348Y-34925000D01*
X54120652Y-34925000D01*
X54357319Y-34877924D01*
X54487575Y-34823970D01*
X55789990Y-36126386D01*
X55789990Y-37393595D01*
X52583970Y-34187575D01*
X52637924Y-34057319D01*
X52685000Y-33820652D01*
X52685000Y-33579348D01*
X52637924Y-33342681D01*
X52545581Y-33119745D01*
X52411519Y-32919108D01*
X52240892Y-32748481D01*
X52040255Y-32614419D01*
X51817319Y-32522076D01*
X51580652Y-32475000D01*
X51339348Y-32475000D01*
X51102681Y-32522076D01*
X50879745Y-32614419D01*
X50679108Y-32748481D01*
X50508481Y-32919108D01*
X50374419Y-33119745D01*
X50319060Y-33253395D01*
X50255594Y-33074038D01*
X50107812Y-32825504D01*
X49914383Y-32610577D01*
X49682740Y-32437515D01*
X49421786Y-32312970D01*
X49273372Y-32267955D01*
X49045000Y-32387188D01*
X49045000Y-33575000D01*
X49065000Y-33575000D01*
X49065000Y-33825000D01*
X49045000Y-33825000D01*
X49045000Y-35012812D01*
X49273372Y-35132045D01*
X49421786Y-35087030D01*
X49682740Y-34962485D01*
X49914383Y-34789423D01*
X50107812Y-34574496D01*
X50255594Y-34325962D01*
X50319060Y-34146605D01*
X50374419Y-34280255D01*
X50508481Y-34480892D01*
X50679108Y-34651519D01*
X50879745Y-34785581D01*
X51102681Y-34877924D01*
X51339348Y-34925000D01*
X51580652Y-34925000D01*
X51817319Y-34877924D01*
X51947575Y-34823970D01*
X55489982Y-38366378D01*
X55489982Y-40234909D01*
X55432306Y-40211019D01*
X55311557Y-40187000D01*
X55188443Y-40187000D01*
X55067694Y-40211019D01*
X54953952Y-40258132D01*
X54851586Y-40326531D01*
X54764531Y-40413586D01*
X54696132Y-40515952D01*
X54649019Y-40629694D01*
X54625000Y-40750443D01*
X54625000Y-40873557D01*
X54649019Y-40994306D01*
X54696132Y-41108048D01*
X54764531Y-41210414D01*
X54851586Y-41297469D01*
X54953952Y-41365868D01*
X55067694Y-41412981D01*
X55188443Y-41437000D01*
X55311557Y-41437000D01*
X55432306Y-41412981D01*
X55489983Y-41389091D01*
X55489983Y-42416434D01*
X55487806Y-42438538D01*
X55489983Y-42460643D01*
X55494438Y-42505878D01*
X55494675Y-42508279D01*
X53200000Y-40213605D01*
X53200000Y-38172383D01*
X53235469Y-38136914D01*
X53303868Y-38034548D01*
X53350981Y-37920806D01*
X53375000Y-37800057D01*
X53375000Y-37676943D01*
X53350981Y-37556194D01*
X53303868Y-37442452D01*
X53235469Y-37340086D01*
X53148414Y-37253031D01*
X53046048Y-37184632D01*
X52932306Y-37137519D01*
X52811557Y-37113500D01*
X52688443Y-37113500D01*
X52567694Y-37137519D01*
X52453952Y-37184632D01*
X52351586Y-37253031D01*
X52264531Y-37340086D01*
X52196132Y-37442452D01*
X52149019Y-37556194D01*
X52125000Y-37676943D01*
X52125000Y-37800057D01*
X52149019Y-37920806D01*
X52196132Y-38034548D01*
X52264531Y-38136914D01*
X52300001Y-38172384D01*
X52300000Y-39737883D01*
X50717250Y-38155133D01*
X50735469Y-38136914D01*
X50803868Y-38034548D01*
X50850981Y-37920806D01*
X50875000Y-37800057D01*
X50875000Y-37676943D01*
X50850981Y-37556194D01*
X50803868Y-37442452D01*
X50735469Y-37340086D01*
X50648414Y-37253031D01*
X50546048Y-37184632D01*
X50432306Y-37137519D01*
X50311557Y-37113500D01*
X50188443Y-37113500D01*
X50067694Y-37137519D01*
X49953952Y-37184632D01*
X49851586Y-37253031D01*
X49764531Y-37340086D01*
X49696132Y-37442452D01*
X49649019Y-37556194D01*
X49625000Y-37676943D01*
X49625000Y-37800057D01*
X49649019Y-37920806D01*
X49696132Y-38034548D01*
X49764531Y-38136914D01*
X49800000Y-38172383D01*
X49800000Y-38302183D01*
X49797824Y-38324278D01*
X49800000Y-38346372D01*
X49800000Y-38346382D01*
X49806511Y-38412492D01*
X49824792Y-38472756D01*
X49832243Y-38497318D01*
X49874029Y-38575494D01*
X49899852Y-38606959D01*
X49930263Y-38644015D01*
X49947434Y-38658107D01*
X57393883Y-46104557D01*
X57326576Y-46149531D01*
X57239521Y-46236586D01*
X57171122Y-46338952D01*
X57124009Y-46452694D01*
X57099990Y-46573443D01*
X57099990Y-46696557D01*
X57124009Y-46817306D01*
X57171122Y-46931048D01*
X57239521Y-47033414D01*
X57326576Y-47120469D01*
X57428942Y-47188868D01*
X57542684Y-47235981D01*
X57663433Y-47260000D01*
X57749991Y-47260000D01*
X57749990Y-55327896D01*
X57747814Y-55349990D01*
X57749990Y-55372084D01*
X57749990Y-55372094D01*
X57756501Y-55438204D01*
X57775728Y-55501586D01*
X57782233Y-55523030D01*
X57824019Y-55601206D01*
X57852138Y-55635469D01*
X57880253Y-55669727D01*
X57897424Y-55683819D01*
X58130192Y-55916587D01*
X58067694Y-55929019D01*
X57953952Y-55976132D01*
X57851586Y-56044531D01*
X57764531Y-56131586D01*
X57696132Y-56233952D01*
X57649019Y-56347694D01*
X57625000Y-56468443D01*
X57625000Y-56591557D01*
X57646571Y-56700000D01*
X55843652Y-56700000D01*
X55850981Y-56682306D01*
X55875000Y-56561557D01*
X55875000Y-56438443D01*
X55850981Y-56317694D01*
X55803868Y-56203952D01*
X55735469Y-56101586D01*
X55700000Y-56066117D01*
X55700000Y-54936395D01*
X56631164Y-54005232D01*
X56703952Y-54053868D01*
X56817694Y-54100981D01*
X56938443Y-54125000D01*
X57061557Y-54125000D01*
X57182306Y-54100981D01*
X57296048Y-54053868D01*
X57398414Y-53985469D01*
X57485469Y-53898414D01*
X57553868Y-53796048D01*
X57600981Y-53682306D01*
X57625000Y-53561557D01*
X57625000Y-53438443D01*
X57600981Y-53317694D01*
X57553868Y-53203952D01*
X57485469Y-53101586D01*
X57398414Y-53014531D01*
X57296048Y-52946132D01*
X57182306Y-52899019D01*
X57061557Y-52875000D01*
X56938443Y-52875000D01*
X56817694Y-52899019D01*
X56703952Y-52946132D01*
X56601586Y-53014531D01*
X56566117Y-53050000D01*
X56522094Y-53050000D01*
X56500000Y-53047824D01*
X56477905Y-53050000D01*
X56477895Y-53050000D01*
X56411785Y-53056511D01*
X56326959Y-53082243D01*
X56248783Y-53124029D01*
X56200000Y-53164064D01*
X56200000Y-51883883D01*
X56235469Y-51848414D01*
X56303868Y-51746048D01*
X56350981Y-51632306D01*
X56375000Y-51511557D01*
X56375000Y-51388443D01*
X56350981Y-51267694D01*
X56303868Y-51153952D01*
X56235469Y-51051586D01*
X56148414Y-50964531D01*
X56046048Y-50896132D01*
X55932306Y-50849019D01*
X55811557Y-50825000D01*
X55700000Y-50825000D01*
X55700000Y-50783883D01*
X55735469Y-50748414D01*
X55803868Y-50646048D01*
X55850981Y-50532306D01*
X55864474Y-50464474D01*
X55932306Y-50450981D01*
X56046048Y-50403868D01*
X56148414Y-50335469D01*
X56235469Y-50248414D01*
X56303868Y-50146048D01*
X56350981Y-50032306D01*
X56375000Y-49911557D01*
X56375000Y-49788443D01*
X56350981Y-49667694D01*
X56303868Y-49553952D01*
X56235469Y-49451586D01*
X56148414Y-49364531D01*
X56126667Y-49350000D01*
X56148414Y-49335469D01*
X56235469Y-49248414D01*
X56303868Y-49146048D01*
X56350981Y-49032306D01*
X56375000Y-48911557D01*
X56375000Y-48788443D01*
X56350981Y-48667694D01*
X56303868Y-48553952D01*
X56235469Y-48451586D01*
X56148414Y-48364531D01*
X56046048Y-48296132D01*
X55932306Y-48249019D01*
X55811557Y-48225000D01*
X55688443Y-48225000D01*
X55567694Y-48249019D01*
X55453952Y-48296132D01*
X55351586Y-48364531D01*
X55316117Y-48400000D01*
X54994263Y-48400000D01*
X54972169Y-48397824D01*
X54950075Y-48400000D01*
X54950064Y-48400000D01*
X54883954Y-48406511D01*
X54799128Y-48432243D01*
X54720952Y-48474029D01*
X54669601Y-48516172D01*
X54669597Y-48516176D01*
X54652432Y-48530263D01*
X54638345Y-48547428D01*
X53847413Y-49338360D01*
X53830243Y-49352452D01*
X53816152Y-49369622D01*
X53774009Y-49420973D01*
X53746535Y-49472374D01*
X53732223Y-49499149D01*
X53706491Y-49583975D01*
X53699980Y-49650085D01*
X53699980Y-49650095D01*
X53697804Y-49672189D01*
X53699980Y-49694283D01*
X53699981Y-53366511D01*
X52517287Y-54549205D01*
X52485469Y-54501586D01*
X52398414Y-54414531D01*
X52296048Y-54346132D01*
X52182306Y-54299019D01*
X52061557Y-54275000D01*
X51938443Y-54275000D01*
X51817694Y-54299019D01*
X51703952Y-54346132D01*
X51601586Y-54414531D01*
X51514531Y-54501586D01*
X51446132Y-54603952D01*
X51399019Y-54717694D01*
X51375000Y-54838443D01*
X51375000Y-54961557D01*
X51399019Y-55082306D01*
X51446132Y-55196048D01*
X51514531Y-55298414D01*
X51601586Y-55385469D01*
X51649205Y-55417287D01*
X51016523Y-56049970D01*
X46399290Y-56049970D01*
X46377196Y-56047794D01*
X46355101Y-56049970D01*
X46355091Y-56049970D01*
X46288981Y-56056481D01*
X46211450Y-56080000D01*
X46204155Y-56082213D01*
X46125979Y-56123999D01*
X46074628Y-56166142D01*
X46074624Y-56166146D01*
X46057459Y-56180233D01*
X46043372Y-56197398D01*
X45047404Y-57193367D01*
X45030233Y-57207459D01*
X45016142Y-57224629D01*
X44973999Y-57275980D01*
X44948570Y-57323555D01*
X44932213Y-57354156D01*
X44906481Y-57438982D01*
X44899970Y-57505092D01*
X44899970Y-57505102D01*
X44897794Y-57527196D01*
X44899970Y-57549290D01*
X44899971Y-64382162D01*
X44846048Y-64346132D01*
X44732306Y-64299019D01*
X44611557Y-64275000D01*
X44488443Y-64275000D01*
X44367694Y-64299019D01*
X44253952Y-64346132D01*
X44151586Y-64414531D01*
X44064531Y-64501586D01*
X43996132Y-64603952D01*
X43949019Y-64717694D01*
X43925000Y-64838443D01*
X43925000Y-64961557D01*
X43949019Y-65082306D01*
X43996132Y-65196048D01*
X44064531Y-65298414D01*
X44088350Y-65322233D01*
X44032306Y-65299019D01*
X43911557Y-65275000D01*
X43788443Y-65275000D01*
X43667694Y-65299019D01*
X43553952Y-65346132D01*
X43451586Y-65414531D01*
X43364531Y-65501586D01*
X43296132Y-65603952D01*
X43249019Y-65717694D01*
X43225000Y-65838443D01*
X43225000Y-65961557D01*
X43249019Y-66082306D01*
X43296132Y-66196048D01*
X43364531Y-66298414D01*
X43451586Y-66385469D01*
X43553952Y-66453868D01*
X43667694Y-66500981D01*
X43788443Y-66525000D01*
X43911557Y-66525000D01*
X44032306Y-66500981D01*
X44146048Y-66453868D01*
X44223879Y-66401863D01*
X44230263Y-66409642D01*
X44247434Y-66423734D01*
X45351291Y-67527592D01*
X45365378Y-67544757D01*
X45382543Y-67558844D01*
X45382547Y-67558848D01*
X45433898Y-67600991D01*
X45512074Y-67642777D01*
X45596900Y-67668509D01*
X45663010Y-67675020D01*
X45663020Y-67675020D01*
X45685114Y-67677196D01*
X45707209Y-67675020D01*
X49234744Y-67675020D01*
X48645014Y-68264751D01*
X48627843Y-68278843D01*
X48613752Y-68296013D01*
X48571609Y-68347364D01*
X48551223Y-68385504D01*
X48529823Y-68425540D01*
X48504091Y-68510366D01*
X48497580Y-68576476D01*
X48497580Y-68576486D01*
X48495404Y-68598580D01*
X48497580Y-68620675D01*
X48497580Y-69166881D01*
X48497027Y-69167251D01*
X48376776Y-69041865D01*
X48204039Y-68921149D01*
X48011071Y-68836451D01*
X47968067Y-68823412D01*
X47802580Y-68948213D01*
X47802580Y-69733420D01*
X47822580Y-69733420D01*
X47822580Y-69983420D01*
X47802580Y-69983420D01*
X47802580Y-71003420D01*
X47822580Y-71003420D01*
X47822580Y-71253420D01*
X47802580Y-71253420D01*
X47802580Y-72038627D01*
X47968067Y-72163428D01*
X48011071Y-72150389D01*
X48204039Y-72065691D01*
X48376776Y-71944975D01*
X48497027Y-71819589D01*
X48556796Y-71859526D01*
X48706936Y-71921716D01*
X48866325Y-71953420D01*
X49028835Y-71953420D01*
X49188224Y-71921716D01*
X49338364Y-71859526D01*
X49473487Y-71769239D01*
X49582580Y-71660146D01*
X49691673Y-71769239D01*
X49767580Y-71819959D01*
X49767580Y-72274725D01*
X49765404Y-72296820D01*
X49767580Y-72318914D01*
X49767580Y-72318924D01*
X49774091Y-72385034D01*
X49786215Y-72425001D01*
X49799823Y-72469860D01*
X49841609Y-72548036D01*
X49879937Y-72594738D01*
X49897843Y-72616557D01*
X49915014Y-72630649D01*
X51761947Y-74477583D01*
X51776034Y-74494748D01*
X51793199Y-74508835D01*
X51793203Y-74508839D01*
X51844554Y-74550982D01*
X51922730Y-74592768D01*
X52007556Y-74618500D01*
X52073666Y-74625011D01*
X52073676Y-74625011D01*
X52095770Y-74627187D01*
X52117864Y-74625011D01*
X67762895Y-74625011D01*
X67784989Y-74627187D01*
X67807083Y-74625011D01*
X67807094Y-74625011D01*
X67873204Y-74618500D01*
X67958030Y-74592768D01*
X68036205Y-74550982D01*
X68104726Y-74494748D01*
X68118818Y-74477577D01*
X69790916Y-72805479D01*
X71025000Y-72805479D01*
X71025000Y-73194521D01*
X71100898Y-73576086D01*
X71249778Y-73935513D01*
X71465917Y-74258989D01*
X71741011Y-74534083D01*
X72064487Y-74750222D01*
X72423914Y-74899102D01*
X72805479Y-74975000D01*
X73194521Y-74975000D01*
X73576086Y-74899102D01*
X73935513Y-74750222D01*
X74258989Y-74534083D01*
X74534083Y-74258989D01*
X74750222Y-73935513D01*
X74899102Y-73576086D01*
X74975000Y-73194521D01*
X74975000Y-72805479D01*
X74899102Y-72423914D01*
X74750222Y-72064487D01*
X74534083Y-71741011D01*
X74258989Y-71465917D01*
X73935513Y-71249778D01*
X73576086Y-71100898D01*
X73194521Y-71025000D01*
X72805479Y-71025000D01*
X72423914Y-71100898D01*
X72064487Y-71249778D01*
X71741011Y-71465917D01*
X71465917Y-71741011D01*
X71249778Y-72064487D01*
X71100898Y-72423914D01*
X71025000Y-72805479D01*
X69790916Y-72805479D01*
X70752572Y-71843824D01*
X70769737Y-71829737D01*
X70783824Y-71812572D01*
X70783828Y-71812568D01*
X70825971Y-71761217D01*
X70867757Y-71683041D01*
X70868877Y-71679348D01*
X70893489Y-71598215D01*
X70900000Y-71532105D01*
X70900000Y-71532094D01*
X70902176Y-71510000D01*
X70900000Y-71487906D01*
X70900000Y-70112411D01*
X70999108Y-70211519D01*
X71199745Y-70345581D01*
X71422681Y-70437924D01*
X71659348Y-70485000D01*
X71900652Y-70485000D01*
X72137319Y-70437924D01*
X72360255Y-70345581D01*
X72560892Y-70211519D01*
X72731519Y-70040892D01*
X72865581Y-69840255D01*
X72957924Y-69617319D01*
X73005000Y-69380652D01*
X73005000Y-69139348D01*
X72957924Y-68902681D01*
X72865581Y-68679745D01*
X72731519Y-68479108D01*
X72560892Y-68308481D01*
X72360255Y-68174419D01*
X72137319Y-68082076D01*
X71900652Y-68035000D01*
X71659348Y-68035000D01*
X71422681Y-68082076D01*
X71199745Y-68174419D01*
X70999108Y-68308481D01*
X70900000Y-68407589D01*
X70900000Y-68236395D01*
X71292425Y-67843970D01*
X71422681Y-67897924D01*
X71659348Y-67945000D01*
X71900652Y-67945000D01*
X72137319Y-67897924D01*
X72360255Y-67805581D01*
X72560892Y-67671519D01*
X72731519Y-67500892D01*
X72865581Y-67300255D01*
X72957924Y-67077319D01*
X73005000Y-66840652D01*
X73005000Y-66599348D01*
X72957924Y-66362681D01*
X72903970Y-66232425D01*
X74802573Y-64333823D01*
X74819737Y-64319737D01*
X74833824Y-64302572D01*
X74833828Y-64302568D01*
X74875971Y-64251217D01*
X74917757Y-64173041D01*
X74940433Y-64098288D01*
X74943489Y-64088215D01*
X74950000Y-64022105D01*
X74950000Y-64022095D01*
X74952176Y-64000000D01*
X74950000Y-63977906D01*
X74950000Y-46108801D01*
X74955214Y-46110961D01*
X75075963Y-46134980D01*
X75199077Y-46134980D01*
X75319826Y-46110961D01*
X75433568Y-46063848D01*
X75535934Y-45995449D01*
X75600000Y-45931383D01*
X75600001Y-72980426D01*
X75548601Y-73504637D01*
X75402046Y-73990053D01*
X75163998Y-74437757D01*
X74843522Y-74830698D01*
X74452830Y-75153907D01*
X74006795Y-75395077D01*
X73522419Y-75545016D01*
X72999288Y-75600000D01*
X33019564Y-75600000D01*
X32495363Y-75548601D01*
X32009947Y-75402046D01*
X31562243Y-75163998D01*
X31169302Y-74843522D01*
X30846093Y-74452830D01*
X30604923Y-74006795D01*
X30454984Y-73522419D01*
X30400000Y-72999288D01*
X30400000Y-72805479D01*
X31025000Y-72805479D01*
X31025000Y-73194521D01*
X31100898Y-73576086D01*
X31249778Y-73935513D01*
X31465917Y-74258989D01*
X31741011Y-74534083D01*
X32064487Y-74750222D01*
X32423914Y-74899102D01*
X32805479Y-74975000D01*
X33194521Y-74975000D01*
X33576086Y-74899102D01*
X33935513Y-74750222D01*
X34258989Y-74534083D01*
X34534083Y-74258989D01*
X34750222Y-73935513D01*
X34899102Y-73576086D01*
X34975000Y-73194521D01*
X34975000Y-72805479D01*
X34899102Y-72423914D01*
X34799589Y-72183669D01*
X38520000Y-72183669D01*
X38520000Y-72336331D01*
X38549783Y-72486059D01*
X38608204Y-72627100D01*
X38693018Y-72754034D01*
X38800966Y-72861982D01*
X38927900Y-72946796D01*
X39068941Y-73005217D01*
X39218669Y-73035000D01*
X39371331Y-73035000D01*
X39521059Y-73005217D01*
X39662100Y-72946796D01*
X39789034Y-72861982D01*
X39896982Y-72754034D01*
X39981796Y-72627100D01*
X40040217Y-72486059D01*
X40070000Y-72336331D01*
X40070000Y-72183669D01*
X40040217Y-72033941D01*
X39981796Y-71892900D01*
X39896982Y-71765966D01*
X39789034Y-71658018D01*
X39662100Y-71573204D01*
X39521059Y-71514783D01*
X39371331Y-71485000D01*
X39218669Y-71485000D01*
X39068941Y-71514783D01*
X38927900Y-71573204D01*
X38800966Y-71658018D01*
X38693018Y-71765966D01*
X38608204Y-71892900D01*
X38549783Y-72033941D01*
X38520000Y-72183669D01*
X34799589Y-72183669D01*
X34750222Y-72064487D01*
X34534083Y-71741011D01*
X34258989Y-71465917D01*
X33935513Y-71249778D01*
X33576086Y-71100898D01*
X33194521Y-71025000D01*
X32805479Y-71025000D01*
X32423914Y-71100898D01*
X32064487Y-71249778D01*
X31741011Y-71465917D01*
X31465917Y-71741011D01*
X31249778Y-72064487D01*
X31100898Y-72423914D01*
X31025000Y-72805479D01*
X30400000Y-72805479D01*
X30400000Y-69777165D01*
X44312580Y-69777165D01*
X44312580Y-69939675D01*
X44344284Y-70099064D01*
X44406474Y-70249204D01*
X44496761Y-70384327D01*
X44605854Y-70493420D01*
X44496761Y-70602513D01*
X44406474Y-70737636D01*
X44344284Y-70887776D01*
X44312580Y-71047165D01*
X44312580Y-71209675D01*
X44344284Y-71369064D01*
X44406474Y-71519204D01*
X44496761Y-71654327D01*
X44611673Y-71769239D01*
X44746796Y-71859526D01*
X44896936Y-71921716D01*
X45056325Y-71953420D01*
X45218835Y-71953420D01*
X45378224Y-71921716D01*
X45528364Y-71859526D01*
X45663487Y-71769239D01*
X45772580Y-71660146D01*
X45881673Y-71769239D01*
X46016796Y-71859526D01*
X46166936Y-71921716D01*
X46326325Y-71953420D01*
X46488835Y-71953420D01*
X46648224Y-71921716D01*
X46798364Y-71859526D01*
X46858133Y-71819589D01*
X46978384Y-71944975D01*
X47151121Y-72065691D01*
X47344089Y-72150389D01*
X47387093Y-72163428D01*
X47552580Y-72038627D01*
X47552580Y-71253420D01*
X47532580Y-71253420D01*
X47532580Y-71003420D01*
X47552580Y-71003420D01*
X47552580Y-69983420D01*
X47532580Y-69983420D01*
X47532580Y-69733420D01*
X47552580Y-69733420D01*
X47552580Y-68948213D01*
X47387093Y-68823412D01*
X47344089Y-68836451D01*
X47151121Y-68921149D01*
X46978384Y-69041865D01*
X46858133Y-69167251D01*
X46798364Y-69127314D01*
X46648224Y-69065124D01*
X46488835Y-69033420D01*
X46326325Y-69033420D01*
X46166936Y-69065124D01*
X46016796Y-69127314D01*
X45881673Y-69217601D01*
X45772580Y-69326694D01*
X45663487Y-69217601D01*
X45528364Y-69127314D01*
X45378224Y-69065124D01*
X45218835Y-69033420D01*
X45056325Y-69033420D01*
X44896936Y-69065124D01*
X44746796Y-69127314D01*
X44611673Y-69217601D01*
X44496761Y-69332513D01*
X44406474Y-69467636D01*
X44344284Y-69617776D01*
X44312580Y-69777165D01*
X30400000Y-69777165D01*
X30400000Y-64720000D01*
X30770767Y-64720000D01*
X30787661Y-64891530D01*
X30837695Y-65056468D01*
X30918944Y-65208476D01*
X31028288Y-65341712D01*
X31161524Y-65451056D01*
X31313532Y-65532305D01*
X31478470Y-65582339D01*
X31607021Y-65595000D01*
X32292979Y-65595000D01*
X32421530Y-65582339D01*
X32586468Y-65532305D01*
X32738476Y-65451056D01*
X32871712Y-65341712D01*
X32981056Y-65208476D01*
X33062305Y-65056468D01*
X33112339Y-64891530D01*
X33129233Y-64720000D01*
X34700767Y-64720000D01*
X34717661Y-64891530D01*
X34767695Y-65056468D01*
X34848944Y-65208476D01*
X34958288Y-65341712D01*
X35091524Y-65451056D01*
X35243532Y-65532305D01*
X35408470Y-65582339D01*
X35537021Y-65595000D01*
X36722979Y-65595000D01*
X36851530Y-65582339D01*
X37016468Y-65532305D01*
X37168476Y-65451056D01*
X37301712Y-65341712D01*
X37411056Y-65208476D01*
X37492305Y-65056468D01*
X37542339Y-64891530D01*
X37547567Y-64838443D01*
X40625000Y-64838443D01*
X40625000Y-64961557D01*
X40649019Y-65082306D01*
X40696132Y-65196048D01*
X40764531Y-65298414D01*
X40851586Y-65385469D01*
X40953952Y-65453868D01*
X41067694Y-65500981D01*
X41188443Y-65525000D01*
X41311557Y-65525000D01*
X41432306Y-65500981D01*
X41546048Y-65453868D01*
X41648414Y-65385469D01*
X41735469Y-65298414D01*
X41803868Y-65196048D01*
X41850981Y-65082306D01*
X41875000Y-64961557D01*
X41875000Y-64838443D01*
X41850981Y-64717694D01*
X41803868Y-64603952D01*
X41735469Y-64501586D01*
X41648414Y-64414531D01*
X41546048Y-64346132D01*
X41432306Y-64299019D01*
X41311557Y-64275000D01*
X41188443Y-64275000D01*
X41067694Y-64299019D01*
X40953952Y-64346132D01*
X40851586Y-64414531D01*
X40764531Y-64501586D01*
X40696132Y-64603952D01*
X40649019Y-64717694D01*
X40625000Y-64838443D01*
X37547567Y-64838443D01*
X37559233Y-64720000D01*
X37542339Y-64548470D01*
X37492305Y-64383532D01*
X37411056Y-64231524D01*
X37301712Y-64098288D01*
X37168476Y-63988944D01*
X37016468Y-63907695D01*
X36851530Y-63857661D01*
X36722979Y-63845000D01*
X36029351Y-63845000D01*
X36046224Y-63833726D01*
X36143726Y-63736224D01*
X36220332Y-63621574D01*
X36273099Y-63494182D01*
X36300000Y-63358944D01*
X36300000Y-63221056D01*
X36273099Y-63085818D01*
X36220332Y-62958426D01*
X36143726Y-62843776D01*
X36138393Y-62838443D01*
X40625000Y-62838443D01*
X40625000Y-62961557D01*
X40649019Y-63082306D01*
X40696132Y-63196048D01*
X40764531Y-63298414D01*
X40851586Y-63385469D01*
X40953952Y-63453868D01*
X41067694Y-63500981D01*
X41188443Y-63525000D01*
X41311557Y-63525000D01*
X41432306Y-63500981D01*
X41546048Y-63453868D01*
X41648414Y-63385469D01*
X41735469Y-63298414D01*
X41803868Y-63196048D01*
X41850981Y-63082306D01*
X41875000Y-62961557D01*
X41875000Y-62838443D01*
X41850981Y-62717694D01*
X41803868Y-62603952D01*
X41735469Y-62501586D01*
X41648414Y-62414531D01*
X41546048Y-62346132D01*
X41432306Y-62299019D01*
X41311557Y-62275000D01*
X41188443Y-62275000D01*
X41067694Y-62299019D01*
X40953952Y-62346132D01*
X40851586Y-62414531D01*
X40764531Y-62501586D01*
X40696132Y-62603952D01*
X40649019Y-62717694D01*
X40625000Y-62838443D01*
X36138393Y-62838443D01*
X36046224Y-62746274D01*
X35931574Y-62669668D01*
X35804182Y-62616901D01*
X35668944Y-62590000D01*
X35531056Y-62590000D01*
X35395818Y-62616901D01*
X35268426Y-62669668D01*
X35153776Y-62746274D01*
X35056274Y-62843776D01*
X34979668Y-62958426D01*
X34926901Y-63085818D01*
X34900000Y-63221056D01*
X34900000Y-63358944D01*
X34926901Y-63494182D01*
X34979668Y-63621574D01*
X35056274Y-63736224D01*
X35153776Y-63833726D01*
X35257939Y-63903325D01*
X35243532Y-63907695D01*
X35091524Y-63988944D01*
X34958288Y-64098288D01*
X34848944Y-64231524D01*
X34767695Y-64383532D01*
X34717661Y-64548470D01*
X34700767Y-64720000D01*
X33129233Y-64720000D01*
X33112339Y-64548470D01*
X33062305Y-64383532D01*
X32981056Y-64231524D01*
X32871712Y-64098288D01*
X32738476Y-63988944D01*
X32586468Y-63907695D01*
X32421530Y-63857661D01*
X32292979Y-63845000D01*
X31607021Y-63845000D01*
X31478470Y-63857661D01*
X31313532Y-63907695D01*
X31161524Y-63988944D01*
X31028288Y-64098288D01*
X30918944Y-64231524D01*
X30837695Y-64383532D01*
X30787661Y-64548470D01*
X30770767Y-64720000D01*
X30400000Y-64720000D01*
X30400000Y-61338443D01*
X43125000Y-61338443D01*
X43125000Y-61461557D01*
X43149019Y-61582306D01*
X43196132Y-61696048D01*
X43264531Y-61798414D01*
X43351586Y-61885469D01*
X43453952Y-61953868D01*
X43567694Y-62000981D01*
X43688443Y-62025000D01*
X43811557Y-62025000D01*
X43932306Y-62000981D01*
X44046048Y-61953868D01*
X44148414Y-61885469D01*
X44235469Y-61798414D01*
X44303868Y-61696048D01*
X44350981Y-61582306D01*
X44375000Y-61461557D01*
X44375000Y-61338443D01*
X44350981Y-61217694D01*
X44303868Y-61103952D01*
X44235469Y-61001586D01*
X44148414Y-60914531D01*
X44046048Y-60846132D01*
X43932306Y-60799019D01*
X43811557Y-60775000D01*
X43688443Y-60775000D01*
X43567694Y-60799019D01*
X43453952Y-60846132D01*
X43351586Y-60914531D01*
X43264531Y-61001586D01*
X43196132Y-61103952D01*
X43149019Y-61217694D01*
X43125000Y-61338443D01*
X30400000Y-61338443D01*
X30400000Y-56080000D01*
X30770767Y-56080000D01*
X30787661Y-56251530D01*
X30837695Y-56416468D01*
X30918944Y-56568476D01*
X31028288Y-56701712D01*
X31161524Y-56811056D01*
X31313532Y-56892305D01*
X31478470Y-56942339D01*
X31607021Y-56955000D01*
X32292979Y-56955000D01*
X32421530Y-56942339D01*
X32586468Y-56892305D01*
X32738476Y-56811056D01*
X32871712Y-56701712D01*
X32981056Y-56568476D01*
X33062305Y-56416468D01*
X33112339Y-56251530D01*
X33129233Y-56080000D01*
X34700767Y-56080000D01*
X34717661Y-56251530D01*
X34767695Y-56416468D01*
X34848944Y-56568476D01*
X34958288Y-56701712D01*
X35091524Y-56811056D01*
X35243532Y-56892305D01*
X35257939Y-56896675D01*
X35153776Y-56966274D01*
X35056274Y-57063776D01*
X34979668Y-57178426D01*
X34926901Y-57305818D01*
X34900000Y-57441056D01*
X34900000Y-57578944D01*
X34926901Y-57714182D01*
X34979668Y-57841574D01*
X35056274Y-57956224D01*
X35153776Y-58053726D01*
X35268426Y-58130332D01*
X35395818Y-58183099D01*
X35531056Y-58210000D01*
X35668944Y-58210000D01*
X35804182Y-58183099D01*
X35931574Y-58130332D01*
X36046224Y-58053726D01*
X36143726Y-57956224D01*
X36220332Y-57841574D01*
X36273099Y-57714182D01*
X36300000Y-57578944D01*
X36300000Y-57441056D01*
X36273099Y-57305818D01*
X36220332Y-57178426D01*
X36143726Y-57063776D01*
X36046224Y-56966274D01*
X36029351Y-56955000D01*
X36722979Y-56955000D01*
X36851530Y-56942339D01*
X37016468Y-56892305D01*
X37168476Y-56811056D01*
X37301712Y-56701712D01*
X37411056Y-56568476D01*
X37492305Y-56416468D01*
X37542339Y-56251530D01*
X37559233Y-56080000D01*
X37542339Y-55908470D01*
X37521097Y-55838443D01*
X40625000Y-55838443D01*
X40625000Y-55961557D01*
X40649019Y-56082306D01*
X40696132Y-56196048D01*
X40764531Y-56298414D01*
X40851586Y-56385469D01*
X40953952Y-56453868D01*
X41067694Y-56500981D01*
X41188443Y-56525000D01*
X41311557Y-56525000D01*
X41432306Y-56500981D01*
X41546048Y-56453868D01*
X41648414Y-56385469D01*
X41735469Y-56298414D01*
X41803868Y-56196048D01*
X41850981Y-56082306D01*
X41875000Y-55961557D01*
X41875000Y-55838443D01*
X41850981Y-55717694D01*
X41803868Y-55603952D01*
X41735469Y-55501586D01*
X41648414Y-55414531D01*
X41546048Y-55346132D01*
X41527485Y-55338443D01*
X43875000Y-55338443D01*
X43875000Y-55461557D01*
X43899019Y-55582306D01*
X43946132Y-55696048D01*
X44014531Y-55798414D01*
X44101586Y-55885469D01*
X44203952Y-55953868D01*
X44317694Y-56000981D01*
X44438443Y-56025000D01*
X44561557Y-56025000D01*
X44682306Y-56000981D01*
X44796048Y-55953868D01*
X44898414Y-55885469D01*
X44985469Y-55798414D01*
X45053868Y-55696048D01*
X45100981Y-55582306D01*
X45125000Y-55461557D01*
X45125000Y-55338443D01*
X45100981Y-55217694D01*
X45053868Y-55103952D01*
X44985469Y-55001586D01*
X44898414Y-54914531D01*
X44796048Y-54846132D01*
X44682306Y-54799019D01*
X44561557Y-54775000D01*
X44438443Y-54775000D01*
X44317694Y-54799019D01*
X44203952Y-54846132D01*
X44101586Y-54914531D01*
X44014531Y-55001586D01*
X43946132Y-55103952D01*
X43899019Y-55217694D01*
X43875000Y-55338443D01*
X41527485Y-55338443D01*
X41432306Y-55299019D01*
X41311557Y-55275000D01*
X41188443Y-55275000D01*
X41067694Y-55299019D01*
X40953952Y-55346132D01*
X40851586Y-55414531D01*
X40764531Y-55501586D01*
X40696132Y-55603952D01*
X40649019Y-55717694D01*
X40625000Y-55838443D01*
X37521097Y-55838443D01*
X37492305Y-55743532D01*
X37411056Y-55591524D01*
X37301712Y-55458288D01*
X37168476Y-55348944D01*
X37016468Y-55267695D01*
X36851530Y-55217661D01*
X36722979Y-55205000D01*
X35537021Y-55205000D01*
X35408470Y-55217661D01*
X35243532Y-55267695D01*
X35091524Y-55348944D01*
X34958288Y-55458288D01*
X34848944Y-55591524D01*
X34767695Y-55743532D01*
X34717661Y-55908470D01*
X34700767Y-56080000D01*
X33129233Y-56080000D01*
X33112339Y-55908470D01*
X33062305Y-55743532D01*
X32981056Y-55591524D01*
X32871712Y-55458288D01*
X32738476Y-55348944D01*
X32586468Y-55267695D01*
X32421530Y-55217661D01*
X32292979Y-55205000D01*
X31607021Y-55205000D01*
X31478470Y-55217661D01*
X31313532Y-55267695D01*
X31161524Y-55348944D01*
X31028288Y-55458288D01*
X30918944Y-55591524D01*
X30837695Y-55743532D01*
X30787661Y-55908470D01*
X30770767Y-56080000D01*
X30400000Y-56080000D01*
X30400000Y-53150000D01*
X34323186Y-53150000D01*
X34323186Y-53650000D01*
X34325594Y-53674450D01*
X34325594Y-53699009D01*
X34332834Y-53772522D01*
X34351956Y-53868655D01*
X34373399Y-53939341D01*
X34410908Y-54029897D01*
X34445730Y-54095045D01*
X34500186Y-54176544D01*
X34547047Y-54233645D01*
X34616355Y-54302953D01*
X34673456Y-54349814D01*
X34754955Y-54404270D01*
X34820103Y-54439092D01*
X34910659Y-54476601D01*
X34981345Y-54498044D01*
X35077478Y-54517166D01*
X35150991Y-54524406D01*
X35175550Y-54524406D01*
X35200000Y-54526814D01*
X35700000Y-54526814D01*
X35773513Y-54519574D01*
X35844200Y-54498131D01*
X35850000Y-54495031D01*
X35855800Y-54498131D01*
X35926487Y-54519574D01*
X36000000Y-54526814D01*
X36500000Y-54526814D01*
X36524450Y-54524406D01*
X36549009Y-54524406D01*
X36622522Y-54517166D01*
X36718655Y-54498044D01*
X36789341Y-54476601D01*
X36879897Y-54439092D01*
X36945045Y-54404270D01*
X37026544Y-54349814D01*
X37083645Y-54302953D01*
X37152953Y-54233645D01*
X37199814Y-54176544D01*
X37254270Y-54095045D01*
X37289092Y-54029897D01*
X37326601Y-53939341D01*
X37348044Y-53868655D01*
X37367166Y-53772522D01*
X37374406Y-53699009D01*
X37374406Y-53674450D01*
X37376814Y-53650000D01*
X37376814Y-53150000D01*
X37374406Y-53125550D01*
X37374406Y-53100991D01*
X37367166Y-53027478D01*
X37348044Y-52931345D01*
X37326601Y-52860659D01*
X37289092Y-52770103D01*
X37254270Y-52704955D01*
X37199814Y-52623456D01*
X37152953Y-52566355D01*
X37083645Y-52497047D01*
X37026544Y-52450186D01*
X37000000Y-52432450D01*
X37000000Y-51356464D01*
X37009203Y-51352652D01*
X37030468Y-51338443D01*
X43875000Y-51338443D01*
X43875000Y-51461557D01*
X43899019Y-51582306D01*
X43946132Y-51696048D01*
X44014531Y-51798414D01*
X44101586Y-51885469D01*
X44203952Y-51953868D01*
X44317694Y-52000981D01*
X44438443Y-52025000D01*
X44561557Y-52025000D01*
X44682306Y-52000981D01*
X44796048Y-51953868D01*
X44898414Y-51885469D01*
X44985469Y-51798414D01*
X45000000Y-51776667D01*
X45014531Y-51798414D01*
X45101586Y-51885469D01*
X45203952Y-51953868D01*
X45300001Y-51993652D01*
X45300000Y-54716117D01*
X45264531Y-54751586D01*
X45196132Y-54853952D01*
X45149019Y-54967694D01*
X45125000Y-55088443D01*
X45125000Y-55211557D01*
X45149019Y-55332306D01*
X45196132Y-55446048D01*
X45264531Y-55548414D01*
X45351586Y-55635469D01*
X45453952Y-55703868D01*
X45567694Y-55750981D01*
X45688443Y-55775000D01*
X45811557Y-55775000D01*
X45932306Y-55750981D01*
X46046048Y-55703868D01*
X46148414Y-55635469D01*
X46235469Y-55548414D01*
X46303868Y-55446048D01*
X46327446Y-55389124D01*
X46425681Y-55389124D01*
X46546430Y-55365105D01*
X46660172Y-55317992D01*
X46762538Y-55249593D01*
X46849593Y-55162538D01*
X46917992Y-55060172D01*
X46965105Y-54946430D01*
X46989124Y-54825681D01*
X46989124Y-54702567D01*
X46965105Y-54581818D01*
X46917992Y-54468076D01*
X46849593Y-54365710D01*
X46762538Y-54278655D01*
X46660172Y-54210256D01*
X46546430Y-54163143D01*
X46425681Y-54139124D01*
X46302567Y-54139124D01*
X46200000Y-54159526D01*
X46200000Y-51672091D01*
X46202176Y-51649999D01*
X46200000Y-51627907D01*
X46200000Y-51627895D01*
X46193489Y-51561785D01*
X46167757Y-51476959D01*
X46125971Y-51398784D01*
X46125000Y-51397601D01*
X46125000Y-51338443D01*
X46100981Y-51217694D01*
X46084588Y-51178117D01*
X46148414Y-51135469D01*
X46235469Y-51048414D01*
X46303868Y-50946048D01*
X46350981Y-50832306D01*
X46375000Y-50711557D01*
X46375000Y-50588443D01*
X46350981Y-50467694D01*
X46303868Y-50353952D01*
X46235469Y-50251586D01*
X46148414Y-50164531D01*
X46046048Y-50096132D01*
X45932306Y-50049019D01*
X45811557Y-50025000D01*
X45688443Y-50025000D01*
X45567694Y-50049019D01*
X45453952Y-50096132D01*
X45351586Y-50164531D01*
X45264531Y-50251586D01*
X45196132Y-50353952D01*
X45149019Y-50467694D01*
X45125000Y-50588443D01*
X45125000Y-50711557D01*
X45149019Y-50832306D01*
X45165412Y-50871883D01*
X45101586Y-50914531D01*
X45014531Y-51001586D01*
X45000000Y-51023333D01*
X44985469Y-51001586D01*
X44898414Y-50914531D01*
X44796048Y-50846132D01*
X44682306Y-50799019D01*
X44561557Y-50775000D01*
X44438443Y-50775000D01*
X44317694Y-50799019D01*
X44203952Y-50846132D01*
X44101586Y-50914531D01*
X44014531Y-51001586D01*
X43946132Y-51103952D01*
X43899019Y-51217694D01*
X43875000Y-51338443D01*
X37030468Y-51338443D01*
X37185272Y-51235007D01*
X37335007Y-51085272D01*
X37452652Y-50909203D01*
X37533688Y-50713566D01*
X37575000Y-50505878D01*
X37575000Y-50294122D01*
X37533688Y-50086434D01*
X37452652Y-49890797D01*
X37335007Y-49714728D01*
X37185272Y-49564993D01*
X37009203Y-49447348D01*
X36894896Y-49400000D01*
X37009203Y-49352652D01*
X37185272Y-49235007D01*
X37335007Y-49085272D01*
X37452652Y-48909203D01*
X37533688Y-48713566D01*
X37575000Y-48505878D01*
X37575000Y-48294122D01*
X37538407Y-48110158D01*
X38867625Y-49439377D01*
X38882499Y-49457501D01*
X38954827Y-49516859D01*
X38983727Y-49532306D01*
X39037345Y-49560966D01*
X39126884Y-49588127D01*
X39220000Y-49597298D01*
X39243332Y-49595000D01*
X49091117Y-49595000D01*
X49101586Y-49605469D01*
X49203952Y-49673868D01*
X49317694Y-49720981D01*
X49438443Y-49745000D01*
X49561557Y-49745000D01*
X49682306Y-49720981D01*
X49796048Y-49673868D01*
X49800001Y-49671227D01*
X49800001Y-49963603D01*
X48447434Y-51316171D01*
X48430263Y-51330263D01*
X48416172Y-51347433D01*
X48374029Y-51398784D01*
X48340476Y-51461557D01*
X48332243Y-51476960D01*
X48306511Y-51561786D01*
X48300000Y-51627896D01*
X48300000Y-51627906D01*
X48297824Y-51650000D01*
X48300000Y-51672095D01*
X48300001Y-54466116D01*
X48264531Y-54501586D01*
X48196132Y-54603952D01*
X48149019Y-54717694D01*
X48125000Y-54838443D01*
X48125000Y-54961557D01*
X48149019Y-55082306D01*
X48196132Y-55196048D01*
X48264531Y-55298414D01*
X48351586Y-55385469D01*
X48453952Y-55453868D01*
X48567694Y-55500981D01*
X48688443Y-55525000D01*
X48811557Y-55525000D01*
X48932306Y-55500981D01*
X49046048Y-55453868D01*
X49148414Y-55385469D01*
X49235469Y-55298414D01*
X49303868Y-55196048D01*
X49350981Y-55082306D01*
X49375000Y-54961557D01*
X49375000Y-54838443D01*
X49350981Y-54717694D01*
X49303868Y-54603952D01*
X49235469Y-54501586D01*
X49200000Y-54466117D01*
X49200000Y-52338443D01*
X50125000Y-52338443D01*
X50125000Y-52461557D01*
X50149019Y-52582306D01*
X50196132Y-52696048D01*
X50264531Y-52798414D01*
X50351586Y-52885469D01*
X50453952Y-52953868D01*
X50567694Y-53000981D01*
X50688443Y-53025000D01*
X50811557Y-53025000D01*
X50932306Y-53000981D01*
X51046048Y-52953868D01*
X51148414Y-52885469D01*
X51235469Y-52798414D01*
X51303868Y-52696048D01*
X51350981Y-52582306D01*
X51375000Y-52461557D01*
X51375000Y-52338443D01*
X51350981Y-52217694D01*
X51303868Y-52103952D01*
X51235469Y-52001586D01*
X51148414Y-51914531D01*
X51046048Y-51846132D01*
X50932306Y-51799019D01*
X50811557Y-51775000D01*
X50688443Y-51775000D01*
X50567694Y-51799019D01*
X50453952Y-51846132D01*
X50351586Y-51914531D01*
X50264531Y-52001586D01*
X50196132Y-52103952D01*
X50149019Y-52217694D01*
X50125000Y-52338443D01*
X49200000Y-52338443D01*
X49200000Y-51836395D01*
X50552572Y-50483824D01*
X50569737Y-50469737D01*
X50583824Y-50452572D01*
X50583828Y-50452568D01*
X50625971Y-50401217D01*
X50667757Y-50323041D01*
X50674746Y-50300000D01*
X50693489Y-50238215D01*
X50700000Y-50172105D01*
X50700000Y-50172093D01*
X50702176Y-50150001D01*
X50700000Y-50127909D01*
X50700000Y-47588443D01*
X51320000Y-47588443D01*
X51320000Y-47711557D01*
X51344019Y-47832306D01*
X51391132Y-47946048D01*
X51459531Y-48048414D01*
X51546586Y-48135469D01*
X51648952Y-48203868D01*
X51762694Y-48250981D01*
X51883443Y-48275000D01*
X52006557Y-48275000D01*
X52127306Y-48250981D01*
X52241048Y-48203868D01*
X52343414Y-48135469D01*
X52430469Y-48048414D01*
X52498868Y-47946048D01*
X52545981Y-47832306D01*
X52570000Y-47711557D01*
X52570000Y-47588443D01*
X53875000Y-47588443D01*
X53875000Y-47711557D01*
X53899019Y-47832306D01*
X53946132Y-47946048D01*
X54014531Y-48048414D01*
X54101586Y-48135469D01*
X54203952Y-48203868D01*
X54317694Y-48250981D01*
X54438443Y-48275000D01*
X54561557Y-48275000D01*
X54682306Y-48250981D01*
X54796048Y-48203868D01*
X54898414Y-48135469D01*
X54985469Y-48048414D01*
X55053868Y-47946048D01*
X55100981Y-47832306D01*
X55125000Y-47711557D01*
X55125000Y-47588443D01*
X55100981Y-47467694D01*
X55053868Y-47353952D01*
X54985469Y-47251586D01*
X54898414Y-47164531D01*
X54796048Y-47096132D01*
X54682306Y-47049019D01*
X54561557Y-47025000D01*
X54438443Y-47025000D01*
X54317694Y-47049019D01*
X54203952Y-47096132D01*
X54101586Y-47164531D01*
X54014531Y-47251586D01*
X53946132Y-47353952D01*
X53899019Y-47467694D01*
X53875000Y-47588443D01*
X52570000Y-47588443D01*
X52545981Y-47467694D01*
X52498868Y-47353952D01*
X52430469Y-47251586D01*
X52343414Y-47164531D01*
X52241048Y-47096132D01*
X52127306Y-47049019D01*
X52006557Y-47025000D01*
X51883443Y-47025000D01*
X51762694Y-47049019D01*
X51648952Y-47096132D01*
X51546586Y-47164531D01*
X51459531Y-47251586D01*
X51391132Y-47353952D01*
X51344019Y-47467694D01*
X51320000Y-47588443D01*
X50700000Y-47588443D01*
X50700000Y-44268383D01*
X50735469Y-44232914D01*
X50803868Y-44130548D01*
X50850981Y-44016806D01*
X50875000Y-43896057D01*
X50875000Y-43772943D01*
X50850981Y-43652194D01*
X50803868Y-43538452D01*
X50735469Y-43436086D01*
X50648414Y-43349031D01*
X50546048Y-43280632D01*
X50432306Y-43233519D01*
X50311557Y-43209500D01*
X50188443Y-43209500D01*
X50067694Y-43233519D01*
X49953952Y-43280632D01*
X49851586Y-43349031D01*
X49764531Y-43436086D01*
X49696132Y-43538452D01*
X49649019Y-43652194D01*
X49625000Y-43772943D01*
X49625000Y-43896057D01*
X49649019Y-44016806D01*
X49696132Y-44130548D01*
X49764531Y-44232914D01*
X49800000Y-44268383D01*
X49800001Y-48568773D01*
X49796048Y-48566132D01*
X49682306Y-48519019D01*
X49561557Y-48495000D01*
X49438443Y-48495000D01*
X49317694Y-48519019D01*
X49203952Y-48566132D01*
X49101586Y-48634531D01*
X49091117Y-48645000D01*
X39416752Y-48645000D01*
X38360194Y-47588443D01*
X48349990Y-47588443D01*
X48349990Y-47711557D01*
X48374009Y-47832306D01*
X48421122Y-47946048D01*
X48489521Y-48048414D01*
X48576576Y-48135469D01*
X48678942Y-48203868D01*
X48792684Y-48250981D01*
X48913433Y-48275000D01*
X49036547Y-48275000D01*
X49157296Y-48250981D01*
X49271038Y-48203868D01*
X49373404Y-48135469D01*
X49460459Y-48048414D01*
X49528858Y-47946048D01*
X49575971Y-47832306D01*
X49599990Y-47711557D01*
X49599990Y-47588443D01*
X49575971Y-47467694D01*
X49528858Y-47353952D01*
X49460459Y-47251586D01*
X49373404Y-47164531D01*
X49271038Y-47096132D01*
X49157296Y-47049019D01*
X49036547Y-47025000D01*
X48913433Y-47025000D01*
X48792684Y-47049019D01*
X48678942Y-47096132D01*
X48576576Y-47164531D01*
X48489521Y-47251586D01*
X48421122Y-47353952D01*
X48374009Y-47467694D01*
X48349990Y-47588443D01*
X38360194Y-47588443D01*
X37519520Y-46747770D01*
X37533688Y-46713566D01*
X37575000Y-46505878D01*
X37575000Y-46294122D01*
X37533688Y-46086434D01*
X37452652Y-45890797D01*
X37407799Y-45823669D01*
X40375000Y-45823669D01*
X40375000Y-45976331D01*
X40404783Y-46126059D01*
X40463204Y-46267100D01*
X40548018Y-46394034D01*
X40655966Y-46501982D01*
X40782900Y-46586796D01*
X40923941Y-46645217D01*
X41073669Y-46675000D01*
X41226331Y-46675000D01*
X41376059Y-46645217D01*
X41517100Y-46586796D01*
X41644034Y-46501982D01*
X41751982Y-46394034D01*
X41836796Y-46267100D01*
X41895217Y-46126059D01*
X41925000Y-45976331D01*
X41925000Y-45823669D01*
X41895217Y-45673941D01*
X41836796Y-45532900D01*
X41751982Y-45405966D01*
X41644034Y-45298018D01*
X41517100Y-45213204D01*
X41376059Y-45154783D01*
X41226331Y-45125000D01*
X41073669Y-45125000D01*
X40923941Y-45154783D01*
X40782900Y-45213204D01*
X40655966Y-45298018D01*
X40548018Y-45405966D01*
X40463204Y-45532900D01*
X40404783Y-45673941D01*
X40375000Y-45823669D01*
X37407799Y-45823669D01*
X37335007Y-45714728D01*
X37185272Y-45564993D01*
X37009203Y-45447348D01*
X36813566Y-45366312D01*
X36605878Y-45325000D01*
X36394122Y-45325000D01*
X36186434Y-45366312D01*
X35990797Y-45447348D01*
X35814728Y-45564993D01*
X35664993Y-45714728D01*
X35547348Y-45890797D01*
X35466312Y-46086434D01*
X35425000Y-46294122D01*
X35425000Y-46505878D01*
X35466312Y-46713566D01*
X35470124Y-46722770D01*
X34863819Y-47329076D01*
X34844737Y-47344736D01*
X34782255Y-47420871D01*
X34745478Y-47489676D01*
X34735826Y-47507733D01*
X34707235Y-47601983D01*
X34697581Y-47700000D01*
X34700001Y-47724570D01*
X34700000Y-52432450D01*
X34673456Y-52450186D01*
X34616355Y-52497047D01*
X34547047Y-52566355D01*
X34500186Y-52623456D01*
X34445730Y-52704955D01*
X34410908Y-52770103D01*
X34373399Y-52860659D01*
X34351956Y-52931345D01*
X34332834Y-53027478D01*
X34325594Y-53100991D01*
X34325594Y-53125550D01*
X34323186Y-53150000D01*
X30400000Y-53150000D01*
X30400000Y-46294122D01*
X32125000Y-46294122D01*
X32125000Y-46505878D01*
X32166312Y-46713566D01*
X32247348Y-46909203D01*
X32364993Y-47085272D01*
X32514728Y-47235007D01*
X32690797Y-47352652D01*
X32805104Y-47400000D01*
X32690797Y-47447348D01*
X32514728Y-47564993D01*
X32364993Y-47714728D01*
X32247348Y-47890797D01*
X32166312Y-48086434D01*
X32125000Y-48294122D01*
X32125000Y-48505878D01*
X32166312Y-48713566D01*
X32247348Y-48909203D01*
X32364993Y-49085272D01*
X32514728Y-49235007D01*
X32690797Y-49352652D01*
X32805104Y-49400000D01*
X32690797Y-49447348D01*
X32514728Y-49564993D01*
X32364993Y-49714728D01*
X32247348Y-49890797D01*
X32166312Y-50086434D01*
X32125000Y-50294122D01*
X32125000Y-50505878D01*
X32166312Y-50713566D01*
X32247348Y-50909203D01*
X32364993Y-51085272D01*
X32514728Y-51235007D01*
X32690797Y-51352652D01*
X32886434Y-51433688D01*
X33094122Y-51475000D01*
X33305878Y-51475000D01*
X33513566Y-51433688D01*
X33709203Y-51352652D01*
X33885272Y-51235007D01*
X34035007Y-51085272D01*
X34152652Y-50909203D01*
X34233688Y-50713566D01*
X34275000Y-50505878D01*
X34275000Y-50294122D01*
X34233688Y-50086434D01*
X34152652Y-49890797D01*
X34035007Y-49714728D01*
X33885272Y-49564993D01*
X33709203Y-49447348D01*
X33594896Y-49400000D01*
X33709203Y-49352652D01*
X33885272Y-49235007D01*
X34035007Y-49085272D01*
X34152652Y-48909203D01*
X34233688Y-48713566D01*
X34275000Y-48505878D01*
X34275000Y-48294122D01*
X34233688Y-48086434D01*
X34152652Y-47890797D01*
X34035007Y-47714728D01*
X33885272Y-47564993D01*
X33709203Y-47447348D01*
X33594896Y-47400000D01*
X33709203Y-47352652D01*
X33885272Y-47235007D01*
X34035007Y-47085272D01*
X34152652Y-46909203D01*
X34233688Y-46713566D01*
X34275000Y-46505878D01*
X34275000Y-46294122D01*
X34233688Y-46086434D01*
X34152652Y-45890797D01*
X34035007Y-45714728D01*
X33885272Y-45564993D01*
X33709203Y-45447348D01*
X33513566Y-45366312D01*
X33305878Y-45325000D01*
X33094122Y-45325000D01*
X32886434Y-45366312D01*
X32690797Y-45447348D01*
X32514728Y-45564993D01*
X32364993Y-45714728D01*
X32247348Y-45890797D01*
X32166312Y-46086434D01*
X32125000Y-46294122D01*
X30400000Y-46294122D01*
X30400000Y-40050000D01*
X32123186Y-40050000D01*
X32123186Y-40750000D01*
X32137152Y-40891794D01*
X32178511Y-41028140D01*
X32245676Y-41153796D01*
X32336065Y-41263935D01*
X32446204Y-41354324D01*
X32571860Y-41421489D01*
X32680278Y-41454376D01*
X32514728Y-41564993D01*
X32364993Y-41714728D01*
X32247348Y-41890797D01*
X32166312Y-42086434D01*
X32125000Y-42294122D01*
X32125000Y-42505878D01*
X32166312Y-42713566D01*
X32247348Y-42909203D01*
X32364993Y-43085272D01*
X32514728Y-43235007D01*
X32690797Y-43352652D01*
X32886434Y-43433688D01*
X33094122Y-43475000D01*
X33305878Y-43475000D01*
X33513566Y-43433688D01*
X33709203Y-43352652D01*
X33885272Y-43235007D01*
X34035007Y-43085272D01*
X34152652Y-42909203D01*
X34233688Y-42713566D01*
X34275000Y-42505878D01*
X34275000Y-42294122D01*
X34233688Y-42086434D01*
X34152652Y-41890797D01*
X34035007Y-41714728D01*
X33885272Y-41564993D01*
X33719722Y-41454376D01*
X33828140Y-41421489D01*
X33953796Y-41354324D01*
X34063935Y-41263935D01*
X34154324Y-41153796D01*
X34221489Y-41028140D01*
X34262848Y-40891794D01*
X34276814Y-40750000D01*
X34276814Y-40294122D01*
X35425000Y-40294122D01*
X35425000Y-40505878D01*
X35466312Y-40713566D01*
X35547348Y-40909203D01*
X35664993Y-41085272D01*
X35814728Y-41235007D01*
X35990797Y-41352652D01*
X36105104Y-41400000D01*
X35990797Y-41447348D01*
X35814728Y-41564993D01*
X35664993Y-41714728D01*
X35547348Y-41890797D01*
X35466312Y-42086434D01*
X35425000Y-42294122D01*
X35425000Y-42505878D01*
X35466312Y-42713566D01*
X35547348Y-42909203D01*
X35664993Y-43085272D01*
X35814728Y-43235007D01*
X35990797Y-43352652D01*
X36186434Y-43433688D01*
X36394122Y-43475000D01*
X36605878Y-43475000D01*
X36813566Y-43433688D01*
X37009203Y-43352652D01*
X37185272Y-43235007D01*
X37335007Y-43085272D01*
X37452652Y-42909203D01*
X37533688Y-42713566D01*
X37575000Y-42505878D01*
X37575000Y-42294122D01*
X37533688Y-42086434D01*
X37452652Y-41890797D01*
X37335007Y-41714728D01*
X37208722Y-41588443D01*
X51320000Y-41588443D01*
X51320000Y-41711557D01*
X51344019Y-41832306D01*
X51391132Y-41946048D01*
X51459531Y-42048414D01*
X51546586Y-42135469D01*
X51648952Y-42203868D01*
X51762694Y-42250981D01*
X51883443Y-42275000D01*
X52006557Y-42275000D01*
X52127306Y-42250981D01*
X52241048Y-42203868D01*
X52343414Y-42135469D01*
X52430469Y-42048414D01*
X52498868Y-41946048D01*
X52545981Y-41832306D01*
X52570000Y-41711557D01*
X52570000Y-41588443D01*
X52545981Y-41467694D01*
X52498868Y-41353952D01*
X52430469Y-41251586D01*
X52343414Y-41164531D01*
X52241048Y-41096132D01*
X52127306Y-41049019D01*
X52006557Y-41025000D01*
X51883443Y-41025000D01*
X51762694Y-41049019D01*
X51648952Y-41096132D01*
X51546586Y-41164531D01*
X51459531Y-41251586D01*
X51391132Y-41353952D01*
X51344019Y-41467694D01*
X51320000Y-41588443D01*
X37208722Y-41588443D01*
X37185272Y-41564993D01*
X37009203Y-41447348D01*
X36894896Y-41400000D01*
X37009203Y-41352652D01*
X37185272Y-41235007D01*
X37335007Y-41085272D01*
X37452652Y-40909203D01*
X37533688Y-40713566D01*
X37575000Y-40505878D01*
X37575000Y-40294122D01*
X37533688Y-40086434D01*
X37452652Y-39890797D01*
X37335007Y-39714728D01*
X37185272Y-39564993D01*
X37009203Y-39447348D01*
X36813566Y-39366312D01*
X36605878Y-39325000D01*
X36394122Y-39325000D01*
X36186434Y-39366312D01*
X35990797Y-39447348D01*
X35814728Y-39564993D01*
X35664993Y-39714728D01*
X35547348Y-39890797D01*
X35466312Y-40086434D01*
X35425000Y-40294122D01*
X34276814Y-40294122D01*
X34276814Y-40050000D01*
X34262848Y-39908206D01*
X34221489Y-39771860D01*
X34154324Y-39646204D01*
X34063935Y-39536065D01*
X33953796Y-39445676D01*
X33828140Y-39378511D01*
X33691794Y-39337152D01*
X33550000Y-39323186D01*
X32850000Y-39323186D01*
X32708206Y-39337152D01*
X32571860Y-39378511D01*
X32446204Y-39445676D01*
X32336065Y-39536065D01*
X32245676Y-39646204D01*
X32178511Y-39771860D01*
X32137152Y-39908206D01*
X32123186Y-40050000D01*
X30400000Y-40050000D01*
X30400000Y-33019564D01*
X30420991Y-32805479D01*
X31025000Y-32805479D01*
X31025000Y-33194521D01*
X31100898Y-33576086D01*
X31249778Y-33935513D01*
X31465917Y-34258989D01*
X31741011Y-34534083D01*
X32064487Y-34750222D01*
X32423914Y-34899102D01*
X32805479Y-34975000D01*
X33194521Y-34975000D01*
X33576086Y-34899102D01*
X33745896Y-34828764D01*
X37938013Y-34828764D01*
X38034171Y-35090610D01*
X38321910Y-35230854D01*
X38631481Y-35312268D01*
X38950986Y-35331723D01*
X39268147Y-35288472D01*
X39570777Y-35184178D01*
X39745829Y-35090610D01*
X39841987Y-34828764D01*
X38890000Y-33876777D01*
X37938013Y-34828764D01*
X33745896Y-34828764D01*
X33935513Y-34750222D01*
X34258989Y-34534083D01*
X34534083Y-34258989D01*
X34750222Y-33935513D01*
X34822513Y-33760986D01*
X37258277Y-33760986D01*
X37301528Y-34078147D01*
X37405822Y-34380777D01*
X37499390Y-34555829D01*
X37761236Y-34651987D01*
X38713223Y-33700000D01*
X39066777Y-33700000D01*
X40018764Y-34651987D01*
X40280610Y-34555829D01*
X40420854Y-34268090D01*
X40502268Y-33958519D01*
X40521723Y-33639014D01*
X40478472Y-33321853D01*
X40462326Y-33275000D01*
X45153186Y-33275000D01*
X45153186Y-34125000D01*
X45168593Y-34281426D01*
X45214220Y-34431841D01*
X45288316Y-34570464D01*
X45388032Y-34691968D01*
X45509536Y-34791684D01*
X45648159Y-34865780D01*
X45798574Y-34911407D01*
X45955000Y-34926814D01*
X46805000Y-34926814D01*
X46961426Y-34911407D01*
X47111841Y-34865780D01*
X47250464Y-34791684D01*
X47371968Y-34691968D01*
X47471684Y-34570464D01*
X47545780Y-34431841D01*
X47580902Y-34316058D01*
X47584406Y-34325962D01*
X47732188Y-34574496D01*
X47925617Y-34789423D01*
X48157260Y-34962485D01*
X48418214Y-35087030D01*
X48566628Y-35132045D01*
X48795000Y-35012812D01*
X48795000Y-33825000D01*
X48775000Y-33825000D01*
X48775000Y-33575000D01*
X48795000Y-33575000D01*
X48795000Y-32387188D01*
X48566628Y-32267955D01*
X48418214Y-32312970D01*
X48157260Y-32437515D01*
X47925617Y-32610577D01*
X47732188Y-32825504D01*
X47584406Y-33074038D01*
X47580902Y-33083942D01*
X47545780Y-32968159D01*
X47471684Y-32829536D01*
X47371968Y-32708032D01*
X47250464Y-32608316D01*
X47111841Y-32534220D01*
X46961426Y-32488593D01*
X46805000Y-32473186D01*
X45955000Y-32473186D01*
X45798574Y-32488593D01*
X45648159Y-32534220D01*
X45509536Y-32608316D01*
X45388032Y-32708032D01*
X45288316Y-32829536D01*
X45214220Y-32968159D01*
X45168593Y-33118574D01*
X45153186Y-33275000D01*
X40462326Y-33275000D01*
X40374178Y-33019223D01*
X40280610Y-32844171D01*
X40018764Y-32748013D01*
X39066777Y-33700000D01*
X38713223Y-33700000D01*
X37761236Y-32748013D01*
X37499390Y-32844171D01*
X37359146Y-33131910D01*
X37277732Y-33441481D01*
X37258277Y-33760986D01*
X34822513Y-33760986D01*
X34899102Y-33576086D01*
X34975000Y-33194521D01*
X34975000Y-32805479D01*
X34928407Y-32571236D01*
X37938013Y-32571236D01*
X38890000Y-33523223D01*
X39841987Y-32571236D01*
X39745829Y-32309390D01*
X39458090Y-32169146D01*
X39148519Y-32087732D01*
X38829014Y-32068277D01*
X38511853Y-32111528D01*
X38209223Y-32215822D01*
X38034171Y-32309390D01*
X37938013Y-32571236D01*
X34928407Y-32571236D01*
X34899102Y-32423914D01*
X34750222Y-32064487D01*
X34534083Y-31741011D01*
X34258989Y-31465917D01*
X33935513Y-31249778D01*
X33576086Y-31100898D01*
X33194521Y-31025000D01*
X32805479Y-31025000D01*
X32423914Y-31100898D01*
X32064487Y-31249778D01*
X31741011Y-31465917D01*
X31465917Y-31741011D01*
X31249778Y-32064487D01*
X31100898Y-32423914D01*
X31025000Y-32805479D01*
X30420991Y-32805479D01*
X30451399Y-32495364D01*
X30597955Y-32009945D01*
X30836000Y-31562246D01*
X31156479Y-31169301D01*
X31547170Y-30846093D01*
X31993204Y-30604924D01*
X32477582Y-30454983D01*
X33000712Y-30400000D01*
X72980436Y-30400000D01*
X73504636Y-30451399D01*
G37*
G04 #@! TD.AperFunction*
D24*
X68502415Y-46724520D02*
X68502427Y-46724520D01*
X68524519Y-46726696D01*
X68546611Y-46724520D01*
X71104766Y-46724520D01*
X71126860Y-46726696D01*
X71148954Y-46724520D01*
X72362403Y-46724520D01*
X73350010Y-47712128D01*
X73350009Y-54353595D01*
X72267575Y-55436030D01*
X72137319Y-55382076D01*
X71900652Y-55335000D01*
X71659348Y-55335000D01*
X71422681Y-55382076D01*
X71199745Y-55474419D01*
X70999108Y-55608481D01*
X70828481Y-55779108D01*
X70694419Y-55979745D01*
X70602076Y-56202681D01*
X70555000Y-56439348D01*
X70555000Y-56680652D01*
X70602076Y-56917319D01*
X70694419Y-57140255D01*
X70828481Y-57340892D01*
X70999108Y-57511519D01*
X71199745Y-57645581D01*
X71422681Y-57737924D01*
X71659348Y-57785000D01*
X71900652Y-57785000D01*
X72137319Y-57737924D01*
X72360255Y-57645581D01*
X72560892Y-57511519D01*
X72731519Y-57340892D01*
X72865581Y-57140255D01*
X72957924Y-56917319D01*
X73005000Y-56680652D01*
X73005000Y-56439348D01*
X72957924Y-56202681D01*
X72903970Y-56072425D01*
X73650020Y-55326376D01*
X73650020Y-56593584D01*
X72267575Y-57976030D01*
X72137319Y-57922076D01*
X71900652Y-57875000D01*
X71659348Y-57875000D01*
X71422681Y-57922076D01*
X71199745Y-58014419D01*
X70999108Y-58148481D01*
X70828481Y-58319108D01*
X70694419Y-58519745D01*
X70602076Y-58742681D01*
X70555000Y-58979348D01*
X70555000Y-59220652D01*
X70602076Y-59457319D01*
X70694419Y-59680255D01*
X70828481Y-59880892D01*
X70999108Y-60051519D01*
X71199745Y-60185581D01*
X71422681Y-60277924D01*
X71659348Y-60325000D01*
X71900652Y-60325000D01*
X72137319Y-60277924D01*
X72360255Y-60185581D01*
X72560892Y-60051519D01*
X72731519Y-59880892D01*
X72865581Y-59680255D01*
X72957924Y-59457319D01*
X73005000Y-59220652D01*
X73005000Y-58979348D01*
X72957924Y-58742681D01*
X72903970Y-58612425D01*
X74050000Y-57466395D01*
X74050000Y-63813604D01*
X72267575Y-65596030D01*
X72137319Y-65542076D01*
X71900652Y-65495000D01*
X71659348Y-65495000D01*
X71422681Y-65542076D01*
X71199745Y-65634419D01*
X70999108Y-65768481D01*
X70828481Y-65939108D01*
X70694419Y-66139745D01*
X70602076Y-66362681D01*
X70599990Y-66373168D01*
X70599990Y-65996405D01*
X71292425Y-65303970D01*
X71422681Y-65357924D01*
X71659348Y-65405000D01*
X71900652Y-65405000D01*
X72137319Y-65357924D01*
X72360255Y-65265581D01*
X72560892Y-65131519D01*
X72731519Y-64960892D01*
X72865581Y-64760255D01*
X72957924Y-64537319D01*
X73005000Y-64300652D01*
X73005000Y-64059348D01*
X72957924Y-63822681D01*
X72865581Y-63599745D01*
X72731519Y-63399108D01*
X72560892Y-63228481D01*
X72360255Y-63094419D01*
X72137319Y-63002076D01*
X71900652Y-62955000D01*
X71659348Y-62955000D01*
X71422681Y-63002076D01*
X71199745Y-63094419D01*
X70999108Y-63228481D01*
X70828481Y-63399108D01*
X70694419Y-63599745D01*
X70602076Y-63822681D01*
X70555000Y-64059348D01*
X70555000Y-64300652D01*
X70602076Y-64537319D01*
X70656030Y-64667575D01*
X69847424Y-65476181D01*
X69830253Y-65490273D01*
X69816162Y-65507443D01*
X69774019Y-65558794D01*
X69749882Y-65603952D01*
X69732233Y-65636970D01*
X69706501Y-65721796D01*
X69699990Y-65787906D01*
X69699990Y-65787916D01*
X69697814Y-65810010D01*
X69699990Y-65832104D01*
X69699991Y-71199335D01*
X67474326Y-73425001D01*
X55235912Y-73425001D01*
X55196128Y-73328952D01*
X55193488Y-73325001D01*
X65002905Y-73325001D01*
X65024999Y-73327177D01*
X65047093Y-73325001D01*
X65047104Y-73325001D01*
X65113214Y-73318490D01*
X65198040Y-73292758D01*
X65276215Y-73250972D01*
X65344736Y-73194738D01*
X65358827Y-73177568D01*
X65851992Y-72684403D01*
X65919108Y-72751519D01*
X66119745Y-72885581D01*
X66342681Y-72977924D01*
X66579348Y-73025000D01*
X66820652Y-73025000D01*
X67057319Y-72977924D01*
X67280255Y-72885581D01*
X67480892Y-72751519D01*
X67651519Y-72580892D01*
X67785581Y-72380255D01*
X67877924Y-72157319D01*
X67925000Y-71920652D01*
X67925000Y-71679348D01*
X67877924Y-71442681D01*
X67785581Y-71219745D01*
X67651519Y-71019108D01*
X67480892Y-70848481D01*
X67280255Y-70714419D01*
X67057319Y-70622076D01*
X66820652Y-70575000D01*
X66579348Y-70575000D01*
X66342681Y-70622076D01*
X66119745Y-70714419D01*
X66074999Y-70744317D01*
X66074999Y-70521396D01*
X66124413Y-70471982D01*
X66275000Y-70486814D01*
X67125000Y-70486814D01*
X67281426Y-70471407D01*
X67431841Y-70425780D01*
X67570464Y-70351684D01*
X67691968Y-70251968D01*
X67791684Y-70130464D01*
X67865780Y-69991841D01*
X67911407Y-69841426D01*
X67926814Y-69685000D01*
X67926814Y-68835000D01*
X67911407Y-68678574D01*
X67865780Y-68528159D01*
X67791684Y-68389536D01*
X67691968Y-68268032D01*
X67570464Y-68168316D01*
X67431841Y-68094220D01*
X67281426Y-68048593D01*
X67125000Y-68033186D01*
X66275000Y-68033186D01*
X66118574Y-68048593D01*
X65968159Y-68094220D01*
X65829536Y-68168316D01*
X65708032Y-68268032D01*
X65608316Y-68389536D01*
X65534220Y-68528159D01*
X65488593Y-68678574D01*
X65473186Y-68835000D01*
X65473186Y-69685000D01*
X65488018Y-69835587D01*
X65322433Y-70001172D01*
X65305262Y-70015264D01*
X65291172Y-70032433D01*
X65291171Y-70032434D01*
X65249028Y-70083785D01*
X65214219Y-70148908D01*
X65207242Y-70161961D01*
X65181510Y-70246787D01*
X65174999Y-70312897D01*
X65174999Y-70312907D01*
X65172823Y-70335001D01*
X65174999Y-70357096D01*
X65174999Y-71114113D01*
X65111519Y-71019108D01*
X64940892Y-70848481D01*
X64740255Y-70714419D01*
X64517319Y-70622076D01*
X64280652Y-70575000D01*
X64039348Y-70575000D01*
X63802681Y-70622076D01*
X63672425Y-70676030D01*
X63028828Y-70032433D01*
X63014738Y-70015264D01*
X62946217Y-69959030D01*
X62868042Y-69917244D01*
X62783216Y-69891512D01*
X62717106Y-69885001D01*
X62717095Y-69885001D01*
X62695001Y-69882825D01*
X62675878Y-69884708D01*
X62705581Y-69840255D01*
X62797924Y-69617319D01*
X62845000Y-69380652D01*
X62845000Y-69139348D01*
X62935000Y-69139348D01*
X62935000Y-69380652D01*
X62982076Y-69617319D01*
X63074419Y-69840255D01*
X63208481Y-70040892D01*
X63379108Y-70211519D01*
X63579745Y-70345581D01*
X63802681Y-70437924D01*
X64039348Y-70485000D01*
X64280652Y-70485000D01*
X64517319Y-70437924D01*
X64740255Y-70345581D01*
X64940892Y-70211519D01*
X65111519Y-70040892D01*
X65245581Y-69840255D01*
X65337924Y-69617319D01*
X65385000Y-69380652D01*
X65385000Y-69139348D01*
X65337924Y-68902681D01*
X65245581Y-68679745D01*
X65111519Y-68479108D01*
X64940892Y-68308481D01*
X64740255Y-68174419D01*
X64517319Y-68082076D01*
X64280652Y-68035000D01*
X64039348Y-68035000D01*
X63802681Y-68082076D01*
X63579745Y-68174419D01*
X63379108Y-68308481D01*
X63208481Y-68479108D01*
X63074419Y-68679745D01*
X62982076Y-68902681D01*
X62935000Y-69139348D01*
X62845000Y-69139348D01*
X62797924Y-68902681D01*
X62705581Y-68679745D01*
X62571519Y-68479108D01*
X62400892Y-68308481D01*
X62200255Y-68174419D01*
X61977319Y-68082076D01*
X61740652Y-68035000D01*
X61499348Y-68035000D01*
X61262681Y-68082076D01*
X61039745Y-68174419D01*
X60839108Y-68308481D01*
X60668481Y-68479108D01*
X60534419Y-68679745D01*
X60479060Y-68813395D01*
X60415594Y-68634038D01*
X60267812Y-68385504D01*
X60074383Y-68170577D01*
X59842740Y-67997515D01*
X59581786Y-67872970D01*
X59433372Y-67827955D01*
X59205002Y-67947187D01*
X59205002Y-67855671D01*
X60860674Y-66200000D01*
X68477906Y-66200000D01*
X68500000Y-66202176D01*
X68522094Y-66200000D01*
X68522105Y-66200000D01*
X68588215Y-66193489D01*
X68673041Y-66167757D01*
X68751216Y-66125971D01*
X68819737Y-66069737D01*
X68833829Y-66052566D01*
X70302572Y-64583824D01*
X70319737Y-64569737D01*
X70333824Y-64552572D01*
X70333828Y-64552568D01*
X70375971Y-64501217D01*
X70417757Y-64423041D01*
X70419360Y-64417757D01*
X70443489Y-64338215D01*
X70450000Y-64272105D01*
X70450000Y-64272093D01*
X70452176Y-64250001D01*
X70450000Y-64227909D01*
X70450000Y-61519348D01*
X70555000Y-61519348D01*
X70555000Y-61760652D01*
X70602076Y-61997319D01*
X70694419Y-62220255D01*
X70828481Y-62420892D01*
X70999108Y-62591519D01*
X71199745Y-62725581D01*
X71422681Y-62817924D01*
X71659348Y-62865000D01*
X71900652Y-62865000D01*
X72137319Y-62817924D01*
X72360255Y-62725581D01*
X72560892Y-62591519D01*
X72731519Y-62420892D01*
X72865581Y-62220255D01*
X72957924Y-61997319D01*
X73005000Y-61760652D01*
X73005000Y-61519348D01*
X72957924Y-61282681D01*
X72865581Y-61059745D01*
X72731519Y-60859108D01*
X72560892Y-60688481D01*
X72360255Y-60554419D01*
X72137319Y-60462076D01*
X71900652Y-60415000D01*
X71659348Y-60415000D01*
X71422681Y-60462076D01*
X71199745Y-60554419D01*
X70999108Y-60688481D01*
X70828481Y-60859108D01*
X70694419Y-61059745D01*
X70602076Y-61282681D01*
X70555000Y-61519348D01*
X70450000Y-61519348D01*
X70450000Y-60772094D01*
X70452176Y-60749999D01*
X70450000Y-60727905D01*
X70450000Y-60727895D01*
X70443489Y-60661785D01*
X70417757Y-60576959D01*
X70416710Y-60575000D01*
X70375971Y-60498783D01*
X70333828Y-60447432D01*
X70333824Y-60447428D01*
X70319737Y-60430263D01*
X70302573Y-60416177D01*
X68625000Y-58738605D01*
X68625000Y-58688443D01*
X68600981Y-58567694D01*
X68553868Y-58453952D01*
X68485469Y-58351586D01*
X68398414Y-58264531D01*
X68296048Y-58196132D01*
X68182306Y-58149019D01*
X68061557Y-58125000D01*
X67938443Y-58125000D01*
X67817694Y-58149019D01*
X67703952Y-58196132D01*
X67601586Y-58264531D01*
X67514531Y-58351586D01*
X67446132Y-58453952D01*
X67399019Y-58567694D01*
X67375000Y-58688443D01*
X67375000Y-58811557D01*
X67399019Y-58932306D01*
X67446132Y-59046048D01*
X67514531Y-59148414D01*
X67601586Y-59235469D01*
X67703952Y-59303868D01*
X67817694Y-59350981D01*
X67938443Y-59375000D01*
X67988605Y-59375000D01*
X69550000Y-60936396D01*
X69550001Y-62548773D01*
X69546048Y-62546132D01*
X69432306Y-62499019D01*
X69364474Y-62485526D01*
X69350981Y-62417694D01*
X69303868Y-62303952D01*
X69235469Y-62201586D01*
X69148414Y-62114531D01*
X69046048Y-62046132D01*
X68932306Y-61999019D01*
X68811557Y-61975000D01*
X68761396Y-61975000D01*
X66121395Y-59335000D01*
X66316117Y-59335000D01*
X66351586Y-59370469D01*
X66453952Y-59438868D01*
X66567694Y-59485981D01*
X66688443Y-59510000D01*
X66811557Y-59510000D01*
X66932306Y-59485981D01*
X67046048Y-59438868D01*
X67148414Y-59370469D01*
X67235469Y-59283414D01*
X67303868Y-59181048D01*
X67350981Y-59067306D01*
X67375000Y-58946557D01*
X67375000Y-58823443D01*
X67350981Y-58702694D01*
X67303868Y-58588952D01*
X67235469Y-58486586D01*
X67148414Y-58399531D01*
X67046048Y-58331132D01*
X66980077Y-58303806D01*
X66985469Y-58298414D01*
X67053868Y-58196048D01*
X67100981Y-58082306D01*
X67125000Y-57961557D01*
X67125000Y-57911396D01*
X67332572Y-57703824D01*
X67349737Y-57689737D01*
X67363824Y-57672572D01*
X67363828Y-57672568D01*
X67405971Y-57621217D01*
X67447757Y-57543041D01*
X67449218Y-57538225D01*
X67473489Y-57458215D01*
X67480000Y-57392105D01*
X67480000Y-57392095D01*
X67482176Y-57370001D01*
X67480000Y-57347907D01*
X67480000Y-54890360D01*
X67576537Y-54890360D01*
X67697286Y-54866341D01*
X67811028Y-54819228D01*
X67913394Y-54750829D01*
X68000449Y-54663774D01*
X68068848Y-54561408D01*
X68115961Y-54447666D01*
X68139980Y-54326917D01*
X68139980Y-54203803D01*
X68115961Y-54083054D01*
X68068848Y-53969312D01*
X68000449Y-53866946D01*
X67964980Y-53831477D01*
X67964980Y-51338443D01*
X68125000Y-51338443D01*
X68125000Y-51461557D01*
X68149019Y-51582306D01*
X68196132Y-51696048D01*
X68264531Y-51798414D01*
X68351586Y-51885469D01*
X68453952Y-51953868D01*
X68567694Y-52000981D01*
X68688443Y-52025000D01*
X68811557Y-52025000D01*
X68932306Y-52000981D01*
X69046048Y-51953868D01*
X69148414Y-51885469D01*
X69200511Y-51833372D01*
X70347955Y-51833372D01*
X70392970Y-51981786D01*
X70517515Y-52242740D01*
X70690577Y-52474383D01*
X70905504Y-52667812D01*
X71154038Y-52815594D01*
X71333395Y-52879060D01*
X71199745Y-52934419D01*
X70999108Y-53068481D01*
X70828481Y-53239108D01*
X70694419Y-53439745D01*
X70602076Y-53662681D01*
X70555000Y-53899348D01*
X70555000Y-54140652D01*
X70602076Y-54377319D01*
X70694419Y-54600255D01*
X70828481Y-54800892D01*
X70999108Y-54971519D01*
X71199745Y-55105581D01*
X71422681Y-55197924D01*
X71659348Y-55245000D01*
X71900652Y-55245000D01*
X72137319Y-55197924D01*
X72360255Y-55105581D01*
X72560892Y-54971519D01*
X72731519Y-54800892D01*
X72865581Y-54600255D01*
X72957924Y-54377319D01*
X73005000Y-54140652D01*
X73005000Y-53899348D01*
X72957924Y-53662681D01*
X72865581Y-53439745D01*
X72731519Y-53239108D01*
X72560892Y-53068481D01*
X72360255Y-52934419D01*
X72226605Y-52879060D01*
X72405962Y-52815594D01*
X72654496Y-52667812D01*
X72869423Y-52474383D01*
X73042485Y-52242740D01*
X73167030Y-51981786D01*
X73212045Y-51833372D01*
X73092812Y-51605000D01*
X71905000Y-51605000D01*
X71905000Y-51625000D01*
X71655000Y-51625000D01*
X71655000Y-51605000D01*
X70467188Y-51605000D01*
X70347955Y-51833372D01*
X69200511Y-51833372D01*
X69235469Y-51798414D01*
X69303868Y-51696048D01*
X69350981Y-51582306D01*
X69375000Y-51461557D01*
X69375000Y-51338443D01*
X69350981Y-51217694D01*
X69313261Y-51126628D01*
X70347955Y-51126628D01*
X70467188Y-51355000D01*
X71655000Y-51355000D01*
X71655000Y-51335000D01*
X71905000Y-51335000D01*
X71905000Y-51355000D01*
X73092812Y-51355000D01*
X73212045Y-51126628D01*
X73167030Y-50978214D01*
X73042485Y-50717260D01*
X72869423Y-50485617D01*
X72654496Y-50292188D01*
X72405962Y-50144406D01*
X72396058Y-50140902D01*
X72511841Y-50105780D01*
X72650464Y-50031684D01*
X72771968Y-49931968D01*
X72871684Y-49810464D01*
X72945780Y-49671841D01*
X72991407Y-49521426D01*
X73006814Y-49365000D01*
X73006814Y-48515000D01*
X72991407Y-48358574D01*
X72945780Y-48208159D01*
X72871684Y-48069536D01*
X72771968Y-47948032D01*
X72650464Y-47848316D01*
X72511841Y-47774220D01*
X72361426Y-47728593D01*
X72205000Y-47713186D01*
X71355000Y-47713186D01*
X71198574Y-47728593D01*
X71048159Y-47774220D01*
X70909536Y-47848316D01*
X70788032Y-47948032D01*
X70688316Y-48069536D01*
X70614220Y-48208159D01*
X70568593Y-48358574D01*
X70553186Y-48515000D01*
X70553186Y-49365000D01*
X70568593Y-49521426D01*
X70614220Y-49671841D01*
X70688316Y-49810464D01*
X70788032Y-49931968D01*
X70909536Y-50031684D01*
X71048159Y-50105780D01*
X71163942Y-50140902D01*
X71154038Y-50144406D01*
X70905504Y-50292188D01*
X70690577Y-50485617D01*
X70517515Y-50717260D01*
X70392970Y-50978214D01*
X70347955Y-51126628D01*
X69313261Y-51126628D01*
X69303868Y-51103952D01*
X69235469Y-51001586D01*
X69148414Y-50914531D01*
X69046048Y-50846132D01*
X68932306Y-50799019D01*
X68811557Y-50775000D01*
X68688443Y-50775000D01*
X68567694Y-50799019D01*
X68453952Y-50846132D01*
X68351586Y-50914531D01*
X68264531Y-51001586D01*
X68196132Y-51103952D01*
X68149019Y-51217694D01*
X68125000Y-51338443D01*
X67964980Y-51338443D01*
X67964980Y-47775000D01*
X68061557Y-47775000D01*
X68182306Y-47750981D01*
X68296048Y-47703868D01*
X68398414Y-47635469D01*
X68485469Y-47548414D01*
X68553868Y-47446048D01*
X68600981Y-47332306D01*
X68625000Y-47211557D01*
X68625000Y-47088443D01*
X68600981Y-46967694D01*
X68553868Y-46853952D01*
X68485469Y-46751586D01*
X68453595Y-46719712D01*
X68502415Y-46724520D01*
G04 #@! TA.AperFunction,Conductor*
D26*
G36*
X68502415Y-46724520D02*
G01*
X68502427Y-46724520D01*
X68524519Y-46726696D01*
X68546611Y-46724520D01*
X71104766Y-46724520D01*
X71126860Y-46726696D01*
X71148954Y-46724520D01*
X72362403Y-46724520D01*
X73350010Y-47712128D01*
X73350009Y-54353595D01*
X72267575Y-55436030D01*
X72137319Y-55382076D01*
X71900652Y-55335000D01*
X71659348Y-55335000D01*
X71422681Y-55382076D01*
X71199745Y-55474419D01*
X70999108Y-55608481D01*
X70828481Y-55779108D01*
X70694419Y-55979745D01*
X70602076Y-56202681D01*
X70555000Y-56439348D01*
X70555000Y-56680652D01*
X70602076Y-56917319D01*
X70694419Y-57140255D01*
X70828481Y-57340892D01*
X70999108Y-57511519D01*
X71199745Y-57645581D01*
X71422681Y-57737924D01*
X71659348Y-57785000D01*
X71900652Y-57785000D01*
X72137319Y-57737924D01*
X72360255Y-57645581D01*
X72560892Y-57511519D01*
X72731519Y-57340892D01*
X72865581Y-57140255D01*
X72957924Y-56917319D01*
X73005000Y-56680652D01*
X73005000Y-56439348D01*
X72957924Y-56202681D01*
X72903970Y-56072425D01*
X73650020Y-55326376D01*
X73650020Y-56593584D01*
X72267575Y-57976030D01*
X72137319Y-57922076D01*
X71900652Y-57875000D01*
X71659348Y-57875000D01*
X71422681Y-57922076D01*
X71199745Y-58014419D01*
X70999108Y-58148481D01*
X70828481Y-58319108D01*
X70694419Y-58519745D01*
X70602076Y-58742681D01*
X70555000Y-58979348D01*
X70555000Y-59220652D01*
X70602076Y-59457319D01*
X70694419Y-59680255D01*
X70828481Y-59880892D01*
X70999108Y-60051519D01*
X71199745Y-60185581D01*
X71422681Y-60277924D01*
X71659348Y-60325000D01*
X71900652Y-60325000D01*
X72137319Y-60277924D01*
X72360255Y-60185581D01*
X72560892Y-60051519D01*
X72731519Y-59880892D01*
X72865581Y-59680255D01*
X72957924Y-59457319D01*
X73005000Y-59220652D01*
X73005000Y-58979348D01*
X72957924Y-58742681D01*
X72903970Y-58612425D01*
X74050000Y-57466395D01*
X74050000Y-63813604D01*
X72267575Y-65596030D01*
X72137319Y-65542076D01*
X71900652Y-65495000D01*
X71659348Y-65495000D01*
X71422681Y-65542076D01*
X71199745Y-65634419D01*
X70999108Y-65768481D01*
X70828481Y-65939108D01*
X70694419Y-66139745D01*
X70602076Y-66362681D01*
X70599990Y-66373168D01*
X70599990Y-65996405D01*
X71292425Y-65303970D01*
X71422681Y-65357924D01*
X71659348Y-65405000D01*
X71900652Y-65405000D01*
X72137319Y-65357924D01*
X72360255Y-65265581D01*
X72560892Y-65131519D01*
X72731519Y-64960892D01*
X72865581Y-64760255D01*
X72957924Y-64537319D01*
X73005000Y-64300652D01*
X73005000Y-64059348D01*
X72957924Y-63822681D01*
X72865581Y-63599745D01*
X72731519Y-63399108D01*
X72560892Y-63228481D01*
X72360255Y-63094419D01*
X72137319Y-63002076D01*
X71900652Y-62955000D01*
X71659348Y-62955000D01*
X71422681Y-63002076D01*
X71199745Y-63094419D01*
X70999108Y-63228481D01*
X70828481Y-63399108D01*
X70694419Y-63599745D01*
X70602076Y-63822681D01*
X70555000Y-64059348D01*
X70555000Y-64300652D01*
X70602076Y-64537319D01*
X70656030Y-64667575D01*
X69847424Y-65476181D01*
X69830253Y-65490273D01*
X69816162Y-65507443D01*
X69774019Y-65558794D01*
X69749882Y-65603952D01*
X69732233Y-65636970D01*
X69706501Y-65721796D01*
X69699990Y-65787906D01*
X69699990Y-65787916D01*
X69697814Y-65810010D01*
X69699990Y-65832104D01*
X69699991Y-71199335D01*
X67474326Y-73425001D01*
X55235912Y-73425001D01*
X55196128Y-73328952D01*
X55193488Y-73325001D01*
X65002905Y-73325001D01*
X65024999Y-73327177D01*
X65047093Y-73325001D01*
X65047104Y-73325001D01*
X65113214Y-73318490D01*
X65198040Y-73292758D01*
X65276215Y-73250972D01*
X65344736Y-73194738D01*
X65358827Y-73177568D01*
X65851992Y-72684403D01*
X65919108Y-72751519D01*
X66119745Y-72885581D01*
X66342681Y-72977924D01*
X66579348Y-73025000D01*
X66820652Y-73025000D01*
X67057319Y-72977924D01*
X67280255Y-72885581D01*
X67480892Y-72751519D01*
X67651519Y-72580892D01*
X67785581Y-72380255D01*
X67877924Y-72157319D01*
X67925000Y-71920652D01*
X67925000Y-71679348D01*
X67877924Y-71442681D01*
X67785581Y-71219745D01*
X67651519Y-71019108D01*
X67480892Y-70848481D01*
X67280255Y-70714419D01*
X67057319Y-70622076D01*
X66820652Y-70575000D01*
X66579348Y-70575000D01*
X66342681Y-70622076D01*
X66119745Y-70714419D01*
X66074999Y-70744317D01*
X66074999Y-70521396D01*
X66124413Y-70471982D01*
X66275000Y-70486814D01*
X67125000Y-70486814D01*
X67281426Y-70471407D01*
X67431841Y-70425780D01*
X67570464Y-70351684D01*
X67691968Y-70251968D01*
X67791684Y-70130464D01*
X67865780Y-69991841D01*
X67911407Y-69841426D01*
X67926814Y-69685000D01*
X67926814Y-68835000D01*
X67911407Y-68678574D01*
X67865780Y-68528159D01*
X67791684Y-68389536D01*
X67691968Y-68268032D01*
X67570464Y-68168316D01*
X67431841Y-68094220D01*
X67281426Y-68048593D01*
X67125000Y-68033186D01*
X66275000Y-68033186D01*
X66118574Y-68048593D01*
X65968159Y-68094220D01*
X65829536Y-68168316D01*
X65708032Y-68268032D01*
X65608316Y-68389536D01*
X65534220Y-68528159D01*
X65488593Y-68678574D01*
X65473186Y-68835000D01*
X65473186Y-69685000D01*
X65488018Y-69835587D01*
X65322433Y-70001172D01*
X65305262Y-70015264D01*
X65291172Y-70032433D01*
X65291171Y-70032434D01*
X65249028Y-70083785D01*
X65214219Y-70148908D01*
X65207242Y-70161961D01*
X65181510Y-70246787D01*
X65174999Y-70312897D01*
X65174999Y-70312907D01*
X65172823Y-70335001D01*
X65174999Y-70357096D01*
X65174999Y-71114113D01*
X65111519Y-71019108D01*
X64940892Y-70848481D01*
X64740255Y-70714419D01*
X64517319Y-70622076D01*
X64280652Y-70575000D01*
X64039348Y-70575000D01*
X63802681Y-70622076D01*
X63672425Y-70676030D01*
X63028828Y-70032433D01*
X63014738Y-70015264D01*
X62946217Y-69959030D01*
X62868042Y-69917244D01*
X62783216Y-69891512D01*
X62717106Y-69885001D01*
X62717095Y-69885001D01*
X62695001Y-69882825D01*
X62675878Y-69884708D01*
X62705581Y-69840255D01*
X62797924Y-69617319D01*
X62845000Y-69380652D01*
X62845000Y-69139348D01*
X62935000Y-69139348D01*
X62935000Y-69380652D01*
X62982076Y-69617319D01*
X63074419Y-69840255D01*
X63208481Y-70040892D01*
X63379108Y-70211519D01*
X63579745Y-70345581D01*
X63802681Y-70437924D01*
X64039348Y-70485000D01*
X64280652Y-70485000D01*
X64517319Y-70437924D01*
X64740255Y-70345581D01*
X64940892Y-70211519D01*
X65111519Y-70040892D01*
X65245581Y-69840255D01*
X65337924Y-69617319D01*
X65385000Y-69380652D01*
X65385000Y-69139348D01*
X65337924Y-68902681D01*
X65245581Y-68679745D01*
X65111519Y-68479108D01*
X64940892Y-68308481D01*
X64740255Y-68174419D01*
X64517319Y-68082076D01*
X64280652Y-68035000D01*
X64039348Y-68035000D01*
X63802681Y-68082076D01*
X63579745Y-68174419D01*
X63379108Y-68308481D01*
X63208481Y-68479108D01*
X63074419Y-68679745D01*
X62982076Y-68902681D01*
X62935000Y-69139348D01*
X62845000Y-69139348D01*
X62797924Y-68902681D01*
X62705581Y-68679745D01*
X62571519Y-68479108D01*
X62400892Y-68308481D01*
X62200255Y-68174419D01*
X61977319Y-68082076D01*
X61740652Y-68035000D01*
X61499348Y-68035000D01*
X61262681Y-68082076D01*
X61039745Y-68174419D01*
X60839108Y-68308481D01*
X60668481Y-68479108D01*
X60534419Y-68679745D01*
X60479060Y-68813395D01*
X60415594Y-68634038D01*
X60267812Y-68385504D01*
X60074383Y-68170577D01*
X59842740Y-67997515D01*
X59581786Y-67872970D01*
X59433372Y-67827955D01*
X59205002Y-67947187D01*
X59205002Y-67855671D01*
X60860674Y-66200000D01*
X68477906Y-66200000D01*
X68500000Y-66202176D01*
X68522094Y-66200000D01*
X68522105Y-66200000D01*
X68588215Y-66193489D01*
X68673041Y-66167757D01*
X68751216Y-66125971D01*
X68819737Y-66069737D01*
X68833829Y-66052566D01*
X70302572Y-64583824D01*
X70319737Y-64569737D01*
X70333824Y-64552572D01*
X70333828Y-64552568D01*
X70375971Y-64501217D01*
X70417757Y-64423041D01*
X70419360Y-64417757D01*
X70443489Y-64338215D01*
X70450000Y-64272105D01*
X70450000Y-64272093D01*
X70452176Y-64250001D01*
X70450000Y-64227909D01*
X70450000Y-61519348D01*
X70555000Y-61519348D01*
X70555000Y-61760652D01*
X70602076Y-61997319D01*
X70694419Y-62220255D01*
X70828481Y-62420892D01*
X70999108Y-62591519D01*
X71199745Y-62725581D01*
X71422681Y-62817924D01*
X71659348Y-62865000D01*
X71900652Y-62865000D01*
X72137319Y-62817924D01*
X72360255Y-62725581D01*
X72560892Y-62591519D01*
X72731519Y-62420892D01*
X72865581Y-62220255D01*
X72957924Y-61997319D01*
X73005000Y-61760652D01*
X73005000Y-61519348D01*
X72957924Y-61282681D01*
X72865581Y-61059745D01*
X72731519Y-60859108D01*
X72560892Y-60688481D01*
X72360255Y-60554419D01*
X72137319Y-60462076D01*
X71900652Y-60415000D01*
X71659348Y-60415000D01*
X71422681Y-60462076D01*
X71199745Y-60554419D01*
X70999108Y-60688481D01*
X70828481Y-60859108D01*
X70694419Y-61059745D01*
X70602076Y-61282681D01*
X70555000Y-61519348D01*
X70450000Y-61519348D01*
X70450000Y-60772094D01*
X70452176Y-60749999D01*
X70450000Y-60727905D01*
X70450000Y-60727895D01*
X70443489Y-60661785D01*
X70417757Y-60576959D01*
X70416710Y-60575000D01*
X70375971Y-60498783D01*
X70333828Y-60447432D01*
X70333824Y-60447428D01*
X70319737Y-60430263D01*
X70302573Y-60416177D01*
X68625000Y-58738605D01*
X68625000Y-58688443D01*
X68600981Y-58567694D01*
X68553868Y-58453952D01*
X68485469Y-58351586D01*
X68398414Y-58264531D01*
X68296048Y-58196132D01*
X68182306Y-58149019D01*
X68061557Y-58125000D01*
X67938443Y-58125000D01*
X67817694Y-58149019D01*
X67703952Y-58196132D01*
X67601586Y-58264531D01*
X67514531Y-58351586D01*
X67446132Y-58453952D01*
X67399019Y-58567694D01*
X67375000Y-58688443D01*
X67375000Y-58811557D01*
X67399019Y-58932306D01*
X67446132Y-59046048D01*
X67514531Y-59148414D01*
X67601586Y-59235469D01*
X67703952Y-59303868D01*
X67817694Y-59350981D01*
X67938443Y-59375000D01*
X67988605Y-59375000D01*
X69550000Y-60936396D01*
X69550001Y-62548773D01*
X69546048Y-62546132D01*
X69432306Y-62499019D01*
X69364474Y-62485526D01*
X69350981Y-62417694D01*
X69303868Y-62303952D01*
X69235469Y-62201586D01*
X69148414Y-62114531D01*
X69046048Y-62046132D01*
X68932306Y-61999019D01*
X68811557Y-61975000D01*
X68761396Y-61975000D01*
X66121395Y-59335000D01*
X66316117Y-59335000D01*
X66351586Y-59370469D01*
X66453952Y-59438868D01*
X66567694Y-59485981D01*
X66688443Y-59510000D01*
X66811557Y-59510000D01*
X66932306Y-59485981D01*
X67046048Y-59438868D01*
X67148414Y-59370469D01*
X67235469Y-59283414D01*
X67303868Y-59181048D01*
X67350981Y-59067306D01*
X67375000Y-58946557D01*
X67375000Y-58823443D01*
X67350981Y-58702694D01*
X67303868Y-58588952D01*
X67235469Y-58486586D01*
X67148414Y-58399531D01*
X67046048Y-58331132D01*
X66980077Y-58303806D01*
X66985469Y-58298414D01*
X67053868Y-58196048D01*
X67100981Y-58082306D01*
X67125000Y-57961557D01*
X67125000Y-57911396D01*
X67332572Y-57703824D01*
X67349737Y-57689737D01*
X67363824Y-57672572D01*
X67363828Y-57672568D01*
X67405971Y-57621217D01*
X67447757Y-57543041D01*
X67449218Y-57538225D01*
X67473489Y-57458215D01*
X67480000Y-57392105D01*
X67480000Y-57392095D01*
X67482176Y-57370001D01*
X67480000Y-57347907D01*
X67480000Y-54890360D01*
X67576537Y-54890360D01*
X67697286Y-54866341D01*
X67811028Y-54819228D01*
X67913394Y-54750829D01*
X68000449Y-54663774D01*
X68068848Y-54561408D01*
X68115961Y-54447666D01*
X68139980Y-54326917D01*
X68139980Y-54203803D01*
X68115961Y-54083054D01*
X68068848Y-53969312D01*
X68000449Y-53866946D01*
X67964980Y-53831477D01*
X67964980Y-51338443D01*
X68125000Y-51338443D01*
X68125000Y-51461557D01*
X68149019Y-51582306D01*
X68196132Y-51696048D01*
X68264531Y-51798414D01*
X68351586Y-51885469D01*
X68453952Y-51953868D01*
X68567694Y-52000981D01*
X68688443Y-52025000D01*
X68811557Y-52025000D01*
X68932306Y-52000981D01*
X69046048Y-51953868D01*
X69148414Y-51885469D01*
X69200511Y-51833372D01*
X70347955Y-51833372D01*
X70392970Y-51981786D01*
X70517515Y-52242740D01*
X70690577Y-52474383D01*
X70905504Y-52667812D01*
X71154038Y-52815594D01*
X71333395Y-52879060D01*
X71199745Y-52934419D01*
X70999108Y-53068481D01*
X70828481Y-53239108D01*
X70694419Y-53439745D01*
X70602076Y-53662681D01*
X70555000Y-53899348D01*
X70555000Y-54140652D01*
X70602076Y-54377319D01*
X70694419Y-54600255D01*
X70828481Y-54800892D01*
X70999108Y-54971519D01*
X71199745Y-55105581D01*
X71422681Y-55197924D01*
X71659348Y-55245000D01*
X71900652Y-55245000D01*
X72137319Y-55197924D01*
X72360255Y-55105581D01*
X72560892Y-54971519D01*
X72731519Y-54800892D01*
X72865581Y-54600255D01*
X72957924Y-54377319D01*
X73005000Y-54140652D01*
X73005000Y-53899348D01*
X72957924Y-53662681D01*
X72865581Y-53439745D01*
X72731519Y-53239108D01*
X72560892Y-53068481D01*
X72360255Y-52934419D01*
X72226605Y-52879060D01*
X72405962Y-52815594D01*
X72654496Y-52667812D01*
X72869423Y-52474383D01*
X73042485Y-52242740D01*
X73167030Y-51981786D01*
X73212045Y-51833372D01*
X73092812Y-51605000D01*
X71905000Y-51605000D01*
X71905000Y-51625000D01*
X71655000Y-51625000D01*
X71655000Y-51605000D01*
X70467188Y-51605000D01*
X70347955Y-51833372D01*
X69200511Y-51833372D01*
X69235469Y-51798414D01*
X69303868Y-51696048D01*
X69350981Y-51582306D01*
X69375000Y-51461557D01*
X69375000Y-51338443D01*
X69350981Y-51217694D01*
X69313261Y-51126628D01*
X70347955Y-51126628D01*
X70467188Y-51355000D01*
X71655000Y-51355000D01*
X71655000Y-51335000D01*
X71905000Y-51335000D01*
X71905000Y-51355000D01*
X73092812Y-51355000D01*
X73212045Y-51126628D01*
X73167030Y-50978214D01*
X73042485Y-50717260D01*
X72869423Y-50485617D01*
X72654496Y-50292188D01*
X72405962Y-50144406D01*
X72396058Y-50140902D01*
X72511841Y-50105780D01*
X72650464Y-50031684D01*
X72771968Y-49931968D01*
X72871684Y-49810464D01*
X72945780Y-49671841D01*
X72991407Y-49521426D01*
X73006814Y-49365000D01*
X73006814Y-48515000D01*
X72991407Y-48358574D01*
X72945780Y-48208159D01*
X72871684Y-48069536D01*
X72771968Y-47948032D01*
X72650464Y-47848316D01*
X72511841Y-47774220D01*
X72361426Y-47728593D01*
X72205000Y-47713186D01*
X71355000Y-47713186D01*
X71198574Y-47728593D01*
X71048159Y-47774220D01*
X70909536Y-47848316D01*
X70788032Y-47948032D01*
X70688316Y-48069536D01*
X70614220Y-48208159D01*
X70568593Y-48358574D01*
X70553186Y-48515000D01*
X70553186Y-49365000D01*
X70568593Y-49521426D01*
X70614220Y-49671841D01*
X70688316Y-49810464D01*
X70788032Y-49931968D01*
X70909536Y-50031684D01*
X71048159Y-50105780D01*
X71163942Y-50140902D01*
X71154038Y-50144406D01*
X70905504Y-50292188D01*
X70690577Y-50485617D01*
X70517515Y-50717260D01*
X70392970Y-50978214D01*
X70347955Y-51126628D01*
X69313261Y-51126628D01*
X69303868Y-51103952D01*
X69235469Y-51001586D01*
X69148414Y-50914531D01*
X69046048Y-50846132D01*
X68932306Y-50799019D01*
X68811557Y-50775000D01*
X68688443Y-50775000D01*
X68567694Y-50799019D01*
X68453952Y-50846132D01*
X68351586Y-50914531D01*
X68264531Y-51001586D01*
X68196132Y-51103952D01*
X68149019Y-51217694D01*
X68125000Y-51338443D01*
X67964980Y-51338443D01*
X67964980Y-47775000D01*
X68061557Y-47775000D01*
X68182306Y-47750981D01*
X68296048Y-47703868D01*
X68398414Y-47635469D01*
X68485469Y-47548414D01*
X68553868Y-47446048D01*
X68600981Y-47332306D01*
X68625000Y-47211557D01*
X68625000Y-47088443D01*
X68600981Y-46967694D01*
X68553868Y-46853952D01*
X68485469Y-46751586D01*
X68453595Y-46719712D01*
X68502415Y-46724520D01*
G37*
G04 #@! TD.AperFunction*
D24*
X59205000Y-69135000D02*
X59225000Y-69135000D01*
X59225000Y-69385000D01*
X59205000Y-69385000D01*
X59205000Y-69405000D01*
X58955000Y-69405000D01*
X58955000Y-69385000D01*
X58935000Y-69385000D01*
X58935000Y-69135000D01*
X58955000Y-69135000D01*
X58955000Y-69115000D01*
X59205000Y-69115000D01*
X59205000Y-69135000D01*
G04 #@! TA.AperFunction,Conductor*
D26*
G36*
X59205000Y-69135000D02*
G01*
X59225000Y-69135000D01*
X59225000Y-69385000D01*
X59205000Y-69385000D01*
X59205000Y-69405000D01*
X58955000Y-69405000D01*
X58955000Y-69385000D01*
X58935000Y-69385000D01*
X58935000Y-69135000D01*
X58955000Y-69135000D01*
X58955000Y-69115000D01*
X59205000Y-69115000D01*
X59205000Y-69135000D01*
G37*
G04 #@! TD.AperFunction*
D24*
X60851586Y-63660469D02*
X60852515Y-63661089D01*
X57438575Y-67075030D01*
X57260643Y-67075030D01*
X60710674Y-63625000D01*
X60816117Y-63625000D01*
X60851586Y-63660469D01*
G04 #@! TA.AperFunction,Conductor*
D26*
G36*
X60851586Y-63660469D02*
G01*
X60852515Y-63661089D01*
X57438575Y-67075030D01*
X57260643Y-67075030D01*
X60710674Y-63625000D01*
X60816117Y-63625000D01*
X60851586Y-63660469D01*
G37*
G04 #@! TD.AperFunction*
D24*
X51499990Y-61002174D02*
X51497814Y-61024268D01*
X51499990Y-61046362D01*
X51499990Y-61046372D01*
X51506501Y-61112482D01*
X51531074Y-61193488D01*
X51532233Y-61197308D01*
X51574019Y-61275484D01*
X51608712Y-61317757D01*
X51630253Y-61344005D01*
X51647424Y-61358097D01*
X52716899Y-62427573D01*
X52730986Y-62444738D01*
X52748151Y-62458825D01*
X52748155Y-62458829D01*
X52799506Y-62500972D01*
X52869609Y-62538443D01*
X52877682Y-62542758D01*
X52962508Y-62568490D01*
X53028618Y-62575001D01*
X53028629Y-62575001D01*
X53050723Y-62577177D01*
X53072817Y-62575001D01*
X55205907Y-62575001D01*
X55228001Y-62577177D01*
X55250095Y-62575001D01*
X55250106Y-62575001D01*
X55316216Y-62568490D01*
X55401042Y-62542758D01*
X55479217Y-62500972D01*
X55547738Y-62444738D01*
X55561830Y-62427567D01*
X55777567Y-62211830D01*
X55794738Y-62197738D01*
X55850972Y-62129217D01*
X55892758Y-62051042D01*
X55918490Y-61966216D01*
X55925001Y-61900106D01*
X55925001Y-61900095D01*
X55927177Y-61878001D01*
X55925001Y-61855907D01*
X55925001Y-61445072D01*
X56024936Y-61425193D01*
X56138678Y-61378080D01*
X56241044Y-61309681D01*
X56328099Y-61222626D01*
X56396498Y-61120260D01*
X56443611Y-61006518D01*
X56467630Y-60885769D01*
X56467630Y-60762655D01*
X56443611Y-60641906D01*
X56396498Y-60528164D01*
X56328099Y-60425798D01*
X56241044Y-60338743D01*
X56138678Y-60270344D01*
X56024936Y-60223231D01*
X55904187Y-60199212D01*
X55781073Y-60199212D01*
X55660324Y-60223231D01*
X55546582Y-60270344D01*
X55512997Y-60292785D01*
X55485469Y-60251586D01*
X55398414Y-60164531D01*
X55376667Y-60150000D01*
X55398414Y-60135469D01*
X55485469Y-60048414D01*
X55553868Y-59946048D01*
X55600981Y-59832306D01*
X55625000Y-59711557D01*
X55625000Y-59588443D01*
X55600981Y-59467694D01*
X55553868Y-59353952D01*
X55485469Y-59251586D01*
X55398414Y-59164531D01*
X55376667Y-59150000D01*
X55398414Y-59135469D01*
X55433883Y-59100000D01*
X57988605Y-59100000D01*
X60125000Y-61236396D01*
X60125000Y-61286557D01*
X60149019Y-61407306D01*
X60196132Y-61521048D01*
X60264531Y-61623414D01*
X60288360Y-61647243D01*
X56203790Y-65731813D01*
X56200981Y-65717694D01*
X56153868Y-65603952D01*
X56085469Y-65501586D01*
X55998414Y-65414531D01*
X55896048Y-65346132D01*
X55782306Y-65299019D01*
X55661557Y-65275000D01*
X55538443Y-65275000D01*
X55417694Y-65299019D01*
X55303952Y-65346132D01*
X55201586Y-65414531D01*
X55114531Y-65501586D01*
X55046132Y-65603952D01*
X54999019Y-65717694D01*
X54975000Y-65838443D01*
X54975000Y-65961557D01*
X54999019Y-66082306D01*
X55037414Y-66175001D01*
X48589250Y-66175001D01*
X48648414Y-66135469D01*
X48735469Y-66048414D01*
X48803868Y-65946048D01*
X48850981Y-65832306D01*
X48875000Y-65711557D01*
X48875000Y-65588443D01*
X48850981Y-65467694D01*
X48803868Y-65353952D01*
X48735469Y-65251586D01*
X48648414Y-65164531D01*
X48546048Y-65096132D01*
X48432306Y-65049019D01*
X48407825Y-65044149D01*
X47452119Y-64088443D01*
X55125000Y-64088443D01*
X55125000Y-64211557D01*
X55149019Y-64332306D01*
X55196132Y-64446048D01*
X55264531Y-64548414D01*
X55351586Y-64635469D01*
X55453952Y-64703868D01*
X55567694Y-64750981D01*
X55688443Y-64775000D01*
X55811557Y-64775000D01*
X55932306Y-64750981D01*
X56046048Y-64703868D01*
X56148414Y-64635469D01*
X56235469Y-64548414D01*
X56303868Y-64446048D01*
X56350981Y-64332306D01*
X56375000Y-64211557D01*
X56375000Y-64088443D01*
X56350981Y-63967694D01*
X56303868Y-63853952D01*
X56235469Y-63751586D01*
X56148414Y-63664531D01*
X56046048Y-63596132D01*
X55932306Y-63549019D01*
X55811557Y-63525000D01*
X55688443Y-63525000D01*
X55567694Y-63549019D01*
X55453952Y-63596132D01*
X55351586Y-63664531D01*
X55264531Y-63751586D01*
X55196132Y-63853952D01*
X55149019Y-63967694D01*
X55125000Y-64088443D01*
X47452119Y-64088443D01*
X46700000Y-63336325D01*
X46700000Y-58086395D01*
X46936396Y-57850000D01*
X51499991Y-57850000D01*
X51499990Y-61002174D01*
G04 #@! TA.AperFunction,Conductor*
D26*
G36*
X51499990Y-61002174D02*
G01*
X51497814Y-61024268D01*
X51499990Y-61046362D01*
X51499990Y-61046372D01*
X51506501Y-61112482D01*
X51531074Y-61193488D01*
X51532233Y-61197308D01*
X51574019Y-61275484D01*
X51608712Y-61317757D01*
X51630253Y-61344005D01*
X51647424Y-61358097D01*
X52716899Y-62427573D01*
X52730986Y-62444738D01*
X52748151Y-62458825D01*
X52748155Y-62458829D01*
X52799506Y-62500972D01*
X52869609Y-62538443D01*
X52877682Y-62542758D01*
X52962508Y-62568490D01*
X53028618Y-62575001D01*
X53028629Y-62575001D01*
X53050723Y-62577177D01*
X53072817Y-62575001D01*
X55205907Y-62575001D01*
X55228001Y-62577177D01*
X55250095Y-62575001D01*
X55250106Y-62575001D01*
X55316216Y-62568490D01*
X55401042Y-62542758D01*
X55479217Y-62500972D01*
X55547738Y-62444738D01*
X55561830Y-62427567D01*
X55777567Y-62211830D01*
X55794738Y-62197738D01*
X55850972Y-62129217D01*
X55892758Y-62051042D01*
X55918490Y-61966216D01*
X55925001Y-61900106D01*
X55925001Y-61900095D01*
X55927177Y-61878001D01*
X55925001Y-61855907D01*
X55925001Y-61445072D01*
X56024936Y-61425193D01*
X56138678Y-61378080D01*
X56241044Y-61309681D01*
X56328099Y-61222626D01*
X56396498Y-61120260D01*
X56443611Y-61006518D01*
X56467630Y-60885769D01*
X56467630Y-60762655D01*
X56443611Y-60641906D01*
X56396498Y-60528164D01*
X56328099Y-60425798D01*
X56241044Y-60338743D01*
X56138678Y-60270344D01*
X56024936Y-60223231D01*
X55904187Y-60199212D01*
X55781073Y-60199212D01*
X55660324Y-60223231D01*
X55546582Y-60270344D01*
X55512997Y-60292785D01*
X55485469Y-60251586D01*
X55398414Y-60164531D01*
X55376667Y-60150000D01*
X55398414Y-60135469D01*
X55485469Y-60048414D01*
X55553868Y-59946048D01*
X55600981Y-59832306D01*
X55625000Y-59711557D01*
X55625000Y-59588443D01*
X55600981Y-59467694D01*
X55553868Y-59353952D01*
X55485469Y-59251586D01*
X55398414Y-59164531D01*
X55376667Y-59150000D01*
X55398414Y-59135469D01*
X55433883Y-59100000D01*
X57988605Y-59100000D01*
X60125000Y-61236396D01*
X60125000Y-61286557D01*
X60149019Y-61407306D01*
X60196132Y-61521048D01*
X60264531Y-61623414D01*
X60288360Y-61647243D01*
X56203790Y-65731813D01*
X56200981Y-65717694D01*
X56153868Y-65603952D01*
X56085469Y-65501586D01*
X55998414Y-65414531D01*
X55896048Y-65346132D01*
X55782306Y-65299019D01*
X55661557Y-65275000D01*
X55538443Y-65275000D01*
X55417694Y-65299019D01*
X55303952Y-65346132D01*
X55201586Y-65414531D01*
X55114531Y-65501586D01*
X55046132Y-65603952D01*
X54999019Y-65717694D01*
X54975000Y-65838443D01*
X54975000Y-65961557D01*
X54999019Y-66082306D01*
X55037414Y-66175001D01*
X48589250Y-66175001D01*
X48648414Y-66135469D01*
X48735469Y-66048414D01*
X48803868Y-65946048D01*
X48850981Y-65832306D01*
X48875000Y-65711557D01*
X48875000Y-65588443D01*
X48850981Y-65467694D01*
X48803868Y-65353952D01*
X48735469Y-65251586D01*
X48648414Y-65164531D01*
X48546048Y-65096132D01*
X48432306Y-65049019D01*
X48407825Y-65044149D01*
X47452119Y-64088443D01*
X55125000Y-64088443D01*
X55125000Y-64211557D01*
X55149019Y-64332306D01*
X55196132Y-64446048D01*
X55264531Y-64548414D01*
X55351586Y-64635469D01*
X55453952Y-64703868D01*
X55567694Y-64750981D01*
X55688443Y-64775000D01*
X55811557Y-64775000D01*
X55932306Y-64750981D01*
X56046048Y-64703868D01*
X56148414Y-64635469D01*
X56235469Y-64548414D01*
X56303868Y-64446048D01*
X56350981Y-64332306D01*
X56375000Y-64211557D01*
X56375000Y-64088443D01*
X56350981Y-63967694D01*
X56303868Y-63853952D01*
X56235469Y-63751586D01*
X56148414Y-63664531D01*
X56046048Y-63596132D01*
X55932306Y-63549019D01*
X55811557Y-63525000D01*
X55688443Y-63525000D01*
X55567694Y-63549019D01*
X55453952Y-63596132D01*
X55351586Y-63664531D01*
X55264531Y-63751586D01*
X55196132Y-63853952D01*
X55149019Y-63967694D01*
X55125000Y-64088443D01*
X47452119Y-64088443D01*
X46700000Y-63336325D01*
X46700000Y-58086395D01*
X46936396Y-57850000D01*
X51499991Y-57850000D01*
X51499990Y-61002174D01*
G37*
G04 #@! TD.AperFunction*
D24*
X69550001Y-64063603D02*
X68313605Y-65300000D01*
X63873964Y-65300000D01*
X63907181Y-65219806D01*
X63931200Y-65099057D01*
X63931200Y-64975943D01*
X63907181Y-64855194D01*
X63860068Y-64741452D01*
X63791669Y-64639086D01*
X63704614Y-64552031D01*
X63602248Y-64483632D01*
X63488506Y-64436519D01*
X63367757Y-64412500D01*
X63317764Y-64412500D01*
X63350981Y-64332306D01*
X63375000Y-64211557D01*
X63375000Y-64088443D01*
X63367353Y-64050000D01*
X68316117Y-64050000D01*
X68351586Y-64085469D01*
X68453952Y-64153868D01*
X68567694Y-64200981D01*
X68688443Y-64225000D01*
X68811557Y-64225000D01*
X68932306Y-64200981D01*
X69046048Y-64153868D01*
X69148414Y-64085469D01*
X69235469Y-63998414D01*
X69303868Y-63896048D01*
X69350981Y-63782306D01*
X69364474Y-63714474D01*
X69432306Y-63700981D01*
X69546048Y-63653868D01*
X69550001Y-63651227D01*
X69550001Y-64063603D01*
G04 #@! TA.AperFunction,Conductor*
D26*
G36*
X69550001Y-64063603D02*
G01*
X68313605Y-65300000D01*
X63873964Y-65300000D01*
X63907181Y-65219806D01*
X63931200Y-65099057D01*
X63931200Y-64975943D01*
X63907181Y-64855194D01*
X63860068Y-64741452D01*
X63791669Y-64639086D01*
X63704614Y-64552031D01*
X63602248Y-64483632D01*
X63488506Y-64436519D01*
X63367757Y-64412500D01*
X63317764Y-64412500D01*
X63350981Y-64332306D01*
X63375000Y-64211557D01*
X63375000Y-64088443D01*
X63367353Y-64050000D01*
X68316117Y-64050000D01*
X68351586Y-64085469D01*
X68453952Y-64153868D01*
X68567694Y-64200981D01*
X68688443Y-64225000D01*
X68811557Y-64225000D01*
X68932306Y-64200981D01*
X69046048Y-64153868D01*
X69148414Y-64085469D01*
X69235469Y-63998414D01*
X69303868Y-63896048D01*
X69350981Y-63782306D01*
X69364474Y-63714474D01*
X69432306Y-63700981D01*
X69546048Y-63653868D01*
X69550001Y-63651227D01*
X69550001Y-64063603D01*
G37*
G04 #@! TD.AperFunction*
D24*
X67310051Y-63150000D02*
X61875000Y-63150000D01*
X61875000Y-63113443D01*
X61850981Y-62992694D01*
X61803868Y-62878952D01*
X61735469Y-62776586D01*
X61648414Y-62689531D01*
X61546048Y-62621132D01*
X61432306Y-62574019D01*
X61375000Y-62562620D01*
X61375000Y-62487380D01*
X61432306Y-62475981D01*
X61546048Y-62428868D01*
X61648414Y-62360469D01*
X61735469Y-62273414D01*
X61803868Y-62171048D01*
X61850981Y-62057306D01*
X61875000Y-61936557D01*
X61875000Y-61813443D01*
X61850981Y-61692694D01*
X61803868Y-61578952D01*
X61735469Y-61476586D01*
X61648414Y-61389531D01*
X61546048Y-61321132D01*
X61432306Y-61274019D01*
X61375000Y-61262620D01*
X61375000Y-61187380D01*
X61432306Y-61175981D01*
X61546048Y-61128868D01*
X61648414Y-61060469D01*
X61735469Y-60973414D01*
X61803868Y-60871048D01*
X61850981Y-60757306D01*
X61875000Y-60636557D01*
X61875000Y-60513443D01*
X61850981Y-60392694D01*
X61803868Y-60278952D01*
X61735469Y-60176586D01*
X61648414Y-60089531D01*
X61546048Y-60021132D01*
X61432306Y-59974019D01*
X61375000Y-59962620D01*
X61375000Y-59887380D01*
X61432306Y-59875981D01*
X61546048Y-59828868D01*
X61648414Y-59760469D01*
X61735469Y-59673414D01*
X61803868Y-59571048D01*
X61850981Y-59457306D01*
X61875000Y-59336557D01*
X61875000Y-59213443D01*
X61850981Y-59092694D01*
X61803868Y-58978952D01*
X61735469Y-58876586D01*
X61648414Y-58789531D01*
X61546048Y-58721132D01*
X61432306Y-58674019D01*
X61375000Y-58662620D01*
X61375000Y-58563443D01*
X61350981Y-58442694D01*
X61303868Y-58328952D01*
X61259466Y-58262500D01*
X61303868Y-58196048D01*
X61350981Y-58082306D01*
X61375000Y-57961557D01*
X61375000Y-57838443D01*
X61350981Y-57717694D01*
X61303868Y-57603952D01*
X61251114Y-57525000D01*
X61303868Y-57446048D01*
X61350981Y-57332306D01*
X61374437Y-57214385D01*
X67310051Y-63150000D01*
G04 #@! TA.AperFunction,Conductor*
D26*
G36*
X67310051Y-63150000D02*
G01*
X61875000Y-63150000D01*
X61875000Y-63113443D01*
X61850981Y-62992694D01*
X61803868Y-62878952D01*
X61735469Y-62776586D01*
X61648414Y-62689531D01*
X61546048Y-62621132D01*
X61432306Y-62574019D01*
X61375000Y-62562620D01*
X61375000Y-62487380D01*
X61432306Y-62475981D01*
X61546048Y-62428868D01*
X61648414Y-62360469D01*
X61735469Y-62273414D01*
X61803868Y-62171048D01*
X61850981Y-62057306D01*
X61875000Y-61936557D01*
X61875000Y-61813443D01*
X61850981Y-61692694D01*
X61803868Y-61578952D01*
X61735469Y-61476586D01*
X61648414Y-61389531D01*
X61546048Y-61321132D01*
X61432306Y-61274019D01*
X61375000Y-61262620D01*
X61375000Y-61187380D01*
X61432306Y-61175981D01*
X61546048Y-61128868D01*
X61648414Y-61060469D01*
X61735469Y-60973414D01*
X61803868Y-60871048D01*
X61850981Y-60757306D01*
X61875000Y-60636557D01*
X61875000Y-60513443D01*
X61850981Y-60392694D01*
X61803868Y-60278952D01*
X61735469Y-60176586D01*
X61648414Y-60089531D01*
X61546048Y-60021132D01*
X61432306Y-59974019D01*
X61375000Y-59962620D01*
X61375000Y-59887380D01*
X61432306Y-59875981D01*
X61546048Y-59828868D01*
X61648414Y-59760469D01*
X61735469Y-59673414D01*
X61803868Y-59571048D01*
X61850981Y-59457306D01*
X61875000Y-59336557D01*
X61875000Y-59213443D01*
X61850981Y-59092694D01*
X61803868Y-58978952D01*
X61735469Y-58876586D01*
X61648414Y-58789531D01*
X61546048Y-58721132D01*
X61432306Y-58674019D01*
X61375000Y-58662620D01*
X61375000Y-58563443D01*
X61350981Y-58442694D01*
X61303868Y-58328952D01*
X61259466Y-58262500D01*
X61303868Y-58196048D01*
X61350981Y-58082306D01*
X61375000Y-57961557D01*
X61375000Y-57838443D01*
X61350981Y-57717694D01*
X61303868Y-57603952D01*
X61251114Y-57525000D01*
X61303868Y-57446048D01*
X61350981Y-57332306D01*
X61374437Y-57214385D01*
X67310051Y-63150000D01*
G37*
G04 #@! TD.AperFunction*
D24*
X60627348Y-36390797D02*
X60546312Y-36586434D01*
X60505000Y-36794122D01*
X60505000Y-37005878D01*
X60546312Y-37213566D01*
X60570835Y-37272770D01*
X60352428Y-37491177D01*
X60335263Y-37505264D01*
X60321176Y-37522429D01*
X60321171Y-37522434D01*
X60279028Y-37573785D01*
X60237242Y-37651961D01*
X60211511Y-37736786D01*
X60202823Y-37825001D01*
X60205000Y-37847105D01*
X60204999Y-42026425D01*
X60202823Y-42048519D01*
X60204999Y-42070613D01*
X60204999Y-42070623D01*
X60211510Y-42136733D01*
X60234374Y-42212105D01*
X60237242Y-42221559D01*
X60279028Y-42299735D01*
X60309097Y-42336374D01*
X60335262Y-42368256D01*
X60352433Y-42382348D01*
X62697655Y-44727571D01*
X62711742Y-44744736D01*
X62728907Y-44758823D01*
X62728911Y-44758827D01*
X62780262Y-44800970D01*
X62858438Y-44842756D01*
X62943264Y-44868488D01*
X63009374Y-44874999D01*
X63009384Y-44874999D01*
X63031478Y-44877175D01*
X63053572Y-44874999D01*
X64291606Y-44874999D01*
X66091362Y-46674755D01*
X66014531Y-46751586D01*
X65946132Y-46853952D01*
X65899019Y-46967694D01*
X65875000Y-47088443D01*
X65875000Y-47211557D01*
X65899019Y-47332306D01*
X65946132Y-47446048D01*
X66014531Y-47548414D01*
X66101586Y-47635469D01*
X66203952Y-47703868D01*
X66317694Y-47750981D01*
X66438443Y-47775000D01*
X66561557Y-47775000D01*
X66682306Y-47750981D01*
X66796048Y-47703868D01*
X66898414Y-47635469D01*
X66975245Y-47558638D01*
X67064981Y-47648375D01*
X67064981Y-48025000D01*
X66968443Y-48025000D01*
X66847694Y-48049019D01*
X66733952Y-48096132D01*
X66631586Y-48164531D01*
X66544531Y-48251586D01*
X66476132Y-48353952D01*
X66429019Y-48467694D01*
X66405000Y-48588443D01*
X66405000Y-48711557D01*
X66429019Y-48832306D01*
X66476132Y-48946048D01*
X66544531Y-49048414D01*
X66580000Y-49083883D01*
X66580001Y-56528669D01*
X66561557Y-56525000D01*
X66438443Y-56525000D01*
X66317694Y-56549019D01*
X66203952Y-56596132D01*
X66101586Y-56664531D01*
X66014531Y-56751586D01*
X65946132Y-56853952D01*
X65899019Y-56967694D01*
X65875000Y-57088443D01*
X65875000Y-57211557D01*
X65899019Y-57332306D01*
X65946132Y-57446048D01*
X65998886Y-57525000D01*
X65946132Y-57603952D01*
X65899019Y-57717694D01*
X65875000Y-57838443D01*
X65875000Y-57961557D01*
X65899019Y-58082306D01*
X65946132Y-58196048D01*
X65973696Y-58237300D01*
X64725011Y-56988616D01*
X64725011Y-47697105D01*
X64727187Y-47675010D01*
X64725011Y-47652916D01*
X64725011Y-47652906D01*
X64718500Y-47586796D01*
X64692768Y-47501970D01*
X64684266Y-47486064D01*
X64650982Y-47423794D01*
X64608839Y-47372443D01*
X64608835Y-47372439D01*
X64594748Y-47355274D01*
X64577583Y-47341187D01*
X59530000Y-42293605D01*
X59530000Y-41266965D01*
X59571794Y-41262848D01*
X59708140Y-41221489D01*
X59833796Y-41154324D01*
X59943935Y-41063935D01*
X60034324Y-40953796D01*
X60101489Y-40828140D01*
X60142848Y-40691794D01*
X60156814Y-40550000D01*
X60156814Y-39850000D01*
X60142848Y-39708206D01*
X60101489Y-39571860D01*
X60034324Y-39446204D01*
X59943935Y-39336065D01*
X59833796Y-39245676D01*
X59708140Y-39178511D01*
X59571794Y-39137152D01*
X59430000Y-39123186D01*
X58730000Y-39123186D01*
X58588206Y-39137152D01*
X58451860Y-39178511D01*
X58326204Y-39245676D01*
X58216065Y-39336065D01*
X58200000Y-39355640D01*
X58200000Y-37517935D01*
X58244993Y-37585272D01*
X58394728Y-37735007D01*
X58570797Y-37852652D01*
X58766434Y-37933688D01*
X58974122Y-37975000D01*
X59185878Y-37975000D01*
X59393566Y-37933688D01*
X59589203Y-37852652D01*
X59765272Y-37735007D01*
X59915007Y-37585272D01*
X60032652Y-37409203D01*
X60113688Y-37213566D01*
X60155000Y-37005878D01*
X60155000Y-36794122D01*
X60113688Y-36586434D01*
X60089165Y-36527231D01*
X60366366Y-36250030D01*
X60721405Y-36250030D01*
X60627348Y-36390797D01*
G04 #@! TA.AperFunction,Conductor*
D26*
G36*
X60627348Y-36390797D02*
G01*
X60546312Y-36586434D01*
X60505000Y-36794122D01*
X60505000Y-37005878D01*
X60546312Y-37213566D01*
X60570835Y-37272770D01*
X60352428Y-37491177D01*
X60335263Y-37505264D01*
X60321176Y-37522429D01*
X60321171Y-37522434D01*
X60279028Y-37573785D01*
X60237242Y-37651961D01*
X60211511Y-37736786D01*
X60202823Y-37825001D01*
X60205000Y-37847105D01*
X60204999Y-42026425D01*
X60202823Y-42048519D01*
X60204999Y-42070613D01*
X60204999Y-42070623D01*
X60211510Y-42136733D01*
X60234374Y-42212105D01*
X60237242Y-42221559D01*
X60279028Y-42299735D01*
X60309097Y-42336374D01*
X60335262Y-42368256D01*
X60352433Y-42382348D01*
X62697655Y-44727571D01*
X62711742Y-44744736D01*
X62728907Y-44758823D01*
X62728911Y-44758827D01*
X62780262Y-44800970D01*
X62858438Y-44842756D01*
X62943264Y-44868488D01*
X63009374Y-44874999D01*
X63009384Y-44874999D01*
X63031478Y-44877175D01*
X63053572Y-44874999D01*
X64291606Y-44874999D01*
X66091362Y-46674755D01*
X66014531Y-46751586D01*
X65946132Y-46853952D01*
X65899019Y-46967694D01*
X65875000Y-47088443D01*
X65875000Y-47211557D01*
X65899019Y-47332306D01*
X65946132Y-47446048D01*
X66014531Y-47548414D01*
X66101586Y-47635469D01*
X66203952Y-47703868D01*
X66317694Y-47750981D01*
X66438443Y-47775000D01*
X66561557Y-47775000D01*
X66682306Y-47750981D01*
X66796048Y-47703868D01*
X66898414Y-47635469D01*
X66975245Y-47558638D01*
X67064981Y-47648375D01*
X67064981Y-48025000D01*
X66968443Y-48025000D01*
X66847694Y-48049019D01*
X66733952Y-48096132D01*
X66631586Y-48164531D01*
X66544531Y-48251586D01*
X66476132Y-48353952D01*
X66429019Y-48467694D01*
X66405000Y-48588443D01*
X66405000Y-48711557D01*
X66429019Y-48832306D01*
X66476132Y-48946048D01*
X66544531Y-49048414D01*
X66580000Y-49083883D01*
X66580001Y-56528669D01*
X66561557Y-56525000D01*
X66438443Y-56525000D01*
X66317694Y-56549019D01*
X66203952Y-56596132D01*
X66101586Y-56664531D01*
X66014531Y-56751586D01*
X65946132Y-56853952D01*
X65899019Y-56967694D01*
X65875000Y-57088443D01*
X65875000Y-57211557D01*
X65899019Y-57332306D01*
X65946132Y-57446048D01*
X65998886Y-57525000D01*
X65946132Y-57603952D01*
X65899019Y-57717694D01*
X65875000Y-57838443D01*
X65875000Y-57961557D01*
X65899019Y-58082306D01*
X65946132Y-58196048D01*
X65973696Y-58237300D01*
X64725011Y-56988616D01*
X64725011Y-47697105D01*
X64727187Y-47675010D01*
X64725011Y-47652916D01*
X64725011Y-47652906D01*
X64718500Y-47586796D01*
X64692768Y-47501970D01*
X64684266Y-47486064D01*
X64650982Y-47423794D01*
X64608839Y-47372443D01*
X64608835Y-47372439D01*
X64594748Y-47355274D01*
X64577583Y-47341187D01*
X59530000Y-42293605D01*
X59530000Y-41266965D01*
X59571794Y-41262848D01*
X59708140Y-41221489D01*
X59833796Y-41154324D01*
X59943935Y-41063935D01*
X60034324Y-40953796D01*
X60101489Y-40828140D01*
X60142848Y-40691794D01*
X60156814Y-40550000D01*
X60156814Y-39850000D01*
X60142848Y-39708206D01*
X60101489Y-39571860D01*
X60034324Y-39446204D01*
X59943935Y-39336065D01*
X59833796Y-39245676D01*
X59708140Y-39178511D01*
X59571794Y-39137152D01*
X59430000Y-39123186D01*
X58730000Y-39123186D01*
X58588206Y-39137152D01*
X58451860Y-39178511D01*
X58326204Y-39245676D01*
X58216065Y-39336065D01*
X58200000Y-39355640D01*
X58200000Y-37517935D01*
X58244993Y-37585272D01*
X58394728Y-37735007D01*
X58570797Y-37852652D01*
X58766434Y-37933688D01*
X58974122Y-37975000D01*
X59185878Y-37975000D01*
X59393566Y-37933688D01*
X59589203Y-37852652D01*
X59765272Y-37735007D01*
X59915007Y-37585272D01*
X60032652Y-37409203D01*
X60113688Y-37213566D01*
X60155000Y-37005878D01*
X60155000Y-36794122D01*
X60113688Y-36586434D01*
X60089165Y-36527231D01*
X60366366Y-36250030D01*
X60721405Y-36250030D01*
X60627348Y-36390797D01*
G37*
G04 #@! TD.AperFunction*
D24*
X63453952Y-51778868D02*
X63567694Y-51825981D01*
X63688443Y-51850000D01*
X63811557Y-51850000D01*
X63825012Y-51847324D01*
X63825011Y-57038616D01*
X63450000Y-56663605D01*
X63450000Y-51776227D01*
X63453952Y-51778868D01*
G04 #@! TA.AperFunction,Conductor*
D26*
G36*
X63453952Y-51778868D02*
G01*
X63567694Y-51825981D01*
X63688443Y-51850000D01*
X63811557Y-51850000D01*
X63825012Y-51847324D01*
X63825011Y-57038616D01*
X63450000Y-56663605D01*
X63450000Y-51776227D01*
X63453952Y-51778868D01*
G37*
G04 #@! TD.AperFunction*
D24*
X62550001Y-56466608D02*
X62450000Y-56366607D01*
X62450000Y-50550000D01*
X62550000Y-50550000D01*
X62550001Y-56466608D01*
G04 #@! TA.AperFunction,Conductor*
D26*
G36*
X62550001Y-56466608D02*
G01*
X62450000Y-56366607D01*
X62450000Y-50550000D01*
X62550000Y-50550000D01*
X62550001Y-56466608D01*
G37*
G04 #@! TD.AperFunction*
D24*
X60550000Y-47684952D02*
X60550001Y-56181449D01*
X60547824Y-56203553D01*
X60556512Y-56291768D01*
X60568856Y-56332460D01*
X58950000Y-54713605D01*
X58950000Y-46172094D01*
X58952176Y-46150000D01*
X58950000Y-46127905D01*
X58950000Y-46127895D01*
X58945309Y-46080260D01*
X60550000Y-47684952D01*
G04 #@! TA.AperFunction,Conductor*
D26*
G36*
X60550000Y-47684952D02*
G01*
X60550001Y-56181449D01*
X60547824Y-56203553D01*
X60556512Y-56291768D01*
X60568856Y-56332460D01*
X58950000Y-54713605D01*
X58950000Y-46172094D01*
X58952176Y-46150000D01*
X58950000Y-46127905D01*
X58950000Y-46127895D01*
X58945309Y-46080260D01*
X60550000Y-47684952D01*
G37*
G04 #@! TD.AperFunction*
D24*
X61550001Y-56117159D02*
X61450000Y-56017158D01*
X61450000Y-49900000D01*
X61550000Y-49900000D01*
X61550001Y-56117159D01*
G04 #@! TA.AperFunction,Conductor*
D26*
G36*
X61550001Y-56117159D02*
G01*
X61450000Y-56017158D01*
X61450000Y-49900000D01*
X61550000Y-49900000D01*
X61550001Y-56117159D01*
G37*
G04 #@! TD.AperFunction*
D24*
X70318186Y-39230000D02*
X70325426Y-39303513D01*
X70337219Y-39342389D01*
X70328445Y-39350804D01*
X70207729Y-39523541D01*
X70123031Y-39716509D01*
X70109992Y-39759513D01*
X70234793Y-39925000D01*
X71020000Y-39925000D01*
X71020000Y-39905000D01*
X71270000Y-39905000D01*
X71270000Y-39925000D01*
X71290000Y-39925000D01*
X71290000Y-40175000D01*
X71270000Y-40175000D01*
X71270000Y-41195000D01*
X71290000Y-41195000D01*
X71290000Y-41445000D01*
X71270000Y-41445000D01*
X71270000Y-41465000D01*
X71020000Y-41465000D01*
X71020000Y-41445000D01*
X70234793Y-41445000D01*
X70109992Y-41610487D01*
X70123031Y-41653491D01*
X70207729Y-41846459D01*
X70328445Y-42019196D01*
X70453831Y-42139447D01*
X70413894Y-42199216D01*
X70351704Y-42349356D01*
X70320000Y-42508745D01*
X70320000Y-42671255D01*
X70351704Y-42830644D01*
X70413894Y-42980784D01*
X70453831Y-43040553D01*
X70328445Y-43160804D01*
X70207729Y-43333541D01*
X70123031Y-43526509D01*
X70109992Y-43569513D01*
X70234793Y-43735000D01*
X71020000Y-43735000D01*
X71020000Y-43715000D01*
X71270000Y-43715000D01*
X71270000Y-43735000D01*
X71290000Y-43735000D01*
X71290000Y-43985000D01*
X71270000Y-43985000D01*
X71270000Y-44771464D01*
X71435488Y-44895014D01*
X71631828Y-44818455D01*
X71809459Y-44705063D01*
X71961555Y-44559196D01*
X71966299Y-44552407D01*
X72024216Y-44591106D01*
X72174356Y-44653296D01*
X72333745Y-44685000D01*
X72496255Y-44685000D01*
X72585794Y-44667190D01*
X73721168Y-45802564D01*
X73654734Y-45815779D01*
X73540992Y-45862892D01*
X73438626Y-45931291D01*
X73351571Y-46018346D01*
X73283172Y-46120712D01*
X73236059Y-46234454D01*
X73220972Y-46310299D01*
X72882625Y-45971952D01*
X72868535Y-45954783D01*
X72800014Y-45898549D01*
X72721839Y-45856763D01*
X72637013Y-45831031D01*
X72570903Y-45824520D01*
X72570892Y-45824520D01*
X72548798Y-45822344D01*
X72526704Y-45824520D01*
X72036977Y-45824520D01*
X72030101Y-45789954D01*
X71982988Y-45676212D01*
X71914589Y-45573846D01*
X71827534Y-45486791D01*
X71725168Y-45418392D01*
X71611426Y-45371279D01*
X71490677Y-45347260D01*
X71367563Y-45347260D01*
X71246814Y-45371279D01*
X71133072Y-45418392D01*
X71030706Y-45486791D01*
X70943651Y-45573846D01*
X70875252Y-45676212D01*
X70828139Y-45789954D01*
X70821263Y-45824520D01*
X68710916Y-45824520D01*
X67036883Y-44150487D01*
X70109992Y-44150487D01*
X70123031Y-44193491D01*
X70207729Y-44386459D01*
X70328445Y-44559196D01*
X70480541Y-44705063D01*
X70658172Y-44818455D01*
X70854512Y-44895014D01*
X71020000Y-44771464D01*
X71020000Y-43985000D01*
X70234793Y-43985000D01*
X70109992Y-44150487D01*
X67036883Y-44150487D01*
X65776814Y-42890419D01*
X65776814Y-42400000D01*
X65774406Y-42375550D01*
X65774406Y-42350991D01*
X65767166Y-42277478D01*
X65748044Y-42181345D01*
X65726601Y-42110659D01*
X65689092Y-42020103D01*
X65654270Y-41954955D01*
X65599814Y-41873456D01*
X65552953Y-41816355D01*
X65483645Y-41747047D01*
X65442405Y-41713203D01*
X65453868Y-41696048D01*
X65500981Y-41582306D01*
X65525000Y-41461557D01*
X65525000Y-41338443D01*
X65500981Y-41217694D01*
X65453868Y-41103952D01*
X65385469Y-41001586D01*
X65298414Y-40914531D01*
X65196048Y-40846132D01*
X65082306Y-40799019D01*
X64985505Y-40779764D01*
X65032652Y-40709203D01*
X65113688Y-40513566D01*
X65148115Y-40340487D01*
X70109992Y-40340487D01*
X70123031Y-40383491D01*
X70207729Y-40576459D01*
X70283582Y-40685000D01*
X70207729Y-40793541D01*
X70123031Y-40986509D01*
X70109992Y-41029513D01*
X70234793Y-41195000D01*
X71020000Y-41195000D01*
X71020000Y-40175000D01*
X70234793Y-40175000D01*
X70109992Y-40340487D01*
X65148115Y-40340487D01*
X65155000Y-40305878D01*
X65155000Y-40094122D01*
X65113688Y-39886434D01*
X65032652Y-39690797D01*
X64915007Y-39514728D01*
X64765272Y-39364993D01*
X64589203Y-39247348D01*
X64547321Y-39230000D01*
X69602908Y-39230000D01*
X69625002Y-39232176D01*
X69647096Y-39230000D01*
X69647107Y-39230000D01*
X69713217Y-39223489D01*
X69798043Y-39197757D01*
X69876218Y-39155971D01*
X69944739Y-39099737D01*
X69958830Y-39082567D01*
X70318186Y-38723212D01*
X70318186Y-39230000D01*
G04 #@! TA.AperFunction,Conductor*
D26*
G36*
X70318186Y-39230000D02*
G01*
X70325426Y-39303513D01*
X70337219Y-39342389D01*
X70328445Y-39350804D01*
X70207729Y-39523541D01*
X70123031Y-39716509D01*
X70109992Y-39759513D01*
X70234793Y-39925000D01*
X71020000Y-39925000D01*
X71020000Y-39905000D01*
X71270000Y-39905000D01*
X71270000Y-39925000D01*
X71290000Y-39925000D01*
X71290000Y-40175000D01*
X71270000Y-40175000D01*
X71270000Y-41195000D01*
X71290000Y-41195000D01*
X71290000Y-41445000D01*
X71270000Y-41445000D01*
X71270000Y-41465000D01*
X71020000Y-41465000D01*
X71020000Y-41445000D01*
X70234793Y-41445000D01*
X70109992Y-41610487D01*
X70123031Y-41653491D01*
X70207729Y-41846459D01*
X70328445Y-42019196D01*
X70453831Y-42139447D01*
X70413894Y-42199216D01*
X70351704Y-42349356D01*
X70320000Y-42508745D01*
X70320000Y-42671255D01*
X70351704Y-42830644D01*
X70413894Y-42980784D01*
X70453831Y-43040553D01*
X70328445Y-43160804D01*
X70207729Y-43333541D01*
X70123031Y-43526509D01*
X70109992Y-43569513D01*
X70234793Y-43735000D01*
X71020000Y-43735000D01*
X71020000Y-43715000D01*
X71270000Y-43715000D01*
X71270000Y-43735000D01*
X71290000Y-43735000D01*
X71290000Y-43985000D01*
X71270000Y-43985000D01*
X71270000Y-44771464D01*
X71435488Y-44895014D01*
X71631828Y-44818455D01*
X71809459Y-44705063D01*
X71961555Y-44559196D01*
X71966299Y-44552407D01*
X72024216Y-44591106D01*
X72174356Y-44653296D01*
X72333745Y-44685000D01*
X72496255Y-44685000D01*
X72585794Y-44667190D01*
X73721168Y-45802564D01*
X73654734Y-45815779D01*
X73540992Y-45862892D01*
X73438626Y-45931291D01*
X73351571Y-46018346D01*
X73283172Y-46120712D01*
X73236059Y-46234454D01*
X73220972Y-46310299D01*
X72882625Y-45971952D01*
X72868535Y-45954783D01*
X72800014Y-45898549D01*
X72721839Y-45856763D01*
X72637013Y-45831031D01*
X72570903Y-45824520D01*
X72570892Y-45824520D01*
X72548798Y-45822344D01*
X72526704Y-45824520D01*
X72036977Y-45824520D01*
X72030101Y-45789954D01*
X71982988Y-45676212D01*
X71914589Y-45573846D01*
X71827534Y-45486791D01*
X71725168Y-45418392D01*
X71611426Y-45371279D01*
X71490677Y-45347260D01*
X71367563Y-45347260D01*
X71246814Y-45371279D01*
X71133072Y-45418392D01*
X71030706Y-45486791D01*
X70943651Y-45573846D01*
X70875252Y-45676212D01*
X70828139Y-45789954D01*
X70821263Y-45824520D01*
X68710916Y-45824520D01*
X67036883Y-44150487D01*
X70109992Y-44150487D01*
X70123031Y-44193491D01*
X70207729Y-44386459D01*
X70328445Y-44559196D01*
X70480541Y-44705063D01*
X70658172Y-44818455D01*
X70854512Y-44895014D01*
X71020000Y-44771464D01*
X71020000Y-43985000D01*
X70234793Y-43985000D01*
X70109992Y-44150487D01*
X67036883Y-44150487D01*
X65776814Y-42890419D01*
X65776814Y-42400000D01*
X65774406Y-42375550D01*
X65774406Y-42350991D01*
X65767166Y-42277478D01*
X65748044Y-42181345D01*
X65726601Y-42110659D01*
X65689092Y-42020103D01*
X65654270Y-41954955D01*
X65599814Y-41873456D01*
X65552953Y-41816355D01*
X65483645Y-41747047D01*
X65442405Y-41713203D01*
X65453868Y-41696048D01*
X65500981Y-41582306D01*
X65525000Y-41461557D01*
X65525000Y-41338443D01*
X65500981Y-41217694D01*
X65453868Y-41103952D01*
X65385469Y-41001586D01*
X65298414Y-40914531D01*
X65196048Y-40846132D01*
X65082306Y-40799019D01*
X64985505Y-40779764D01*
X65032652Y-40709203D01*
X65113688Y-40513566D01*
X65148115Y-40340487D01*
X70109992Y-40340487D01*
X70123031Y-40383491D01*
X70207729Y-40576459D01*
X70283582Y-40685000D01*
X70207729Y-40793541D01*
X70123031Y-40986509D01*
X70109992Y-41029513D01*
X70234793Y-41195000D01*
X71020000Y-41195000D01*
X71020000Y-40175000D01*
X70234793Y-40175000D01*
X70109992Y-40340487D01*
X65148115Y-40340487D01*
X65155000Y-40305878D01*
X65155000Y-40094122D01*
X65113688Y-39886434D01*
X65032652Y-39690797D01*
X64915007Y-39514728D01*
X64765272Y-39364993D01*
X64589203Y-39247348D01*
X64547321Y-39230000D01*
X69602908Y-39230000D01*
X69625002Y-39232176D01*
X69647096Y-39230000D01*
X69647107Y-39230000D01*
X69713217Y-39223489D01*
X69798043Y-39197757D01*
X69876218Y-39155971D01*
X69944739Y-39099737D01*
X69958830Y-39082567D01*
X70318186Y-38723212D01*
X70318186Y-39230000D01*
G37*
G04 #@! TD.AperFunction*
D24*
X63127348Y-36390797D02*
X63046312Y-36586434D01*
X63005000Y-36794122D01*
X63005000Y-37005878D01*
X63046312Y-37213566D01*
X63127348Y-37409203D01*
X63244993Y-37585272D01*
X63394728Y-37735007D01*
X63570797Y-37852652D01*
X63766434Y-37933688D01*
X63974122Y-37975000D01*
X64185878Y-37975000D01*
X64393566Y-37933688D01*
X64589203Y-37852652D01*
X64765272Y-37735007D01*
X64915007Y-37585272D01*
X65032652Y-37409203D01*
X65113688Y-37213566D01*
X65155000Y-37005878D01*
X65155000Y-36794122D01*
X65113688Y-36586434D01*
X65032652Y-36390797D01*
X64938595Y-36250030D01*
X71112715Y-36250030D01*
X72472979Y-37610295D01*
X72419210Y-37604999D01*
X72419199Y-37604999D01*
X72397105Y-37602823D01*
X72375011Y-37604999D01*
X70605000Y-37604999D01*
X70605000Y-37573669D01*
X70575217Y-37423941D01*
X70516796Y-37282900D01*
X70431982Y-37155966D01*
X70324034Y-37048018D01*
X70197100Y-36963204D01*
X70056059Y-36904783D01*
X69906331Y-36875000D01*
X69753669Y-36875000D01*
X69603941Y-36904783D01*
X69462900Y-36963204D01*
X69335966Y-37048018D01*
X69228018Y-37155966D01*
X69143204Y-37282900D01*
X69084783Y-37423941D01*
X69055000Y-37573669D01*
X69055000Y-37726331D01*
X69084783Y-37876059D01*
X69143204Y-38017100D01*
X69228018Y-38144034D01*
X69335966Y-38251982D01*
X69444263Y-38324343D01*
X69438607Y-38330000D01*
X64012040Y-38330000D01*
X63989948Y-38327824D01*
X63967856Y-38330000D01*
X63967844Y-38330000D01*
X63901734Y-38336511D01*
X63816908Y-38362243D01*
X63738732Y-38404029D01*
X63687381Y-38446172D01*
X63687377Y-38446176D01*
X63670212Y-38460263D01*
X63656125Y-38477428D01*
X62496645Y-39636909D01*
X62415007Y-39514728D01*
X62265272Y-39364993D01*
X62089203Y-39247348D01*
X61893566Y-39166312D01*
X61685878Y-39125000D01*
X61474122Y-39125000D01*
X61266434Y-39166312D01*
X61104999Y-39233181D01*
X61104999Y-38011396D01*
X61207230Y-37909165D01*
X61266434Y-37933688D01*
X61474122Y-37975000D01*
X61685878Y-37975000D01*
X61893566Y-37933688D01*
X62089203Y-37852652D01*
X62265272Y-37735007D01*
X62415007Y-37585272D01*
X62532652Y-37409203D01*
X62613688Y-37213566D01*
X62655000Y-37005878D01*
X62655000Y-36794122D01*
X62613688Y-36586434D01*
X62532652Y-36390797D01*
X62438595Y-36250030D01*
X63221405Y-36250030D01*
X63127348Y-36390797D01*
G04 #@! TA.AperFunction,Conductor*
D26*
G36*
X63127348Y-36390797D02*
G01*
X63046312Y-36586434D01*
X63005000Y-36794122D01*
X63005000Y-37005878D01*
X63046312Y-37213566D01*
X63127348Y-37409203D01*
X63244993Y-37585272D01*
X63394728Y-37735007D01*
X63570797Y-37852652D01*
X63766434Y-37933688D01*
X63974122Y-37975000D01*
X64185878Y-37975000D01*
X64393566Y-37933688D01*
X64589203Y-37852652D01*
X64765272Y-37735007D01*
X64915007Y-37585272D01*
X65032652Y-37409203D01*
X65113688Y-37213566D01*
X65155000Y-37005878D01*
X65155000Y-36794122D01*
X65113688Y-36586434D01*
X65032652Y-36390797D01*
X64938595Y-36250030D01*
X71112715Y-36250030D01*
X72472979Y-37610295D01*
X72419210Y-37604999D01*
X72419199Y-37604999D01*
X72397105Y-37602823D01*
X72375011Y-37604999D01*
X70605000Y-37604999D01*
X70605000Y-37573669D01*
X70575217Y-37423941D01*
X70516796Y-37282900D01*
X70431982Y-37155966D01*
X70324034Y-37048018D01*
X70197100Y-36963204D01*
X70056059Y-36904783D01*
X69906331Y-36875000D01*
X69753669Y-36875000D01*
X69603941Y-36904783D01*
X69462900Y-36963204D01*
X69335966Y-37048018D01*
X69228018Y-37155966D01*
X69143204Y-37282900D01*
X69084783Y-37423941D01*
X69055000Y-37573669D01*
X69055000Y-37726331D01*
X69084783Y-37876059D01*
X69143204Y-38017100D01*
X69228018Y-38144034D01*
X69335966Y-38251982D01*
X69444263Y-38324343D01*
X69438607Y-38330000D01*
X64012040Y-38330000D01*
X63989948Y-38327824D01*
X63967856Y-38330000D01*
X63967844Y-38330000D01*
X63901734Y-38336511D01*
X63816908Y-38362243D01*
X63738732Y-38404029D01*
X63687381Y-38446172D01*
X63687377Y-38446176D01*
X63670212Y-38460263D01*
X63656125Y-38477428D01*
X62496645Y-39636909D01*
X62415007Y-39514728D01*
X62265272Y-39364993D01*
X62089203Y-39247348D01*
X61893566Y-39166312D01*
X61685878Y-39125000D01*
X61474122Y-39125000D01*
X61266434Y-39166312D01*
X61104999Y-39233181D01*
X61104999Y-38011396D01*
X61207230Y-37909165D01*
X61266434Y-37933688D01*
X61474122Y-37975000D01*
X61685878Y-37975000D01*
X61893566Y-37933688D01*
X62089203Y-37852652D01*
X62265272Y-37735007D01*
X62415007Y-37585272D01*
X62532652Y-37409203D01*
X62613688Y-37213566D01*
X62655000Y-37005878D01*
X62655000Y-36794122D01*
X62613688Y-36586434D01*
X62532652Y-36390797D01*
X62438595Y-36250030D01*
X63221405Y-36250030D01*
X63127348Y-36390797D01*
G37*
G04 #@! TD.AperFunction*
M02*
