G04 #@! TF.GenerationSoftware,KiCad,Pcbnew,(5.1.9-0-10_14)*
G04 #@! TF.CreationDate,2021-04-05T09:48:25+08:00*
G04 #@! TF.ProjectId,tigard,74696761-7264-42e6-9b69-6361645f7063,v1.1*
G04 #@! TF.SameCoordinates,Original*
G04 #@! TF.FileFunction,Soldermask,Top*
G04 #@! TF.FilePolarity,Negative*
%FSLAX46Y46*%
G04 Gerber Fmt 4.6, Leading zero omitted, Abs format (unit mm)*
G04 Created by KiCad (PCBNEW (5.1.9-0-10_14)) date 2021-04-05 09:48:25*
%MOMM*%
%LPD*%
G01*
G04 APERTURE LIST*
%ADD10O,1.000000X1.000000*%
%ADD11O,2.200000X1.100000*%
%ADD12C,0.750000*%
%ADD13O,1.700000X1.100000*%
%ADD14O,1.800000X1.800000*%
%ADD15C,2.100000*%
%ADD16C,1.500000*%
%ADD17C,3.300000*%
G04 APERTURE END LIST*
D10*
X45137580Y-71128420D03*
X45137580Y-69858420D03*
X46407580Y-71128420D03*
X46407580Y-69858420D03*
X47677580Y-71128420D03*
X47677580Y-69858420D03*
X48947580Y-71128420D03*
X48947580Y-69858420D03*
X50217580Y-71128420D03*
X50217580Y-69858420D03*
X51487580Y-71128420D03*
X51487580Y-69858420D03*
X52757580Y-71128420D03*
G36*
G01*
X52307580Y-69358420D02*
X53207580Y-69358420D01*
G75*
G02*
X53257580Y-69408420I0J-50000D01*
G01*
X53257580Y-70308420D01*
G75*
G02*
X53207580Y-70358420I-50000J0D01*
G01*
X52307580Y-70358420D01*
G75*
G02*
X52257580Y-70308420I0J50000D01*
G01*
X52257580Y-69408420D01*
G75*
G02*
X52307580Y-69358420I50000J0D01*
G01*
G37*
X71145000Y-43860000D03*
X72415000Y-43860000D03*
X71145000Y-42590000D03*
X72415000Y-42590000D03*
X71145000Y-41320000D03*
X72415000Y-41320000D03*
X71145000Y-40050000D03*
X72415000Y-40050000D03*
X72415000Y-38780000D03*
G36*
G01*
X70645000Y-39230000D02*
X70645000Y-38330000D01*
G75*
G02*
X70695000Y-38280000I50000J0D01*
G01*
X71595000Y-38280000D01*
G75*
G02*
X71645000Y-38330000I0J-50000D01*
G01*
X71645000Y-39230000D01*
G75*
G02*
X71595000Y-39280000I-50000J0D01*
G01*
X70695000Y-39280000D01*
G75*
G02*
X70645000Y-39230000I0J50000D01*
G01*
G37*
G36*
G01*
X44930000Y-71210000D02*
X45350000Y-71210000D01*
G75*
G02*
X45560000Y-71420000I0J-210000D01*
G01*
X45560000Y-73500000D01*
G75*
G02*
X45350000Y-73710000I-210000J0D01*
G01*
X44930000Y-73710000D01*
G75*
G02*
X44720000Y-73500000I0J210000D01*
G01*
X44720000Y-71420000D01*
G75*
G02*
X44930000Y-71210000I210000J0D01*
G01*
G37*
G36*
G01*
X44930000Y-67310000D02*
X45350000Y-67310000D01*
G75*
G02*
X45560000Y-67520000I0J-210000D01*
G01*
X45560000Y-69600000D01*
G75*
G02*
X45350000Y-69810000I-210000J0D01*
G01*
X44930000Y-69810000D01*
G75*
G02*
X44720000Y-69600000I0J210000D01*
G01*
X44720000Y-67520000D01*
G75*
G02*
X44930000Y-67310000I210000J0D01*
G01*
G37*
G36*
G01*
X46200000Y-71210000D02*
X46620000Y-71210000D01*
G75*
G02*
X46830000Y-71420000I0J-210000D01*
G01*
X46830000Y-73500000D01*
G75*
G02*
X46620000Y-73710000I-210000J0D01*
G01*
X46200000Y-73710000D01*
G75*
G02*
X45990000Y-73500000I0J210000D01*
G01*
X45990000Y-71420000D01*
G75*
G02*
X46200000Y-71210000I210000J0D01*
G01*
G37*
G36*
G01*
X46200000Y-67310000D02*
X46620000Y-67310000D01*
G75*
G02*
X46830000Y-67520000I0J-210000D01*
G01*
X46830000Y-69600000D01*
G75*
G02*
X46620000Y-69810000I-210000J0D01*
G01*
X46200000Y-69810000D01*
G75*
G02*
X45990000Y-69600000I0J210000D01*
G01*
X45990000Y-67520000D01*
G75*
G02*
X46200000Y-67310000I210000J0D01*
G01*
G37*
G36*
G01*
X47470000Y-71210000D02*
X47890000Y-71210000D01*
G75*
G02*
X48100000Y-71420000I0J-210000D01*
G01*
X48100000Y-73500000D01*
G75*
G02*
X47890000Y-73710000I-210000J0D01*
G01*
X47470000Y-73710000D01*
G75*
G02*
X47260000Y-73500000I0J210000D01*
G01*
X47260000Y-71420000D01*
G75*
G02*
X47470000Y-71210000I210000J0D01*
G01*
G37*
G36*
G01*
X47470000Y-67310000D02*
X47890000Y-67310000D01*
G75*
G02*
X48100000Y-67520000I0J-210000D01*
G01*
X48100000Y-69600000D01*
G75*
G02*
X47890000Y-69810000I-210000J0D01*
G01*
X47470000Y-69810000D01*
G75*
G02*
X47260000Y-69600000I0J210000D01*
G01*
X47260000Y-67520000D01*
G75*
G02*
X47470000Y-67310000I210000J0D01*
G01*
G37*
G36*
G01*
X48740000Y-71210000D02*
X49160000Y-71210000D01*
G75*
G02*
X49370000Y-71420000I0J-210000D01*
G01*
X49370000Y-73500000D01*
G75*
G02*
X49160000Y-73710000I-210000J0D01*
G01*
X48740000Y-73710000D01*
G75*
G02*
X48530000Y-73500000I0J210000D01*
G01*
X48530000Y-71420000D01*
G75*
G02*
X48740000Y-71210000I210000J0D01*
G01*
G37*
G36*
G01*
X48740000Y-67310000D02*
X49160000Y-67310000D01*
G75*
G02*
X49370000Y-67520000I0J-210000D01*
G01*
X49370000Y-69600000D01*
G75*
G02*
X49160000Y-69810000I-210000J0D01*
G01*
X48740000Y-69810000D01*
G75*
G02*
X48530000Y-69600000I0J210000D01*
G01*
X48530000Y-67520000D01*
G75*
G02*
X48740000Y-67310000I210000J0D01*
G01*
G37*
G36*
G01*
X50010000Y-71210000D02*
X50430000Y-71210000D01*
G75*
G02*
X50640000Y-71420000I0J-210000D01*
G01*
X50640000Y-73500000D01*
G75*
G02*
X50430000Y-73710000I-210000J0D01*
G01*
X50010000Y-73710000D01*
G75*
G02*
X49800000Y-73500000I0J210000D01*
G01*
X49800000Y-71420000D01*
G75*
G02*
X50010000Y-71210000I210000J0D01*
G01*
G37*
G36*
G01*
X50010000Y-67310000D02*
X50430000Y-67310000D01*
G75*
G02*
X50640000Y-67520000I0J-210000D01*
G01*
X50640000Y-69600000D01*
G75*
G02*
X50430000Y-69810000I-210000J0D01*
G01*
X50010000Y-69810000D01*
G75*
G02*
X49800000Y-69600000I0J210000D01*
G01*
X49800000Y-67520000D01*
G75*
G02*
X50010000Y-67310000I210000J0D01*
G01*
G37*
G36*
G01*
X51280000Y-71210000D02*
X51700000Y-71210000D01*
G75*
G02*
X51910000Y-71420000I0J-210000D01*
G01*
X51910000Y-73500000D01*
G75*
G02*
X51700000Y-73710000I-210000J0D01*
G01*
X51280000Y-73710000D01*
G75*
G02*
X51070000Y-73500000I0J210000D01*
G01*
X51070000Y-71420000D01*
G75*
G02*
X51280000Y-71210000I210000J0D01*
G01*
G37*
G36*
G01*
X51280000Y-67310000D02*
X51700000Y-67310000D01*
G75*
G02*
X51910000Y-67520000I0J-210000D01*
G01*
X51910000Y-69600000D01*
G75*
G02*
X51700000Y-69810000I-210000J0D01*
G01*
X51280000Y-69810000D01*
G75*
G02*
X51070000Y-69600000I0J210000D01*
G01*
X51070000Y-67520000D01*
G75*
G02*
X51280000Y-67310000I210000J0D01*
G01*
G37*
G36*
G01*
X52550000Y-71210000D02*
X52970000Y-71210000D01*
G75*
G02*
X53180000Y-71420000I0J-210000D01*
G01*
X53180000Y-73500000D01*
G75*
G02*
X52970000Y-73710000I-210000J0D01*
G01*
X52550000Y-73710000D01*
G75*
G02*
X52340000Y-73500000I0J210000D01*
G01*
X52340000Y-71420000D01*
G75*
G02*
X52550000Y-71210000I210000J0D01*
G01*
G37*
G36*
G01*
X52550000Y-67310000D02*
X52970000Y-67310000D01*
G75*
G02*
X53180000Y-67520000I0J-210000D01*
G01*
X53180000Y-69600000D01*
G75*
G02*
X52970000Y-69810000I-210000J0D01*
G01*
X52550000Y-69810000D01*
G75*
G02*
X52340000Y-69600000I0J210000D01*
G01*
X52340000Y-67520000D01*
G75*
G02*
X52550000Y-67310000I210000J0D01*
G01*
G37*
G36*
G01*
X36320000Y-63300000D02*
X37770000Y-63300000D01*
G75*
G02*
X37820000Y-63350000I0J-50000D01*
G01*
X37820000Y-63950000D01*
G75*
G02*
X37770000Y-64000000I-50000J0D01*
G01*
X36320000Y-64000000D01*
G75*
G02*
X36270000Y-63950000I0J50000D01*
G01*
X36270000Y-63350000D01*
G75*
G02*
X36320000Y-63300000I50000J0D01*
G01*
G37*
G36*
G01*
X36320000Y-62500000D02*
X37770000Y-62500000D01*
G75*
G02*
X37820000Y-62550000I0J-50000D01*
G01*
X37820000Y-63150000D01*
G75*
G02*
X37770000Y-63200000I-50000J0D01*
G01*
X36320000Y-63200000D01*
G75*
G02*
X36270000Y-63150000I0J50000D01*
G01*
X36270000Y-62550000D01*
G75*
G02*
X36320000Y-62500000I50000J0D01*
G01*
G37*
G36*
G01*
X36320000Y-57600000D02*
X37770000Y-57600000D01*
G75*
G02*
X37820000Y-57650000I0J-50000D01*
G01*
X37820000Y-58250000D01*
G75*
G02*
X37770000Y-58300000I-50000J0D01*
G01*
X36320000Y-58300000D01*
G75*
G02*
X36270000Y-58250000I0J50000D01*
G01*
X36270000Y-57650000D01*
G75*
G02*
X36320000Y-57600000I50000J0D01*
G01*
G37*
G36*
G01*
X36320000Y-56800000D02*
X37770000Y-56800000D01*
G75*
G02*
X37820000Y-56850000I0J-50000D01*
G01*
X37820000Y-57450000D01*
G75*
G02*
X37770000Y-57500000I-50000J0D01*
G01*
X36320000Y-57500000D01*
G75*
G02*
X36270000Y-57450000I0J50000D01*
G01*
X36270000Y-56850000D01*
G75*
G02*
X36320000Y-56800000I50000J0D01*
G01*
G37*
G36*
G01*
X36320000Y-56800000D02*
X37770000Y-56800000D01*
G75*
G02*
X37820000Y-56850000I0J-50000D01*
G01*
X37820000Y-57450000D01*
G75*
G02*
X37770000Y-57500000I-50000J0D01*
G01*
X36320000Y-57500000D01*
G75*
G02*
X36270000Y-57450000I0J50000D01*
G01*
X36270000Y-56850000D01*
G75*
G02*
X36320000Y-56800000I50000J0D01*
G01*
G37*
G36*
G01*
X36320000Y-57600000D02*
X37770000Y-57600000D01*
G75*
G02*
X37820000Y-57650000I0J-50000D01*
G01*
X37820000Y-58250000D01*
G75*
G02*
X37770000Y-58300000I-50000J0D01*
G01*
X36320000Y-58300000D01*
G75*
G02*
X36270000Y-58250000I0J50000D01*
G01*
X36270000Y-57650000D01*
G75*
G02*
X36320000Y-57600000I50000J0D01*
G01*
G37*
G36*
G01*
X36320000Y-62500000D02*
X37770000Y-62500000D01*
G75*
G02*
X37820000Y-62550000I0J-50000D01*
G01*
X37820000Y-63150000D01*
G75*
G02*
X37770000Y-63200000I-50000J0D01*
G01*
X36320000Y-63200000D01*
G75*
G02*
X36270000Y-63150000I0J50000D01*
G01*
X36270000Y-62550000D01*
G75*
G02*
X36320000Y-62500000I50000J0D01*
G01*
G37*
G36*
G01*
X36320000Y-63300000D02*
X37770000Y-63300000D01*
G75*
G02*
X37820000Y-63350000I0J-50000D01*
G01*
X37820000Y-63950000D01*
G75*
G02*
X37770000Y-64000000I-50000J0D01*
G01*
X36320000Y-64000000D01*
G75*
G02*
X36270000Y-63950000I0J50000D01*
G01*
X36270000Y-63350000D01*
G75*
G02*
X36320000Y-63300000I50000J0D01*
G01*
G37*
G36*
G01*
X36320000Y-58450000D02*
X37770000Y-58450000D01*
G75*
G02*
X37820000Y-58500000I0J-50000D01*
G01*
X37820000Y-58800000D01*
G75*
G02*
X37770000Y-58850000I-50000J0D01*
G01*
X36320000Y-58850000D01*
G75*
G02*
X36270000Y-58800000I0J50000D01*
G01*
X36270000Y-58500000D01*
G75*
G02*
X36320000Y-58450000I50000J0D01*
G01*
G37*
G36*
G01*
X36320000Y-58950000D02*
X37770000Y-58950000D01*
G75*
G02*
X37820000Y-59000000I0J-50000D01*
G01*
X37820000Y-59300000D01*
G75*
G02*
X37770000Y-59350000I-50000J0D01*
G01*
X36320000Y-59350000D01*
G75*
G02*
X36270000Y-59300000I0J50000D01*
G01*
X36270000Y-59000000D01*
G75*
G02*
X36320000Y-58950000I50000J0D01*
G01*
G37*
G36*
G01*
X36320000Y-59450000D02*
X37770000Y-59450000D01*
G75*
G02*
X37820000Y-59500000I0J-50000D01*
G01*
X37820000Y-59800000D01*
G75*
G02*
X37770000Y-59850000I-50000J0D01*
G01*
X36320000Y-59850000D01*
G75*
G02*
X36270000Y-59800000I0J50000D01*
G01*
X36270000Y-59500000D01*
G75*
G02*
X36320000Y-59450000I50000J0D01*
G01*
G37*
G36*
G01*
X36320000Y-60450000D02*
X37770000Y-60450000D01*
G75*
G02*
X37820000Y-60500000I0J-50000D01*
G01*
X37820000Y-60800000D01*
G75*
G02*
X37770000Y-60850000I-50000J0D01*
G01*
X36320000Y-60850000D01*
G75*
G02*
X36270000Y-60800000I0J50000D01*
G01*
X36270000Y-60500000D01*
G75*
G02*
X36320000Y-60450000I50000J0D01*
G01*
G37*
G36*
G01*
X36320000Y-60950000D02*
X37770000Y-60950000D01*
G75*
G02*
X37820000Y-61000000I0J-50000D01*
G01*
X37820000Y-61300000D01*
G75*
G02*
X37770000Y-61350000I-50000J0D01*
G01*
X36320000Y-61350000D01*
G75*
G02*
X36270000Y-61300000I0J50000D01*
G01*
X36270000Y-61000000D01*
G75*
G02*
X36320000Y-60950000I50000J0D01*
G01*
G37*
G36*
G01*
X36320000Y-61450000D02*
X37770000Y-61450000D01*
G75*
G02*
X37820000Y-61500000I0J-50000D01*
G01*
X37820000Y-61800000D01*
G75*
G02*
X37770000Y-61850000I-50000J0D01*
G01*
X36320000Y-61850000D01*
G75*
G02*
X36270000Y-61800000I0J50000D01*
G01*
X36270000Y-61500000D01*
G75*
G02*
X36320000Y-61450000I50000J0D01*
G01*
G37*
G36*
G01*
X36320000Y-61950000D02*
X37770000Y-61950000D01*
G75*
G02*
X37820000Y-62000000I0J-50000D01*
G01*
X37820000Y-62300000D01*
G75*
G02*
X37770000Y-62350000I-50000J0D01*
G01*
X36320000Y-62350000D01*
G75*
G02*
X36270000Y-62300000I0J50000D01*
G01*
X36270000Y-62000000D01*
G75*
G02*
X36320000Y-61950000I50000J0D01*
G01*
G37*
G36*
G01*
X36320000Y-59950000D02*
X37770000Y-59950000D01*
G75*
G02*
X37820000Y-60000000I0J-50000D01*
G01*
X37820000Y-60300000D01*
G75*
G02*
X37770000Y-60350000I-50000J0D01*
G01*
X36320000Y-60350000D01*
G75*
G02*
X36270000Y-60300000I0J50000D01*
G01*
X36270000Y-60000000D01*
G75*
G02*
X36320000Y-59950000I50000J0D01*
G01*
G37*
D11*
X36130000Y-64720000D03*
X36130000Y-56080000D03*
D12*
X35600000Y-57510000D03*
D13*
X31950000Y-56080000D03*
D12*
X35600000Y-63290000D03*
D13*
X31950000Y-64720000D03*
G36*
G01*
X70880000Y-49390000D02*
X70880000Y-48490000D01*
G75*
G02*
X71330000Y-48040000I450000J0D01*
G01*
X72230000Y-48040000D01*
G75*
G02*
X72680000Y-48490000I0J-450000D01*
G01*
X72680000Y-49390000D01*
G75*
G02*
X72230000Y-49840000I-450000J0D01*
G01*
X71330000Y-49840000D01*
G75*
G02*
X70880000Y-49390000I0J450000D01*
G01*
G37*
D14*
X71780000Y-51480000D03*
X71780000Y-54020000D03*
X71780000Y-56560000D03*
X71780000Y-59100000D03*
X71780000Y-61640000D03*
X71780000Y-64180000D03*
X71780000Y-66720000D03*
X71780000Y-69260000D03*
G36*
G01*
X64345000Y-47450000D02*
X64345000Y-47200000D01*
G75*
G02*
X64470000Y-47075000I125000J0D01*
G01*
X65795000Y-47075000D01*
G75*
G02*
X65920000Y-47200000I0J-125000D01*
G01*
X65920000Y-47450000D01*
G75*
G02*
X65795000Y-47575000I-125000J0D01*
G01*
X64470000Y-47575000D01*
G75*
G02*
X64345000Y-47450000I0J125000D01*
G01*
G37*
G36*
G01*
X64345000Y-48100000D02*
X64345000Y-47850000D01*
G75*
G02*
X64470000Y-47725000I125000J0D01*
G01*
X65795000Y-47725000D01*
G75*
G02*
X65920000Y-47850000I0J-125000D01*
G01*
X65920000Y-48100000D01*
G75*
G02*
X65795000Y-48225000I-125000J0D01*
G01*
X64470000Y-48225000D01*
G75*
G02*
X64345000Y-48100000I0J125000D01*
G01*
G37*
G36*
G01*
X64345000Y-48750000D02*
X64345000Y-48500000D01*
G75*
G02*
X64470000Y-48375000I125000J0D01*
G01*
X65795000Y-48375000D01*
G75*
G02*
X65920000Y-48500000I0J-125000D01*
G01*
X65920000Y-48750000D01*
G75*
G02*
X65795000Y-48875000I-125000J0D01*
G01*
X64470000Y-48875000D01*
G75*
G02*
X64345000Y-48750000I0J125000D01*
G01*
G37*
G36*
G01*
X64345000Y-49400000D02*
X64345000Y-49150000D01*
G75*
G02*
X64470000Y-49025000I125000J0D01*
G01*
X65795000Y-49025000D01*
G75*
G02*
X65920000Y-49150000I0J-125000D01*
G01*
X65920000Y-49400000D01*
G75*
G02*
X65795000Y-49525000I-125000J0D01*
G01*
X64470000Y-49525000D01*
G75*
G02*
X64345000Y-49400000I0J125000D01*
G01*
G37*
G36*
G01*
X64345000Y-50050000D02*
X64345000Y-49800000D01*
G75*
G02*
X64470000Y-49675000I125000J0D01*
G01*
X65795000Y-49675000D01*
G75*
G02*
X65920000Y-49800000I0J-125000D01*
G01*
X65920000Y-50050000D01*
G75*
G02*
X65795000Y-50175000I-125000J0D01*
G01*
X64470000Y-50175000D01*
G75*
G02*
X64345000Y-50050000I0J125000D01*
G01*
G37*
G36*
G01*
X64345000Y-50700000D02*
X64345000Y-50450000D01*
G75*
G02*
X64470000Y-50325000I125000J0D01*
G01*
X65795000Y-50325000D01*
G75*
G02*
X65920000Y-50450000I0J-125000D01*
G01*
X65920000Y-50700000D01*
G75*
G02*
X65795000Y-50825000I-125000J0D01*
G01*
X64470000Y-50825000D01*
G75*
G02*
X64345000Y-50700000I0J125000D01*
G01*
G37*
G36*
G01*
X64345000Y-51350000D02*
X64345000Y-51100000D01*
G75*
G02*
X64470000Y-50975000I125000J0D01*
G01*
X65795000Y-50975000D01*
G75*
G02*
X65920000Y-51100000I0J-125000D01*
G01*
X65920000Y-51350000D01*
G75*
G02*
X65795000Y-51475000I-125000J0D01*
G01*
X64470000Y-51475000D01*
G75*
G02*
X64345000Y-51350000I0J125000D01*
G01*
G37*
G36*
G01*
X64345000Y-52000000D02*
X64345000Y-51750000D01*
G75*
G02*
X64470000Y-51625000I125000J0D01*
G01*
X65795000Y-51625000D01*
G75*
G02*
X65920000Y-51750000I0J-125000D01*
G01*
X65920000Y-52000000D01*
G75*
G02*
X65795000Y-52125000I-125000J0D01*
G01*
X64470000Y-52125000D01*
G75*
G02*
X64345000Y-52000000I0J125000D01*
G01*
G37*
G36*
G01*
X64345000Y-52650000D02*
X64345000Y-52400000D01*
G75*
G02*
X64470000Y-52275000I125000J0D01*
G01*
X65795000Y-52275000D01*
G75*
G02*
X65920000Y-52400000I0J-125000D01*
G01*
X65920000Y-52650000D01*
G75*
G02*
X65795000Y-52775000I-125000J0D01*
G01*
X64470000Y-52775000D01*
G75*
G02*
X64345000Y-52650000I0J125000D01*
G01*
G37*
G36*
G01*
X64345000Y-53300000D02*
X64345000Y-53050000D01*
G75*
G02*
X64470000Y-52925000I125000J0D01*
G01*
X65795000Y-52925000D01*
G75*
G02*
X65920000Y-53050000I0J-125000D01*
G01*
X65920000Y-53300000D01*
G75*
G02*
X65795000Y-53425000I-125000J0D01*
G01*
X64470000Y-53425000D01*
G75*
G02*
X64345000Y-53300000I0J125000D01*
G01*
G37*
G36*
G01*
X64345000Y-53950000D02*
X64345000Y-53700000D01*
G75*
G02*
X64470000Y-53575000I125000J0D01*
G01*
X65795000Y-53575000D01*
G75*
G02*
X65920000Y-53700000I0J-125000D01*
G01*
X65920000Y-53950000D01*
G75*
G02*
X65795000Y-54075000I-125000J0D01*
G01*
X64470000Y-54075000D01*
G75*
G02*
X64345000Y-53950000I0J125000D01*
G01*
G37*
G36*
G01*
X64345000Y-54600000D02*
X64345000Y-54350000D01*
G75*
G02*
X64470000Y-54225000I125000J0D01*
G01*
X65795000Y-54225000D01*
G75*
G02*
X65920000Y-54350000I0J-125000D01*
G01*
X65920000Y-54600000D01*
G75*
G02*
X65795000Y-54725000I-125000J0D01*
G01*
X64470000Y-54725000D01*
G75*
G02*
X64345000Y-54600000I0J125000D01*
G01*
G37*
G36*
G01*
X58620000Y-54600000D02*
X58620000Y-54350000D01*
G75*
G02*
X58745000Y-54225000I125000J0D01*
G01*
X60070000Y-54225000D01*
G75*
G02*
X60195000Y-54350000I0J-125000D01*
G01*
X60195000Y-54600000D01*
G75*
G02*
X60070000Y-54725000I-125000J0D01*
G01*
X58745000Y-54725000D01*
G75*
G02*
X58620000Y-54600000I0J125000D01*
G01*
G37*
G36*
G01*
X58620000Y-53950000D02*
X58620000Y-53700000D01*
G75*
G02*
X58745000Y-53575000I125000J0D01*
G01*
X60070000Y-53575000D01*
G75*
G02*
X60195000Y-53700000I0J-125000D01*
G01*
X60195000Y-53950000D01*
G75*
G02*
X60070000Y-54075000I-125000J0D01*
G01*
X58745000Y-54075000D01*
G75*
G02*
X58620000Y-53950000I0J125000D01*
G01*
G37*
G36*
G01*
X58620000Y-53300000D02*
X58620000Y-53050000D01*
G75*
G02*
X58745000Y-52925000I125000J0D01*
G01*
X60070000Y-52925000D01*
G75*
G02*
X60195000Y-53050000I0J-125000D01*
G01*
X60195000Y-53300000D01*
G75*
G02*
X60070000Y-53425000I-125000J0D01*
G01*
X58745000Y-53425000D01*
G75*
G02*
X58620000Y-53300000I0J125000D01*
G01*
G37*
G36*
G01*
X58620000Y-52650000D02*
X58620000Y-52400000D01*
G75*
G02*
X58745000Y-52275000I125000J0D01*
G01*
X60070000Y-52275000D01*
G75*
G02*
X60195000Y-52400000I0J-125000D01*
G01*
X60195000Y-52650000D01*
G75*
G02*
X60070000Y-52775000I-125000J0D01*
G01*
X58745000Y-52775000D01*
G75*
G02*
X58620000Y-52650000I0J125000D01*
G01*
G37*
G36*
G01*
X58620000Y-52000000D02*
X58620000Y-51750000D01*
G75*
G02*
X58745000Y-51625000I125000J0D01*
G01*
X60070000Y-51625000D01*
G75*
G02*
X60195000Y-51750000I0J-125000D01*
G01*
X60195000Y-52000000D01*
G75*
G02*
X60070000Y-52125000I-125000J0D01*
G01*
X58745000Y-52125000D01*
G75*
G02*
X58620000Y-52000000I0J125000D01*
G01*
G37*
G36*
G01*
X58620000Y-51350000D02*
X58620000Y-51100000D01*
G75*
G02*
X58745000Y-50975000I125000J0D01*
G01*
X60070000Y-50975000D01*
G75*
G02*
X60195000Y-51100000I0J-125000D01*
G01*
X60195000Y-51350000D01*
G75*
G02*
X60070000Y-51475000I-125000J0D01*
G01*
X58745000Y-51475000D01*
G75*
G02*
X58620000Y-51350000I0J125000D01*
G01*
G37*
G36*
G01*
X58620000Y-50700000D02*
X58620000Y-50450000D01*
G75*
G02*
X58745000Y-50325000I125000J0D01*
G01*
X60070000Y-50325000D01*
G75*
G02*
X60195000Y-50450000I0J-125000D01*
G01*
X60195000Y-50700000D01*
G75*
G02*
X60070000Y-50825000I-125000J0D01*
G01*
X58745000Y-50825000D01*
G75*
G02*
X58620000Y-50700000I0J125000D01*
G01*
G37*
G36*
G01*
X58620000Y-50050000D02*
X58620000Y-49800000D01*
G75*
G02*
X58745000Y-49675000I125000J0D01*
G01*
X60070000Y-49675000D01*
G75*
G02*
X60195000Y-49800000I0J-125000D01*
G01*
X60195000Y-50050000D01*
G75*
G02*
X60070000Y-50175000I-125000J0D01*
G01*
X58745000Y-50175000D01*
G75*
G02*
X58620000Y-50050000I0J125000D01*
G01*
G37*
G36*
G01*
X58620000Y-49400000D02*
X58620000Y-49150000D01*
G75*
G02*
X58745000Y-49025000I125000J0D01*
G01*
X60070000Y-49025000D01*
G75*
G02*
X60195000Y-49150000I0J-125000D01*
G01*
X60195000Y-49400000D01*
G75*
G02*
X60070000Y-49525000I-125000J0D01*
G01*
X58745000Y-49525000D01*
G75*
G02*
X58620000Y-49400000I0J125000D01*
G01*
G37*
G36*
G01*
X58620000Y-48750000D02*
X58620000Y-48500000D01*
G75*
G02*
X58745000Y-48375000I125000J0D01*
G01*
X60070000Y-48375000D01*
G75*
G02*
X60195000Y-48500000I0J-125000D01*
G01*
X60195000Y-48750000D01*
G75*
G02*
X60070000Y-48875000I-125000J0D01*
G01*
X58745000Y-48875000D01*
G75*
G02*
X58620000Y-48750000I0J125000D01*
G01*
G37*
G36*
G01*
X58620000Y-48100000D02*
X58620000Y-47850000D01*
G75*
G02*
X58745000Y-47725000I125000J0D01*
G01*
X60070000Y-47725000D01*
G75*
G02*
X60195000Y-47850000I0J-125000D01*
G01*
X60195000Y-48100000D01*
G75*
G02*
X60070000Y-48225000I-125000J0D01*
G01*
X58745000Y-48225000D01*
G75*
G02*
X58620000Y-48100000I0J125000D01*
G01*
G37*
G36*
G01*
X58620000Y-47450000D02*
X58620000Y-47200000D01*
G75*
G02*
X58745000Y-47075000I125000J0D01*
G01*
X60070000Y-47075000D01*
G75*
G02*
X60195000Y-47200000I0J-125000D01*
G01*
X60195000Y-47450000D01*
G75*
G02*
X60070000Y-47575000I-125000J0D01*
G01*
X58745000Y-47575000D01*
G75*
G02*
X58620000Y-47450000I0J125000D01*
G01*
G37*
G36*
G01*
X41945000Y-75379168D02*
X41945000Y-74020832D01*
G75*
G02*
X42215832Y-73750000I270832J0D01*
G01*
X42974168Y-73750000D01*
G75*
G02*
X43245000Y-74020832I0J-270832D01*
G01*
X43245000Y-75379168D01*
G75*
G02*
X42974168Y-75650000I-270832J0D01*
G01*
X42215832Y-75650000D01*
G75*
G02*
X41945000Y-75379168I0J270832D01*
G01*
G37*
G36*
G01*
X36345000Y-75379168D02*
X36345000Y-74020832D01*
G75*
G02*
X36615832Y-73750000I270832J0D01*
G01*
X37374168Y-73750000D01*
G75*
G02*
X37645000Y-74020832I0J-270832D01*
G01*
X37645000Y-75379168D01*
G75*
G02*
X37374168Y-75650000I-270832J0D01*
G01*
X36615832Y-75650000D01*
G75*
G02*
X36345000Y-75379168I0J270832D01*
G01*
G37*
G36*
G01*
X40945000Y-71475000D02*
X40945000Y-70175000D01*
G75*
G02*
X41120000Y-70000000I175000J0D01*
G01*
X41470000Y-70000000D01*
G75*
G02*
X41645000Y-70175000I0J-175000D01*
G01*
X41645000Y-71475000D01*
G75*
G02*
X41470000Y-71650000I-175000J0D01*
G01*
X41120000Y-71650000D01*
G75*
G02*
X40945000Y-71475000I0J175000D01*
G01*
G37*
G36*
G01*
X39945000Y-71475000D02*
X39945000Y-70175000D01*
G75*
G02*
X40120000Y-70000000I175000J0D01*
G01*
X40470000Y-70000000D01*
G75*
G02*
X40645000Y-70175000I0J-175000D01*
G01*
X40645000Y-71475000D01*
G75*
G02*
X40470000Y-71650000I-175000J0D01*
G01*
X40120000Y-71650000D01*
G75*
G02*
X39945000Y-71475000I0J175000D01*
G01*
G37*
G36*
G01*
X38945000Y-71475000D02*
X38945000Y-70175000D01*
G75*
G02*
X39120000Y-70000000I175000J0D01*
G01*
X39470000Y-70000000D01*
G75*
G02*
X39645000Y-70175000I0J-175000D01*
G01*
X39645000Y-71475000D01*
G75*
G02*
X39470000Y-71650000I-175000J0D01*
G01*
X39120000Y-71650000D01*
G75*
G02*
X38945000Y-71475000I0J175000D01*
G01*
G37*
G36*
G01*
X37945000Y-71475000D02*
X37945000Y-70175000D01*
G75*
G02*
X38120000Y-70000000I175000J0D01*
G01*
X38470000Y-70000000D01*
G75*
G02*
X38645000Y-70175000I0J-175000D01*
G01*
X38645000Y-71475000D01*
G75*
G02*
X38470000Y-71650000I-175000J0D01*
G01*
X38120000Y-71650000D01*
G75*
G02*
X37945000Y-71475000I0J175000D01*
G01*
G37*
D15*
X38890000Y-33700000D03*
D16*
X64080000Y-40200000D03*
X61580000Y-40200000D03*
G36*
G01*
X58330000Y-40575000D02*
X58330000Y-39825000D01*
G75*
G02*
X58705000Y-39450000I375000J0D01*
G01*
X59455000Y-39450000D01*
G75*
G02*
X59830000Y-39825000I0J-375000D01*
G01*
X59830000Y-40575000D01*
G75*
G02*
X59455000Y-40950000I-375000J0D01*
G01*
X58705000Y-40950000D01*
G75*
G02*
X58330000Y-40575000I0J375000D01*
G01*
G37*
X64080000Y-36900000D03*
X61580000Y-36900000D03*
X59080000Y-36900000D03*
G36*
G01*
X66250000Y-68360000D02*
X67150000Y-68360000D01*
G75*
G02*
X67600000Y-68810000I0J-450000D01*
G01*
X67600000Y-69710000D01*
G75*
G02*
X67150000Y-70160000I-450000J0D01*
G01*
X66250000Y-70160000D01*
G75*
G02*
X65800000Y-69710000I0J450000D01*
G01*
X65800000Y-68810000D01*
G75*
G02*
X66250000Y-68360000I450000J0D01*
G01*
G37*
D14*
X66700000Y-71800000D03*
X64160000Y-69260000D03*
X64160000Y-71800000D03*
X61620000Y-69260000D03*
X61620000Y-71800000D03*
X59080000Y-69260000D03*
X59080000Y-71800000D03*
G36*
G01*
X72480000Y-44070000D02*
X72480000Y-43650000D01*
G75*
G02*
X72690000Y-43440000I210000J0D01*
G01*
X74770000Y-43440000D01*
G75*
G02*
X74980000Y-43650000I0J-210000D01*
G01*
X74980000Y-44070000D01*
G75*
G02*
X74770000Y-44280000I-210000J0D01*
G01*
X72690000Y-44280000D01*
G75*
G02*
X72480000Y-44070000I0J210000D01*
G01*
G37*
G36*
G01*
X68580000Y-44070000D02*
X68580000Y-43650000D01*
G75*
G02*
X68790000Y-43440000I210000J0D01*
G01*
X70870000Y-43440000D01*
G75*
G02*
X71080000Y-43650000I0J-210000D01*
G01*
X71080000Y-44070000D01*
G75*
G02*
X70870000Y-44280000I-210000J0D01*
G01*
X68790000Y-44280000D01*
G75*
G02*
X68580000Y-44070000I0J210000D01*
G01*
G37*
G36*
G01*
X72480000Y-42800000D02*
X72480000Y-42380000D01*
G75*
G02*
X72690000Y-42170000I210000J0D01*
G01*
X74770000Y-42170000D01*
G75*
G02*
X74980000Y-42380000I0J-210000D01*
G01*
X74980000Y-42800000D01*
G75*
G02*
X74770000Y-43010000I-210000J0D01*
G01*
X72690000Y-43010000D01*
G75*
G02*
X72480000Y-42800000I0J210000D01*
G01*
G37*
G36*
G01*
X68580000Y-42800000D02*
X68580000Y-42380000D01*
G75*
G02*
X68790000Y-42170000I210000J0D01*
G01*
X70870000Y-42170000D01*
G75*
G02*
X71080000Y-42380000I0J-210000D01*
G01*
X71080000Y-42800000D01*
G75*
G02*
X70870000Y-43010000I-210000J0D01*
G01*
X68790000Y-43010000D01*
G75*
G02*
X68580000Y-42800000I0J210000D01*
G01*
G37*
G36*
G01*
X72480000Y-41530000D02*
X72480000Y-41110000D01*
G75*
G02*
X72690000Y-40900000I210000J0D01*
G01*
X74770000Y-40900000D01*
G75*
G02*
X74980000Y-41110000I0J-210000D01*
G01*
X74980000Y-41530000D01*
G75*
G02*
X74770000Y-41740000I-210000J0D01*
G01*
X72690000Y-41740000D01*
G75*
G02*
X72480000Y-41530000I0J210000D01*
G01*
G37*
G36*
G01*
X68580000Y-41530000D02*
X68580000Y-41110000D01*
G75*
G02*
X68790000Y-40900000I210000J0D01*
G01*
X70870000Y-40900000D01*
G75*
G02*
X71080000Y-41110000I0J-210000D01*
G01*
X71080000Y-41530000D01*
G75*
G02*
X70870000Y-41740000I-210000J0D01*
G01*
X68790000Y-41740000D01*
G75*
G02*
X68580000Y-41530000I0J210000D01*
G01*
G37*
G36*
G01*
X72480000Y-40260000D02*
X72480000Y-39840000D01*
G75*
G02*
X72690000Y-39630000I210000J0D01*
G01*
X74770000Y-39630000D01*
G75*
G02*
X74980000Y-39840000I0J-210000D01*
G01*
X74980000Y-40260000D01*
G75*
G02*
X74770000Y-40470000I-210000J0D01*
G01*
X72690000Y-40470000D01*
G75*
G02*
X72480000Y-40260000I0J210000D01*
G01*
G37*
G36*
G01*
X68580000Y-40260000D02*
X68580000Y-39840000D01*
G75*
G02*
X68790000Y-39630000I210000J0D01*
G01*
X70870000Y-39630000D01*
G75*
G02*
X71080000Y-39840000I0J-210000D01*
G01*
X71080000Y-40260000D01*
G75*
G02*
X70870000Y-40470000I-210000J0D01*
G01*
X68790000Y-40470000D01*
G75*
G02*
X68580000Y-40260000I0J210000D01*
G01*
G37*
G36*
G01*
X72480000Y-38990000D02*
X72480000Y-38570000D01*
G75*
G02*
X72690000Y-38360000I210000J0D01*
G01*
X74770000Y-38360000D01*
G75*
G02*
X74980000Y-38570000I0J-210000D01*
G01*
X74980000Y-38990000D01*
G75*
G02*
X74770000Y-39200000I-210000J0D01*
G01*
X72690000Y-39200000D01*
G75*
G02*
X72480000Y-38990000I0J210000D01*
G01*
G37*
G36*
G01*
X68580000Y-38990000D02*
X68580000Y-38570000D01*
G75*
G02*
X68790000Y-38360000I210000J0D01*
G01*
X70870000Y-38360000D01*
G75*
G02*
X71080000Y-38570000I0J-210000D01*
G01*
X71080000Y-38990000D01*
G75*
G02*
X70870000Y-39200000I-210000J0D01*
G01*
X68790000Y-39200000D01*
G75*
G02*
X68580000Y-38990000I0J210000D01*
G01*
G37*
G36*
G01*
X46830000Y-34600000D02*
X45930000Y-34600000D01*
G75*
G02*
X45480000Y-34150000I0J450000D01*
G01*
X45480000Y-33250000D01*
G75*
G02*
X45930000Y-32800000I450000J0D01*
G01*
X46830000Y-32800000D01*
G75*
G02*
X47280000Y-33250000I0J-450000D01*
G01*
X47280000Y-34150000D01*
G75*
G02*
X46830000Y-34600000I-450000J0D01*
G01*
G37*
X48920000Y-33700000D03*
X51460000Y-33700000D03*
X54000000Y-33700000D03*
X56540000Y-33700000D03*
X59080000Y-33700000D03*
X61620000Y-33700000D03*
X64160000Y-33700000D03*
X66700000Y-33700000D03*
D16*
X33200000Y-50400000D03*
X33200000Y-48400000D03*
X33200000Y-46400000D03*
X33200000Y-42400000D03*
G36*
G01*
X32825000Y-39650000D02*
X33575000Y-39650000D01*
G75*
G02*
X33950000Y-40025000I0J-375000D01*
G01*
X33950000Y-40775000D01*
G75*
G02*
X33575000Y-41150000I-375000J0D01*
G01*
X32825000Y-41150000D01*
G75*
G02*
X32450000Y-40775000I0J375000D01*
G01*
X32450000Y-40025000D01*
G75*
G02*
X32825000Y-39650000I375000J0D01*
G01*
G37*
X36500000Y-50400000D03*
X36500000Y-48400000D03*
X36500000Y-46400000D03*
X36500000Y-42400000D03*
X36500000Y-40400000D03*
G36*
G01*
X58620000Y-57450000D02*
X58620000Y-57200000D01*
G75*
G02*
X58745000Y-57075000I125000J0D01*
G01*
X60070000Y-57075000D01*
G75*
G02*
X60195000Y-57200000I0J-125000D01*
G01*
X60195000Y-57450000D01*
G75*
G02*
X60070000Y-57575000I-125000J0D01*
G01*
X58745000Y-57575000D01*
G75*
G02*
X58620000Y-57450000I0J125000D01*
G01*
G37*
G36*
G01*
X58620000Y-58100000D02*
X58620000Y-57850000D01*
G75*
G02*
X58745000Y-57725000I125000J0D01*
G01*
X60070000Y-57725000D01*
G75*
G02*
X60195000Y-57850000I0J-125000D01*
G01*
X60195000Y-58100000D01*
G75*
G02*
X60070000Y-58225000I-125000J0D01*
G01*
X58745000Y-58225000D01*
G75*
G02*
X58620000Y-58100000I0J125000D01*
G01*
G37*
G36*
G01*
X58620000Y-58750000D02*
X58620000Y-58500000D01*
G75*
G02*
X58745000Y-58375000I125000J0D01*
G01*
X60070000Y-58375000D01*
G75*
G02*
X60195000Y-58500000I0J-125000D01*
G01*
X60195000Y-58750000D01*
G75*
G02*
X60070000Y-58875000I-125000J0D01*
G01*
X58745000Y-58875000D01*
G75*
G02*
X58620000Y-58750000I0J125000D01*
G01*
G37*
G36*
G01*
X58620000Y-59400000D02*
X58620000Y-59150000D01*
G75*
G02*
X58745000Y-59025000I125000J0D01*
G01*
X60070000Y-59025000D01*
G75*
G02*
X60195000Y-59150000I0J-125000D01*
G01*
X60195000Y-59400000D01*
G75*
G02*
X60070000Y-59525000I-125000J0D01*
G01*
X58745000Y-59525000D01*
G75*
G02*
X58620000Y-59400000I0J125000D01*
G01*
G37*
G36*
G01*
X58620000Y-60050000D02*
X58620000Y-59800000D01*
G75*
G02*
X58745000Y-59675000I125000J0D01*
G01*
X60070000Y-59675000D01*
G75*
G02*
X60195000Y-59800000I0J-125000D01*
G01*
X60195000Y-60050000D01*
G75*
G02*
X60070000Y-60175000I-125000J0D01*
G01*
X58745000Y-60175000D01*
G75*
G02*
X58620000Y-60050000I0J125000D01*
G01*
G37*
G36*
G01*
X58620000Y-60700000D02*
X58620000Y-60450000D01*
G75*
G02*
X58745000Y-60325000I125000J0D01*
G01*
X60070000Y-60325000D01*
G75*
G02*
X60195000Y-60450000I0J-125000D01*
G01*
X60195000Y-60700000D01*
G75*
G02*
X60070000Y-60825000I-125000J0D01*
G01*
X58745000Y-60825000D01*
G75*
G02*
X58620000Y-60700000I0J125000D01*
G01*
G37*
G36*
G01*
X58620000Y-61350000D02*
X58620000Y-61100000D01*
G75*
G02*
X58745000Y-60975000I125000J0D01*
G01*
X60070000Y-60975000D01*
G75*
G02*
X60195000Y-61100000I0J-125000D01*
G01*
X60195000Y-61350000D01*
G75*
G02*
X60070000Y-61475000I-125000J0D01*
G01*
X58745000Y-61475000D01*
G75*
G02*
X58620000Y-61350000I0J125000D01*
G01*
G37*
G36*
G01*
X58620000Y-62000000D02*
X58620000Y-61750000D01*
G75*
G02*
X58745000Y-61625000I125000J0D01*
G01*
X60070000Y-61625000D01*
G75*
G02*
X60195000Y-61750000I0J-125000D01*
G01*
X60195000Y-62000000D01*
G75*
G02*
X60070000Y-62125000I-125000J0D01*
G01*
X58745000Y-62125000D01*
G75*
G02*
X58620000Y-62000000I0J125000D01*
G01*
G37*
G36*
G01*
X58620000Y-62650000D02*
X58620000Y-62400000D01*
G75*
G02*
X58745000Y-62275000I125000J0D01*
G01*
X60070000Y-62275000D01*
G75*
G02*
X60195000Y-62400000I0J-125000D01*
G01*
X60195000Y-62650000D01*
G75*
G02*
X60070000Y-62775000I-125000J0D01*
G01*
X58745000Y-62775000D01*
G75*
G02*
X58620000Y-62650000I0J125000D01*
G01*
G37*
G36*
G01*
X58620000Y-63300000D02*
X58620000Y-63050000D01*
G75*
G02*
X58745000Y-62925000I125000J0D01*
G01*
X60070000Y-62925000D01*
G75*
G02*
X60195000Y-63050000I0J-125000D01*
G01*
X60195000Y-63300000D01*
G75*
G02*
X60070000Y-63425000I-125000J0D01*
G01*
X58745000Y-63425000D01*
G75*
G02*
X58620000Y-63300000I0J125000D01*
G01*
G37*
G36*
G01*
X58620000Y-63950000D02*
X58620000Y-63700000D01*
G75*
G02*
X58745000Y-63575000I125000J0D01*
G01*
X60070000Y-63575000D01*
G75*
G02*
X60195000Y-63700000I0J-125000D01*
G01*
X60195000Y-63950000D01*
G75*
G02*
X60070000Y-64075000I-125000J0D01*
G01*
X58745000Y-64075000D01*
G75*
G02*
X58620000Y-63950000I0J125000D01*
G01*
G37*
G36*
G01*
X58620000Y-64600000D02*
X58620000Y-64350000D01*
G75*
G02*
X58745000Y-64225000I125000J0D01*
G01*
X60070000Y-64225000D01*
G75*
G02*
X60195000Y-64350000I0J-125000D01*
G01*
X60195000Y-64600000D01*
G75*
G02*
X60070000Y-64725000I-125000J0D01*
G01*
X58745000Y-64725000D01*
G75*
G02*
X58620000Y-64600000I0J125000D01*
G01*
G37*
G36*
G01*
X64345000Y-64600000D02*
X64345000Y-64350000D01*
G75*
G02*
X64470000Y-64225000I125000J0D01*
G01*
X65795000Y-64225000D01*
G75*
G02*
X65920000Y-64350000I0J-125000D01*
G01*
X65920000Y-64600000D01*
G75*
G02*
X65795000Y-64725000I-125000J0D01*
G01*
X64470000Y-64725000D01*
G75*
G02*
X64345000Y-64600000I0J125000D01*
G01*
G37*
G36*
G01*
X64345000Y-63950000D02*
X64345000Y-63700000D01*
G75*
G02*
X64470000Y-63575000I125000J0D01*
G01*
X65795000Y-63575000D01*
G75*
G02*
X65920000Y-63700000I0J-125000D01*
G01*
X65920000Y-63950000D01*
G75*
G02*
X65795000Y-64075000I-125000J0D01*
G01*
X64470000Y-64075000D01*
G75*
G02*
X64345000Y-63950000I0J125000D01*
G01*
G37*
G36*
G01*
X64345000Y-63300000D02*
X64345000Y-63050000D01*
G75*
G02*
X64470000Y-62925000I125000J0D01*
G01*
X65795000Y-62925000D01*
G75*
G02*
X65920000Y-63050000I0J-125000D01*
G01*
X65920000Y-63300000D01*
G75*
G02*
X65795000Y-63425000I-125000J0D01*
G01*
X64470000Y-63425000D01*
G75*
G02*
X64345000Y-63300000I0J125000D01*
G01*
G37*
G36*
G01*
X64345000Y-62650000D02*
X64345000Y-62400000D01*
G75*
G02*
X64470000Y-62275000I125000J0D01*
G01*
X65795000Y-62275000D01*
G75*
G02*
X65920000Y-62400000I0J-125000D01*
G01*
X65920000Y-62650000D01*
G75*
G02*
X65795000Y-62775000I-125000J0D01*
G01*
X64470000Y-62775000D01*
G75*
G02*
X64345000Y-62650000I0J125000D01*
G01*
G37*
G36*
G01*
X64345000Y-62000000D02*
X64345000Y-61750000D01*
G75*
G02*
X64470000Y-61625000I125000J0D01*
G01*
X65795000Y-61625000D01*
G75*
G02*
X65920000Y-61750000I0J-125000D01*
G01*
X65920000Y-62000000D01*
G75*
G02*
X65795000Y-62125000I-125000J0D01*
G01*
X64470000Y-62125000D01*
G75*
G02*
X64345000Y-62000000I0J125000D01*
G01*
G37*
G36*
G01*
X64345000Y-61350000D02*
X64345000Y-61100000D01*
G75*
G02*
X64470000Y-60975000I125000J0D01*
G01*
X65795000Y-60975000D01*
G75*
G02*
X65920000Y-61100000I0J-125000D01*
G01*
X65920000Y-61350000D01*
G75*
G02*
X65795000Y-61475000I-125000J0D01*
G01*
X64470000Y-61475000D01*
G75*
G02*
X64345000Y-61350000I0J125000D01*
G01*
G37*
G36*
G01*
X64345000Y-60700000D02*
X64345000Y-60450000D01*
G75*
G02*
X64470000Y-60325000I125000J0D01*
G01*
X65795000Y-60325000D01*
G75*
G02*
X65920000Y-60450000I0J-125000D01*
G01*
X65920000Y-60700000D01*
G75*
G02*
X65795000Y-60825000I-125000J0D01*
G01*
X64470000Y-60825000D01*
G75*
G02*
X64345000Y-60700000I0J125000D01*
G01*
G37*
G36*
G01*
X64345000Y-60050000D02*
X64345000Y-59800000D01*
G75*
G02*
X64470000Y-59675000I125000J0D01*
G01*
X65795000Y-59675000D01*
G75*
G02*
X65920000Y-59800000I0J-125000D01*
G01*
X65920000Y-60050000D01*
G75*
G02*
X65795000Y-60175000I-125000J0D01*
G01*
X64470000Y-60175000D01*
G75*
G02*
X64345000Y-60050000I0J125000D01*
G01*
G37*
G36*
G01*
X64345000Y-59400000D02*
X64345000Y-59150000D01*
G75*
G02*
X64470000Y-59025000I125000J0D01*
G01*
X65795000Y-59025000D01*
G75*
G02*
X65920000Y-59150000I0J-125000D01*
G01*
X65920000Y-59400000D01*
G75*
G02*
X65795000Y-59525000I-125000J0D01*
G01*
X64470000Y-59525000D01*
G75*
G02*
X64345000Y-59400000I0J125000D01*
G01*
G37*
G36*
G01*
X64345000Y-58750000D02*
X64345000Y-58500000D01*
G75*
G02*
X64470000Y-58375000I125000J0D01*
G01*
X65795000Y-58375000D01*
G75*
G02*
X65920000Y-58500000I0J-125000D01*
G01*
X65920000Y-58750000D01*
G75*
G02*
X65795000Y-58875000I-125000J0D01*
G01*
X64470000Y-58875000D01*
G75*
G02*
X64345000Y-58750000I0J125000D01*
G01*
G37*
G36*
G01*
X64345000Y-58100000D02*
X64345000Y-57850000D01*
G75*
G02*
X64470000Y-57725000I125000J0D01*
G01*
X65795000Y-57725000D01*
G75*
G02*
X65920000Y-57850000I0J-125000D01*
G01*
X65920000Y-58100000D01*
G75*
G02*
X65795000Y-58225000I-125000J0D01*
G01*
X64470000Y-58225000D01*
G75*
G02*
X64345000Y-58100000I0J125000D01*
G01*
G37*
G36*
G01*
X64345000Y-57450000D02*
X64345000Y-57200000D01*
G75*
G02*
X64470000Y-57075000I125000J0D01*
G01*
X65795000Y-57075000D01*
G75*
G02*
X65920000Y-57200000I0J-125000D01*
G01*
X65920000Y-57450000D01*
G75*
G02*
X65795000Y-57575000I-125000J0D01*
G01*
X64470000Y-57575000D01*
G75*
G02*
X64345000Y-57450000I0J125000D01*
G01*
G37*
G36*
G01*
X57200000Y-63075000D02*
X57200000Y-62825000D01*
G75*
G02*
X57325000Y-62700000I125000J0D01*
G01*
X57675000Y-62700000D01*
G75*
G02*
X57800000Y-62825000I0J-125000D01*
G01*
X57800000Y-63075000D01*
G75*
G02*
X57675000Y-63200000I-125000J0D01*
G01*
X57325000Y-63200000D01*
G75*
G02*
X57200000Y-63075000I0J125000D01*
G01*
G37*
G36*
G01*
X57200000Y-62550000D02*
X57200000Y-62350000D01*
G75*
G02*
X57300000Y-62250000I100000J0D01*
G01*
X57700000Y-62250000D01*
G75*
G02*
X57800000Y-62350000I0J-100000D01*
G01*
X57800000Y-62550000D01*
G75*
G02*
X57700000Y-62650000I-100000J0D01*
G01*
X57300000Y-62650000D01*
G75*
G02*
X57200000Y-62550000I0J100000D01*
G01*
G37*
G36*
G01*
X57200000Y-61575000D02*
X57200000Y-61325000D01*
G75*
G02*
X57325000Y-61200000I125000J0D01*
G01*
X57675000Y-61200000D01*
G75*
G02*
X57800000Y-61325000I0J-125000D01*
G01*
X57800000Y-61575000D01*
G75*
G02*
X57675000Y-61700000I-125000J0D01*
G01*
X57325000Y-61700000D01*
G75*
G02*
X57200000Y-61575000I0J125000D01*
G01*
G37*
G36*
G01*
X57200000Y-62050000D02*
X57200000Y-61850000D01*
G75*
G02*
X57300000Y-61750000I100000J0D01*
G01*
X57700000Y-61750000D01*
G75*
G02*
X57800000Y-61850000I0J-100000D01*
G01*
X57800000Y-62050000D01*
G75*
G02*
X57700000Y-62150000I-100000J0D01*
G01*
X57300000Y-62150000D01*
G75*
G02*
X57200000Y-62050000I0J100000D01*
G01*
G37*
G36*
G01*
X56200000Y-63075000D02*
X56200000Y-62825000D01*
G75*
G02*
X56325000Y-62700000I125000J0D01*
G01*
X56675000Y-62700000D01*
G75*
G02*
X56800000Y-62825000I0J-125000D01*
G01*
X56800000Y-63075000D01*
G75*
G02*
X56675000Y-63200000I-125000J0D01*
G01*
X56325000Y-63200000D01*
G75*
G02*
X56200000Y-63075000I0J125000D01*
G01*
G37*
G36*
G01*
X56200000Y-62050000D02*
X56200000Y-61850000D01*
G75*
G02*
X56300000Y-61750000I100000J0D01*
G01*
X56700000Y-61750000D01*
G75*
G02*
X56800000Y-61850000I0J-100000D01*
G01*
X56800000Y-62050000D01*
G75*
G02*
X56700000Y-62150000I-100000J0D01*
G01*
X56300000Y-62150000D01*
G75*
G02*
X56200000Y-62050000I0J100000D01*
G01*
G37*
G36*
G01*
X56200000Y-62550000D02*
X56200000Y-62350000D01*
G75*
G02*
X56300000Y-62250000I100000J0D01*
G01*
X56700000Y-62250000D01*
G75*
G02*
X56800000Y-62350000I0J-100000D01*
G01*
X56800000Y-62550000D01*
G75*
G02*
X56700000Y-62650000I-100000J0D01*
G01*
X56300000Y-62650000D01*
G75*
G02*
X56200000Y-62550000I0J100000D01*
G01*
G37*
G36*
G01*
X56200000Y-61575000D02*
X56200000Y-61325000D01*
G75*
G02*
X56325000Y-61200000I125000J0D01*
G01*
X56675000Y-61200000D01*
G75*
G02*
X56800000Y-61325000I0J-125000D01*
G01*
X56800000Y-61575000D01*
G75*
G02*
X56675000Y-61700000I-125000J0D01*
G01*
X56325000Y-61700000D01*
G75*
G02*
X56200000Y-61575000I0J125000D01*
G01*
G37*
G36*
G01*
X56697500Y-57845000D02*
X56302500Y-57845000D01*
G75*
G02*
X56130000Y-57672500I0J172500D01*
G01*
X56130000Y-57327500D01*
G75*
G02*
X56302500Y-57155000I172500J0D01*
G01*
X56697500Y-57155000D01*
G75*
G02*
X56870000Y-57327500I0J-172500D01*
G01*
X56870000Y-57672500D01*
G75*
G02*
X56697500Y-57845000I-172500J0D01*
G01*
G37*
G36*
G01*
X56697500Y-56875000D02*
X56302500Y-56875000D01*
G75*
G02*
X56130000Y-56702500I0J172500D01*
G01*
X56130000Y-56357500D01*
G75*
G02*
X56302500Y-56185000I172500J0D01*
G01*
X56697500Y-56185000D01*
G75*
G02*
X56870000Y-56357500I0J-172500D01*
G01*
X56870000Y-56702500D01*
G75*
G02*
X56697500Y-56875000I-172500J0D01*
G01*
G37*
G36*
G01*
X44947500Y-49480000D02*
X44552500Y-49480000D01*
G75*
G02*
X44380000Y-49307500I0J172500D01*
G01*
X44380000Y-48962500D01*
G75*
G02*
X44552500Y-48790000I172500J0D01*
G01*
X44947500Y-48790000D01*
G75*
G02*
X45120000Y-48962500I0J-172500D01*
G01*
X45120000Y-49307500D01*
G75*
G02*
X44947500Y-49480000I-172500J0D01*
G01*
G37*
G36*
G01*
X44947500Y-48510000D02*
X44552500Y-48510000D01*
G75*
G02*
X44380000Y-48337500I0J172500D01*
G01*
X44380000Y-47992500D01*
G75*
G02*
X44552500Y-47820000I172500J0D01*
G01*
X44947500Y-47820000D01*
G75*
G02*
X45120000Y-47992500I0J-172500D01*
G01*
X45120000Y-48337500D01*
G75*
G02*
X44947500Y-48510000I-172500J0D01*
G01*
G37*
G36*
G01*
X39947500Y-48510000D02*
X39552500Y-48510000D01*
G75*
G02*
X39380000Y-48337500I0J172500D01*
G01*
X39380000Y-47992500D01*
G75*
G02*
X39552500Y-47820000I172500J0D01*
G01*
X39947500Y-47820000D01*
G75*
G02*
X40120000Y-47992500I0J-172500D01*
G01*
X40120000Y-48337500D01*
G75*
G02*
X39947500Y-48510000I-172500J0D01*
G01*
G37*
G36*
G01*
X39947500Y-49480000D02*
X39552500Y-49480000D01*
G75*
G02*
X39380000Y-49307500I0J172500D01*
G01*
X39380000Y-48962500D01*
G75*
G02*
X39552500Y-48790000I172500J0D01*
G01*
X39947500Y-48790000D01*
G75*
G02*
X40120000Y-48962500I0J-172500D01*
G01*
X40120000Y-49307500D01*
G75*
G02*
X39947500Y-49480000I-172500J0D01*
G01*
G37*
G36*
G01*
X44947500Y-45230000D02*
X44552500Y-45230000D01*
G75*
G02*
X44380000Y-45057500I0J172500D01*
G01*
X44380000Y-44712500D01*
G75*
G02*
X44552500Y-44540000I172500J0D01*
G01*
X44947500Y-44540000D01*
G75*
G02*
X45120000Y-44712500I0J-172500D01*
G01*
X45120000Y-45057500D01*
G75*
G02*
X44947500Y-45230000I-172500J0D01*
G01*
G37*
G36*
G01*
X44947500Y-44260000D02*
X44552500Y-44260000D01*
G75*
G02*
X44380000Y-44087500I0J172500D01*
G01*
X44380000Y-43742500D01*
G75*
G02*
X44552500Y-43570000I172500J0D01*
G01*
X44947500Y-43570000D01*
G75*
G02*
X45120000Y-43742500I0J-172500D01*
G01*
X45120000Y-44087500D01*
G75*
G02*
X44947500Y-44260000I-172500J0D01*
G01*
G37*
G36*
G01*
X39947500Y-45215000D02*
X39552500Y-45215000D01*
G75*
G02*
X39380000Y-45042500I0J172500D01*
G01*
X39380000Y-44697500D01*
G75*
G02*
X39552500Y-44525000I172500J0D01*
G01*
X39947500Y-44525000D01*
G75*
G02*
X40120000Y-44697500I0J-172500D01*
G01*
X40120000Y-45042500D01*
G75*
G02*
X39947500Y-45215000I-172500J0D01*
G01*
G37*
G36*
G01*
X39947500Y-44245000D02*
X39552500Y-44245000D01*
G75*
G02*
X39380000Y-44072500I0J172500D01*
G01*
X39380000Y-43727500D01*
G75*
G02*
X39552500Y-43555000I172500J0D01*
G01*
X39947500Y-43555000D01*
G75*
G02*
X40120000Y-43727500I0J-172500D01*
G01*
X40120000Y-44072500D01*
G75*
G02*
X39947500Y-44245000I-172500J0D01*
G01*
G37*
G36*
G01*
X43345000Y-57702500D02*
X43345000Y-58097500D01*
G75*
G02*
X43172500Y-58270000I-172500J0D01*
G01*
X42827500Y-58270000D01*
G75*
G02*
X42655000Y-58097500I0J172500D01*
G01*
X42655000Y-57702500D01*
G75*
G02*
X42827500Y-57530000I172500J0D01*
G01*
X43172500Y-57530000D01*
G75*
G02*
X43345000Y-57702500I0J-172500D01*
G01*
G37*
G36*
G01*
X42375000Y-57702500D02*
X42375000Y-58097500D01*
G75*
G02*
X42202500Y-58270000I-172500J0D01*
G01*
X41857500Y-58270000D01*
G75*
G02*
X41685000Y-58097500I0J172500D01*
G01*
X41685000Y-57702500D01*
G75*
G02*
X41857500Y-57530000I172500J0D01*
G01*
X42202500Y-57530000D01*
G75*
G02*
X42375000Y-57702500I0J-172500D01*
G01*
G37*
G36*
G01*
X42375000Y-56702500D02*
X42375000Y-57097500D01*
G75*
G02*
X42202500Y-57270000I-172500J0D01*
G01*
X41857500Y-57270000D01*
G75*
G02*
X41685000Y-57097500I0J172500D01*
G01*
X41685000Y-56702500D01*
G75*
G02*
X41857500Y-56530000I172500J0D01*
G01*
X42202500Y-56530000D01*
G75*
G02*
X42375000Y-56702500I0J-172500D01*
G01*
G37*
G36*
G01*
X43345000Y-56702500D02*
X43345000Y-57097500D01*
G75*
G02*
X43172500Y-57270000I-172500J0D01*
G01*
X42827500Y-57270000D01*
G75*
G02*
X42655000Y-57097500I0J172500D01*
G01*
X42655000Y-56702500D01*
G75*
G02*
X42827500Y-56530000I172500J0D01*
G01*
X43172500Y-56530000D01*
G75*
G02*
X43345000Y-56702500I0J-172500D01*
G01*
G37*
G36*
G01*
X42375000Y-61702500D02*
X42375000Y-62097500D01*
G75*
G02*
X42202500Y-62270000I-172500J0D01*
G01*
X41857500Y-62270000D01*
G75*
G02*
X41685000Y-62097500I0J172500D01*
G01*
X41685000Y-61702500D01*
G75*
G02*
X41857500Y-61530000I172500J0D01*
G01*
X42202500Y-61530000D01*
G75*
G02*
X42375000Y-61702500I0J-172500D01*
G01*
G37*
G36*
G01*
X43345000Y-61702500D02*
X43345000Y-62097500D01*
G75*
G02*
X43172500Y-62270000I-172500J0D01*
G01*
X42827500Y-62270000D01*
G75*
G02*
X42655000Y-62097500I0J172500D01*
G01*
X42655000Y-61702500D01*
G75*
G02*
X42827500Y-61530000I172500J0D01*
G01*
X43172500Y-61530000D01*
G75*
G02*
X43345000Y-61702500I0J-172500D01*
G01*
G37*
G36*
G01*
X42375000Y-60702500D02*
X42375000Y-61097500D01*
G75*
G02*
X42202500Y-61270000I-172500J0D01*
G01*
X41857500Y-61270000D01*
G75*
G02*
X41685000Y-61097500I0J172500D01*
G01*
X41685000Y-60702500D01*
G75*
G02*
X41857500Y-60530000I172500J0D01*
G01*
X42202500Y-60530000D01*
G75*
G02*
X42375000Y-60702500I0J-172500D01*
G01*
G37*
G36*
G01*
X43345000Y-60702500D02*
X43345000Y-61097500D01*
G75*
G02*
X43172500Y-61270000I-172500J0D01*
G01*
X42827500Y-61270000D01*
G75*
G02*
X42655000Y-61097500I0J172500D01*
G01*
X42655000Y-60702500D01*
G75*
G02*
X42827500Y-60530000I172500J0D01*
G01*
X43172500Y-60530000D01*
G75*
G02*
X43345000Y-60702500I0J-172500D01*
G01*
G37*
G36*
G01*
X54197500Y-53495000D02*
X53802500Y-53495000D01*
G75*
G02*
X53630000Y-53322500I0J172500D01*
G01*
X53630000Y-52977500D01*
G75*
G02*
X53802500Y-52805000I172500J0D01*
G01*
X54197500Y-52805000D01*
G75*
G02*
X54370000Y-52977500I0J-172500D01*
G01*
X54370000Y-53322500D01*
G75*
G02*
X54197500Y-53495000I-172500J0D01*
G01*
G37*
G36*
G01*
X54197500Y-54465000D02*
X53802500Y-54465000D01*
G75*
G02*
X53630000Y-54292500I0J172500D01*
G01*
X53630000Y-53947500D01*
G75*
G02*
X53802500Y-53775000I172500J0D01*
G01*
X54197500Y-53775000D01*
G75*
G02*
X54370000Y-53947500I0J-172500D01*
G01*
X54370000Y-54292500D01*
G75*
G02*
X54197500Y-54465000I-172500J0D01*
G01*
G37*
G36*
G01*
X53197500Y-54465000D02*
X52802500Y-54465000D01*
G75*
G02*
X52630000Y-54292500I0J172500D01*
G01*
X52630000Y-53947500D01*
G75*
G02*
X52802500Y-53775000I172500J0D01*
G01*
X53197500Y-53775000D01*
G75*
G02*
X53370000Y-53947500I0J-172500D01*
G01*
X53370000Y-54292500D01*
G75*
G02*
X53197500Y-54465000I-172500J0D01*
G01*
G37*
G36*
G01*
X53197500Y-53495000D02*
X52802500Y-53495000D01*
G75*
G02*
X52630000Y-53322500I0J172500D01*
G01*
X52630000Y-52977500D01*
G75*
G02*
X52802500Y-52805000I172500J0D01*
G01*
X53197500Y-52805000D01*
G75*
G02*
X53370000Y-52977500I0J-172500D01*
G01*
X53370000Y-53322500D01*
G75*
G02*
X53197500Y-53495000I-172500J0D01*
G01*
G37*
G36*
G01*
X43345000Y-63702500D02*
X43345000Y-64097500D01*
G75*
G02*
X43172500Y-64270000I-172500J0D01*
G01*
X42827500Y-64270000D01*
G75*
G02*
X42655000Y-64097500I0J172500D01*
G01*
X42655000Y-63702500D01*
G75*
G02*
X42827500Y-63530000I172500J0D01*
G01*
X43172500Y-63530000D01*
G75*
G02*
X43345000Y-63702500I0J-172500D01*
G01*
G37*
G36*
G01*
X42375000Y-63702500D02*
X42375000Y-64097500D01*
G75*
G02*
X42202500Y-64270000I-172500J0D01*
G01*
X41857500Y-64270000D01*
G75*
G02*
X41685000Y-64097500I0J172500D01*
G01*
X41685000Y-63702500D01*
G75*
G02*
X41857500Y-63530000I172500J0D01*
G01*
X42202500Y-63530000D01*
G75*
G02*
X42375000Y-63702500I0J-172500D01*
G01*
G37*
G36*
G01*
X56185000Y-64347500D02*
X56185000Y-63952500D01*
G75*
G02*
X56357500Y-63780000I172500J0D01*
G01*
X56702500Y-63780000D01*
G75*
G02*
X56875000Y-63952500I0J-172500D01*
G01*
X56875000Y-64347500D01*
G75*
G02*
X56702500Y-64520000I-172500J0D01*
G01*
X56357500Y-64520000D01*
G75*
G02*
X56185000Y-64347500I0J172500D01*
G01*
G37*
G36*
G01*
X57155000Y-64347500D02*
X57155000Y-63952500D01*
G75*
G02*
X57327500Y-63780000I172500J0D01*
G01*
X57672500Y-63780000D01*
G75*
G02*
X57845000Y-63952500I0J-172500D01*
G01*
X57845000Y-64347500D01*
G75*
G02*
X57672500Y-64520000I-172500J0D01*
G01*
X57327500Y-64520000D01*
G75*
G02*
X57155000Y-64347500I0J172500D01*
G01*
G37*
G36*
G01*
X44697500Y-53510000D02*
X44302500Y-53510000D01*
G75*
G02*
X44130000Y-53337500I0J172500D01*
G01*
X44130000Y-52992500D01*
G75*
G02*
X44302500Y-52820000I172500J0D01*
G01*
X44697500Y-52820000D01*
G75*
G02*
X44870000Y-52992500I0J-172500D01*
G01*
X44870000Y-53337500D01*
G75*
G02*
X44697500Y-53510000I-172500J0D01*
G01*
G37*
G36*
G01*
X44697500Y-54480000D02*
X44302500Y-54480000D01*
G75*
G02*
X44130000Y-54307500I0J172500D01*
G01*
X44130000Y-53962500D01*
G75*
G02*
X44302500Y-53790000I172500J0D01*
G01*
X44697500Y-53790000D01*
G75*
G02*
X44870000Y-53962500I0J-172500D01*
G01*
X44870000Y-54307500D01*
G75*
G02*
X44697500Y-54480000I-172500J0D01*
G01*
G37*
G36*
G01*
X42375000Y-65702500D02*
X42375000Y-66097500D01*
G75*
G02*
X42202500Y-66270000I-172500J0D01*
G01*
X41857500Y-66270000D01*
G75*
G02*
X41685000Y-66097500I0J172500D01*
G01*
X41685000Y-65702500D01*
G75*
G02*
X41857500Y-65530000I172500J0D01*
G01*
X42202500Y-65530000D01*
G75*
G02*
X42375000Y-65702500I0J-172500D01*
G01*
G37*
G36*
G01*
X43345000Y-65702500D02*
X43345000Y-66097500D01*
G75*
G02*
X43172500Y-66270000I-172500J0D01*
G01*
X42827500Y-66270000D01*
G75*
G02*
X42655000Y-66097500I0J172500D01*
G01*
X42655000Y-65702500D01*
G75*
G02*
X42827500Y-65530000I172500J0D01*
G01*
X43172500Y-65530000D01*
G75*
G02*
X43345000Y-65702500I0J-172500D01*
G01*
G37*
G36*
G01*
X57155000Y-66097500D02*
X57155000Y-65702500D01*
G75*
G02*
X57327500Y-65530000I172500J0D01*
G01*
X57672500Y-65530000D01*
G75*
G02*
X57845000Y-65702500I0J-172500D01*
G01*
X57845000Y-66097500D01*
G75*
G02*
X57672500Y-66270000I-172500J0D01*
G01*
X57327500Y-66270000D01*
G75*
G02*
X57155000Y-66097500I0J172500D01*
G01*
G37*
G36*
G01*
X56185000Y-66097500D02*
X56185000Y-65702500D01*
G75*
G02*
X56357500Y-65530000I172500J0D01*
G01*
X56702500Y-65530000D01*
G75*
G02*
X56875000Y-65702500I0J-172500D01*
G01*
X56875000Y-66097500D01*
G75*
G02*
X56702500Y-66270000I-172500J0D01*
G01*
X56357500Y-66270000D01*
G75*
G02*
X56185000Y-66097500I0J172500D01*
G01*
G37*
G36*
G01*
X52197500Y-53495000D02*
X51802500Y-53495000D01*
G75*
G02*
X51630000Y-53322500I0J172500D01*
G01*
X51630000Y-52977500D01*
G75*
G02*
X51802500Y-52805000I172500J0D01*
G01*
X52197500Y-52805000D01*
G75*
G02*
X52370000Y-52977500I0J-172500D01*
G01*
X52370000Y-53322500D01*
G75*
G02*
X52197500Y-53495000I-172500J0D01*
G01*
G37*
G36*
G01*
X52197500Y-54465000D02*
X51802500Y-54465000D01*
G75*
G02*
X51630000Y-54292500I0J172500D01*
G01*
X51630000Y-53947500D01*
G75*
G02*
X51802500Y-53775000I172500J0D01*
G01*
X52197500Y-53775000D01*
G75*
G02*
X52370000Y-53947500I0J-172500D01*
G01*
X52370000Y-54292500D01*
G75*
G02*
X52197500Y-54465000I-172500J0D01*
G01*
G37*
G36*
G01*
X45302500Y-52820000D02*
X45697500Y-52820000D01*
G75*
G02*
X45870000Y-52992500I0J-172500D01*
G01*
X45870000Y-53337500D01*
G75*
G02*
X45697500Y-53510000I-172500J0D01*
G01*
X45302500Y-53510000D01*
G75*
G02*
X45130000Y-53337500I0J172500D01*
G01*
X45130000Y-52992500D01*
G75*
G02*
X45302500Y-52820000I172500J0D01*
G01*
G37*
G36*
G01*
X45302500Y-53790000D02*
X45697500Y-53790000D01*
G75*
G02*
X45870000Y-53962500I0J-172500D01*
G01*
X45870000Y-54307500D01*
G75*
G02*
X45697500Y-54480000I-172500J0D01*
G01*
X45302500Y-54480000D01*
G75*
G02*
X45130000Y-54307500I0J172500D01*
G01*
X45130000Y-53962500D01*
G75*
G02*
X45302500Y-53790000I172500J0D01*
G01*
G37*
G36*
G01*
X59625000Y-46332500D02*
X59625000Y-45937500D01*
G75*
G02*
X59797500Y-45765000I172500J0D01*
G01*
X60142500Y-45765000D01*
G75*
G02*
X60315000Y-45937500I0J-172500D01*
G01*
X60315000Y-46332500D01*
G75*
G02*
X60142500Y-46505000I-172500J0D01*
G01*
X59797500Y-46505000D01*
G75*
G02*
X59625000Y-46332500I0J172500D01*
G01*
G37*
G36*
G01*
X58655000Y-46332500D02*
X58655000Y-45937500D01*
G75*
G02*
X58827500Y-45765000I172500J0D01*
G01*
X59172500Y-45765000D01*
G75*
G02*
X59345000Y-45937500I0J-172500D01*
G01*
X59345000Y-46332500D01*
G75*
G02*
X59172500Y-46505000I-172500J0D01*
G01*
X58827500Y-46505000D01*
G75*
G02*
X58655000Y-46332500I0J172500D01*
G01*
G37*
G36*
G01*
X59655000Y-56332500D02*
X59655000Y-55937500D01*
G75*
G02*
X59827500Y-55765000I172500J0D01*
G01*
X60172500Y-55765000D01*
G75*
G02*
X60345000Y-55937500I0J-172500D01*
G01*
X60345000Y-56332500D01*
G75*
G02*
X60172500Y-56505000I-172500J0D01*
G01*
X59827500Y-56505000D01*
G75*
G02*
X59655000Y-56332500I0J172500D01*
G01*
G37*
G36*
G01*
X58685000Y-56332500D02*
X58685000Y-55937500D01*
G75*
G02*
X58857500Y-55765000I172500J0D01*
G01*
X59202500Y-55765000D01*
G75*
G02*
X59375000Y-55937500I0J-172500D01*
G01*
X59375000Y-56332500D01*
G75*
G02*
X59202500Y-56505000I-172500J0D01*
G01*
X58857500Y-56505000D01*
G75*
G02*
X58685000Y-56332500I0J172500D01*
G01*
G37*
G36*
G01*
X65845000Y-45937500D02*
X65845000Y-46332500D01*
G75*
G02*
X65672500Y-46505000I-172500J0D01*
G01*
X65327500Y-46505000D01*
G75*
G02*
X65155000Y-46332500I0J172500D01*
G01*
X65155000Y-45937500D01*
G75*
G02*
X65327500Y-45765000I172500J0D01*
G01*
X65672500Y-45765000D01*
G75*
G02*
X65845000Y-45937500I0J-172500D01*
G01*
G37*
G36*
G01*
X64875000Y-45937500D02*
X64875000Y-46332500D01*
G75*
G02*
X64702500Y-46505000I-172500J0D01*
G01*
X64357500Y-46505000D01*
G75*
G02*
X64185000Y-46332500I0J172500D01*
G01*
X64185000Y-45937500D01*
G75*
G02*
X64357500Y-45765000I172500J0D01*
G01*
X64702500Y-45765000D01*
G75*
G02*
X64875000Y-45937500I0J-172500D01*
G01*
G37*
G36*
G01*
X64845000Y-55952500D02*
X64845000Y-56347500D01*
G75*
G02*
X64672500Y-56520000I-172500J0D01*
G01*
X64327500Y-56520000D01*
G75*
G02*
X64155000Y-56347500I0J172500D01*
G01*
X64155000Y-55952500D01*
G75*
G02*
X64327500Y-55780000I172500J0D01*
G01*
X64672500Y-55780000D01*
G75*
G02*
X64845000Y-55952500I0J-172500D01*
G01*
G37*
G36*
G01*
X65815000Y-55952500D02*
X65815000Y-56347500D01*
G75*
G02*
X65642500Y-56520000I-172500J0D01*
G01*
X65297500Y-56520000D01*
G75*
G02*
X65125000Y-56347500I0J172500D01*
G01*
X65125000Y-55952500D01*
G75*
G02*
X65297500Y-55780000I172500J0D01*
G01*
X65642500Y-55780000D01*
G75*
G02*
X65815000Y-55952500I0J-172500D01*
G01*
G37*
G36*
G01*
X42095000Y-50702500D02*
X42095000Y-51097500D01*
G75*
G02*
X41922500Y-51270000I-172500J0D01*
G01*
X41577500Y-51270000D01*
G75*
G02*
X41405000Y-51097500I0J172500D01*
G01*
X41405000Y-50702500D01*
G75*
G02*
X41577500Y-50530000I172500J0D01*
G01*
X41922500Y-50530000D01*
G75*
G02*
X42095000Y-50702500I0J-172500D01*
G01*
G37*
G36*
G01*
X43065000Y-50702500D02*
X43065000Y-51097500D01*
G75*
G02*
X42892500Y-51270000I-172500J0D01*
G01*
X42547500Y-51270000D01*
G75*
G02*
X42375000Y-51097500I0J172500D01*
G01*
X42375000Y-50702500D01*
G75*
G02*
X42547500Y-50530000I172500J0D01*
G01*
X42892500Y-50530000D01*
G75*
G02*
X43065000Y-50702500I0J-172500D01*
G01*
G37*
G36*
G01*
X39197500Y-53495000D02*
X38802500Y-53495000D01*
G75*
G02*
X38630000Y-53322500I0J172500D01*
G01*
X38630000Y-52977500D01*
G75*
G02*
X38802500Y-52805000I172500J0D01*
G01*
X39197500Y-52805000D01*
G75*
G02*
X39370000Y-52977500I0J-172500D01*
G01*
X39370000Y-53322500D01*
G75*
G02*
X39197500Y-53495000I-172500J0D01*
G01*
G37*
G36*
G01*
X39197500Y-54465000D02*
X38802500Y-54465000D01*
G75*
G02*
X38630000Y-54292500I0J172500D01*
G01*
X38630000Y-53947500D01*
G75*
G02*
X38802500Y-53775000I172500J0D01*
G01*
X39197500Y-53775000D01*
G75*
G02*
X39370000Y-53947500I0J-172500D01*
G01*
X39370000Y-54292500D01*
G75*
G02*
X39197500Y-54465000I-172500J0D01*
G01*
G37*
G36*
G01*
X48638750Y-43347000D02*
X49201250Y-43347000D01*
G75*
G02*
X49445000Y-43590750I0J-243750D01*
G01*
X49445000Y-44078250D01*
G75*
G02*
X49201250Y-44322000I-243750J0D01*
G01*
X48638750Y-44322000D01*
G75*
G02*
X48395000Y-44078250I0J243750D01*
G01*
X48395000Y-43590750D01*
G75*
G02*
X48638750Y-43347000I243750J0D01*
G01*
G37*
G36*
G01*
X48638750Y-44922000D02*
X49201250Y-44922000D01*
G75*
G02*
X49445000Y-45165750I0J-243750D01*
G01*
X49445000Y-45653250D01*
G75*
G02*
X49201250Y-45897000I-243750J0D01*
G01*
X48638750Y-45897000D01*
G75*
G02*
X48395000Y-45653250I0J243750D01*
G01*
X48395000Y-45165750D01*
G75*
G02*
X48638750Y-44922000I243750J0D01*
G01*
G37*
G36*
G01*
X53718750Y-44922000D02*
X54281250Y-44922000D01*
G75*
G02*
X54525000Y-45165750I0J-243750D01*
G01*
X54525000Y-45653250D01*
G75*
G02*
X54281250Y-45897000I-243750J0D01*
G01*
X53718750Y-45897000D01*
G75*
G02*
X53475000Y-45653250I0J243750D01*
G01*
X53475000Y-45165750D01*
G75*
G02*
X53718750Y-44922000I243750J0D01*
G01*
G37*
G36*
G01*
X53718750Y-43347000D02*
X54281250Y-43347000D01*
G75*
G02*
X54525000Y-43590750I0J-243750D01*
G01*
X54525000Y-44078250D01*
G75*
G02*
X54281250Y-44322000I-243750J0D01*
G01*
X53718750Y-44322000D01*
G75*
G02*
X53475000Y-44078250I0J243750D01*
G01*
X53475000Y-43590750D01*
G75*
G02*
X53718750Y-43347000I243750J0D01*
G01*
G37*
G36*
G01*
X53718750Y-37251000D02*
X54281250Y-37251000D01*
G75*
G02*
X54525000Y-37494750I0J-243750D01*
G01*
X54525000Y-37982250D01*
G75*
G02*
X54281250Y-38226000I-243750J0D01*
G01*
X53718750Y-38226000D01*
G75*
G02*
X53475000Y-37982250I0J243750D01*
G01*
X53475000Y-37494750D01*
G75*
G02*
X53718750Y-37251000I243750J0D01*
G01*
G37*
G36*
G01*
X53718750Y-38826000D02*
X54281250Y-38826000D01*
G75*
G02*
X54525000Y-39069750I0J-243750D01*
G01*
X54525000Y-39557250D01*
G75*
G02*
X54281250Y-39801000I-243750J0D01*
G01*
X53718750Y-39801000D01*
G75*
G02*
X53475000Y-39557250I0J243750D01*
G01*
X53475000Y-39069750D01*
G75*
G02*
X53718750Y-38826000I243750J0D01*
G01*
G37*
G36*
G01*
X51178750Y-38826000D02*
X51741250Y-38826000D01*
G75*
G02*
X51985000Y-39069750I0J-243750D01*
G01*
X51985000Y-39557250D01*
G75*
G02*
X51741250Y-39801000I-243750J0D01*
G01*
X51178750Y-39801000D01*
G75*
G02*
X50935000Y-39557250I0J243750D01*
G01*
X50935000Y-39069750D01*
G75*
G02*
X51178750Y-38826000I243750J0D01*
G01*
G37*
G36*
G01*
X51178750Y-37251000D02*
X51741250Y-37251000D01*
G75*
G02*
X51985000Y-37494750I0J-243750D01*
G01*
X51985000Y-37982250D01*
G75*
G02*
X51741250Y-38226000I-243750J0D01*
G01*
X51178750Y-38226000D01*
G75*
G02*
X50935000Y-37982250I0J243750D01*
G01*
X50935000Y-37494750D01*
G75*
G02*
X51178750Y-37251000I243750J0D01*
G01*
G37*
G36*
G01*
X51178750Y-44922000D02*
X51741250Y-44922000D01*
G75*
G02*
X51985000Y-45165750I0J-243750D01*
G01*
X51985000Y-45653250D01*
G75*
G02*
X51741250Y-45897000I-243750J0D01*
G01*
X51178750Y-45897000D01*
G75*
G02*
X50935000Y-45653250I0J243750D01*
G01*
X50935000Y-45165750D01*
G75*
G02*
X51178750Y-44922000I243750J0D01*
G01*
G37*
G36*
G01*
X51178750Y-43347000D02*
X51741250Y-43347000D01*
G75*
G02*
X51985000Y-43590750I0J-243750D01*
G01*
X51985000Y-44078250D01*
G75*
G02*
X51741250Y-44322000I-243750J0D01*
G01*
X51178750Y-44322000D01*
G75*
G02*
X50935000Y-44078250I0J243750D01*
G01*
X50935000Y-43590750D01*
G75*
G02*
X51178750Y-43347000I243750J0D01*
G01*
G37*
G36*
G01*
X41685000Y-56097500D02*
X41685000Y-55702500D01*
G75*
G02*
X41857500Y-55530000I172500J0D01*
G01*
X42202500Y-55530000D01*
G75*
G02*
X42375000Y-55702500I0J-172500D01*
G01*
X42375000Y-56097500D01*
G75*
G02*
X42202500Y-56270000I-172500J0D01*
G01*
X41857500Y-56270000D01*
G75*
G02*
X41685000Y-56097500I0J172500D01*
G01*
G37*
G36*
G01*
X42655000Y-56097500D02*
X42655000Y-55702500D01*
G75*
G02*
X42827500Y-55530000I172500J0D01*
G01*
X43172500Y-55530000D01*
G75*
G02*
X43345000Y-55702500I0J-172500D01*
G01*
X43345000Y-56097500D01*
G75*
G02*
X43172500Y-56270000I-172500J0D01*
G01*
X42827500Y-56270000D01*
G75*
G02*
X42655000Y-56097500I0J172500D01*
G01*
G37*
G36*
G01*
X42655000Y-63097500D02*
X42655000Y-62702500D01*
G75*
G02*
X42827500Y-62530000I172500J0D01*
G01*
X43172500Y-62530000D01*
G75*
G02*
X43345000Y-62702500I0J-172500D01*
G01*
X43345000Y-63097500D01*
G75*
G02*
X43172500Y-63270000I-172500J0D01*
G01*
X42827500Y-63270000D01*
G75*
G02*
X42655000Y-63097500I0J172500D01*
G01*
G37*
G36*
G01*
X41685000Y-63097500D02*
X41685000Y-62702500D01*
G75*
G02*
X41857500Y-62530000I172500J0D01*
G01*
X42202500Y-62530000D01*
G75*
G02*
X42375000Y-62702500I0J-172500D01*
G01*
X42375000Y-63097500D01*
G75*
G02*
X42202500Y-63270000I-172500J0D01*
G01*
X41857500Y-63270000D01*
G75*
G02*
X41685000Y-63097500I0J172500D01*
G01*
G37*
G36*
G01*
X38802500Y-58540000D02*
X39197500Y-58540000D01*
G75*
G02*
X39370000Y-58712500I0J-172500D01*
G01*
X39370000Y-59057500D01*
G75*
G02*
X39197500Y-59230000I-172500J0D01*
G01*
X38802500Y-59230000D01*
G75*
G02*
X38630000Y-59057500I0J172500D01*
G01*
X38630000Y-58712500D01*
G75*
G02*
X38802500Y-58540000I172500J0D01*
G01*
G37*
G36*
G01*
X38802500Y-57570000D02*
X39197500Y-57570000D01*
G75*
G02*
X39370000Y-57742500I0J-172500D01*
G01*
X39370000Y-58087500D01*
G75*
G02*
X39197500Y-58260000I-172500J0D01*
G01*
X38802500Y-58260000D01*
G75*
G02*
X38630000Y-58087500I0J172500D01*
G01*
X38630000Y-57742500D01*
G75*
G02*
X38802500Y-57570000I172500J0D01*
G01*
G37*
G36*
G01*
X38802500Y-61585000D02*
X39197500Y-61585000D01*
G75*
G02*
X39370000Y-61757500I0J-172500D01*
G01*
X39370000Y-62102500D01*
G75*
G02*
X39197500Y-62275000I-172500J0D01*
G01*
X38802500Y-62275000D01*
G75*
G02*
X38630000Y-62102500I0J172500D01*
G01*
X38630000Y-61757500D01*
G75*
G02*
X38802500Y-61585000I172500J0D01*
G01*
G37*
G36*
G01*
X38802500Y-62555000D02*
X39197500Y-62555000D01*
G75*
G02*
X39370000Y-62727500I0J-172500D01*
G01*
X39370000Y-63072500D01*
G75*
G02*
X39197500Y-63245000I-172500J0D01*
G01*
X38802500Y-63245000D01*
G75*
G02*
X38630000Y-63072500I0J172500D01*
G01*
X38630000Y-62727500D01*
G75*
G02*
X38802500Y-62555000I172500J0D01*
G01*
G37*
G36*
G01*
X48803000Y-46710500D02*
X48803000Y-47105500D01*
G75*
G02*
X48630500Y-47278000I-172500J0D01*
G01*
X48285500Y-47278000D01*
G75*
G02*
X48113000Y-47105500I0J172500D01*
G01*
X48113000Y-46710500D01*
G75*
G02*
X48285500Y-46538000I172500J0D01*
G01*
X48630500Y-46538000D01*
G75*
G02*
X48803000Y-46710500I0J-172500D01*
G01*
G37*
G36*
G01*
X49773000Y-46710500D02*
X49773000Y-47105500D01*
G75*
G02*
X49600500Y-47278000I-172500J0D01*
G01*
X49255500Y-47278000D01*
G75*
G02*
X49083000Y-47105500I0J172500D01*
G01*
X49083000Y-46710500D01*
G75*
G02*
X49255500Y-46538000I172500J0D01*
G01*
X49600500Y-46538000D01*
G75*
G02*
X49773000Y-46710500I0J-172500D01*
G01*
G37*
G36*
G01*
X54830000Y-46710500D02*
X54830000Y-47105500D01*
G75*
G02*
X54657500Y-47278000I-172500J0D01*
G01*
X54312500Y-47278000D01*
G75*
G02*
X54140000Y-47105500I0J172500D01*
G01*
X54140000Y-46710500D01*
G75*
G02*
X54312500Y-46538000I172500J0D01*
G01*
X54657500Y-46538000D01*
G75*
G02*
X54830000Y-46710500I0J-172500D01*
G01*
G37*
G36*
G01*
X53860000Y-46710500D02*
X53860000Y-47105500D01*
G75*
G02*
X53687500Y-47278000I-172500J0D01*
G01*
X53342500Y-47278000D01*
G75*
G02*
X53170000Y-47105500I0J172500D01*
G01*
X53170000Y-46710500D01*
G75*
G02*
X53342500Y-46538000I172500J0D01*
G01*
X53687500Y-46538000D01*
G75*
G02*
X53860000Y-46710500I0J-172500D01*
G01*
G37*
G36*
G01*
X42655000Y-59097500D02*
X42655000Y-58702500D01*
G75*
G02*
X42827500Y-58530000I172500J0D01*
G01*
X43172500Y-58530000D01*
G75*
G02*
X43345000Y-58702500I0J-172500D01*
G01*
X43345000Y-59097500D01*
G75*
G02*
X43172500Y-59270000I-172500J0D01*
G01*
X42827500Y-59270000D01*
G75*
G02*
X42655000Y-59097500I0J172500D01*
G01*
G37*
G36*
G01*
X41685000Y-59097500D02*
X41685000Y-58702500D01*
G75*
G02*
X41857500Y-58530000I172500J0D01*
G01*
X42202500Y-58530000D01*
G75*
G02*
X42375000Y-58702500I0J-172500D01*
G01*
X42375000Y-59097500D01*
G75*
G02*
X42202500Y-59270000I-172500J0D01*
G01*
X41857500Y-59270000D01*
G75*
G02*
X41685000Y-59097500I0J172500D01*
G01*
G37*
G36*
G01*
X41685000Y-65097500D02*
X41685000Y-64702500D01*
G75*
G02*
X41857500Y-64530000I172500J0D01*
G01*
X42202500Y-64530000D01*
G75*
G02*
X42375000Y-64702500I0J-172500D01*
G01*
X42375000Y-65097500D01*
G75*
G02*
X42202500Y-65270000I-172500J0D01*
G01*
X41857500Y-65270000D01*
G75*
G02*
X41685000Y-65097500I0J172500D01*
G01*
G37*
G36*
G01*
X42655000Y-65097500D02*
X42655000Y-64702500D01*
G75*
G02*
X42827500Y-64530000I172500J0D01*
G01*
X43172500Y-64530000D01*
G75*
G02*
X43345000Y-64702500I0J-172500D01*
G01*
X43345000Y-65097500D01*
G75*
G02*
X43172500Y-65270000I-172500J0D01*
G01*
X42827500Y-65270000D01*
G75*
G02*
X42655000Y-65097500I0J172500D01*
G01*
G37*
G36*
G01*
X54163000Y-41009500D02*
X54163000Y-40614500D01*
G75*
G02*
X54335500Y-40442000I172500J0D01*
G01*
X54680500Y-40442000D01*
G75*
G02*
X54853000Y-40614500I0J-172500D01*
G01*
X54853000Y-41009500D01*
G75*
G02*
X54680500Y-41182000I-172500J0D01*
G01*
X54335500Y-41182000D01*
G75*
G02*
X54163000Y-41009500I0J172500D01*
G01*
G37*
G36*
G01*
X53193000Y-41009500D02*
X53193000Y-40614500D01*
G75*
G02*
X53365500Y-40442000I172500J0D01*
G01*
X53710500Y-40442000D01*
G75*
G02*
X53883000Y-40614500I0J-172500D01*
G01*
X53883000Y-41009500D01*
G75*
G02*
X53710500Y-41182000I-172500J0D01*
G01*
X53365500Y-41182000D01*
G75*
G02*
X53193000Y-41009500I0J172500D01*
G01*
G37*
G36*
G01*
X50630000Y-41009500D02*
X50630000Y-40614500D01*
G75*
G02*
X50802500Y-40442000I172500J0D01*
G01*
X51147500Y-40442000D01*
G75*
G02*
X51320000Y-40614500I0J-172500D01*
G01*
X51320000Y-41009500D01*
G75*
G02*
X51147500Y-41182000I-172500J0D01*
G01*
X50802500Y-41182000D01*
G75*
G02*
X50630000Y-41009500I0J172500D01*
G01*
G37*
G36*
G01*
X51600000Y-41009500D02*
X51600000Y-40614500D01*
G75*
G02*
X51772500Y-40442000I172500J0D01*
G01*
X52117500Y-40442000D01*
G75*
G02*
X52290000Y-40614500I0J-172500D01*
G01*
X52290000Y-41009500D01*
G75*
G02*
X52117500Y-41182000I-172500J0D01*
G01*
X51772500Y-41182000D01*
G75*
G02*
X51600000Y-41009500I0J172500D01*
G01*
G37*
G36*
G01*
X67375000Y-47702500D02*
X67375000Y-48097500D01*
G75*
G02*
X67202500Y-48270000I-172500J0D01*
G01*
X66857500Y-48270000D01*
G75*
G02*
X66685000Y-48097500I0J172500D01*
G01*
X66685000Y-47702500D01*
G75*
G02*
X66857500Y-47530000I172500J0D01*
G01*
X67202500Y-47530000D01*
G75*
G02*
X67375000Y-47702500I0J-172500D01*
G01*
G37*
G36*
G01*
X68345000Y-47702500D02*
X68345000Y-48097500D01*
G75*
G02*
X68172500Y-48270000I-172500J0D01*
G01*
X67827500Y-48270000D01*
G75*
G02*
X67655000Y-48097500I0J172500D01*
G01*
X67655000Y-47702500D01*
G75*
G02*
X67827500Y-47530000I172500J0D01*
G01*
X68172500Y-47530000D01*
G75*
G02*
X68345000Y-47702500I0J-172500D01*
G01*
G37*
G36*
G01*
X50630000Y-47105500D02*
X50630000Y-46710500D01*
G75*
G02*
X50802500Y-46538000I172500J0D01*
G01*
X51147500Y-46538000D01*
G75*
G02*
X51320000Y-46710500I0J-172500D01*
G01*
X51320000Y-47105500D01*
G75*
G02*
X51147500Y-47278000I-172500J0D01*
G01*
X50802500Y-47278000D01*
G75*
G02*
X50630000Y-47105500I0J172500D01*
G01*
G37*
G36*
G01*
X51600000Y-47105500D02*
X51600000Y-46710500D01*
G75*
G02*
X51772500Y-46538000I172500J0D01*
G01*
X52117500Y-46538000D01*
G75*
G02*
X52290000Y-46710500I0J-172500D01*
G01*
X52290000Y-47105500D01*
G75*
G02*
X52117500Y-47278000I-172500J0D01*
G01*
X51772500Y-47278000D01*
G75*
G02*
X51600000Y-47105500I0J172500D01*
G01*
G37*
G36*
G01*
X45140000Y-52347500D02*
X45140000Y-51952500D01*
G75*
G02*
X45312500Y-51780000I172500J0D01*
G01*
X45657500Y-51780000D01*
G75*
G02*
X45830000Y-51952500I0J-172500D01*
G01*
X45830000Y-52347500D01*
G75*
G02*
X45657500Y-52520000I-172500J0D01*
G01*
X45312500Y-52520000D01*
G75*
G02*
X45140000Y-52347500I0J172500D01*
G01*
G37*
G36*
G01*
X44170000Y-52347500D02*
X44170000Y-51952500D01*
G75*
G02*
X44342500Y-51780000I172500J0D01*
G01*
X44687500Y-51780000D01*
G75*
G02*
X44860000Y-51952500I0J-172500D01*
G01*
X44860000Y-52347500D01*
G75*
G02*
X44687500Y-52520000I-172500J0D01*
G01*
X44342500Y-52520000D01*
G75*
G02*
X44170000Y-52347500I0J172500D01*
G01*
G37*
G36*
G01*
X50552500Y-53775000D02*
X50947500Y-53775000D01*
G75*
G02*
X51120000Y-53947500I0J-172500D01*
G01*
X51120000Y-54292500D01*
G75*
G02*
X50947500Y-54465000I-172500J0D01*
G01*
X50552500Y-54465000D01*
G75*
G02*
X50380000Y-54292500I0J172500D01*
G01*
X50380000Y-53947500D01*
G75*
G02*
X50552500Y-53775000I172500J0D01*
G01*
G37*
G36*
G01*
X50552500Y-52805000D02*
X50947500Y-52805000D01*
G75*
G02*
X51120000Y-52977500I0J-172500D01*
G01*
X51120000Y-53322500D01*
G75*
G02*
X50947500Y-53495000I-172500J0D01*
G01*
X50552500Y-53495000D01*
G75*
G02*
X50380000Y-53322500I0J172500D01*
G01*
X50380000Y-52977500D01*
G75*
G02*
X50552500Y-52805000I172500J0D01*
G01*
G37*
G36*
G01*
X46185000Y-50847500D02*
X46185000Y-50452500D01*
G75*
G02*
X46357500Y-50280000I172500J0D01*
G01*
X46702500Y-50280000D01*
G75*
G02*
X46875000Y-50452500I0J-172500D01*
G01*
X46875000Y-50847500D01*
G75*
G02*
X46702500Y-51020000I-172500J0D01*
G01*
X46357500Y-51020000D01*
G75*
G02*
X46185000Y-50847500I0J172500D01*
G01*
G37*
G36*
G01*
X47155000Y-50847500D02*
X47155000Y-50452500D01*
G75*
G02*
X47327500Y-50280000I172500J0D01*
G01*
X47672500Y-50280000D01*
G75*
G02*
X47845000Y-50452500I0J-172500D01*
G01*
X47845000Y-50847500D01*
G75*
G02*
X47672500Y-51020000I-172500J0D01*
G01*
X47327500Y-51020000D01*
G75*
G02*
X47155000Y-50847500I0J172500D01*
G01*
G37*
G36*
G01*
X48405000Y-50847500D02*
X48405000Y-50452500D01*
G75*
G02*
X48577500Y-50280000I172500J0D01*
G01*
X48922500Y-50280000D01*
G75*
G02*
X49095000Y-50452500I0J-172500D01*
G01*
X49095000Y-50847500D01*
G75*
G02*
X48922500Y-51020000I-172500J0D01*
G01*
X48577500Y-51020000D01*
G75*
G02*
X48405000Y-50847500I0J172500D01*
G01*
G37*
G36*
G01*
X49375000Y-50847500D02*
X49375000Y-50452500D01*
G75*
G02*
X49547500Y-50280000I172500J0D01*
G01*
X49892500Y-50280000D01*
G75*
G02*
X50065000Y-50452500I0J-172500D01*
G01*
X50065000Y-50847500D01*
G75*
G02*
X49892500Y-51020000I-172500J0D01*
G01*
X49547500Y-51020000D01*
G75*
G02*
X49375000Y-50847500I0J172500D01*
G01*
G37*
G36*
G01*
X60790000Y-43347500D02*
X60790000Y-42952500D01*
G75*
G02*
X60962500Y-42780000I172500J0D01*
G01*
X61307500Y-42780000D01*
G75*
G02*
X61480000Y-42952500I0J-172500D01*
G01*
X61480000Y-43347500D01*
G75*
G02*
X61307500Y-43520000I-172500J0D01*
G01*
X60962500Y-43520000D01*
G75*
G02*
X60790000Y-43347500I0J172500D01*
G01*
G37*
G36*
G01*
X61760000Y-43347500D02*
X61760000Y-42952500D01*
G75*
G02*
X61932500Y-42780000I172500J0D01*
G01*
X62277500Y-42780000D01*
G75*
G02*
X62450000Y-42952500I0J-172500D01*
G01*
X62450000Y-43347500D01*
G75*
G02*
X62277500Y-43520000I-172500J0D01*
G01*
X61932500Y-43520000D01*
G75*
G02*
X61760000Y-43347500I0J172500D01*
G01*
G37*
G36*
G01*
X64875000Y-44702500D02*
X64875000Y-45097500D01*
G75*
G02*
X64702500Y-45270000I-172500J0D01*
G01*
X64357500Y-45270000D01*
G75*
G02*
X64185000Y-45097500I0J172500D01*
G01*
X64185000Y-44702500D01*
G75*
G02*
X64357500Y-44530000I172500J0D01*
G01*
X64702500Y-44530000D01*
G75*
G02*
X64875000Y-44702500I0J-172500D01*
G01*
G37*
G36*
G01*
X65845000Y-44702500D02*
X65845000Y-45097500D01*
G75*
G02*
X65672500Y-45270000I-172500J0D01*
G01*
X65327500Y-45270000D01*
G75*
G02*
X65155000Y-45097500I0J172500D01*
G01*
X65155000Y-44702500D01*
G75*
G02*
X65327500Y-44530000I172500J0D01*
G01*
X65672500Y-44530000D01*
G75*
G02*
X65845000Y-44702500I0J-172500D01*
G01*
G37*
G36*
G01*
X57302500Y-56185000D02*
X57697500Y-56185000D01*
G75*
G02*
X57870000Y-56357500I0J-172500D01*
G01*
X57870000Y-56702500D01*
G75*
G02*
X57697500Y-56875000I-172500J0D01*
G01*
X57302500Y-56875000D01*
G75*
G02*
X57130000Y-56702500I0J172500D01*
G01*
X57130000Y-56357500D01*
G75*
G02*
X57302500Y-56185000I172500J0D01*
G01*
G37*
G36*
G01*
X57302500Y-57155000D02*
X57697500Y-57155000D01*
G75*
G02*
X57870000Y-57327500I0J-172500D01*
G01*
X57870000Y-57672500D01*
G75*
G02*
X57697500Y-57845000I-172500J0D01*
G01*
X57302500Y-57845000D01*
G75*
G02*
X57130000Y-57672500I0J172500D01*
G01*
X57130000Y-57327500D01*
G75*
G02*
X57302500Y-57155000I172500J0D01*
G01*
G37*
G36*
G01*
X57845000Y-47202500D02*
X57845000Y-47597500D01*
G75*
G02*
X57672500Y-47770000I-172500J0D01*
G01*
X57327500Y-47770000D01*
G75*
G02*
X57155000Y-47597500I0J172500D01*
G01*
X57155000Y-47202500D01*
G75*
G02*
X57327500Y-47030000I172500J0D01*
G01*
X57672500Y-47030000D01*
G75*
G02*
X57845000Y-47202500I0J-172500D01*
G01*
G37*
G36*
G01*
X56875000Y-47202500D02*
X56875000Y-47597500D01*
G75*
G02*
X56702500Y-47770000I-172500J0D01*
G01*
X56357500Y-47770000D01*
G75*
G02*
X56185000Y-47597500I0J172500D01*
G01*
X56185000Y-47202500D01*
G75*
G02*
X56357500Y-47030000I172500J0D01*
G01*
X56702500Y-47030000D01*
G75*
G02*
X56875000Y-47202500I0J-172500D01*
G01*
G37*
G36*
G01*
X56302500Y-71040000D02*
X56697500Y-71040000D01*
G75*
G02*
X56870000Y-71212500I0J-172500D01*
G01*
X56870000Y-71557500D01*
G75*
G02*
X56697500Y-71730000I-172500J0D01*
G01*
X56302500Y-71730000D01*
G75*
G02*
X56130000Y-71557500I0J172500D01*
G01*
X56130000Y-71212500D01*
G75*
G02*
X56302500Y-71040000I172500J0D01*
G01*
G37*
G36*
G01*
X56302500Y-72010000D02*
X56697500Y-72010000D01*
G75*
G02*
X56870000Y-72182500I0J-172500D01*
G01*
X56870000Y-72527500D01*
G75*
G02*
X56697500Y-72700000I-172500J0D01*
G01*
X56302500Y-72700000D01*
G75*
G02*
X56130000Y-72527500I0J172500D01*
G01*
X56130000Y-72182500D01*
G75*
G02*
X56302500Y-72010000I172500J0D01*
G01*
G37*
G36*
G01*
X56697500Y-70215000D02*
X56302500Y-70215000D01*
G75*
G02*
X56130000Y-70042500I0J172500D01*
G01*
X56130000Y-69697500D01*
G75*
G02*
X56302500Y-69525000I172500J0D01*
G01*
X56697500Y-69525000D01*
G75*
G02*
X56870000Y-69697500I0J-172500D01*
G01*
X56870000Y-70042500D01*
G75*
G02*
X56697500Y-70215000I-172500J0D01*
G01*
G37*
G36*
G01*
X56697500Y-69245000D02*
X56302500Y-69245000D01*
G75*
G02*
X56130000Y-69072500I0J172500D01*
G01*
X56130000Y-68727500D01*
G75*
G02*
X56302500Y-68555000I172500J0D01*
G01*
X56697500Y-68555000D01*
G75*
G02*
X56870000Y-68727500I0J-172500D01*
G01*
X56870000Y-69072500D01*
G75*
G02*
X56697500Y-69245000I-172500J0D01*
G01*
G37*
G36*
G01*
X44100000Y-56737500D02*
X44100000Y-56562500D01*
G75*
G02*
X44187500Y-56475000I87500J0D01*
G01*
X44912500Y-56475000D01*
G75*
G02*
X45000000Y-56562500I0J-87500D01*
G01*
X45000000Y-56737500D01*
G75*
G02*
X44912500Y-56825000I-87500J0D01*
G01*
X44187500Y-56825000D01*
G75*
G02*
X44100000Y-56737500I0J87500D01*
G01*
G37*
G36*
G01*
X44100000Y-57237500D02*
X44100000Y-57062500D01*
G75*
G02*
X44187500Y-56975000I87500J0D01*
G01*
X44912500Y-56975000D01*
G75*
G02*
X45000000Y-57062500I0J-87500D01*
G01*
X45000000Y-57237500D01*
G75*
G02*
X44912500Y-57325000I-87500J0D01*
G01*
X44187500Y-57325000D01*
G75*
G02*
X44100000Y-57237500I0J87500D01*
G01*
G37*
G36*
G01*
X44100000Y-57737500D02*
X44100000Y-57562500D01*
G75*
G02*
X44187500Y-57475000I87500J0D01*
G01*
X44912500Y-57475000D01*
G75*
G02*
X45000000Y-57562500I0J-87500D01*
G01*
X45000000Y-57737500D01*
G75*
G02*
X44912500Y-57825000I-87500J0D01*
G01*
X44187500Y-57825000D01*
G75*
G02*
X44100000Y-57737500I0J87500D01*
G01*
G37*
G36*
G01*
X44100000Y-58237500D02*
X44100000Y-58062500D01*
G75*
G02*
X44187500Y-57975000I87500J0D01*
G01*
X44912500Y-57975000D01*
G75*
G02*
X45000000Y-58062500I0J-87500D01*
G01*
X45000000Y-58237500D01*
G75*
G02*
X44912500Y-58325000I-87500J0D01*
G01*
X44187500Y-58325000D01*
G75*
G02*
X44100000Y-58237500I0J87500D01*
G01*
G37*
G36*
G01*
X44100000Y-58737500D02*
X44100000Y-58562500D01*
G75*
G02*
X44187500Y-58475000I87500J0D01*
G01*
X44912500Y-58475000D01*
G75*
G02*
X45000000Y-58562500I0J-87500D01*
G01*
X45000000Y-58737500D01*
G75*
G02*
X44912500Y-58825000I-87500J0D01*
G01*
X44187500Y-58825000D01*
G75*
G02*
X44100000Y-58737500I0J87500D01*
G01*
G37*
G36*
G01*
X44100000Y-59237500D02*
X44100000Y-59062500D01*
G75*
G02*
X44187500Y-58975000I87500J0D01*
G01*
X44912500Y-58975000D01*
G75*
G02*
X45000000Y-59062500I0J-87500D01*
G01*
X45000000Y-59237500D01*
G75*
G02*
X44912500Y-59325000I-87500J0D01*
G01*
X44187500Y-59325000D01*
G75*
G02*
X44100000Y-59237500I0J87500D01*
G01*
G37*
G36*
G01*
X44100000Y-59737500D02*
X44100000Y-59562500D01*
G75*
G02*
X44187500Y-59475000I87500J0D01*
G01*
X44912500Y-59475000D01*
G75*
G02*
X45000000Y-59562500I0J-87500D01*
G01*
X45000000Y-59737500D01*
G75*
G02*
X44912500Y-59825000I-87500J0D01*
G01*
X44187500Y-59825000D01*
G75*
G02*
X44100000Y-59737500I0J87500D01*
G01*
G37*
G36*
G01*
X44100000Y-60237500D02*
X44100000Y-60062500D01*
G75*
G02*
X44187500Y-59975000I87500J0D01*
G01*
X44912500Y-59975000D01*
G75*
G02*
X45000000Y-60062500I0J-87500D01*
G01*
X45000000Y-60237500D01*
G75*
G02*
X44912500Y-60325000I-87500J0D01*
G01*
X44187500Y-60325000D01*
G75*
G02*
X44100000Y-60237500I0J87500D01*
G01*
G37*
G36*
G01*
X44100000Y-60737500D02*
X44100000Y-60562500D01*
G75*
G02*
X44187500Y-60475000I87500J0D01*
G01*
X44912500Y-60475000D01*
G75*
G02*
X45000000Y-60562500I0J-87500D01*
G01*
X45000000Y-60737500D01*
G75*
G02*
X44912500Y-60825000I-87500J0D01*
G01*
X44187500Y-60825000D01*
G75*
G02*
X44100000Y-60737500I0J87500D01*
G01*
G37*
G36*
G01*
X44100000Y-61237500D02*
X44100000Y-61062500D01*
G75*
G02*
X44187500Y-60975000I87500J0D01*
G01*
X44912500Y-60975000D01*
G75*
G02*
X45000000Y-61062500I0J-87500D01*
G01*
X45000000Y-61237500D01*
G75*
G02*
X44912500Y-61325000I-87500J0D01*
G01*
X44187500Y-61325000D01*
G75*
G02*
X44100000Y-61237500I0J87500D01*
G01*
G37*
G36*
G01*
X44100000Y-61737500D02*
X44100000Y-61562500D01*
G75*
G02*
X44187500Y-61475000I87500J0D01*
G01*
X44912500Y-61475000D01*
G75*
G02*
X45000000Y-61562500I0J-87500D01*
G01*
X45000000Y-61737500D01*
G75*
G02*
X44912500Y-61825000I-87500J0D01*
G01*
X44187500Y-61825000D01*
G75*
G02*
X44100000Y-61737500I0J87500D01*
G01*
G37*
G36*
G01*
X44100000Y-62237500D02*
X44100000Y-62062500D01*
G75*
G02*
X44187500Y-61975000I87500J0D01*
G01*
X44912500Y-61975000D01*
G75*
G02*
X45000000Y-62062500I0J-87500D01*
G01*
X45000000Y-62237500D01*
G75*
G02*
X44912500Y-62325000I-87500J0D01*
G01*
X44187500Y-62325000D01*
G75*
G02*
X44100000Y-62237500I0J87500D01*
G01*
G37*
G36*
G01*
X44100000Y-62737500D02*
X44100000Y-62562500D01*
G75*
G02*
X44187500Y-62475000I87500J0D01*
G01*
X44912500Y-62475000D01*
G75*
G02*
X45000000Y-62562500I0J-87500D01*
G01*
X45000000Y-62737500D01*
G75*
G02*
X44912500Y-62825000I-87500J0D01*
G01*
X44187500Y-62825000D01*
G75*
G02*
X44100000Y-62737500I0J87500D01*
G01*
G37*
G36*
G01*
X44100000Y-63237500D02*
X44100000Y-63062500D01*
G75*
G02*
X44187500Y-62975000I87500J0D01*
G01*
X44912500Y-62975000D01*
G75*
G02*
X45000000Y-63062500I0J-87500D01*
G01*
X45000000Y-63237500D01*
G75*
G02*
X44912500Y-63325000I-87500J0D01*
G01*
X44187500Y-63325000D01*
G75*
G02*
X44100000Y-63237500I0J87500D01*
G01*
G37*
G36*
G01*
X44100000Y-63737500D02*
X44100000Y-63562500D01*
G75*
G02*
X44187500Y-63475000I87500J0D01*
G01*
X44912500Y-63475000D01*
G75*
G02*
X45000000Y-63562500I0J-87500D01*
G01*
X45000000Y-63737500D01*
G75*
G02*
X44912500Y-63825000I-87500J0D01*
G01*
X44187500Y-63825000D01*
G75*
G02*
X44100000Y-63737500I0J87500D01*
G01*
G37*
G36*
G01*
X44100000Y-64237500D02*
X44100000Y-64062500D01*
G75*
G02*
X44187500Y-63975000I87500J0D01*
G01*
X44912500Y-63975000D01*
G75*
G02*
X45000000Y-64062500I0J-87500D01*
G01*
X45000000Y-64237500D01*
G75*
G02*
X44912500Y-64325000I-87500J0D01*
G01*
X44187500Y-64325000D01*
G75*
G02*
X44100000Y-64237500I0J87500D01*
G01*
G37*
G36*
G01*
X45075000Y-65212500D02*
X45075000Y-64487500D01*
G75*
G02*
X45162500Y-64400000I87500J0D01*
G01*
X45337500Y-64400000D01*
G75*
G02*
X45425000Y-64487500I0J-87500D01*
G01*
X45425000Y-65212500D01*
G75*
G02*
X45337500Y-65300000I-87500J0D01*
G01*
X45162500Y-65300000D01*
G75*
G02*
X45075000Y-65212500I0J87500D01*
G01*
G37*
G36*
G01*
X45575000Y-65212500D02*
X45575000Y-64487500D01*
G75*
G02*
X45662500Y-64400000I87500J0D01*
G01*
X45837500Y-64400000D01*
G75*
G02*
X45925000Y-64487500I0J-87500D01*
G01*
X45925000Y-65212500D01*
G75*
G02*
X45837500Y-65300000I-87500J0D01*
G01*
X45662500Y-65300000D01*
G75*
G02*
X45575000Y-65212500I0J87500D01*
G01*
G37*
G36*
G01*
X46075000Y-65212500D02*
X46075000Y-64487500D01*
G75*
G02*
X46162500Y-64400000I87500J0D01*
G01*
X46337500Y-64400000D01*
G75*
G02*
X46425000Y-64487500I0J-87500D01*
G01*
X46425000Y-65212500D01*
G75*
G02*
X46337500Y-65300000I-87500J0D01*
G01*
X46162500Y-65300000D01*
G75*
G02*
X46075000Y-65212500I0J87500D01*
G01*
G37*
G36*
G01*
X46575000Y-65212500D02*
X46575000Y-64487500D01*
G75*
G02*
X46662500Y-64400000I87500J0D01*
G01*
X46837500Y-64400000D01*
G75*
G02*
X46925000Y-64487500I0J-87500D01*
G01*
X46925000Y-65212500D01*
G75*
G02*
X46837500Y-65300000I-87500J0D01*
G01*
X46662500Y-65300000D01*
G75*
G02*
X46575000Y-65212500I0J87500D01*
G01*
G37*
G36*
G01*
X47075000Y-65212500D02*
X47075000Y-64487500D01*
G75*
G02*
X47162500Y-64400000I87500J0D01*
G01*
X47337500Y-64400000D01*
G75*
G02*
X47425000Y-64487500I0J-87500D01*
G01*
X47425000Y-65212500D01*
G75*
G02*
X47337500Y-65300000I-87500J0D01*
G01*
X47162500Y-65300000D01*
G75*
G02*
X47075000Y-65212500I0J87500D01*
G01*
G37*
G36*
G01*
X47575000Y-65212500D02*
X47575000Y-64487500D01*
G75*
G02*
X47662500Y-64400000I87500J0D01*
G01*
X47837500Y-64400000D01*
G75*
G02*
X47925000Y-64487500I0J-87500D01*
G01*
X47925000Y-65212500D01*
G75*
G02*
X47837500Y-65300000I-87500J0D01*
G01*
X47662500Y-65300000D01*
G75*
G02*
X47575000Y-65212500I0J87500D01*
G01*
G37*
G36*
G01*
X48075000Y-65212500D02*
X48075000Y-64487500D01*
G75*
G02*
X48162500Y-64400000I87500J0D01*
G01*
X48337500Y-64400000D01*
G75*
G02*
X48425000Y-64487500I0J-87500D01*
G01*
X48425000Y-65212500D01*
G75*
G02*
X48337500Y-65300000I-87500J0D01*
G01*
X48162500Y-65300000D01*
G75*
G02*
X48075000Y-65212500I0J87500D01*
G01*
G37*
G36*
G01*
X48575000Y-65212500D02*
X48575000Y-64487500D01*
G75*
G02*
X48662500Y-64400000I87500J0D01*
G01*
X48837500Y-64400000D01*
G75*
G02*
X48925000Y-64487500I0J-87500D01*
G01*
X48925000Y-65212500D01*
G75*
G02*
X48837500Y-65300000I-87500J0D01*
G01*
X48662500Y-65300000D01*
G75*
G02*
X48575000Y-65212500I0J87500D01*
G01*
G37*
G36*
G01*
X49075000Y-65212500D02*
X49075000Y-64487500D01*
G75*
G02*
X49162500Y-64400000I87500J0D01*
G01*
X49337500Y-64400000D01*
G75*
G02*
X49425000Y-64487500I0J-87500D01*
G01*
X49425000Y-65212500D01*
G75*
G02*
X49337500Y-65300000I-87500J0D01*
G01*
X49162500Y-65300000D01*
G75*
G02*
X49075000Y-65212500I0J87500D01*
G01*
G37*
G36*
G01*
X49575000Y-65212500D02*
X49575000Y-64487500D01*
G75*
G02*
X49662500Y-64400000I87500J0D01*
G01*
X49837500Y-64400000D01*
G75*
G02*
X49925000Y-64487500I0J-87500D01*
G01*
X49925000Y-65212500D01*
G75*
G02*
X49837500Y-65300000I-87500J0D01*
G01*
X49662500Y-65300000D01*
G75*
G02*
X49575000Y-65212500I0J87500D01*
G01*
G37*
G36*
G01*
X50075000Y-65212500D02*
X50075000Y-64487500D01*
G75*
G02*
X50162500Y-64400000I87500J0D01*
G01*
X50337500Y-64400000D01*
G75*
G02*
X50425000Y-64487500I0J-87500D01*
G01*
X50425000Y-65212500D01*
G75*
G02*
X50337500Y-65300000I-87500J0D01*
G01*
X50162500Y-65300000D01*
G75*
G02*
X50075000Y-65212500I0J87500D01*
G01*
G37*
G36*
G01*
X50575000Y-65212500D02*
X50575000Y-64487500D01*
G75*
G02*
X50662500Y-64400000I87500J0D01*
G01*
X50837500Y-64400000D01*
G75*
G02*
X50925000Y-64487500I0J-87500D01*
G01*
X50925000Y-65212500D01*
G75*
G02*
X50837500Y-65300000I-87500J0D01*
G01*
X50662500Y-65300000D01*
G75*
G02*
X50575000Y-65212500I0J87500D01*
G01*
G37*
G36*
G01*
X51075000Y-65212500D02*
X51075000Y-64487500D01*
G75*
G02*
X51162500Y-64400000I87500J0D01*
G01*
X51337500Y-64400000D01*
G75*
G02*
X51425000Y-64487500I0J-87500D01*
G01*
X51425000Y-65212500D01*
G75*
G02*
X51337500Y-65300000I-87500J0D01*
G01*
X51162500Y-65300000D01*
G75*
G02*
X51075000Y-65212500I0J87500D01*
G01*
G37*
G36*
G01*
X51575000Y-65212500D02*
X51575000Y-64487500D01*
G75*
G02*
X51662500Y-64400000I87500J0D01*
G01*
X51837500Y-64400000D01*
G75*
G02*
X51925000Y-64487500I0J-87500D01*
G01*
X51925000Y-65212500D01*
G75*
G02*
X51837500Y-65300000I-87500J0D01*
G01*
X51662500Y-65300000D01*
G75*
G02*
X51575000Y-65212500I0J87500D01*
G01*
G37*
G36*
G01*
X52075000Y-65212500D02*
X52075000Y-64487500D01*
G75*
G02*
X52162500Y-64400000I87500J0D01*
G01*
X52337500Y-64400000D01*
G75*
G02*
X52425000Y-64487500I0J-87500D01*
G01*
X52425000Y-65212500D01*
G75*
G02*
X52337500Y-65300000I-87500J0D01*
G01*
X52162500Y-65300000D01*
G75*
G02*
X52075000Y-65212500I0J87500D01*
G01*
G37*
G36*
G01*
X52575000Y-65212500D02*
X52575000Y-64487500D01*
G75*
G02*
X52662500Y-64400000I87500J0D01*
G01*
X52837500Y-64400000D01*
G75*
G02*
X52925000Y-64487500I0J-87500D01*
G01*
X52925000Y-65212500D01*
G75*
G02*
X52837500Y-65300000I-87500J0D01*
G01*
X52662500Y-65300000D01*
G75*
G02*
X52575000Y-65212500I0J87500D01*
G01*
G37*
G36*
G01*
X53000000Y-64237500D02*
X53000000Y-64062500D01*
G75*
G02*
X53087500Y-63975000I87500J0D01*
G01*
X53812500Y-63975000D01*
G75*
G02*
X53900000Y-64062500I0J-87500D01*
G01*
X53900000Y-64237500D01*
G75*
G02*
X53812500Y-64325000I-87500J0D01*
G01*
X53087500Y-64325000D01*
G75*
G02*
X53000000Y-64237500I0J87500D01*
G01*
G37*
G36*
G01*
X53000000Y-63737500D02*
X53000000Y-63562500D01*
G75*
G02*
X53087500Y-63475000I87500J0D01*
G01*
X53812500Y-63475000D01*
G75*
G02*
X53900000Y-63562500I0J-87500D01*
G01*
X53900000Y-63737500D01*
G75*
G02*
X53812500Y-63825000I-87500J0D01*
G01*
X53087500Y-63825000D01*
G75*
G02*
X53000000Y-63737500I0J87500D01*
G01*
G37*
G36*
G01*
X53000000Y-63237500D02*
X53000000Y-63062500D01*
G75*
G02*
X53087500Y-62975000I87500J0D01*
G01*
X53812500Y-62975000D01*
G75*
G02*
X53900000Y-63062500I0J-87500D01*
G01*
X53900000Y-63237500D01*
G75*
G02*
X53812500Y-63325000I-87500J0D01*
G01*
X53087500Y-63325000D01*
G75*
G02*
X53000000Y-63237500I0J87500D01*
G01*
G37*
G36*
G01*
X53000000Y-62737500D02*
X53000000Y-62562500D01*
G75*
G02*
X53087500Y-62475000I87500J0D01*
G01*
X53812500Y-62475000D01*
G75*
G02*
X53900000Y-62562500I0J-87500D01*
G01*
X53900000Y-62737500D01*
G75*
G02*
X53812500Y-62825000I-87500J0D01*
G01*
X53087500Y-62825000D01*
G75*
G02*
X53000000Y-62737500I0J87500D01*
G01*
G37*
G36*
G01*
X53000000Y-62237500D02*
X53000000Y-62062500D01*
G75*
G02*
X53087500Y-61975000I87500J0D01*
G01*
X53812500Y-61975000D01*
G75*
G02*
X53900000Y-62062500I0J-87500D01*
G01*
X53900000Y-62237500D01*
G75*
G02*
X53812500Y-62325000I-87500J0D01*
G01*
X53087500Y-62325000D01*
G75*
G02*
X53000000Y-62237500I0J87500D01*
G01*
G37*
G36*
G01*
X53000000Y-61737500D02*
X53000000Y-61562500D01*
G75*
G02*
X53087500Y-61475000I87500J0D01*
G01*
X53812500Y-61475000D01*
G75*
G02*
X53900000Y-61562500I0J-87500D01*
G01*
X53900000Y-61737500D01*
G75*
G02*
X53812500Y-61825000I-87500J0D01*
G01*
X53087500Y-61825000D01*
G75*
G02*
X53000000Y-61737500I0J87500D01*
G01*
G37*
G36*
G01*
X53000000Y-61237500D02*
X53000000Y-61062500D01*
G75*
G02*
X53087500Y-60975000I87500J0D01*
G01*
X53812500Y-60975000D01*
G75*
G02*
X53900000Y-61062500I0J-87500D01*
G01*
X53900000Y-61237500D01*
G75*
G02*
X53812500Y-61325000I-87500J0D01*
G01*
X53087500Y-61325000D01*
G75*
G02*
X53000000Y-61237500I0J87500D01*
G01*
G37*
G36*
G01*
X53000000Y-60737500D02*
X53000000Y-60562500D01*
G75*
G02*
X53087500Y-60475000I87500J0D01*
G01*
X53812500Y-60475000D01*
G75*
G02*
X53900000Y-60562500I0J-87500D01*
G01*
X53900000Y-60737500D01*
G75*
G02*
X53812500Y-60825000I-87500J0D01*
G01*
X53087500Y-60825000D01*
G75*
G02*
X53000000Y-60737500I0J87500D01*
G01*
G37*
G36*
G01*
X53000000Y-60237500D02*
X53000000Y-60062500D01*
G75*
G02*
X53087500Y-59975000I87500J0D01*
G01*
X53812500Y-59975000D01*
G75*
G02*
X53900000Y-60062500I0J-87500D01*
G01*
X53900000Y-60237500D01*
G75*
G02*
X53812500Y-60325000I-87500J0D01*
G01*
X53087500Y-60325000D01*
G75*
G02*
X53000000Y-60237500I0J87500D01*
G01*
G37*
G36*
G01*
X53000000Y-59737500D02*
X53000000Y-59562500D01*
G75*
G02*
X53087500Y-59475000I87500J0D01*
G01*
X53812500Y-59475000D01*
G75*
G02*
X53900000Y-59562500I0J-87500D01*
G01*
X53900000Y-59737500D01*
G75*
G02*
X53812500Y-59825000I-87500J0D01*
G01*
X53087500Y-59825000D01*
G75*
G02*
X53000000Y-59737500I0J87500D01*
G01*
G37*
G36*
G01*
X53000000Y-59237500D02*
X53000000Y-59062500D01*
G75*
G02*
X53087500Y-58975000I87500J0D01*
G01*
X53812500Y-58975000D01*
G75*
G02*
X53900000Y-59062500I0J-87500D01*
G01*
X53900000Y-59237500D01*
G75*
G02*
X53812500Y-59325000I-87500J0D01*
G01*
X53087500Y-59325000D01*
G75*
G02*
X53000000Y-59237500I0J87500D01*
G01*
G37*
G36*
G01*
X53000000Y-58737500D02*
X53000000Y-58562500D01*
G75*
G02*
X53087500Y-58475000I87500J0D01*
G01*
X53812500Y-58475000D01*
G75*
G02*
X53900000Y-58562500I0J-87500D01*
G01*
X53900000Y-58737500D01*
G75*
G02*
X53812500Y-58825000I-87500J0D01*
G01*
X53087500Y-58825000D01*
G75*
G02*
X53000000Y-58737500I0J87500D01*
G01*
G37*
G36*
G01*
X53000000Y-58237500D02*
X53000000Y-58062500D01*
G75*
G02*
X53087500Y-57975000I87500J0D01*
G01*
X53812500Y-57975000D01*
G75*
G02*
X53900000Y-58062500I0J-87500D01*
G01*
X53900000Y-58237500D01*
G75*
G02*
X53812500Y-58325000I-87500J0D01*
G01*
X53087500Y-58325000D01*
G75*
G02*
X53000000Y-58237500I0J87500D01*
G01*
G37*
G36*
G01*
X53000000Y-57737500D02*
X53000000Y-57562500D01*
G75*
G02*
X53087500Y-57475000I87500J0D01*
G01*
X53812500Y-57475000D01*
G75*
G02*
X53900000Y-57562500I0J-87500D01*
G01*
X53900000Y-57737500D01*
G75*
G02*
X53812500Y-57825000I-87500J0D01*
G01*
X53087500Y-57825000D01*
G75*
G02*
X53000000Y-57737500I0J87500D01*
G01*
G37*
G36*
G01*
X53000000Y-57237500D02*
X53000000Y-57062500D01*
G75*
G02*
X53087500Y-56975000I87500J0D01*
G01*
X53812500Y-56975000D01*
G75*
G02*
X53900000Y-57062500I0J-87500D01*
G01*
X53900000Y-57237500D01*
G75*
G02*
X53812500Y-57325000I-87500J0D01*
G01*
X53087500Y-57325000D01*
G75*
G02*
X53000000Y-57237500I0J87500D01*
G01*
G37*
G36*
G01*
X53000000Y-56737500D02*
X53000000Y-56562500D01*
G75*
G02*
X53087500Y-56475000I87500J0D01*
G01*
X53812500Y-56475000D01*
G75*
G02*
X53900000Y-56562500I0J-87500D01*
G01*
X53900000Y-56737500D01*
G75*
G02*
X53812500Y-56825000I-87500J0D01*
G01*
X53087500Y-56825000D01*
G75*
G02*
X53000000Y-56737500I0J87500D01*
G01*
G37*
G36*
G01*
X52575000Y-56312500D02*
X52575000Y-55587500D01*
G75*
G02*
X52662500Y-55500000I87500J0D01*
G01*
X52837500Y-55500000D01*
G75*
G02*
X52925000Y-55587500I0J-87500D01*
G01*
X52925000Y-56312500D01*
G75*
G02*
X52837500Y-56400000I-87500J0D01*
G01*
X52662500Y-56400000D01*
G75*
G02*
X52575000Y-56312500I0J87500D01*
G01*
G37*
G36*
G01*
X52075000Y-56312500D02*
X52075000Y-55587500D01*
G75*
G02*
X52162500Y-55500000I87500J0D01*
G01*
X52337500Y-55500000D01*
G75*
G02*
X52425000Y-55587500I0J-87500D01*
G01*
X52425000Y-56312500D01*
G75*
G02*
X52337500Y-56400000I-87500J0D01*
G01*
X52162500Y-56400000D01*
G75*
G02*
X52075000Y-56312500I0J87500D01*
G01*
G37*
G36*
G01*
X51575000Y-56312500D02*
X51575000Y-55587500D01*
G75*
G02*
X51662500Y-55500000I87500J0D01*
G01*
X51837500Y-55500000D01*
G75*
G02*
X51925000Y-55587500I0J-87500D01*
G01*
X51925000Y-56312500D01*
G75*
G02*
X51837500Y-56400000I-87500J0D01*
G01*
X51662500Y-56400000D01*
G75*
G02*
X51575000Y-56312500I0J87500D01*
G01*
G37*
G36*
G01*
X51075000Y-56312500D02*
X51075000Y-55587500D01*
G75*
G02*
X51162500Y-55500000I87500J0D01*
G01*
X51337500Y-55500000D01*
G75*
G02*
X51425000Y-55587500I0J-87500D01*
G01*
X51425000Y-56312500D01*
G75*
G02*
X51337500Y-56400000I-87500J0D01*
G01*
X51162500Y-56400000D01*
G75*
G02*
X51075000Y-56312500I0J87500D01*
G01*
G37*
G36*
G01*
X50575000Y-56312500D02*
X50575000Y-55587500D01*
G75*
G02*
X50662500Y-55500000I87500J0D01*
G01*
X50837500Y-55500000D01*
G75*
G02*
X50925000Y-55587500I0J-87500D01*
G01*
X50925000Y-56312500D01*
G75*
G02*
X50837500Y-56400000I-87500J0D01*
G01*
X50662500Y-56400000D01*
G75*
G02*
X50575000Y-56312500I0J87500D01*
G01*
G37*
G36*
G01*
X50075000Y-56312500D02*
X50075000Y-55587500D01*
G75*
G02*
X50162500Y-55500000I87500J0D01*
G01*
X50337500Y-55500000D01*
G75*
G02*
X50425000Y-55587500I0J-87500D01*
G01*
X50425000Y-56312500D01*
G75*
G02*
X50337500Y-56400000I-87500J0D01*
G01*
X50162500Y-56400000D01*
G75*
G02*
X50075000Y-56312500I0J87500D01*
G01*
G37*
G36*
G01*
X49575000Y-56312500D02*
X49575000Y-55587500D01*
G75*
G02*
X49662500Y-55500000I87500J0D01*
G01*
X49837500Y-55500000D01*
G75*
G02*
X49925000Y-55587500I0J-87500D01*
G01*
X49925000Y-56312500D01*
G75*
G02*
X49837500Y-56400000I-87500J0D01*
G01*
X49662500Y-56400000D01*
G75*
G02*
X49575000Y-56312500I0J87500D01*
G01*
G37*
G36*
G01*
X49075000Y-56312500D02*
X49075000Y-55587500D01*
G75*
G02*
X49162500Y-55500000I87500J0D01*
G01*
X49337500Y-55500000D01*
G75*
G02*
X49425000Y-55587500I0J-87500D01*
G01*
X49425000Y-56312500D01*
G75*
G02*
X49337500Y-56400000I-87500J0D01*
G01*
X49162500Y-56400000D01*
G75*
G02*
X49075000Y-56312500I0J87500D01*
G01*
G37*
G36*
G01*
X48575000Y-56312500D02*
X48575000Y-55587500D01*
G75*
G02*
X48662500Y-55500000I87500J0D01*
G01*
X48837500Y-55500000D01*
G75*
G02*
X48925000Y-55587500I0J-87500D01*
G01*
X48925000Y-56312500D01*
G75*
G02*
X48837500Y-56400000I-87500J0D01*
G01*
X48662500Y-56400000D01*
G75*
G02*
X48575000Y-56312500I0J87500D01*
G01*
G37*
G36*
G01*
X48075000Y-56312500D02*
X48075000Y-55587500D01*
G75*
G02*
X48162500Y-55500000I87500J0D01*
G01*
X48337500Y-55500000D01*
G75*
G02*
X48425000Y-55587500I0J-87500D01*
G01*
X48425000Y-56312500D01*
G75*
G02*
X48337500Y-56400000I-87500J0D01*
G01*
X48162500Y-56400000D01*
G75*
G02*
X48075000Y-56312500I0J87500D01*
G01*
G37*
G36*
G01*
X47575000Y-56312500D02*
X47575000Y-55587500D01*
G75*
G02*
X47662500Y-55500000I87500J0D01*
G01*
X47837500Y-55500000D01*
G75*
G02*
X47925000Y-55587500I0J-87500D01*
G01*
X47925000Y-56312500D01*
G75*
G02*
X47837500Y-56400000I-87500J0D01*
G01*
X47662500Y-56400000D01*
G75*
G02*
X47575000Y-56312500I0J87500D01*
G01*
G37*
G36*
G01*
X47075000Y-56312500D02*
X47075000Y-55587500D01*
G75*
G02*
X47162500Y-55500000I87500J0D01*
G01*
X47337500Y-55500000D01*
G75*
G02*
X47425000Y-55587500I0J-87500D01*
G01*
X47425000Y-56312500D01*
G75*
G02*
X47337500Y-56400000I-87500J0D01*
G01*
X47162500Y-56400000D01*
G75*
G02*
X47075000Y-56312500I0J87500D01*
G01*
G37*
G36*
G01*
X46575000Y-56312500D02*
X46575000Y-55587500D01*
G75*
G02*
X46662500Y-55500000I87500J0D01*
G01*
X46837500Y-55500000D01*
G75*
G02*
X46925000Y-55587500I0J-87500D01*
G01*
X46925000Y-56312500D01*
G75*
G02*
X46837500Y-56400000I-87500J0D01*
G01*
X46662500Y-56400000D01*
G75*
G02*
X46575000Y-56312500I0J87500D01*
G01*
G37*
G36*
G01*
X46075000Y-56312500D02*
X46075000Y-55587500D01*
G75*
G02*
X46162500Y-55500000I87500J0D01*
G01*
X46337500Y-55500000D01*
G75*
G02*
X46425000Y-55587500I0J-87500D01*
G01*
X46425000Y-56312500D01*
G75*
G02*
X46337500Y-56400000I-87500J0D01*
G01*
X46162500Y-56400000D01*
G75*
G02*
X46075000Y-56312500I0J87500D01*
G01*
G37*
G36*
G01*
X45575000Y-56312500D02*
X45575000Y-55587500D01*
G75*
G02*
X45662500Y-55500000I87500J0D01*
G01*
X45837500Y-55500000D01*
G75*
G02*
X45925000Y-55587500I0J-87500D01*
G01*
X45925000Y-56312500D01*
G75*
G02*
X45837500Y-56400000I-87500J0D01*
G01*
X45662500Y-56400000D01*
G75*
G02*
X45575000Y-56312500I0J87500D01*
G01*
G37*
G36*
G01*
X45075000Y-56312500D02*
X45075000Y-55587500D01*
G75*
G02*
X45162500Y-55500000I87500J0D01*
G01*
X45337500Y-55500000D01*
G75*
G02*
X45425000Y-55587500I0J-87500D01*
G01*
X45425000Y-56312500D01*
G75*
G02*
X45337500Y-56400000I-87500J0D01*
G01*
X45162500Y-56400000D01*
G75*
G02*
X45075000Y-56312500I0J87500D01*
G01*
G37*
G36*
G01*
X46775000Y-62575000D02*
X46775000Y-58225000D01*
G75*
G02*
X46825000Y-58175000I50000J0D01*
G01*
X51175000Y-58175000D01*
G75*
G02*
X51225000Y-58225000I0J-50000D01*
G01*
X51225000Y-62575000D01*
G75*
G02*
X51175000Y-62625000I-50000J0D01*
G01*
X46825000Y-62625000D01*
G75*
G02*
X46775000Y-62575000I0J50000D01*
G01*
G37*
G36*
G01*
X56200000Y-48975000D02*
X56200000Y-48725000D01*
G75*
G02*
X56325000Y-48600000I125000J0D01*
G01*
X56675000Y-48600000D01*
G75*
G02*
X56800000Y-48725000I0J-125000D01*
G01*
X56800000Y-48975000D01*
G75*
G02*
X56675000Y-49100000I-125000J0D01*
G01*
X56325000Y-49100000D01*
G75*
G02*
X56200000Y-48975000I0J125000D01*
G01*
G37*
G36*
G01*
X56200000Y-49950000D02*
X56200000Y-49750000D01*
G75*
G02*
X56300000Y-49650000I100000J0D01*
G01*
X56700000Y-49650000D01*
G75*
G02*
X56800000Y-49750000I0J-100000D01*
G01*
X56800000Y-49950000D01*
G75*
G02*
X56700000Y-50050000I-100000J0D01*
G01*
X56300000Y-50050000D01*
G75*
G02*
X56200000Y-49950000I0J100000D01*
G01*
G37*
G36*
G01*
X56200000Y-49450000D02*
X56200000Y-49250000D01*
G75*
G02*
X56300000Y-49150000I100000J0D01*
G01*
X56700000Y-49150000D01*
G75*
G02*
X56800000Y-49250000I0J-100000D01*
G01*
X56800000Y-49450000D01*
G75*
G02*
X56700000Y-49550000I-100000J0D01*
G01*
X56300000Y-49550000D01*
G75*
G02*
X56200000Y-49450000I0J100000D01*
G01*
G37*
G36*
G01*
X56200000Y-50475000D02*
X56200000Y-50225000D01*
G75*
G02*
X56325000Y-50100000I125000J0D01*
G01*
X56675000Y-50100000D01*
G75*
G02*
X56800000Y-50225000I0J-125000D01*
G01*
X56800000Y-50475000D01*
G75*
G02*
X56675000Y-50600000I-125000J0D01*
G01*
X56325000Y-50600000D01*
G75*
G02*
X56200000Y-50475000I0J125000D01*
G01*
G37*
G36*
G01*
X57200000Y-49450000D02*
X57200000Y-49250000D01*
G75*
G02*
X57300000Y-49150000I100000J0D01*
G01*
X57700000Y-49150000D01*
G75*
G02*
X57800000Y-49250000I0J-100000D01*
G01*
X57800000Y-49450000D01*
G75*
G02*
X57700000Y-49550000I-100000J0D01*
G01*
X57300000Y-49550000D01*
G75*
G02*
X57200000Y-49450000I0J100000D01*
G01*
G37*
G36*
G01*
X57200000Y-48975000D02*
X57200000Y-48725000D01*
G75*
G02*
X57325000Y-48600000I125000J0D01*
G01*
X57675000Y-48600000D01*
G75*
G02*
X57800000Y-48725000I0J-125000D01*
G01*
X57800000Y-48975000D01*
G75*
G02*
X57675000Y-49100000I-125000J0D01*
G01*
X57325000Y-49100000D01*
G75*
G02*
X57200000Y-48975000I0J125000D01*
G01*
G37*
G36*
G01*
X57200000Y-49950000D02*
X57200000Y-49750000D01*
G75*
G02*
X57300000Y-49650000I100000J0D01*
G01*
X57700000Y-49650000D01*
G75*
G02*
X57800000Y-49750000I0J-100000D01*
G01*
X57800000Y-49950000D01*
G75*
G02*
X57700000Y-50050000I-100000J0D01*
G01*
X57300000Y-50050000D01*
G75*
G02*
X57200000Y-49950000I0J100000D01*
G01*
G37*
G36*
G01*
X57200000Y-50475000D02*
X57200000Y-50225000D01*
G75*
G02*
X57325000Y-50100000I125000J0D01*
G01*
X57675000Y-50100000D01*
G75*
G02*
X57800000Y-50225000I0J-125000D01*
G01*
X57800000Y-50475000D01*
G75*
G02*
X57675000Y-50600000I-125000J0D01*
G01*
X57325000Y-50600000D01*
G75*
G02*
X57200000Y-50475000I0J125000D01*
G01*
G37*
G36*
G01*
X56200000Y-51575000D02*
X56200000Y-51325000D01*
G75*
G02*
X56325000Y-51200000I125000J0D01*
G01*
X56675000Y-51200000D01*
G75*
G02*
X56800000Y-51325000I0J-125000D01*
G01*
X56800000Y-51575000D01*
G75*
G02*
X56675000Y-51700000I-125000J0D01*
G01*
X56325000Y-51700000D01*
G75*
G02*
X56200000Y-51575000I0J125000D01*
G01*
G37*
G36*
G01*
X56200000Y-52550000D02*
X56200000Y-52350000D01*
G75*
G02*
X56300000Y-52250000I100000J0D01*
G01*
X56700000Y-52250000D01*
G75*
G02*
X56800000Y-52350000I0J-100000D01*
G01*
X56800000Y-52550000D01*
G75*
G02*
X56700000Y-52650000I-100000J0D01*
G01*
X56300000Y-52650000D01*
G75*
G02*
X56200000Y-52550000I0J100000D01*
G01*
G37*
G36*
G01*
X56200000Y-52050000D02*
X56200000Y-51850000D01*
G75*
G02*
X56300000Y-51750000I100000J0D01*
G01*
X56700000Y-51750000D01*
G75*
G02*
X56800000Y-51850000I0J-100000D01*
G01*
X56800000Y-52050000D01*
G75*
G02*
X56700000Y-52150000I-100000J0D01*
G01*
X56300000Y-52150000D01*
G75*
G02*
X56200000Y-52050000I0J100000D01*
G01*
G37*
G36*
G01*
X56200000Y-53075000D02*
X56200000Y-52825000D01*
G75*
G02*
X56325000Y-52700000I125000J0D01*
G01*
X56675000Y-52700000D01*
G75*
G02*
X56800000Y-52825000I0J-125000D01*
G01*
X56800000Y-53075000D01*
G75*
G02*
X56675000Y-53200000I-125000J0D01*
G01*
X56325000Y-53200000D01*
G75*
G02*
X56200000Y-53075000I0J125000D01*
G01*
G37*
G36*
G01*
X57200000Y-52050000D02*
X57200000Y-51850000D01*
G75*
G02*
X57300000Y-51750000I100000J0D01*
G01*
X57700000Y-51750000D01*
G75*
G02*
X57800000Y-51850000I0J-100000D01*
G01*
X57800000Y-52050000D01*
G75*
G02*
X57700000Y-52150000I-100000J0D01*
G01*
X57300000Y-52150000D01*
G75*
G02*
X57200000Y-52050000I0J100000D01*
G01*
G37*
G36*
G01*
X57200000Y-51575000D02*
X57200000Y-51325000D01*
G75*
G02*
X57325000Y-51200000I125000J0D01*
G01*
X57675000Y-51200000D01*
G75*
G02*
X57800000Y-51325000I0J-125000D01*
G01*
X57800000Y-51575000D01*
G75*
G02*
X57675000Y-51700000I-125000J0D01*
G01*
X57325000Y-51700000D01*
G75*
G02*
X57200000Y-51575000I0J125000D01*
G01*
G37*
G36*
G01*
X57200000Y-52550000D02*
X57200000Y-52350000D01*
G75*
G02*
X57300000Y-52250000I100000J0D01*
G01*
X57700000Y-52250000D01*
G75*
G02*
X57800000Y-52350000I0J-100000D01*
G01*
X57800000Y-52550000D01*
G75*
G02*
X57700000Y-52650000I-100000J0D01*
G01*
X57300000Y-52650000D01*
G75*
G02*
X57200000Y-52550000I0J100000D01*
G01*
G37*
G36*
G01*
X57200000Y-53075000D02*
X57200000Y-52825000D01*
G75*
G02*
X57325000Y-52700000I125000J0D01*
G01*
X57675000Y-52700000D01*
G75*
G02*
X57800000Y-52825000I0J-125000D01*
G01*
X57800000Y-53075000D01*
G75*
G02*
X57675000Y-53200000I-125000J0D01*
G01*
X57325000Y-53200000D01*
G75*
G02*
X57200000Y-53075000I0J125000D01*
G01*
G37*
G36*
G01*
X66700000Y-49625000D02*
X66700000Y-49375000D01*
G75*
G02*
X66825000Y-49250000I125000J0D01*
G01*
X67175000Y-49250000D01*
G75*
G02*
X67300000Y-49375000I0J-125000D01*
G01*
X67300000Y-49625000D01*
G75*
G02*
X67175000Y-49750000I-125000J0D01*
G01*
X66825000Y-49750000D01*
G75*
G02*
X66700000Y-49625000I0J125000D01*
G01*
G37*
G36*
G01*
X66700000Y-50600000D02*
X66700000Y-50400000D01*
G75*
G02*
X66800000Y-50300000I100000J0D01*
G01*
X67200000Y-50300000D01*
G75*
G02*
X67300000Y-50400000I0J-100000D01*
G01*
X67300000Y-50600000D01*
G75*
G02*
X67200000Y-50700000I-100000J0D01*
G01*
X66800000Y-50700000D01*
G75*
G02*
X66700000Y-50600000I0J100000D01*
G01*
G37*
G36*
G01*
X66700000Y-50100000D02*
X66700000Y-49900000D01*
G75*
G02*
X66800000Y-49800000I100000J0D01*
G01*
X67200000Y-49800000D01*
G75*
G02*
X67300000Y-49900000I0J-100000D01*
G01*
X67300000Y-50100000D01*
G75*
G02*
X67200000Y-50200000I-100000J0D01*
G01*
X66800000Y-50200000D01*
G75*
G02*
X66700000Y-50100000I0J100000D01*
G01*
G37*
G36*
G01*
X66700000Y-51125000D02*
X66700000Y-50875000D01*
G75*
G02*
X66825000Y-50750000I125000J0D01*
G01*
X67175000Y-50750000D01*
G75*
G02*
X67300000Y-50875000I0J-125000D01*
G01*
X67300000Y-51125000D01*
G75*
G02*
X67175000Y-51250000I-125000J0D01*
G01*
X66825000Y-51250000D01*
G75*
G02*
X66700000Y-51125000I0J125000D01*
G01*
G37*
G36*
G01*
X67700000Y-50100000D02*
X67700000Y-49900000D01*
G75*
G02*
X67800000Y-49800000I100000J0D01*
G01*
X68200000Y-49800000D01*
G75*
G02*
X68300000Y-49900000I0J-100000D01*
G01*
X68300000Y-50100000D01*
G75*
G02*
X68200000Y-50200000I-100000J0D01*
G01*
X67800000Y-50200000D01*
G75*
G02*
X67700000Y-50100000I0J100000D01*
G01*
G37*
G36*
G01*
X67700000Y-49625000D02*
X67700000Y-49375000D01*
G75*
G02*
X67825000Y-49250000I125000J0D01*
G01*
X68175000Y-49250000D01*
G75*
G02*
X68300000Y-49375000I0J-125000D01*
G01*
X68300000Y-49625000D01*
G75*
G02*
X68175000Y-49750000I-125000J0D01*
G01*
X67825000Y-49750000D01*
G75*
G02*
X67700000Y-49625000I0J125000D01*
G01*
G37*
G36*
G01*
X67700000Y-50600000D02*
X67700000Y-50400000D01*
G75*
G02*
X67800000Y-50300000I100000J0D01*
G01*
X68200000Y-50300000D01*
G75*
G02*
X68300000Y-50400000I0J-100000D01*
G01*
X68300000Y-50600000D01*
G75*
G02*
X68200000Y-50700000I-100000J0D01*
G01*
X67800000Y-50700000D01*
G75*
G02*
X67700000Y-50600000I0J100000D01*
G01*
G37*
G36*
G01*
X67700000Y-51125000D02*
X67700000Y-50875000D01*
G75*
G02*
X67825000Y-50750000I125000J0D01*
G01*
X68175000Y-50750000D01*
G75*
G02*
X68300000Y-50875000I0J-125000D01*
G01*
X68300000Y-51125000D01*
G75*
G02*
X68175000Y-51250000I-125000J0D01*
G01*
X67825000Y-51250000D01*
G75*
G02*
X67700000Y-51125000I0J125000D01*
G01*
G37*
G36*
G01*
X66700000Y-52225000D02*
X66700000Y-51975000D01*
G75*
G02*
X66825000Y-51850000I125000J0D01*
G01*
X67175000Y-51850000D01*
G75*
G02*
X67300000Y-51975000I0J-125000D01*
G01*
X67300000Y-52225000D01*
G75*
G02*
X67175000Y-52350000I-125000J0D01*
G01*
X66825000Y-52350000D01*
G75*
G02*
X66700000Y-52225000I0J125000D01*
G01*
G37*
G36*
G01*
X66700000Y-53200000D02*
X66700000Y-53000000D01*
G75*
G02*
X66800000Y-52900000I100000J0D01*
G01*
X67200000Y-52900000D01*
G75*
G02*
X67300000Y-53000000I0J-100000D01*
G01*
X67300000Y-53200000D01*
G75*
G02*
X67200000Y-53300000I-100000J0D01*
G01*
X66800000Y-53300000D01*
G75*
G02*
X66700000Y-53200000I0J100000D01*
G01*
G37*
G36*
G01*
X66700000Y-52700000D02*
X66700000Y-52500000D01*
G75*
G02*
X66800000Y-52400000I100000J0D01*
G01*
X67200000Y-52400000D01*
G75*
G02*
X67300000Y-52500000I0J-100000D01*
G01*
X67300000Y-52700000D01*
G75*
G02*
X67200000Y-52800000I-100000J0D01*
G01*
X66800000Y-52800000D01*
G75*
G02*
X66700000Y-52700000I0J100000D01*
G01*
G37*
G36*
G01*
X66700000Y-53725000D02*
X66700000Y-53475000D01*
G75*
G02*
X66825000Y-53350000I125000J0D01*
G01*
X67175000Y-53350000D01*
G75*
G02*
X67300000Y-53475000I0J-125000D01*
G01*
X67300000Y-53725000D01*
G75*
G02*
X67175000Y-53850000I-125000J0D01*
G01*
X66825000Y-53850000D01*
G75*
G02*
X66700000Y-53725000I0J125000D01*
G01*
G37*
G36*
G01*
X67700000Y-52700000D02*
X67700000Y-52500000D01*
G75*
G02*
X67800000Y-52400000I100000J0D01*
G01*
X68200000Y-52400000D01*
G75*
G02*
X68300000Y-52500000I0J-100000D01*
G01*
X68300000Y-52700000D01*
G75*
G02*
X68200000Y-52800000I-100000J0D01*
G01*
X67800000Y-52800000D01*
G75*
G02*
X67700000Y-52700000I0J100000D01*
G01*
G37*
G36*
G01*
X67700000Y-52225000D02*
X67700000Y-51975000D01*
G75*
G02*
X67825000Y-51850000I125000J0D01*
G01*
X68175000Y-51850000D01*
G75*
G02*
X68300000Y-51975000I0J-125000D01*
G01*
X68300000Y-52225000D01*
G75*
G02*
X68175000Y-52350000I-125000J0D01*
G01*
X67825000Y-52350000D01*
G75*
G02*
X67700000Y-52225000I0J125000D01*
G01*
G37*
G36*
G01*
X67700000Y-53200000D02*
X67700000Y-53000000D01*
G75*
G02*
X67800000Y-52900000I100000J0D01*
G01*
X68200000Y-52900000D01*
G75*
G02*
X68300000Y-53000000I0J-100000D01*
G01*
X68300000Y-53200000D01*
G75*
G02*
X68200000Y-53300000I-100000J0D01*
G01*
X67800000Y-53300000D01*
G75*
G02*
X67700000Y-53200000I0J100000D01*
G01*
G37*
G36*
G01*
X67700000Y-53725000D02*
X67700000Y-53475000D01*
G75*
G02*
X67825000Y-53350000I125000J0D01*
G01*
X68175000Y-53350000D01*
G75*
G02*
X68300000Y-53475000I0J-125000D01*
G01*
X68300000Y-53725000D01*
G75*
G02*
X68175000Y-53850000I-125000J0D01*
G01*
X67825000Y-53850000D01*
G75*
G02*
X67700000Y-53725000I0J125000D01*
G01*
G37*
G36*
G01*
X57200000Y-60475000D02*
X57200000Y-60225000D01*
G75*
G02*
X57325000Y-60100000I125000J0D01*
G01*
X57675000Y-60100000D01*
G75*
G02*
X57800000Y-60225000I0J-125000D01*
G01*
X57800000Y-60475000D01*
G75*
G02*
X57675000Y-60600000I-125000J0D01*
G01*
X57325000Y-60600000D01*
G75*
G02*
X57200000Y-60475000I0J125000D01*
G01*
G37*
G36*
G01*
X57200000Y-59950000D02*
X57200000Y-59750000D01*
G75*
G02*
X57300000Y-59650000I100000J0D01*
G01*
X57700000Y-59650000D01*
G75*
G02*
X57800000Y-59750000I0J-100000D01*
G01*
X57800000Y-59950000D01*
G75*
G02*
X57700000Y-60050000I-100000J0D01*
G01*
X57300000Y-60050000D01*
G75*
G02*
X57200000Y-59950000I0J100000D01*
G01*
G37*
G36*
G01*
X57200000Y-58975000D02*
X57200000Y-58725000D01*
G75*
G02*
X57325000Y-58600000I125000J0D01*
G01*
X57675000Y-58600000D01*
G75*
G02*
X57800000Y-58725000I0J-125000D01*
G01*
X57800000Y-58975000D01*
G75*
G02*
X57675000Y-59100000I-125000J0D01*
G01*
X57325000Y-59100000D01*
G75*
G02*
X57200000Y-58975000I0J125000D01*
G01*
G37*
G36*
G01*
X57200000Y-59450000D02*
X57200000Y-59250000D01*
G75*
G02*
X57300000Y-59150000I100000J0D01*
G01*
X57700000Y-59150000D01*
G75*
G02*
X57800000Y-59250000I0J-100000D01*
G01*
X57800000Y-59450000D01*
G75*
G02*
X57700000Y-59550000I-100000J0D01*
G01*
X57300000Y-59550000D01*
G75*
G02*
X57200000Y-59450000I0J100000D01*
G01*
G37*
G36*
G01*
X56200000Y-60475000D02*
X56200000Y-60225000D01*
G75*
G02*
X56325000Y-60100000I125000J0D01*
G01*
X56675000Y-60100000D01*
G75*
G02*
X56800000Y-60225000I0J-125000D01*
G01*
X56800000Y-60475000D01*
G75*
G02*
X56675000Y-60600000I-125000J0D01*
G01*
X56325000Y-60600000D01*
G75*
G02*
X56200000Y-60475000I0J125000D01*
G01*
G37*
G36*
G01*
X56200000Y-59450000D02*
X56200000Y-59250000D01*
G75*
G02*
X56300000Y-59150000I100000J0D01*
G01*
X56700000Y-59150000D01*
G75*
G02*
X56800000Y-59250000I0J-100000D01*
G01*
X56800000Y-59450000D01*
G75*
G02*
X56700000Y-59550000I-100000J0D01*
G01*
X56300000Y-59550000D01*
G75*
G02*
X56200000Y-59450000I0J100000D01*
G01*
G37*
G36*
G01*
X56200000Y-59950000D02*
X56200000Y-59750000D01*
G75*
G02*
X56300000Y-59650000I100000J0D01*
G01*
X56700000Y-59650000D01*
G75*
G02*
X56800000Y-59750000I0J-100000D01*
G01*
X56800000Y-59950000D01*
G75*
G02*
X56700000Y-60050000I-100000J0D01*
G01*
X56300000Y-60050000D01*
G75*
G02*
X56200000Y-59950000I0J100000D01*
G01*
G37*
G36*
G01*
X56200000Y-58975000D02*
X56200000Y-58725000D01*
G75*
G02*
X56325000Y-58600000I125000J0D01*
G01*
X56675000Y-58600000D01*
G75*
G02*
X56800000Y-58725000I0J-125000D01*
G01*
X56800000Y-58975000D01*
G75*
G02*
X56675000Y-59100000I-125000J0D01*
G01*
X56325000Y-59100000D01*
G75*
G02*
X56200000Y-58975000I0J125000D01*
G01*
G37*
G36*
G01*
X66700000Y-59625000D02*
X66700000Y-59375000D01*
G75*
G02*
X66825000Y-59250000I125000J0D01*
G01*
X67175000Y-59250000D01*
G75*
G02*
X67300000Y-59375000I0J-125000D01*
G01*
X67300000Y-59625000D01*
G75*
G02*
X67175000Y-59750000I-125000J0D01*
G01*
X66825000Y-59750000D01*
G75*
G02*
X66700000Y-59625000I0J125000D01*
G01*
G37*
G36*
G01*
X66700000Y-60600000D02*
X66700000Y-60400000D01*
G75*
G02*
X66800000Y-60300000I100000J0D01*
G01*
X67200000Y-60300000D01*
G75*
G02*
X67300000Y-60400000I0J-100000D01*
G01*
X67300000Y-60600000D01*
G75*
G02*
X67200000Y-60700000I-100000J0D01*
G01*
X66800000Y-60700000D01*
G75*
G02*
X66700000Y-60600000I0J100000D01*
G01*
G37*
G36*
G01*
X66700000Y-60100000D02*
X66700000Y-59900000D01*
G75*
G02*
X66800000Y-59800000I100000J0D01*
G01*
X67200000Y-59800000D01*
G75*
G02*
X67300000Y-59900000I0J-100000D01*
G01*
X67300000Y-60100000D01*
G75*
G02*
X67200000Y-60200000I-100000J0D01*
G01*
X66800000Y-60200000D01*
G75*
G02*
X66700000Y-60100000I0J100000D01*
G01*
G37*
G36*
G01*
X66700000Y-61125000D02*
X66700000Y-60875000D01*
G75*
G02*
X66825000Y-60750000I125000J0D01*
G01*
X67175000Y-60750000D01*
G75*
G02*
X67300000Y-60875000I0J-125000D01*
G01*
X67300000Y-61125000D01*
G75*
G02*
X67175000Y-61250000I-125000J0D01*
G01*
X66825000Y-61250000D01*
G75*
G02*
X66700000Y-61125000I0J125000D01*
G01*
G37*
G36*
G01*
X67700000Y-60100000D02*
X67700000Y-59900000D01*
G75*
G02*
X67800000Y-59800000I100000J0D01*
G01*
X68200000Y-59800000D01*
G75*
G02*
X68300000Y-59900000I0J-100000D01*
G01*
X68300000Y-60100000D01*
G75*
G02*
X68200000Y-60200000I-100000J0D01*
G01*
X67800000Y-60200000D01*
G75*
G02*
X67700000Y-60100000I0J100000D01*
G01*
G37*
G36*
G01*
X67700000Y-59625000D02*
X67700000Y-59375000D01*
G75*
G02*
X67825000Y-59250000I125000J0D01*
G01*
X68175000Y-59250000D01*
G75*
G02*
X68300000Y-59375000I0J-125000D01*
G01*
X68300000Y-59625000D01*
G75*
G02*
X68175000Y-59750000I-125000J0D01*
G01*
X67825000Y-59750000D01*
G75*
G02*
X67700000Y-59625000I0J125000D01*
G01*
G37*
G36*
G01*
X67700000Y-60600000D02*
X67700000Y-60400000D01*
G75*
G02*
X67800000Y-60300000I100000J0D01*
G01*
X68200000Y-60300000D01*
G75*
G02*
X68300000Y-60400000I0J-100000D01*
G01*
X68300000Y-60600000D01*
G75*
G02*
X68200000Y-60700000I-100000J0D01*
G01*
X67800000Y-60700000D01*
G75*
G02*
X67700000Y-60600000I0J100000D01*
G01*
G37*
G36*
G01*
X67700000Y-61125000D02*
X67700000Y-60875000D01*
G75*
G02*
X67825000Y-60750000I125000J0D01*
G01*
X68175000Y-60750000D01*
G75*
G02*
X68300000Y-60875000I0J-125000D01*
G01*
X68300000Y-61125000D01*
G75*
G02*
X68175000Y-61250000I-125000J0D01*
G01*
X67825000Y-61250000D01*
G75*
G02*
X67700000Y-61125000I0J125000D01*
G01*
G37*
G36*
G01*
X67700000Y-63725000D02*
X67700000Y-63475000D01*
G75*
G02*
X67825000Y-63350000I125000J0D01*
G01*
X68175000Y-63350000D01*
G75*
G02*
X68300000Y-63475000I0J-125000D01*
G01*
X68300000Y-63725000D01*
G75*
G02*
X68175000Y-63850000I-125000J0D01*
G01*
X67825000Y-63850000D01*
G75*
G02*
X67700000Y-63725000I0J125000D01*
G01*
G37*
G36*
G01*
X67700000Y-63200000D02*
X67700000Y-63000000D01*
G75*
G02*
X67800000Y-62900000I100000J0D01*
G01*
X68200000Y-62900000D01*
G75*
G02*
X68300000Y-63000000I0J-100000D01*
G01*
X68300000Y-63200000D01*
G75*
G02*
X68200000Y-63300000I-100000J0D01*
G01*
X67800000Y-63300000D01*
G75*
G02*
X67700000Y-63200000I0J100000D01*
G01*
G37*
G36*
G01*
X67700000Y-62225000D02*
X67700000Y-61975000D01*
G75*
G02*
X67825000Y-61850000I125000J0D01*
G01*
X68175000Y-61850000D01*
G75*
G02*
X68300000Y-61975000I0J-125000D01*
G01*
X68300000Y-62225000D01*
G75*
G02*
X68175000Y-62350000I-125000J0D01*
G01*
X67825000Y-62350000D01*
G75*
G02*
X67700000Y-62225000I0J125000D01*
G01*
G37*
G36*
G01*
X67700000Y-62700000D02*
X67700000Y-62500000D01*
G75*
G02*
X67800000Y-62400000I100000J0D01*
G01*
X68200000Y-62400000D01*
G75*
G02*
X68300000Y-62500000I0J-100000D01*
G01*
X68300000Y-62700000D01*
G75*
G02*
X68200000Y-62800000I-100000J0D01*
G01*
X67800000Y-62800000D01*
G75*
G02*
X67700000Y-62700000I0J100000D01*
G01*
G37*
G36*
G01*
X66700000Y-63725000D02*
X66700000Y-63475000D01*
G75*
G02*
X66825000Y-63350000I125000J0D01*
G01*
X67175000Y-63350000D01*
G75*
G02*
X67300000Y-63475000I0J-125000D01*
G01*
X67300000Y-63725000D01*
G75*
G02*
X67175000Y-63850000I-125000J0D01*
G01*
X66825000Y-63850000D01*
G75*
G02*
X66700000Y-63725000I0J125000D01*
G01*
G37*
G36*
G01*
X66700000Y-62700000D02*
X66700000Y-62500000D01*
G75*
G02*
X66800000Y-62400000I100000J0D01*
G01*
X67200000Y-62400000D01*
G75*
G02*
X67300000Y-62500000I0J-100000D01*
G01*
X67300000Y-62700000D01*
G75*
G02*
X67200000Y-62800000I-100000J0D01*
G01*
X66800000Y-62800000D01*
G75*
G02*
X66700000Y-62700000I0J100000D01*
G01*
G37*
G36*
G01*
X66700000Y-63200000D02*
X66700000Y-63000000D01*
G75*
G02*
X66800000Y-62900000I100000J0D01*
G01*
X67200000Y-62900000D01*
G75*
G02*
X67300000Y-63000000I0J-100000D01*
G01*
X67300000Y-63200000D01*
G75*
G02*
X67200000Y-63300000I-100000J0D01*
G01*
X66800000Y-63300000D01*
G75*
G02*
X66700000Y-63200000I0J100000D01*
G01*
G37*
G36*
G01*
X66700000Y-62225000D02*
X66700000Y-61975000D01*
G75*
G02*
X66825000Y-61850000I125000J0D01*
G01*
X67175000Y-61850000D01*
G75*
G02*
X67300000Y-61975000I0J-125000D01*
G01*
X67300000Y-62225000D01*
G75*
G02*
X67175000Y-62350000I-125000J0D01*
G01*
X66825000Y-62350000D01*
G75*
G02*
X66700000Y-62225000I0J125000D01*
G01*
G37*
G36*
G01*
X52975000Y-48900000D02*
X52525000Y-48900000D01*
G75*
G02*
X52300000Y-48675000I0J225000D01*
G01*
X52300000Y-48125000D01*
G75*
G02*
X52525000Y-47900000I225000J0D01*
G01*
X52975000Y-47900000D01*
G75*
G02*
X53200000Y-48125000I0J-225000D01*
G01*
X53200000Y-48675000D01*
G75*
G02*
X52975000Y-48900000I-225000J0D01*
G01*
G37*
G36*
G01*
X53925000Y-50900000D02*
X53475000Y-50900000D01*
G75*
G02*
X53250000Y-50675000I0J225000D01*
G01*
X53250000Y-50125000D01*
G75*
G02*
X53475000Y-49900000I225000J0D01*
G01*
X53925000Y-49900000D01*
G75*
G02*
X54150000Y-50125000I0J-225000D01*
G01*
X54150000Y-50675000D01*
G75*
G02*
X53925000Y-50900000I-225000J0D01*
G01*
G37*
G36*
G01*
X52025000Y-50900000D02*
X51575000Y-50900000D01*
G75*
G02*
X51350000Y-50675000I0J225000D01*
G01*
X51350000Y-50125000D01*
G75*
G02*
X51575000Y-49900000I225000J0D01*
G01*
X52025000Y-49900000D01*
G75*
G02*
X52250000Y-50125000I0J-225000D01*
G01*
X52250000Y-50675000D01*
G75*
G02*
X52025000Y-50900000I-225000J0D01*
G01*
G37*
G36*
G01*
X43930000Y-48912500D02*
X43930000Y-49287500D01*
G75*
G02*
X43742500Y-49475000I-187500J0D01*
G01*
X42957500Y-49475000D01*
G75*
G02*
X42770000Y-49287500I0J187500D01*
G01*
X42770000Y-48912500D01*
G75*
G02*
X42957500Y-48725000I187500J0D01*
G01*
X43742500Y-48725000D01*
G75*
G02*
X43930000Y-48912500I0J-187500D01*
G01*
G37*
G36*
G01*
X43930000Y-47962500D02*
X43930000Y-48337500D01*
G75*
G02*
X43742500Y-48525000I-187500J0D01*
G01*
X42957500Y-48525000D01*
G75*
G02*
X42770000Y-48337500I0J187500D01*
G01*
X42770000Y-47962500D01*
G75*
G02*
X42957500Y-47775000I187500J0D01*
G01*
X43742500Y-47775000D01*
G75*
G02*
X43930000Y-47962500I0J-187500D01*
G01*
G37*
G36*
G01*
X43930000Y-47012500D02*
X43930000Y-47387500D01*
G75*
G02*
X43742500Y-47575000I-187500J0D01*
G01*
X42957500Y-47575000D01*
G75*
G02*
X42770000Y-47387500I0J187500D01*
G01*
X42770000Y-47012500D01*
G75*
G02*
X42957500Y-46825000I187500J0D01*
G01*
X43742500Y-46825000D01*
G75*
G02*
X43930000Y-47012500I0J-187500D01*
G01*
G37*
G36*
G01*
X41730000Y-47012500D02*
X41730000Y-47387500D01*
G75*
G02*
X41542500Y-47575000I-187500J0D01*
G01*
X40757500Y-47575000D01*
G75*
G02*
X40570000Y-47387500I0J187500D01*
G01*
X40570000Y-47012500D01*
G75*
G02*
X40757500Y-46825000I187500J0D01*
G01*
X41542500Y-46825000D01*
G75*
G02*
X41730000Y-47012500I0J-187500D01*
G01*
G37*
G36*
G01*
X41730000Y-48912500D02*
X41730000Y-49287500D01*
G75*
G02*
X41542500Y-49475000I-187500J0D01*
G01*
X40757500Y-49475000D01*
G75*
G02*
X40570000Y-49287500I0J187500D01*
G01*
X40570000Y-48912500D01*
G75*
G02*
X40757500Y-48725000I187500J0D01*
G01*
X41542500Y-48725000D01*
G75*
G02*
X41730000Y-48912500I0J-187500D01*
G01*
G37*
G36*
G01*
X41730000Y-44662500D02*
X41730000Y-45037500D01*
G75*
G02*
X41542500Y-45225000I-187500J0D01*
G01*
X40757500Y-45225000D01*
G75*
G02*
X40570000Y-45037500I0J187500D01*
G01*
X40570000Y-44662500D01*
G75*
G02*
X40757500Y-44475000I187500J0D01*
G01*
X41542500Y-44475000D01*
G75*
G02*
X41730000Y-44662500I0J-187500D01*
G01*
G37*
G36*
G01*
X41730000Y-42762500D02*
X41730000Y-43137500D01*
G75*
G02*
X41542500Y-43325000I-187500J0D01*
G01*
X40757500Y-43325000D01*
G75*
G02*
X40570000Y-43137500I0J187500D01*
G01*
X40570000Y-42762500D01*
G75*
G02*
X40757500Y-42575000I187500J0D01*
G01*
X41542500Y-42575000D01*
G75*
G02*
X41730000Y-42762500I0J-187500D01*
G01*
G37*
G36*
G01*
X43930000Y-42762500D02*
X43930000Y-43137500D01*
G75*
G02*
X43742500Y-43325000I-187500J0D01*
G01*
X42957500Y-43325000D01*
G75*
G02*
X42770000Y-43137500I0J187500D01*
G01*
X42770000Y-42762500D01*
G75*
G02*
X42957500Y-42575000I187500J0D01*
G01*
X43742500Y-42575000D01*
G75*
G02*
X43930000Y-42762500I0J-187500D01*
G01*
G37*
G36*
G01*
X43930000Y-43712500D02*
X43930000Y-44087500D01*
G75*
G02*
X43742500Y-44275000I-187500J0D01*
G01*
X42957500Y-44275000D01*
G75*
G02*
X42770000Y-44087500I0J187500D01*
G01*
X42770000Y-43712500D01*
G75*
G02*
X42957500Y-43525000I187500J0D01*
G01*
X43742500Y-43525000D01*
G75*
G02*
X43930000Y-43712500I0J-187500D01*
G01*
G37*
G36*
G01*
X43930000Y-44662500D02*
X43930000Y-45037500D01*
G75*
G02*
X43742500Y-45225000I-187500J0D01*
G01*
X42957500Y-45225000D01*
G75*
G02*
X42770000Y-45037500I0J187500D01*
G01*
X42770000Y-44662500D01*
G75*
G02*
X42957500Y-44475000I187500J0D01*
G01*
X43742500Y-44475000D01*
G75*
G02*
X43930000Y-44662500I0J-187500D01*
G01*
G37*
G36*
G01*
X49780000Y-53912500D02*
X49780000Y-54287500D01*
G75*
G02*
X49592500Y-54475000I-187500J0D01*
G01*
X48807500Y-54475000D01*
G75*
G02*
X48620000Y-54287500I0J187500D01*
G01*
X48620000Y-53912500D01*
G75*
G02*
X48807500Y-53725000I187500J0D01*
G01*
X49592500Y-53725000D01*
G75*
G02*
X49780000Y-53912500I0J-187500D01*
G01*
G37*
G36*
G01*
X49780000Y-52962500D02*
X49780000Y-53337500D01*
G75*
G02*
X49592500Y-53525000I-187500J0D01*
G01*
X48807500Y-53525000D01*
G75*
G02*
X48620000Y-53337500I0J187500D01*
G01*
X48620000Y-52962500D01*
G75*
G02*
X48807500Y-52775000I187500J0D01*
G01*
X49592500Y-52775000D01*
G75*
G02*
X49780000Y-52962500I0J-187500D01*
G01*
G37*
G36*
G01*
X49780000Y-52012500D02*
X49780000Y-52387500D01*
G75*
G02*
X49592500Y-52575000I-187500J0D01*
G01*
X48807500Y-52575000D01*
G75*
G02*
X48620000Y-52387500I0J187500D01*
G01*
X48620000Y-52012500D01*
G75*
G02*
X48807500Y-51825000I187500J0D01*
G01*
X49592500Y-51825000D01*
G75*
G02*
X49780000Y-52012500I0J-187500D01*
G01*
G37*
G36*
G01*
X47580000Y-52012500D02*
X47580000Y-52387500D01*
G75*
G02*
X47392500Y-52575000I-187500J0D01*
G01*
X46607500Y-52575000D01*
G75*
G02*
X46420000Y-52387500I0J187500D01*
G01*
X46420000Y-52012500D01*
G75*
G02*
X46607500Y-51825000I187500J0D01*
G01*
X47392500Y-51825000D01*
G75*
G02*
X47580000Y-52012500I0J-187500D01*
G01*
G37*
G36*
G01*
X47580000Y-53912500D02*
X47580000Y-54287500D01*
G75*
G02*
X47392500Y-54475000I-187500J0D01*
G01*
X46607500Y-54475000D01*
G75*
G02*
X46420000Y-54287500I0J187500D01*
G01*
X46420000Y-53912500D01*
G75*
G02*
X46607500Y-53725000I187500J0D01*
G01*
X47392500Y-53725000D01*
G75*
G02*
X47580000Y-53912500I0J-187500D01*
G01*
G37*
G36*
G01*
X47580000Y-52962500D02*
X47580000Y-53337500D01*
G75*
G02*
X47392500Y-53525000I-187500J0D01*
G01*
X46607500Y-53525000D01*
G75*
G02*
X46420000Y-53337500I0J187500D01*
G01*
X46420000Y-52962500D01*
G75*
G02*
X46607500Y-52775000I187500J0D01*
G01*
X47392500Y-52775000D01*
G75*
G02*
X47580000Y-52962500I0J-187500D01*
G01*
G37*
G36*
G01*
X43600000Y-52075000D02*
X43600000Y-52725000D01*
G75*
G02*
X43275000Y-53050000I-325000J0D01*
G01*
X42425000Y-53050000D01*
G75*
G02*
X42100000Y-52725000I0J325000D01*
G01*
X42100000Y-52075000D01*
G75*
G02*
X42425000Y-51750000I325000J0D01*
G01*
X43275000Y-51750000D01*
G75*
G02*
X43600000Y-52075000I0J-325000D01*
G01*
G37*
G36*
G01*
X41400000Y-52075000D02*
X41400000Y-52725000D01*
G75*
G02*
X41075000Y-53050000I-325000J0D01*
G01*
X40225000Y-53050000D01*
G75*
G02*
X39900000Y-52725000I0J325000D01*
G01*
X39900000Y-52075000D01*
G75*
G02*
X40225000Y-51750000I325000J0D01*
G01*
X41075000Y-51750000D01*
G75*
G02*
X41400000Y-52075000I0J-325000D01*
G01*
G37*
G36*
G01*
X41400000Y-53775000D02*
X41400000Y-54425000D01*
G75*
G02*
X41075000Y-54750000I-325000J0D01*
G01*
X40225000Y-54750000D01*
G75*
G02*
X39900000Y-54425000I0J325000D01*
G01*
X39900000Y-53775000D01*
G75*
G02*
X40225000Y-53450000I325000J0D01*
G01*
X41075000Y-53450000D01*
G75*
G02*
X41400000Y-53775000I0J-325000D01*
G01*
G37*
G36*
G01*
X43600000Y-53775000D02*
X43600000Y-54425000D01*
G75*
G02*
X43275000Y-54750000I-325000J0D01*
G01*
X42425000Y-54750000D01*
G75*
G02*
X42100000Y-54425000I0J325000D01*
G01*
X42100000Y-53775000D01*
G75*
G02*
X42425000Y-53450000I325000J0D01*
G01*
X43275000Y-53450000D01*
G75*
G02*
X43600000Y-53775000I0J-325000D01*
G01*
G37*
G36*
G01*
X33345000Y-67952500D02*
X33345000Y-68347500D01*
G75*
G02*
X33172500Y-68520000I-172500J0D01*
G01*
X32827500Y-68520000D01*
G75*
G02*
X32655000Y-68347500I0J172500D01*
G01*
X32655000Y-67952500D01*
G75*
G02*
X32827500Y-67780000I172500J0D01*
G01*
X33172500Y-67780000D01*
G75*
G02*
X33345000Y-67952500I0J-172500D01*
G01*
G37*
G36*
G01*
X32375000Y-67952500D02*
X32375000Y-68347500D01*
G75*
G02*
X32202500Y-68520000I-172500J0D01*
G01*
X31857500Y-68520000D01*
G75*
G02*
X31685000Y-68347500I0J172500D01*
G01*
X31685000Y-67952500D01*
G75*
G02*
X31857500Y-67780000I172500J0D01*
G01*
X32202500Y-67780000D01*
G75*
G02*
X32375000Y-67952500I0J-172500D01*
G01*
G37*
G36*
G01*
X40052500Y-56290000D02*
X40447500Y-56290000D01*
G75*
G02*
X40620000Y-56462500I0J-172500D01*
G01*
X40620000Y-56807500D01*
G75*
G02*
X40447500Y-56980000I-172500J0D01*
G01*
X40052500Y-56980000D01*
G75*
G02*
X39880000Y-56807500I0J172500D01*
G01*
X39880000Y-56462500D01*
G75*
G02*
X40052500Y-56290000I172500J0D01*
G01*
G37*
G36*
G01*
X40052500Y-55320000D02*
X40447500Y-55320000D01*
G75*
G02*
X40620000Y-55492500I0J-172500D01*
G01*
X40620000Y-55837500D01*
G75*
G02*
X40447500Y-56010000I-172500J0D01*
G01*
X40052500Y-56010000D01*
G75*
G02*
X39880000Y-55837500I0J172500D01*
G01*
X39880000Y-55492500D01*
G75*
G02*
X40052500Y-55320000I172500J0D01*
G01*
G37*
G36*
G01*
X38802500Y-55305000D02*
X39197500Y-55305000D01*
G75*
G02*
X39370000Y-55477500I0J-172500D01*
G01*
X39370000Y-55822500D01*
G75*
G02*
X39197500Y-55995000I-172500J0D01*
G01*
X38802500Y-55995000D01*
G75*
G02*
X38630000Y-55822500I0J172500D01*
G01*
X38630000Y-55477500D01*
G75*
G02*
X38802500Y-55305000I172500J0D01*
G01*
G37*
G36*
G01*
X38802500Y-56275000D02*
X39197500Y-56275000D01*
G75*
G02*
X39370000Y-56447500I0J-172500D01*
G01*
X39370000Y-56792500D01*
G75*
G02*
X39197500Y-56965000I-172500J0D01*
G01*
X38802500Y-56965000D01*
G75*
G02*
X38630000Y-56792500I0J172500D01*
G01*
X38630000Y-56447500D01*
G75*
G02*
X38802500Y-56275000I172500J0D01*
G01*
G37*
G36*
G01*
X33330000Y-66702500D02*
X33330000Y-67097500D01*
G75*
G02*
X33157500Y-67270000I-172500J0D01*
G01*
X32812500Y-67270000D01*
G75*
G02*
X32640000Y-67097500I0J172500D01*
G01*
X32640000Y-66702500D01*
G75*
G02*
X32812500Y-66530000I172500J0D01*
G01*
X33157500Y-66530000D01*
G75*
G02*
X33330000Y-66702500I0J-172500D01*
G01*
G37*
G36*
G01*
X32360000Y-66702500D02*
X32360000Y-67097500D01*
G75*
G02*
X32187500Y-67270000I-172500J0D01*
G01*
X31842500Y-67270000D01*
G75*
G02*
X31670000Y-67097500I0J172500D01*
G01*
X31670000Y-66702500D01*
G75*
G02*
X31842500Y-66530000I172500J0D01*
G01*
X32187500Y-66530000D01*
G75*
G02*
X32360000Y-66702500I0J-172500D01*
G01*
G37*
G36*
G01*
X50052500Y-48775000D02*
X50447500Y-48775000D01*
G75*
G02*
X50620000Y-48947500I0J-172500D01*
G01*
X50620000Y-49292500D01*
G75*
G02*
X50447500Y-49465000I-172500J0D01*
G01*
X50052500Y-49465000D01*
G75*
G02*
X49880000Y-49292500I0J172500D01*
G01*
X49880000Y-48947500D01*
G75*
G02*
X50052500Y-48775000I172500J0D01*
G01*
G37*
G36*
G01*
X50052500Y-47805000D02*
X50447500Y-47805000D01*
G75*
G02*
X50620000Y-47977500I0J-172500D01*
G01*
X50620000Y-48322500D01*
G75*
G02*
X50447500Y-48495000I-172500J0D01*
G01*
X50052500Y-48495000D01*
G75*
G02*
X49880000Y-48322500I0J172500D01*
G01*
X49880000Y-47977500D01*
G75*
G02*
X50052500Y-47805000I172500J0D01*
G01*
G37*
D17*
X33000000Y-33000000D03*
X73000000Y-33000000D03*
X33000000Y-73000000D03*
X73000000Y-73000000D03*
G36*
G01*
X54802500Y-52820000D02*
X55197500Y-52820000D01*
G75*
G02*
X55370000Y-52992500I0J-172500D01*
G01*
X55370000Y-53337500D01*
G75*
G02*
X55197500Y-53510000I-172500J0D01*
G01*
X54802500Y-53510000D01*
G75*
G02*
X54630000Y-53337500I0J172500D01*
G01*
X54630000Y-52992500D01*
G75*
G02*
X54802500Y-52820000I172500J0D01*
G01*
G37*
G36*
G01*
X54802500Y-53790000D02*
X55197500Y-53790000D01*
G75*
G02*
X55370000Y-53962500I0J-172500D01*
G01*
X55370000Y-54307500D01*
G75*
G02*
X55197500Y-54480000I-172500J0D01*
G01*
X54802500Y-54480000D01*
G75*
G02*
X54630000Y-54307500I0J172500D01*
G01*
X54630000Y-53962500D01*
G75*
G02*
X54802500Y-53790000I172500J0D01*
G01*
G37*
M02*
