G04 #@! TF.GenerationSoftware,KiCad,Pcbnew,(5.1.9-0-10_14)*
G04 #@! TF.CreationDate,2021-04-05T09:48:25+08:00*
G04 #@! TF.ProjectId,tigard,74696761-7264-42e6-9b69-6361645f7063,v1.1*
G04 #@! TF.SameCoordinates,Original*
G04 #@! TF.FileFunction,Paste,Top*
G04 #@! TF.FilePolarity,Positive*
%FSLAX46Y46*%
G04 Gerber Fmt 4.6, Leading zero omitted, Abs format (unit mm)*
G04 Created by KiCad (PCBNEW (5.1.9-0-10_14)) date 2021-04-05 09:48:25*
%MOMM*%
%LPD*%
G01*
G04 APERTURE LIST*
%ADD10R,1.600000X1.000000*%
%ADD11O,1.600000X1.000000*%
%ADD12O,2.100000X1.000000*%
%ADD13R,2.100000X1.000000*%
%ADD14R,1.450000X0.600000*%
%ADD15R,1.450000X0.300000*%
G04 APERTURE END LIST*
G36*
G01*
X44955000Y-71260000D02*
X45325000Y-71260000D01*
G75*
G02*
X45510000Y-71445000I0J-185000D01*
G01*
X45510000Y-73475000D01*
G75*
G02*
X45325000Y-73660000I-185000J0D01*
G01*
X44955000Y-73660000D01*
G75*
G02*
X44770000Y-73475000I0J185000D01*
G01*
X44770000Y-71445000D01*
G75*
G02*
X44955000Y-71260000I185000J0D01*
G01*
G37*
G36*
G01*
X44955000Y-67360000D02*
X45325000Y-67360000D01*
G75*
G02*
X45510000Y-67545000I0J-185000D01*
G01*
X45510000Y-69575000D01*
G75*
G02*
X45325000Y-69760000I-185000J0D01*
G01*
X44955000Y-69760000D01*
G75*
G02*
X44770000Y-69575000I0J185000D01*
G01*
X44770000Y-67545000D01*
G75*
G02*
X44955000Y-67360000I185000J0D01*
G01*
G37*
G36*
G01*
X46225000Y-71260000D02*
X46595000Y-71260000D01*
G75*
G02*
X46780000Y-71445000I0J-185000D01*
G01*
X46780000Y-73475000D01*
G75*
G02*
X46595000Y-73660000I-185000J0D01*
G01*
X46225000Y-73660000D01*
G75*
G02*
X46040000Y-73475000I0J185000D01*
G01*
X46040000Y-71445000D01*
G75*
G02*
X46225000Y-71260000I185000J0D01*
G01*
G37*
G36*
G01*
X46225000Y-67360000D02*
X46595000Y-67360000D01*
G75*
G02*
X46780000Y-67545000I0J-185000D01*
G01*
X46780000Y-69575000D01*
G75*
G02*
X46595000Y-69760000I-185000J0D01*
G01*
X46225000Y-69760000D01*
G75*
G02*
X46040000Y-69575000I0J185000D01*
G01*
X46040000Y-67545000D01*
G75*
G02*
X46225000Y-67360000I185000J0D01*
G01*
G37*
G36*
G01*
X47495000Y-71260000D02*
X47865000Y-71260000D01*
G75*
G02*
X48050000Y-71445000I0J-185000D01*
G01*
X48050000Y-73475000D01*
G75*
G02*
X47865000Y-73660000I-185000J0D01*
G01*
X47495000Y-73660000D01*
G75*
G02*
X47310000Y-73475000I0J185000D01*
G01*
X47310000Y-71445000D01*
G75*
G02*
X47495000Y-71260000I185000J0D01*
G01*
G37*
G36*
G01*
X47495000Y-67360000D02*
X47865000Y-67360000D01*
G75*
G02*
X48050000Y-67545000I0J-185000D01*
G01*
X48050000Y-69575000D01*
G75*
G02*
X47865000Y-69760000I-185000J0D01*
G01*
X47495000Y-69760000D01*
G75*
G02*
X47310000Y-69575000I0J185000D01*
G01*
X47310000Y-67545000D01*
G75*
G02*
X47495000Y-67360000I185000J0D01*
G01*
G37*
G36*
G01*
X48765000Y-71260000D02*
X49135000Y-71260000D01*
G75*
G02*
X49320000Y-71445000I0J-185000D01*
G01*
X49320000Y-73475000D01*
G75*
G02*
X49135000Y-73660000I-185000J0D01*
G01*
X48765000Y-73660000D01*
G75*
G02*
X48580000Y-73475000I0J185000D01*
G01*
X48580000Y-71445000D01*
G75*
G02*
X48765000Y-71260000I185000J0D01*
G01*
G37*
G36*
G01*
X48765000Y-67360000D02*
X49135000Y-67360000D01*
G75*
G02*
X49320000Y-67545000I0J-185000D01*
G01*
X49320000Y-69575000D01*
G75*
G02*
X49135000Y-69760000I-185000J0D01*
G01*
X48765000Y-69760000D01*
G75*
G02*
X48580000Y-69575000I0J185000D01*
G01*
X48580000Y-67545000D01*
G75*
G02*
X48765000Y-67360000I185000J0D01*
G01*
G37*
G36*
G01*
X50035000Y-71260000D02*
X50405000Y-71260000D01*
G75*
G02*
X50590000Y-71445000I0J-185000D01*
G01*
X50590000Y-73475000D01*
G75*
G02*
X50405000Y-73660000I-185000J0D01*
G01*
X50035000Y-73660000D01*
G75*
G02*
X49850000Y-73475000I0J185000D01*
G01*
X49850000Y-71445000D01*
G75*
G02*
X50035000Y-71260000I185000J0D01*
G01*
G37*
G36*
G01*
X50035000Y-67360000D02*
X50405000Y-67360000D01*
G75*
G02*
X50590000Y-67545000I0J-185000D01*
G01*
X50590000Y-69575000D01*
G75*
G02*
X50405000Y-69760000I-185000J0D01*
G01*
X50035000Y-69760000D01*
G75*
G02*
X49850000Y-69575000I0J185000D01*
G01*
X49850000Y-67545000D01*
G75*
G02*
X50035000Y-67360000I185000J0D01*
G01*
G37*
G36*
G01*
X51305000Y-71260000D02*
X51675000Y-71260000D01*
G75*
G02*
X51860000Y-71445000I0J-185000D01*
G01*
X51860000Y-73475000D01*
G75*
G02*
X51675000Y-73660000I-185000J0D01*
G01*
X51305000Y-73660000D01*
G75*
G02*
X51120000Y-73475000I0J185000D01*
G01*
X51120000Y-71445000D01*
G75*
G02*
X51305000Y-71260000I185000J0D01*
G01*
G37*
G36*
G01*
X51305000Y-67360000D02*
X51675000Y-67360000D01*
G75*
G02*
X51860000Y-67545000I0J-185000D01*
G01*
X51860000Y-69575000D01*
G75*
G02*
X51675000Y-69760000I-185000J0D01*
G01*
X51305000Y-69760000D01*
G75*
G02*
X51120000Y-69575000I0J185000D01*
G01*
X51120000Y-67545000D01*
G75*
G02*
X51305000Y-67360000I185000J0D01*
G01*
G37*
G36*
G01*
X52575000Y-71260000D02*
X52945000Y-71260000D01*
G75*
G02*
X53130000Y-71445000I0J-185000D01*
G01*
X53130000Y-73475000D01*
G75*
G02*
X52945000Y-73660000I-185000J0D01*
G01*
X52575000Y-73660000D01*
G75*
G02*
X52390000Y-73475000I0J185000D01*
G01*
X52390000Y-71445000D01*
G75*
G02*
X52575000Y-71260000I185000J0D01*
G01*
G37*
G36*
G01*
X52575000Y-67360000D02*
X52945000Y-67360000D01*
G75*
G02*
X53130000Y-67545000I0J-185000D01*
G01*
X53130000Y-69575000D01*
G75*
G02*
X52945000Y-69760000I-185000J0D01*
G01*
X52575000Y-69760000D01*
G75*
G02*
X52390000Y-69575000I0J185000D01*
G01*
X52390000Y-67545000D01*
G75*
G02*
X52575000Y-67360000I185000J0D01*
G01*
G37*
D10*
X31950000Y-55580000D03*
D11*
X31950000Y-56080000D03*
X31950000Y-64720000D03*
D10*
X31950000Y-65220000D03*
D12*
X36130000Y-64720000D03*
D13*
X36130000Y-65220000D03*
X36130000Y-55580000D03*
D12*
X36130000Y-56080000D03*
D14*
X37045000Y-63650000D03*
X37045000Y-62850000D03*
X37045000Y-57950000D03*
X37045000Y-57150000D03*
X37045000Y-57150000D03*
X37045000Y-57950000D03*
X37045000Y-62850000D03*
X37045000Y-63650000D03*
D15*
X37045000Y-58650000D03*
X37045000Y-59150000D03*
X37045000Y-59650000D03*
X37045000Y-60650000D03*
X37045000Y-61150000D03*
X37045000Y-61650000D03*
X37045000Y-62150000D03*
X37045000Y-60150000D03*
G36*
G01*
X64395000Y-47425000D02*
X64395000Y-47225000D01*
G75*
G02*
X64495000Y-47125000I100000J0D01*
G01*
X65770000Y-47125000D01*
G75*
G02*
X65870000Y-47225000I0J-100000D01*
G01*
X65870000Y-47425000D01*
G75*
G02*
X65770000Y-47525000I-100000J0D01*
G01*
X64495000Y-47525000D01*
G75*
G02*
X64395000Y-47425000I0J100000D01*
G01*
G37*
G36*
G01*
X64395000Y-48075000D02*
X64395000Y-47875000D01*
G75*
G02*
X64495000Y-47775000I100000J0D01*
G01*
X65770000Y-47775000D01*
G75*
G02*
X65870000Y-47875000I0J-100000D01*
G01*
X65870000Y-48075000D01*
G75*
G02*
X65770000Y-48175000I-100000J0D01*
G01*
X64495000Y-48175000D01*
G75*
G02*
X64395000Y-48075000I0J100000D01*
G01*
G37*
G36*
G01*
X64395000Y-48725000D02*
X64395000Y-48525000D01*
G75*
G02*
X64495000Y-48425000I100000J0D01*
G01*
X65770000Y-48425000D01*
G75*
G02*
X65870000Y-48525000I0J-100000D01*
G01*
X65870000Y-48725000D01*
G75*
G02*
X65770000Y-48825000I-100000J0D01*
G01*
X64495000Y-48825000D01*
G75*
G02*
X64395000Y-48725000I0J100000D01*
G01*
G37*
G36*
G01*
X64395000Y-49375000D02*
X64395000Y-49175000D01*
G75*
G02*
X64495000Y-49075000I100000J0D01*
G01*
X65770000Y-49075000D01*
G75*
G02*
X65870000Y-49175000I0J-100000D01*
G01*
X65870000Y-49375000D01*
G75*
G02*
X65770000Y-49475000I-100000J0D01*
G01*
X64495000Y-49475000D01*
G75*
G02*
X64395000Y-49375000I0J100000D01*
G01*
G37*
G36*
G01*
X64395000Y-50025000D02*
X64395000Y-49825000D01*
G75*
G02*
X64495000Y-49725000I100000J0D01*
G01*
X65770000Y-49725000D01*
G75*
G02*
X65870000Y-49825000I0J-100000D01*
G01*
X65870000Y-50025000D01*
G75*
G02*
X65770000Y-50125000I-100000J0D01*
G01*
X64495000Y-50125000D01*
G75*
G02*
X64395000Y-50025000I0J100000D01*
G01*
G37*
G36*
G01*
X64395000Y-50675000D02*
X64395000Y-50475000D01*
G75*
G02*
X64495000Y-50375000I100000J0D01*
G01*
X65770000Y-50375000D01*
G75*
G02*
X65870000Y-50475000I0J-100000D01*
G01*
X65870000Y-50675000D01*
G75*
G02*
X65770000Y-50775000I-100000J0D01*
G01*
X64495000Y-50775000D01*
G75*
G02*
X64395000Y-50675000I0J100000D01*
G01*
G37*
G36*
G01*
X64395000Y-51325000D02*
X64395000Y-51125000D01*
G75*
G02*
X64495000Y-51025000I100000J0D01*
G01*
X65770000Y-51025000D01*
G75*
G02*
X65870000Y-51125000I0J-100000D01*
G01*
X65870000Y-51325000D01*
G75*
G02*
X65770000Y-51425000I-100000J0D01*
G01*
X64495000Y-51425000D01*
G75*
G02*
X64395000Y-51325000I0J100000D01*
G01*
G37*
G36*
G01*
X64395000Y-51975000D02*
X64395000Y-51775000D01*
G75*
G02*
X64495000Y-51675000I100000J0D01*
G01*
X65770000Y-51675000D01*
G75*
G02*
X65870000Y-51775000I0J-100000D01*
G01*
X65870000Y-51975000D01*
G75*
G02*
X65770000Y-52075000I-100000J0D01*
G01*
X64495000Y-52075000D01*
G75*
G02*
X64395000Y-51975000I0J100000D01*
G01*
G37*
G36*
G01*
X64395000Y-52625000D02*
X64395000Y-52425000D01*
G75*
G02*
X64495000Y-52325000I100000J0D01*
G01*
X65770000Y-52325000D01*
G75*
G02*
X65870000Y-52425000I0J-100000D01*
G01*
X65870000Y-52625000D01*
G75*
G02*
X65770000Y-52725000I-100000J0D01*
G01*
X64495000Y-52725000D01*
G75*
G02*
X64395000Y-52625000I0J100000D01*
G01*
G37*
G36*
G01*
X64395000Y-53275000D02*
X64395000Y-53075000D01*
G75*
G02*
X64495000Y-52975000I100000J0D01*
G01*
X65770000Y-52975000D01*
G75*
G02*
X65870000Y-53075000I0J-100000D01*
G01*
X65870000Y-53275000D01*
G75*
G02*
X65770000Y-53375000I-100000J0D01*
G01*
X64495000Y-53375000D01*
G75*
G02*
X64395000Y-53275000I0J100000D01*
G01*
G37*
G36*
G01*
X64395000Y-53925000D02*
X64395000Y-53725000D01*
G75*
G02*
X64495000Y-53625000I100000J0D01*
G01*
X65770000Y-53625000D01*
G75*
G02*
X65870000Y-53725000I0J-100000D01*
G01*
X65870000Y-53925000D01*
G75*
G02*
X65770000Y-54025000I-100000J0D01*
G01*
X64495000Y-54025000D01*
G75*
G02*
X64395000Y-53925000I0J100000D01*
G01*
G37*
G36*
G01*
X64395000Y-54575000D02*
X64395000Y-54375000D01*
G75*
G02*
X64495000Y-54275000I100000J0D01*
G01*
X65770000Y-54275000D01*
G75*
G02*
X65870000Y-54375000I0J-100000D01*
G01*
X65870000Y-54575000D01*
G75*
G02*
X65770000Y-54675000I-100000J0D01*
G01*
X64495000Y-54675000D01*
G75*
G02*
X64395000Y-54575000I0J100000D01*
G01*
G37*
G36*
G01*
X58670000Y-54575000D02*
X58670000Y-54375000D01*
G75*
G02*
X58770000Y-54275000I100000J0D01*
G01*
X60045000Y-54275000D01*
G75*
G02*
X60145000Y-54375000I0J-100000D01*
G01*
X60145000Y-54575000D01*
G75*
G02*
X60045000Y-54675000I-100000J0D01*
G01*
X58770000Y-54675000D01*
G75*
G02*
X58670000Y-54575000I0J100000D01*
G01*
G37*
G36*
G01*
X58670000Y-53925000D02*
X58670000Y-53725000D01*
G75*
G02*
X58770000Y-53625000I100000J0D01*
G01*
X60045000Y-53625000D01*
G75*
G02*
X60145000Y-53725000I0J-100000D01*
G01*
X60145000Y-53925000D01*
G75*
G02*
X60045000Y-54025000I-100000J0D01*
G01*
X58770000Y-54025000D01*
G75*
G02*
X58670000Y-53925000I0J100000D01*
G01*
G37*
G36*
G01*
X58670000Y-53275000D02*
X58670000Y-53075000D01*
G75*
G02*
X58770000Y-52975000I100000J0D01*
G01*
X60045000Y-52975000D01*
G75*
G02*
X60145000Y-53075000I0J-100000D01*
G01*
X60145000Y-53275000D01*
G75*
G02*
X60045000Y-53375000I-100000J0D01*
G01*
X58770000Y-53375000D01*
G75*
G02*
X58670000Y-53275000I0J100000D01*
G01*
G37*
G36*
G01*
X58670000Y-52625000D02*
X58670000Y-52425000D01*
G75*
G02*
X58770000Y-52325000I100000J0D01*
G01*
X60045000Y-52325000D01*
G75*
G02*
X60145000Y-52425000I0J-100000D01*
G01*
X60145000Y-52625000D01*
G75*
G02*
X60045000Y-52725000I-100000J0D01*
G01*
X58770000Y-52725000D01*
G75*
G02*
X58670000Y-52625000I0J100000D01*
G01*
G37*
G36*
G01*
X58670000Y-51975000D02*
X58670000Y-51775000D01*
G75*
G02*
X58770000Y-51675000I100000J0D01*
G01*
X60045000Y-51675000D01*
G75*
G02*
X60145000Y-51775000I0J-100000D01*
G01*
X60145000Y-51975000D01*
G75*
G02*
X60045000Y-52075000I-100000J0D01*
G01*
X58770000Y-52075000D01*
G75*
G02*
X58670000Y-51975000I0J100000D01*
G01*
G37*
G36*
G01*
X58670000Y-51325000D02*
X58670000Y-51125000D01*
G75*
G02*
X58770000Y-51025000I100000J0D01*
G01*
X60045000Y-51025000D01*
G75*
G02*
X60145000Y-51125000I0J-100000D01*
G01*
X60145000Y-51325000D01*
G75*
G02*
X60045000Y-51425000I-100000J0D01*
G01*
X58770000Y-51425000D01*
G75*
G02*
X58670000Y-51325000I0J100000D01*
G01*
G37*
G36*
G01*
X58670000Y-50675000D02*
X58670000Y-50475000D01*
G75*
G02*
X58770000Y-50375000I100000J0D01*
G01*
X60045000Y-50375000D01*
G75*
G02*
X60145000Y-50475000I0J-100000D01*
G01*
X60145000Y-50675000D01*
G75*
G02*
X60045000Y-50775000I-100000J0D01*
G01*
X58770000Y-50775000D01*
G75*
G02*
X58670000Y-50675000I0J100000D01*
G01*
G37*
G36*
G01*
X58670000Y-50025000D02*
X58670000Y-49825000D01*
G75*
G02*
X58770000Y-49725000I100000J0D01*
G01*
X60045000Y-49725000D01*
G75*
G02*
X60145000Y-49825000I0J-100000D01*
G01*
X60145000Y-50025000D01*
G75*
G02*
X60045000Y-50125000I-100000J0D01*
G01*
X58770000Y-50125000D01*
G75*
G02*
X58670000Y-50025000I0J100000D01*
G01*
G37*
G36*
G01*
X58670000Y-49375000D02*
X58670000Y-49175000D01*
G75*
G02*
X58770000Y-49075000I100000J0D01*
G01*
X60045000Y-49075000D01*
G75*
G02*
X60145000Y-49175000I0J-100000D01*
G01*
X60145000Y-49375000D01*
G75*
G02*
X60045000Y-49475000I-100000J0D01*
G01*
X58770000Y-49475000D01*
G75*
G02*
X58670000Y-49375000I0J100000D01*
G01*
G37*
G36*
G01*
X58670000Y-48725000D02*
X58670000Y-48525000D01*
G75*
G02*
X58770000Y-48425000I100000J0D01*
G01*
X60045000Y-48425000D01*
G75*
G02*
X60145000Y-48525000I0J-100000D01*
G01*
X60145000Y-48725000D01*
G75*
G02*
X60045000Y-48825000I-100000J0D01*
G01*
X58770000Y-48825000D01*
G75*
G02*
X58670000Y-48725000I0J100000D01*
G01*
G37*
G36*
G01*
X58670000Y-48075000D02*
X58670000Y-47875000D01*
G75*
G02*
X58770000Y-47775000I100000J0D01*
G01*
X60045000Y-47775000D01*
G75*
G02*
X60145000Y-47875000I0J-100000D01*
G01*
X60145000Y-48075000D01*
G75*
G02*
X60045000Y-48175000I-100000J0D01*
G01*
X58770000Y-48175000D01*
G75*
G02*
X58670000Y-48075000I0J100000D01*
G01*
G37*
G36*
G01*
X58670000Y-47425000D02*
X58670000Y-47225000D01*
G75*
G02*
X58770000Y-47125000I100000J0D01*
G01*
X60045000Y-47125000D01*
G75*
G02*
X60145000Y-47225000I0J-100000D01*
G01*
X60145000Y-47425000D01*
G75*
G02*
X60045000Y-47525000I-100000J0D01*
G01*
X58770000Y-47525000D01*
G75*
G02*
X58670000Y-47425000I0J100000D01*
G01*
G37*
G36*
G01*
X41995000Y-75350001D02*
X41995000Y-74049999D01*
G75*
G02*
X42244999Y-73800000I249999J0D01*
G01*
X42945001Y-73800000D01*
G75*
G02*
X43195000Y-74049999I0J-249999D01*
G01*
X43195000Y-75350001D01*
G75*
G02*
X42945001Y-75600000I-249999J0D01*
G01*
X42244999Y-75600000D01*
G75*
G02*
X41995000Y-75350001I0J249999D01*
G01*
G37*
G36*
G01*
X36395000Y-75350001D02*
X36395000Y-74049999D01*
G75*
G02*
X36644999Y-73800000I249999J0D01*
G01*
X37345001Y-73800000D01*
G75*
G02*
X37595000Y-74049999I0J-249999D01*
G01*
X37595000Y-75350001D01*
G75*
G02*
X37345001Y-75600000I-249999J0D01*
G01*
X36644999Y-75600000D01*
G75*
G02*
X36395000Y-75350001I0J249999D01*
G01*
G37*
G36*
G01*
X40995000Y-71450000D02*
X40995000Y-70200000D01*
G75*
G02*
X41145000Y-70050000I150000J0D01*
G01*
X41445000Y-70050000D01*
G75*
G02*
X41595000Y-70200000I0J-150000D01*
G01*
X41595000Y-71450000D01*
G75*
G02*
X41445000Y-71600000I-150000J0D01*
G01*
X41145000Y-71600000D01*
G75*
G02*
X40995000Y-71450000I0J150000D01*
G01*
G37*
G36*
G01*
X39995000Y-71450000D02*
X39995000Y-70200000D01*
G75*
G02*
X40145000Y-70050000I150000J0D01*
G01*
X40445000Y-70050000D01*
G75*
G02*
X40595000Y-70200000I0J-150000D01*
G01*
X40595000Y-71450000D01*
G75*
G02*
X40445000Y-71600000I-150000J0D01*
G01*
X40145000Y-71600000D01*
G75*
G02*
X39995000Y-71450000I0J150000D01*
G01*
G37*
G36*
G01*
X38995000Y-71450000D02*
X38995000Y-70200000D01*
G75*
G02*
X39145000Y-70050000I150000J0D01*
G01*
X39445000Y-70050000D01*
G75*
G02*
X39595000Y-70200000I0J-150000D01*
G01*
X39595000Y-71450000D01*
G75*
G02*
X39445000Y-71600000I-150000J0D01*
G01*
X39145000Y-71600000D01*
G75*
G02*
X38995000Y-71450000I0J150000D01*
G01*
G37*
G36*
G01*
X37995000Y-71450000D02*
X37995000Y-70200000D01*
G75*
G02*
X38145000Y-70050000I150000J0D01*
G01*
X38445000Y-70050000D01*
G75*
G02*
X38595000Y-70200000I0J-150000D01*
G01*
X38595000Y-71450000D01*
G75*
G02*
X38445000Y-71600000I-150000J0D01*
G01*
X38145000Y-71600000D01*
G75*
G02*
X37995000Y-71450000I0J150000D01*
G01*
G37*
G36*
G01*
X72530000Y-44045000D02*
X72530000Y-43675000D01*
G75*
G02*
X72715000Y-43490000I185000J0D01*
G01*
X74745000Y-43490000D01*
G75*
G02*
X74930000Y-43675000I0J-185000D01*
G01*
X74930000Y-44045000D01*
G75*
G02*
X74745000Y-44230000I-185000J0D01*
G01*
X72715000Y-44230000D01*
G75*
G02*
X72530000Y-44045000I0J185000D01*
G01*
G37*
G36*
G01*
X68630000Y-44045000D02*
X68630000Y-43675000D01*
G75*
G02*
X68815000Y-43490000I185000J0D01*
G01*
X70845000Y-43490000D01*
G75*
G02*
X71030000Y-43675000I0J-185000D01*
G01*
X71030000Y-44045000D01*
G75*
G02*
X70845000Y-44230000I-185000J0D01*
G01*
X68815000Y-44230000D01*
G75*
G02*
X68630000Y-44045000I0J185000D01*
G01*
G37*
G36*
G01*
X72530000Y-42775000D02*
X72530000Y-42405000D01*
G75*
G02*
X72715000Y-42220000I185000J0D01*
G01*
X74745000Y-42220000D01*
G75*
G02*
X74930000Y-42405000I0J-185000D01*
G01*
X74930000Y-42775000D01*
G75*
G02*
X74745000Y-42960000I-185000J0D01*
G01*
X72715000Y-42960000D01*
G75*
G02*
X72530000Y-42775000I0J185000D01*
G01*
G37*
G36*
G01*
X68630000Y-42775000D02*
X68630000Y-42405000D01*
G75*
G02*
X68815000Y-42220000I185000J0D01*
G01*
X70845000Y-42220000D01*
G75*
G02*
X71030000Y-42405000I0J-185000D01*
G01*
X71030000Y-42775000D01*
G75*
G02*
X70845000Y-42960000I-185000J0D01*
G01*
X68815000Y-42960000D01*
G75*
G02*
X68630000Y-42775000I0J185000D01*
G01*
G37*
G36*
G01*
X72530000Y-41505000D02*
X72530000Y-41135000D01*
G75*
G02*
X72715000Y-40950000I185000J0D01*
G01*
X74745000Y-40950000D01*
G75*
G02*
X74930000Y-41135000I0J-185000D01*
G01*
X74930000Y-41505000D01*
G75*
G02*
X74745000Y-41690000I-185000J0D01*
G01*
X72715000Y-41690000D01*
G75*
G02*
X72530000Y-41505000I0J185000D01*
G01*
G37*
G36*
G01*
X68630000Y-41505000D02*
X68630000Y-41135000D01*
G75*
G02*
X68815000Y-40950000I185000J0D01*
G01*
X70845000Y-40950000D01*
G75*
G02*
X71030000Y-41135000I0J-185000D01*
G01*
X71030000Y-41505000D01*
G75*
G02*
X70845000Y-41690000I-185000J0D01*
G01*
X68815000Y-41690000D01*
G75*
G02*
X68630000Y-41505000I0J185000D01*
G01*
G37*
G36*
G01*
X72530000Y-40235000D02*
X72530000Y-39865000D01*
G75*
G02*
X72715000Y-39680000I185000J0D01*
G01*
X74745000Y-39680000D01*
G75*
G02*
X74930000Y-39865000I0J-185000D01*
G01*
X74930000Y-40235000D01*
G75*
G02*
X74745000Y-40420000I-185000J0D01*
G01*
X72715000Y-40420000D01*
G75*
G02*
X72530000Y-40235000I0J185000D01*
G01*
G37*
G36*
G01*
X68630000Y-40235000D02*
X68630000Y-39865000D01*
G75*
G02*
X68815000Y-39680000I185000J0D01*
G01*
X70845000Y-39680000D01*
G75*
G02*
X71030000Y-39865000I0J-185000D01*
G01*
X71030000Y-40235000D01*
G75*
G02*
X70845000Y-40420000I-185000J0D01*
G01*
X68815000Y-40420000D01*
G75*
G02*
X68630000Y-40235000I0J185000D01*
G01*
G37*
G36*
G01*
X72530000Y-38965000D02*
X72530000Y-38595000D01*
G75*
G02*
X72715000Y-38410000I185000J0D01*
G01*
X74745000Y-38410000D01*
G75*
G02*
X74930000Y-38595000I0J-185000D01*
G01*
X74930000Y-38965000D01*
G75*
G02*
X74745000Y-39150000I-185000J0D01*
G01*
X72715000Y-39150000D01*
G75*
G02*
X72530000Y-38965000I0J185000D01*
G01*
G37*
G36*
G01*
X68630000Y-38965000D02*
X68630000Y-38595000D01*
G75*
G02*
X68815000Y-38410000I185000J0D01*
G01*
X70845000Y-38410000D01*
G75*
G02*
X71030000Y-38595000I0J-185000D01*
G01*
X71030000Y-38965000D01*
G75*
G02*
X70845000Y-39150000I-185000J0D01*
G01*
X68815000Y-39150000D01*
G75*
G02*
X68630000Y-38965000I0J185000D01*
G01*
G37*
G36*
G01*
X58670000Y-57425000D02*
X58670000Y-57225000D01*
G75*
G02*
X58770000Y-57125000I100000J0D01*
G01*
X60045000Y-57125000D01*
G75*
G02*
X60145000Y-57225000I0J-100000D01*
G01*
X60145000Y-57425000D01*
G75*
G02*
X60045000Y-57525000I-100000J0D01*
G01*
X58770000Y-57525000D01*
G75*
G02*
X58670000Y-57425000I0J100000D01*
G01*
G37*
G36*
G01*
X58670000Y-58075000D02*
X58670000Y-57875000D01*
G75*
G02*
X58770000Y-57775000I100000J0D01*
G01*
X60045000Y-57775000D01*
G75*
G02*
X60145000Y-57875000I0J-100000D01*
G01*
X60145000Y-58075000D01*
G75*
G02*
X60045000Y-58175000I-100000J0D01*
G01*
X58770000Y-58175000D01*
G75*
G02*
X58670000Y-58075000I0J100000D01*
G01*
G37*
G36*
G01*
X58670000Y-58725000D02*
X58670000Y-58525000D01*
G75*
G02*
X58770000Y-58425000I100000J0D01*
G01*
X60045000Y-58425000D01*
G75*
G02*
X60145000Y-58525000I0J-100000D01*
G01*
X60145000Y-58725000D01*
G75*
G02*
X60045000Y-58825000I-100000J0D01*
G01*
X58770000Y-58825000D01*
G75*
G02*
X58670000Y-58725000I0J100000D01*
G01*
G37*
G36*
G01*
X58670000Y-59375000D02*
X58670000Y-59175000D01*
G75*
G02*
X58770000Y-59075000I100000J0D01*
G01*
X60045000Y-59075000D01*
G75*
G02*
X60145000Y-59175000I0J-100000D01*
G01*
X60145000Y-59375000D01*
G75*
G02*
X60045000Y-59475000I-100000J0D01*
G01*
X58770000Y-59475000D01*
G75*
G02*
X58670000Y-59375000I0J100000D01*
G01*
G37*
G36*
G01*
X58670000Y-60025000D02*
X58670000Y-59825000D01*
G75*
G02*
X58770000Y-59725000I100000J0D01*
G01*
X60045000Y-59725000D01*
G75*
G02*
X60145000Y-59825000I0J-100000D01*
G01*
X60145000Y-60025000D01*
G75*
G02*
X60045000Y-60125000I-100000J0D01*
G01*
X58770000Y-60125000D01*
G75*
G02*
X58670000Y-60025000I0J100000D01*
G01*
G37*
G36*
G01*
X58670000Y-60675000D02*
X58670000Y-60475000D01*
G75*
G02*
X58770000Y-60375000I100000J0D01*
G01*
X60045000Y-60375000D01*
G75*
G02*
X60145000Y-60475000I0J-100000D01*
G01*
X60145000Y-60675000D01*
G75*
G02*
X60045000Y-60775000I-100000J0D01*
G01*
X58770000Y-60775000D01*
G75*
G02*
X58670000Y-60675000I0J100000D01*
G01*
G37*
G36*
G01*
X58670000Y-61325000D02*
X58670000Y-61125000D01*
G75*
G02*
X58770000Y-61025000I100000J0D01*
G01*
X60045000Y-61025000D01*
G75*
G02*
X60145000Y-61125000I0J-100000D01*
G01*
X60145000Y-61325000D01*
G75*
G02*
X60045000Y-61425000I-100000J0D01*
G01*
X58770000Y-61425000D01*
G75*
G02*
X58670000Y-61325000I0J100000D01*
G01*
G37*
G36*
G01*
X58670000Y-61975000D02*
X58670000Y-61775000D01*
G75*
G02*
X58770000Y-61675000I100000J0D01*
G01*
X60045000Y-61675000D01*
G75*
G02*
X60145000Y-61775000I0J-100000D01*
G01*
X60145000Y-61975000D01*
G75*
G02*
X60045000Y-62075000I-100000J0D01*
G01*
X58770000Y-62075000D01*
G75*
G02*
X58670000Y-61975000I0J100000D01*
G01*
G37*
G36*
G01*
X58670000Y-62625000D02*
X58670000Y-62425000D01*
G75*
G02*
X58770000Y-62325000I100000J0D01*
G01*
X60045000Y-62325000D01*
G75*
G02*
X60145000Y-62425000I0J-100000D01*
G01*
X60145000Y-62625000D01*
G75*
G02*
X60045000Y-62725000I-100000J0D01*
G01*
X58770000Y-62725000D01*
G75*
G02*
X58670000Y-62625000I0J100000D01*
G01*
G37*
G36*
G01*
X58670000Y-63275000D02*
X58670000Y-63075000D01*
G75*
G02*
X58770000Y-62975000I100000J0D01*
G01*
X60045000Y-62975000D01*
G75*
G02*
X60145000Y-63075000I0J-100000D01*
G01*
X60145000Y-63275000D01*
G75*
G02*
X60045000Y-63375000I-100000J0D01*
G01*
X58770000Y-63375000D01*
G75*
G02*
X58670000Y-63275000I0J100000D01*
G01*
G37*
G36*
G01*
X58670000Y-63925000D02*
X58670000Y-63725000D01*
G75*
G02*
X58770000Y-63625000I100000J0D01*
G01*
X60045000Y-63625000D01*
G75*
G02*
X60145000Y-63725000I0J-100000D01*
G01*
X60145000Y-63925000D01*
G75*
G02*
X60045000Y-64025000I-100000J0D01*
G01*
X58770000Y-64025000D01*
G75*
G02*
X58670000Y-63925000I0J100000D01*
G01*
G37*
G36*
G01*
X58670000Y-64575000D02*
X58670000Y-64375000D01*
G75*
G02*
X58770000Y-64275000I100000J0D01*
G01*
X60045000Y-64275000D01*
G75*
G02*
X60145000Y-64375000I0J-100000D01*
G01*
X60145000Y-64575000D01*
G75*
G02*
X60045000Y-64675000I-100000J0D01*
G01*
X58770000Y-64675000D01*
G75*
G02*
X58670000Y-64575000I0J100000D01*
G01*
G37*
G36*
G01*
X64395000Y-64575000D02*
X64395000Y-64375000D01*
G75*
G02*
X64495000Y-64275000I100000J0D01*
G01*
X65770000Y-64275000D01*
G75*
G02*
X65870000Y-64375000I0J-100000D01*
G01*
X65870000Y-64575000D01*
G75*
G02*
X65770000Y-64675000I-100000J0D01*
G01*
X64495000Y-64675000D01*
G75*
G02*
X64395000Y-64575000I0J100000D01*
G01*
G37*
G36*
G01*
X64395000Y-63925000D02*
X64395000Y-63725000D01*
G75*
G02*
X64495000Y-63625000I100000J0D01*
G01*
X65770000Y-63625000D01*
G75*
G02*
X65870000Y-63725000I0J-100000D01*
G01*
X65870000Y-63925000D01*
G75*
G02*
X65770000Y-64025000I-100000J0D01*
G01*
X64495000Y-64025000D01*
G75*
G02*
X64395000Y-63925000I0J100000D01*
G01*
G37*
G36*
G01*
X64395000Y-63275000D02*
X64395000Y-63075000D01*
G75*
G02*
X64495000Y-62975000I100000J0D01*
G01*
X65770000Y-62975000D01*
G75*
G02*
X65870000Y-63075000I0J-100000D01*
G01*
X65870000Y-63275000D01*
G75*
G02*
X65770000Y-63375000I-100000J0D01*
G01*
X64495000Y-63375000D01*
G75*
G02*
X64395000Y-63275000I0J100000D01*
G01*
G37*
G36*
G01*
X64395000Y-62625000D02*
X64395000Y-62425000D01*
G75*
G02*
X64495000Y-62325000I100000J0D01*
G01*
X65770000Y-62325000D01*
G75*
G02*
X65870000Y-62425000I0J-100000D01*
G01*
X65870000Y-62625000D01*
G75*
G02*
X65770000Y-62725000I-100000J0D01*
G01*
X64495000Y-62725000D01*
G75*
G02*
X64395000Y-62625000I0J100000D01*
G01*
G37*
G36*
G01*
X64395000Y-61975000D02*
X64395000Y-61775000D01*
G75*
G02*
X64495000Y-61675000I100000J0D01*
G01*
X65770000Y-61675000D01*
G75*
G02*
X65870000Y-61775000I0J-100000D01*
G01*
X65870000Y-61975000D01*
G75*
G02*
X65770000Y-62075000I-100000J0D01*
G01*
X64495000Y-62075000D01*
G75*
G02*
X64395000Y-61975000I0J100000D01*
G01*
G37*
G36*
G01*
X64395000Y-61325000D02*
X64395000Y-61125000D01*
G75*
G02*
X64495000Y-61025000I100000J0D01*
G01*
X65770000Y-61025000D01*
G75*
G02*
X65870000Y-61125000I0J-100000D01*
G01*
X65870000Y-61325000D01*
G75*
G02*
X65770000Y-61425000I-100000J0D01*
G01*
X64495000Y-61425000D01*
G75*
G02*
X64395000Y-61325000I0J100000D01*
G01*
G37*
G36*
G01*
X64395000Y-60675000D02*
X64395000Y-60475000D01*
G75*
G02*
X64495000Y-60375000I100000J0D01*
G01*
X65770000Y-60375000D01*
G75*
G02*
X65870000Y-60475000I0J-100000D01*
G01*
X65870000Y-60675000D01*
G75*
G02*
X65770000Y-60775000I-100000J0D01*
G01*
X64495000Y-60775000D01*
G75*
G02*
X64395000Y-60675000I0J100000D01*
G01*
G37*
G36*
G01*
X64395000Y-60025000D02*
X64395000Y-59825000D01*
G75*
G02*
X64495000Y-59725000I100000J0D01*
G01*
X65770000Y-59725000D01*
G75*
G02*
X65870000Y-59825000I0J-100000D01*
G01*
X65870000Y-60025000D01*
G75*
G02*
X65770000Y-60125000I-100000J0D01*
G01*
X64495000Y-60125000D01*
G75*
G02*
X64395000Y-60025000I0J100000D01*
G01*
G37*
G36*
G01*
X64395000Y-59375000D02*
X64395000Y-59175000D01*
G75*
G02*
X64495000Y-59075000I100000J0D01*
G01*
X65770000Y-59075000D01*
G75*
G02*
X65870000Y-59175000I0J-100000D01*
G01*
X65870000Y-59375000D01*
G75*
G02*
X65770000Y-59475000I-100000J0D01*
G01*
X64495000Y-59475000D01*
G75*
G02*
X64395000Y-59375000I0J100000D01*
G01*
G37*
G36*
G01*
X64395000Y-58725000D02*
X64395000Y-58525000D01*
G75*
G02*
X64495000Y-58425000I100000J0D01*
G01*
X65770000Y-58425000D01*
G75*
G02*
X65870000Y-58525000I0J-100000D01*
G01*
X65870000Y-58725000D01*
G75*
G02*
X65770000Y-58825000I-100000J0D01*
G01*
X64495000Y-58825000D01*
G75*
G02*
X64395000Y-58725000I0J100000D01*
G01*
G37*
G36*
G01*
X64395000Y-58075000D02*
X64395000Y-57875000D01*
G75*
G02*
X64495000Y-57775000I100000J0D01*
G01*
X65770000Y-57775000D01*
G75*
G02*
X65870000Y-57875000I0J-100000D01*
G01*
X65870000Y-58075000D01*
G75*
G02*
X65770000Y-58175000I-100000J0D01*
G01*
X64495000Y-58175000D01*
G75*
G02*
X64395000Y-58075000I0J100000D01*
G01*
G37*
G36*
G01*
X64395000Y-57425000D02*
X64395000Y-57225000D01*
G75*
G02*
X64495000Y-57125000I100000J0D01*
G01*
X65770000Y-57125000D01*
G75*
G02*
X65870000Y-57225000I0J-100000D01*
G01*
X65870000Y-57425000D01*
G75*
G02*
X65770000Y-57525000I-100000J0D01*
G01*
X64495000Y-57525000D01*
G75*
G02*
X64395000Y-57425000I0J100000D01*
G01*
G37*
G36*
G01*
X57250000Y-63050000D02*
X57250000Y-62850000D01*
G75*
G02*
X57350000Y-62750000I100000J0D01*
G01*
X57650000Y-62750000D01*
G75*
G02*
X57750000Y-62850000I0J-100000D01*
G01*
X57750000Y-63050000D01*
G75*
G02*
X57650000Y-63150000I-100000J0D01*
G01*
X57350000Y-63150000D01*
G75*
G02*
X57250000Y-63050000I0J100000D01*
G01*
G37*
G36*
G01*
X57250000Y-62525000D02*
X57250000Y-62375000D01*
G75*
G02*
X57325000Y-62300000I75000J0D01*
G01*
X57675000Y-62300000D01*
G75*
G02*
X57750000Y-62375000I0J-75000D01*
G01*
X57750000Y-62525000D01*
G75*
G02*
X57675000Y-62600000I-75000J0D01*
G01*
X57325000Y-62600000D01*
G75*
G02*
X57250000Y-62525000I0J75000D01*
G01*
G37*
G36*
G01*
X57250000Y-61550000D02*
X57250000Y-61350000D01*
G75*
G02*
X57350000Y-61250000I100000J0D01*
G01*
X57650000Y-61250000D01*
G75*
G02*
X57750000Y-61350000I0J-100000D01*
G01*
X57750000Y-61550000D01*
G75*
G02*
X57650000Y-61650000I-100000J0D01*
G01*
X57350000Y-61650000D01*
G75*
G02*
X57250000Y-61550000I0J100000D01*
G01*
G37*
G36*
G01*
X57250000Y-62025000D02*
X57250000Y-61875000D01*
G75*
G02*
X57325000Y-61800000I75000J0D01*
G01*
X57675000Y-61800000D01*
G75*
G02*
X57750000Y-61875000I0J-75000D01*
G01*
X57750000Y-62025000D01*
G75*
G02*
X57675000Y-62100000I-75000J0D01*
G01*
X57325000Y-62100000D01*
G75*
G02*
X57250000Y-62025000I0J75000D01*
G01*
G37*
G36*
G01*
X56250000Y-63050000D02*
X56250000Y-62850000D01*
G75*
G02*
X56350000Y-62750000I100000J0D01*
G01*
X56650000Y-62750000D01*
G75*
G02*
X56750000Y-62850000I0J-100000D01*
G01*
X56750000Y-63050000D01*
G75*
G02*
X56650000Y-63150000I-100000J0D01*
G01*
X56350000Y-63150000D01*
G75*
G02*
X56250000Y-63050000I0J100000D01*
G01*
G37*
G36*
G01*
X56250000Y-62025000D02*
X56250000Y-61875000D01*
G75*
G02*
X56325000Y-61800000I75000J0D01*
G01*
X56675000Y-61800000D01*
G75*
G02*
X56750000Y-61875000I0J-75000D01*
G01*
X56750000Y-62025000D01*
G75*
G02*
X56675000Y-62100000I-75000J0D01*
G01*
X56325000Y-62100000D01*
G75*
G02*
X56250000Y-62025000I0J75000D01*
G01*
G37*
G36*
G01*
X56250000Y-62525000D02*
X56250000Y-62375000D01*
G75*
G02*
X56325000Y-62300000I75000J0D01*
G01*
X56675000Y-62300000D01*
G75*
G02*
X56750000Y-62375000I0J-75000D01*
G01*
X56750000Y-62525000D01*
G75*
G02*
X56675000Y-62600000I-75000J0D01*
G01*
X56325000Y-62600000D01*
G75*
G02*
X56250000Y-62525000I0J75000D01*
G01*
G37*
G36*
G01*
X56250000Y-61550000D02*
X56250000Y-61350000D01*
G75*
G02*
X56350000Y-61250000I100000J0D01*
G01*
X56650000Y-61250000D01*
G75*
G02*
X56750000Y-61350000I0J-100000D01*
G01*
X56750000Y-61550000D01*
G75*
G02*
X56650000Y-61650000I-100000J0D01*
G01*
X56350000Y-61650000D01*
G75*
G02*
X56250000Y-61550000I0J100000D01*
G01*
G37*
G36*
G01*
X56672500Y-57795000D02*
X56327500Y-57795000D01*
G75*
G02*
X56180000Y-57647500I0J147500D01*
G01*
X56180000Y-57352500D01*
G75*
G02*
X56327500Y-57205000I147500J0D01*
G01*
X56672500Y-57205000D01*
G75*
G02*
X56820000Y-57352500I0J-147500D01*
G01*
X56820000Y-57647500D01*
G75*
G02*
X56672500Y-57795000I-147500J0D01*
G01*
G37*
G36*
G01*
X56672500Y-56825000D02*
X56327500Y-56825000D01*
G75*
G02*
X56180000Y-56677500I0J147500D01*
G01*
X56180000Y-56382500D01*
G75*
G02*
X56327500Y-56235000I147500J0D01*
G01*
X56672500Y-56235000D01*
G75*
G02*
X56820000Y-56382500I0J-147500D01*
G01*
X56820000Y-56677500D01*
G75*
G02*
X56672500Y-56825000I-147500J0D01*
G01*
G37*
G36*
G01*
X44922500Y-49430000D02*
X44577500Y-49430000D01*
G75*
G02*
X44430000Y-49282500I0J147500D01*
G01*
X44430000Y-48987500D01*
G75*
G02*
X44577500Y-48840000I147500J0D01*
G01*
X44922500Y-48840000D01*
G75*
G02*
X45070000Y-48987500I0J-147500D01*
G01*
X45070000Y-49282500D01*
G75*
G02*
X44922500Y-49430000I-147500J0D01*
G01*
G37*
G36*
G01*
X44922500Y-48460000D02*
X44577500Y-48460000D01*
G75*
G02*
X44430000Y-48312500I0J147500D01*
G01*
X44430000Y-48017500D01*
G75*
G02*
X44577500Y-47870000I147500J0D01*
G01*
X44922500Y-47870000D01*
G75*
G02*
X45070000Y-48017500I0J-147500D01*
G01*
X45070000Y-48312500D01*
G75*
G02*
X44922500Y-48460000I-147500J0D01*
G01*
G37*
G36*
G01*
X39922500Y-48460000D02*
X39577500Y-48460000D01*
G75*
G02*
X39430000Y-48312500I0J147500D01*
G01*
X39430000Y-48017500D01*
G75*
G02*
X39577500Y-47870000I147500J0D01*
G01*
X39922500Y-47870000D01*
G75*
G02*
X40070000Y-48017500I0J-147500D01*
G01*
X40070000Y-48312500D01*
G75*
G02*
X39922500Y-48460000I-147500J0D01*
G01*
G37*
G36*
G01*
X39922500Y-49430000D02*
X39577500Y-49430000D01*
G75*
G02*
X39430000Y-49282500I0J147500D01*
G01*
X39430000Y-48987500D01*
G75*
G02*
X39577500Y-48840000I147500J0D01*
G01*
X39922500Y-48840000D01*
G75*
G02*
X40070000Y-48987500I0J-147500D01*
G01*
X40070000Y-49282500D01*
G75*
G02*
X39922500Y-49430000I-147500J0D01*
G01*
G37*
G36*
G01*
X44922500Y-45180000D02*
X44577500Y-45180000D01*
G75*
G02*
X44430000Y-45032500I0J147500D01*
G01*
X44430000Y-44737500D01*
G75*
G02*
X44577500Y-44590000I147500J0D01*
G01*
X44922500Y-44590000D01*
G75*
G02*
X45070000Y-44737500I0J-147500D01*
G01*
X45070000Y-45032500D01*
G75*
G02*
X44922500Y-45180000I-147500J0D01*
G01*
G37*
G36*
G01*
X44922500Y-44210000D02*
X44577500Y-44210000D01*
G75*
G02*
X44430000Y-44062500I0J147500D01*
G01*
X44430000Y-43767500D01*
G75*
G02*
X44577500Y-43620000I147500J0D01*
G01*
X44922500Y-43620000D01*
G75*
G02*
X45070000Y-43767500I0J-147500D01*
G01*
X45070000Y-44062500D01*
G75*
G02*
X44922500Y-44210000I-147500J0D01*
G01*
G37*
G36*
G01*
X39922500Y-45165000D02*
X39577500Y-45165000D01*
G75*
G02*
X39430000Y-45017500I0J147500D01*
G01*
X39430000Y-44722500D01*
G75*
G02*
X39577500Y-44575000I147500J0D01*
G01*
X39922500Y-44575000D01*
G75*
G02*
X40070000Y-44722500I0J-147500D01*
G01*
X40070000Y-45017500D01*
G75*
G02*
X39922500Y-45165000I-147500J0D01*
G01*
G37*
G36*
G01*
X39922500Y-44195000D02*
X39577500Y-44195000D01*
G75*
G02*
X39430000Y-44047500I0J147500D01*
G01*
X39430000Y-43752500D01*
G75*
G02*
X39577500Y-43605000I147500J0D01*
G01*
X39922500Y-43605000D01*
G75*
G02*
X40070000Y-43752500I0J-147500D01*
G01*
X40070000Y-44047500D01*
G75*
G02*
X39922500Y-44195000I-147500J0D01*
G01*
G37*
G36*
G01*
X43295000Y-57727500D02*
X43295000Y-58072500D01*
G75*
G02*
X43147500Y-58220000I-147500J0D01*
G01*
X42852500Y-58220000D01*
G75*
G02*
X42705000Y-58072500I0J147500D01*
G01*
X42705000Y-57727500D01*
G75*
G02*
X42852500Y-57580000I147500J0D01*
G01*
X43147500Y-57580000D01*
G75*
G02*
X43295000Y-57727500I0J-147500D01*
G01*
G37*
G36*
G01*
X42325000Y-57727500D02*
X42325000Y-58072500D01*
G75*
G02*
X42177500Y-58220000I-147500J0D01*
G01*
X41882500Y-58220000D01*
G75*
G02*
X41735000Y-58072500I0J147500D01*
G01*
X41735000Y-57727500D01*
G75*
G02*
X41882500Y-57580000I147500J0D01*
G01*
X42177500Y-57580000D01*
G75*
G02*
X42325000Y-57727500I0J-147500D01*
G01*
G37*
G36*
G01*
X42325000Y-56727500D02*
X42325000Y-57072500D01*
G75*
G02*
X42177500Y-57220000I-147500J0D01*
G01*
X41882500Y-57220000D01*
G75*
G02*
X41735000Y-57072500I0J147500D01*
G01*
X41735000Y-56727500D01*
G75*
G02*
X41882500Y-56580000I147500J0D01*
G01*
X42177500Y-56580000D01*
G75*
G02*
X42325000Y-56727500I0J-147500D01*
G01*
G37*
G36*
G01*
X43295000Y-56727500D02*
X43295000Y-57072500D01*
G75*
G02*
X43147500Y-57220000I-147500J0D01*
G01*
X42852500Y-57220000D01*
G75*
G02*
X42705000Y-57072500I0J147500D01*
G01*
X42705000Y-56727500D01*
G75*
G02*
X42852500Y-56580000I147500J0D01*
G01*
X43147500Y-56580000D01*
G75*
G02*
X43295000Y-56727500I0J-147500D01*
G01*
G37*
G36*
G01*
X42325000Y-61727500D02*
X42325000Y-62072500D01*
G75*
G02*
X42177500Y-62220000I-147500J0D01*
G01*
X41882500Y-62220000D01*
G75*
G02*
X41735000Y-62072500I0J147500D01*
G01*
X41735000Y-61727500D01*
G75*
G02*
X41882500Y-61580000I147500J0D01*
G01*
X42177500Y-61580000D01*
G75*
G02*
X42325000Y-61727500I0J-147500D01*
G01*
G37*
G36*
G01*
X43295000Y-61727500D02*
X43295000Y-62072500D01*
G75*
G02*
X43147500Y-62220000I-147500J0D01*
G01*
X42852500Y-62220000D01*
G75*
G02*
X42705000Y-62072500I0J147500D01*
G01*
X42705000Y-61727500D01*
G75*
G02*
X42852500Y-61580000I147500J0D01*
G01*
X43147500Y-61580000D01*
G75*
G02*
X43295000Y-61727500I0J-147500D01*
G01*
G37*
G36*
G01*
X42325000Y-60727500D02*
X42325000Y-61072500D01*
G75*
G02*
X42177500Y-61220000I-147500J0D01*
G01*
X41882500Y-61220000D01*
G75*
G02*
X41735000Y-61072500I0J147500D01*
G01*
X41735000Y-60727500D01*
G75*
G02*
X41882500Y-60580000I147500J0D01*
G01*
X42177500Y-60580000D01*
G75*
G02*
X42325000Y-60727500I0J-147500D01*
G01*
G37*
G36*
G01*
X43295000Y-60727500D02*
X43295000Y-61072500D01*
G75*
G02*
X43147500Y-61220000I-147500J0D01*
G01*
X42852500Y-61220000D01*
G75*
G02*
X42705000Y-61072500I0J147500D01*
G01*
X42705000Y-60727500D01*
G75*
G02*
X42852500Y-60580000I147500J0D01*
G01*
X43147500Y-60580000D01*
G75*
G02*
X43295000Y-60727500I0J-147500D01*
G01*
G37*
G36*
G01*
X54172500Y-53445000D02*
X53827500Y-53445000D01*
G75*
G02*
X53680000Y-53297500I0J147500D01*
G01*
X53680000Y-53002500D01*
G75*
G02*
X53827500Y-52855000I147500J0D01*
G01*
X54172500Y-52855000D01*
G75*
G02*
X54320000Y-53002500I0J-147500D01*
G01*
X54320000Y-53297500D01*
G75*
G02*
X54172500Y-53445000I-147500J0D01*
G01*
G37*
G36*
G01*
X54172500Y-54415000D02*
X53827500Y-54415000D01*
G75*
G02*
X53680000Y-54267500I0J147500D01*
G01*
X53680000Y-53972500D01*
G75*
G02*
X53827500Y-53825000I147500J0D01*
G01*
X54172500Y-53825000D01*
G75*
G02*
X54320000Y-53972500I0J-147500D01*
G01*
X54320000Y-54267500D01*
G75*
G02*
X54172500Y-54415000I-147500J0D01*
G01*
G37*
G36*
G01*
X53172500Y-54415000D02*
X52827500Y-54415000D01*
G75*
G02*
X52680000Y-54267500I0J147500D01*
G01*
X52680000Y-53972500D01*
G75*
G02*
X52827500Y-53825000I147500J0D01*
G01*
X53172500Y-53825000D01*
G75*
G02*
X53320000Y-53972500I0J-147500D01*
G01*
X53320000Y-54267500D01*
G75*
G02*
X53172500Y-54415000I-147500J0D01*
G01*
G37*
G36*
G01*
X53172500Y-53445000D02*
X52827500Y-53445000D01*
G75*
G02*
X52680000Y-53297500I0J147500D01*
G01*
X52680000Y-53002500D01*
G75*
G02*
X52827500Y-52855000I147500J0D01*
G01*
X53172500Y-52855000D01*
G75*
G02*
X53320000Y-53002500I0J-147500D01*
G01*
X53320000Y-53297500D01*
G75*
G02*
X53172500Y-53445000I-147500J0D01*
G01*
G37*
G36*
G01*
X43295000Y-63727500D02*
X43295000Y-64072500D01*
G75*
G02*
X43147500Y-64220000I-147500J0D01*
G01*
X42852500Y-64220000D01*
G75*
G02*
X42705000Y-64072500I0J147500D01*
G01*
X42705000Y-63727500D01*
G75*
G02*
X42852500Y-63580000I147500J0D01*
G01*
X43147500Y-63580000D01*
G75*
G02*
X43295000Y-63727500I0J-147500D01*
G01*
G37*
G36*
G01*
X42325000Y-63727500D02*
X42325000Y-64072500D01*
G75*
G02*
X42177500Y-64220000I-147500J0D01*
G01*
X41882500Y-64220000D01*
G75*
G02*
X41735000Y-64072500I0J147500D01*
G01*
X41735000Y-63727500D01*
G75*
G02*
X41882500Y-63580000I147500J0D01*
G01*
X42177500Y-63580000D01*
G75*
G02*
X42325000Y-63727500I0J-147500D01*
G01*
G37*
G36*
G01*
X56235000Y-64322500D02*
X56235000Y-63977500D01*
G75*
G02*
X56382500Y-63830000I147500J0D01*
G01*
X56677500Y-63830000D01*
G75*
G02*
X56825000Y-63977500I0J-147500D01*
G01*
X56825000Y-64322500D01*
G75*
G02*
X56677500Y-64470000I-147500J0D01*
G01*
X56382500Y-64470000D01*
G75*
G02*
X56235000Y-64322500I0J147500D01*
G01*
G37*
G36*
G01*
X57205000Y-64322500D02*
X57205000Y-63977500D01*
G75*
G02*
X57352500Y-63830000I147500J0D01*
G01*
X57647500Y-63830000D01*
G75*
G02*
X57795000Y-63977500I0J-147500D01*
G01*
X57795000Y-64322500D01*
G75*
G02*
X57647500Y-64470000I-147500J0D01*
G01*
X57352500Y-64470000D01*
G75*
G02*
X57205000Y-64322500I0J147500D01*
G01*
G37*
G36*
G01*
X44672500Y-53460000D02*
X44327500Y-53460000D01*
G75*
G02*
X44180000Y-53312500I0J147500D01*
G01*
X44180000Y-53017500D01*
G75*
G02*
X44327500Y-52870000I147500J0D01*
G01*
X44672500Y-52870000D01*
G75*
G02*
X44820000Y-53017500I0J-147500D01*
G01*
X44820000Y-53312500D01*
G75*
G02*
X44672500Y-53460000I-147500J0D01*
G01*
G37*
G36*
G01*
X44672500Y-54430000D02*
X44327500Y-54430000D01*
G75*
G02*
X44180000Y-54282500I0J147500D01*
G01*
X44180000Y-53987500D01*
G75*
G02*
X44327500Y-53840000I147500J0D01*
G01*
X44672500Y-53840000D01*
G75*
G02*
X44820000Y-53987500I0J-147500D01*
G01*
X44820000Y-54282500D01*
G75*
G02*
X44672500Y-54430000I-147500J0D01*
G01*
G37*
G36*
G01*
X42325000Y-65727500D02*
X42325000Y-66072500D01*
G75*
G02*
X42177500Y-66220000I-147500J0D01*
G01*
X41882500Y-66220000D01*
G75*
G02*
X41735000Y-66072500I0J147500D01*
G01*
X41735000Y-65727500D01*
G75*
G02*
X41882500Y-65580000I147500J0D01*
G01*
X42177500Y-65580000D01*
G75*
G02*
X42325000Y-65727500I0J-147500D01*
G01*
G37*
G36*
G01*
X43295000Y-65727500D02*
X43295000Y-66072500D01*
G75*
G02*
X43147500Y-66220000I-147500J0D01*
G01*
X42852500Y-66220000D01*
G75*
G02*
X42705000Y-66072500I0J147500D01*
G01*
X42705000Y-65727500D01*
G75*
G02*
X42852500Y-65580000I147500J0D01*
G01*
X43147500Y-65580000D01*
G75*
G02*
X43295000Y-65727500I0J-147500D01*
G01*
G37*
G36*
G01*
X57205000Y-66072500D02*
X57205000Y-65727500D01*
G75*
G02*
X57352500Y-65580000I147500J0D01*
G01*
X57647500Y-65580000D01*
G75*
G02*
X57795000Y-65727500I0J-147500D01*
G01*
X57795000Y-66072500D01*
G75*
G02*
X57647500Y-66220000I-147500J0D01*
G01*
X57352500Y-66220000D01*
G75*
G02*
X57205000Y-66072500I0J147500D01*
G01*
G37*
G36*
G01*
X56235000Y-66072500D02*
X56235000Y-65727500D01*
G75*
G02*
X56382500Y-65580000I147500J0D01*
G01*
X56677500Y-65580000D01*
G75*
G02*
X56825000Y-65727500I0J-147500D01*
G01*
X56825000Y-66072500D01*
G75*
G02*
X56677500Y-66220000I-147500J0D01*
G01*
X56382500Y-66220000D01*
G75*
G02*
X56235000Y-66072500I0J147500D01*
G01*
G37*
G36*
G01*
X52172500Y-53445000D02*
X51827500Y-53445000D01*
G75*
G02*
X51680000Y-53297500I0J147500D01*
G01*
X51680000Y-53002500D01*
G75*
G02*
X51827500Y-52855000I147500J0D01*
G01*
X52172500Y-52855000D01*
G75*
G02*
X52320000Y-53002500I0J-147500D01*
G01*
X52320000Y-53297500D01*
G75*
G02*
X52172500Y-53445000I-147500J0D01*
G01*
G37*
G36*
G01*
X52172500Y-54415000D02*
X51827500Y-54415000D01*
G75*
G02*
X51680000Y-54267500I0J147500D01*
G01*
X51680000Y-53972500D01*
G75*
G02*
X51827500Y-53825000I147500J0D01*
G01*
X52172500Y-53825000D01*
G75*
G02*
X52320000Y-53972500I0J-147500D01*
G01*
X52320000Y-54267500D01*
G75*
G02*
X52172500Y-54415000I-147500J0D01*
G01*
G37*
G36*
G01*
X45327500Y-52870000D02*
X45672500Y-52870000D01*
G75*
G02*
X45820000Y-53017500I0J-147500D01*
G01*
X45820000Y-53312500D01*
G75*
G02*
X45672500Y-53460000I-147500J0D01*
G01*
X45327500Y-53460000D01*
G75*
G02*
X45180000Y-53312500I0J147500D01*
G01*
X45180000Y-53017500D01*
G75*
G02*
X45327500Y-52870000I147500J0D01*
G01*
G37*
G36*
G01*
X45327500Y-53840000D02*
X45672500Y-53840000D01*
G75*
G02*
X45820000Y-53987500I0J-147500D01*
G01*
X45820000Y-54282500D01*
G75*
G02*
X45672500Y-54430000I-147500J0D01*
G01*
X45327500Y-54430000D01*
G75*
G02*
X45180000Y-54282500I0J147500D01*
G01*
X45180000Y-53987500D01*
G75*
G02*
X45327500Y-53840000I147500J0D01*
G01*
G37*
G36*
G01*
X59675000Y-46307500D02*
X59675000Y-45962500D01*
G75*
G02*
X59822500Y-45815000I147500J0D01*
G01*
X60117500Y-45815000D01*
G75*
G02*
X60265000Y-45962500I0J-147500D01*
G01*
X60265000Y-46307500D01*
G75*
G02*
X60117500Y-46455000I-147500J0D01*
G01*
X59822500Y-46455000D01*
G75*
G02*
X59675000Y-46307500I0J147500D01*
G01*
G37*
G36*
G01*
X58705000Y-46307500D02*
X58705000Y-45962500D01*
G75*
G02*
X58852500Y-45815000I147500J0D01*
G01*
X59147500Y-45815000D01*
G75*
G02*
X59295000Y-45962500I0J-147500D01*
G01*
X59295000Y-46307500D01*
G75*
G02*
X59147500Y-46455000I-147500J0D01*
G01*
X58852500Y-46455000D01*
G75*
G02*
X58705000Y-46307500I0J147500D01*
G01*
G37*
G36*
G01*
X59705000Y-56307500D02*
X59705000Y-55962500D01*
G75*
G02*
X59852500Y-55815000I147500J0D01*
G01*
X60147500Y-55815000D01*
G75*
G02*
X60295000Y-55962500I0J-147500D01*
G01*
X60295000Y-56307500D01*
G75*
G02*
X60147500Y-56455000I-147500J0D01*
G01*
X59852500Y-56455000D01*
G75*
G02*
X59705000Y-56307500I0J147500D01*
G01*
G37*
G36*
G01*
X58735000Y-56307500D02*
X58735000Y-55962500D01*
G75*
G02*
X58882500Y-55815000I147500J0D01*
G01*
X59177500Y-55815000D01*
G75*
G02*
X59325000Y-55962500I0J-147500D01*
G01*
X59325000Y-56307500D01*
G75*
G02*
X59177500Y-56455000I-147500J0D01*
G01*
X58882500Y-56455000D01*
G75*
G02*
X58735000Y-56307500I0J147500D01*
G01*
G37*
G36*
G01*
X65795000Y-45962500D02*
X65795000Y-46307500D01*
G75*
G02*
X65647500Y-46455000I-147500J0D01*
G01*
X65352500Y-46455000D01*
G75*
G02*
X65205000Y-46307500I0J147500D01*
G01*
X65205000Y-45962500D01*
G75*
G02*
X65352500Y-45815000I147500J0D01*
G01*
X65647500Y-45815000D01*
G75*
G02*
X65795000Y-45962500I0J-147500D01*
G01*
G37*
G36*
G01*
X64825000Y-45962500D02*
X64825000Y-46307500D01*
G75*
G02*
X64677500Y-46455000I-147500J0D01*
G01*
X64382500Y-46455000D01*
G75*
G02*
X64235000Y-46307500I0J147500D01*
G01*
X64235000Y-45962500D01*
G75*
G02*
X64382500Y-45815000I147500J0D01*
G01*
X64677500Y-45815000D01*
G75*
G02*
X64825000Y-45962500I0J-147500D01*
G01*
G37*
G36*
G01*
X64795000Y-55977500D02*
X64795000Y-56322500D01*
G75*
G02*
X64647500Y-56470000I-147500J0D01*
G01*
X64352500Y-56470000D01*
G75*
G02*
X64205000Y-56322500I0J147500D01*
G01*
X64205000Y-55977500D01*
G75*
G02*
X64352500Y-55830000I147500J0D01*
G01*
X64647500Y-55830000D01*
G75*
G02*
X64795000Y-55977500I0J-147500D01*
G01*
G37*
G36*
G01*
X65765000Y-55977500D02*
X65765000Y-56322500D01*
G75*
G02*
X65617500Y-56470000I-147500J0D01*
G01*
X65322500Y-56470000D01*
G75*
G02*
X65175000Y-56322500I0J147500D01*
G01*
X65175000Y-55977500D01*
G75*
G02*
X65322500Y-55830000I147500J0D01*
G01*
X65617500Y-55830000D01*
G75*
G02*
X65765000Y-55977500I0J-147500D01*
G01*
G37*
G36*
G01*
X42045000Y-50727500D02*
X42045000Y-51072500D01*
G75*
G02*
X41897500Y-51220000I-147500J0D01*
G01*
X41602500Y-51220000D01*
G75*
G02*
X41455000Y-51072500I0J147500D01*
G01*
X41455000Y-50727500D01*
G75*
G02*
X41602500Y-50580000I147500J0D01*
G01*
X41897500Y-50580000D01*
G75*
G02*
X42045000Y-50727500I0J-147500D01*
G01*
G37*
G36*
G01*
X43015000Y-50727500D02*
X43015000Y-51072500D01*
G75*
G02*
X42867500Y-51220000I-147500J0D01*
G01*
X42572500Y-51220000D01*
G75*
G02*
X42425000Y-51072500I0J147500D01*
G01*
X42425000Y-50727500D01*
G75*
G02*
X42572500Y-50580000I147500J0D01*
G01*
X42867500Y-50580000D01*
G75*
G02*
X43015000Y-50727500I0J-147500D01*
G01*
G37*
G36*
G01*
X39172500Y-53445000D02*
X38827500Y-53445000D01*
G75*
G02*
X38680000Y-53297500I0J147500D01*
G01*
X38680000Y-53002500D01*
G75*
G02*
X38827500Y-52855000I147500J0D01*
G01*
X39172500Y-52855000D01*
G75*
G02*
X39320000Y-53002500I0J-147500D01*
G01*
X39320000Y-53297500D01*
G75*
G02*
X39172500Y-53445000I-147500J0D01*
G01*
G37*
G36*
G01*
X39172500Y-54415000D02*
X38827500Y-54415000D01*
G75*
G02*
X38680000Y-54267500I0J147500D01*
G01*
X38680000Y-53972500D01*
G75*
G02*
X38827500Y-53825000I147500J0D01*
G01*
X39172500Y-53825000D01*
G75*
G02*
X39320000Y-53972500I0J-147500D01*
G01*
X39320000Y-54267500D01*
G75*
G02*
X39172500Y-54415000I-147500J0D01*
G01*
G37*
G36*
G01*
X48663750Y-43397000D02*
X49176250Y-43397000D01*
G75*
G02*
X49395000Y-43615750I0J-218750D01*
G01*
X49395000Y-44053250D01*
G75*
G02*
X49176250Y-44272000I-218750J0D01*
G01*
X48663750Y-44272000D01*
G75*
G02*
X48445000Y-44053250I0J218750D01*
G01*
X48445000Y-43615750D01*
G75*
G02*
X48663750Y-43397000I218750J0D01*
G01*
G37*
G36*
G01*
X48663750Y-44972000D02*
X49176250Y-44972000D01*
G75*
G02*
X49395000Y-45190750I0J-218750D01*
G01*
X49395000Y-45628250D01*
G75*
G02*
X49176250Y-45847000I-218750J0D01*
G01*
X48663750Y-45847000D01*
G75*
G02*
X48445000Y-45628250I0J218750D01*
G01*
X48445000Y-45190750D01*
G75*
G02*
X48663750Y-44972000I218750J0D01*
G01*
G37*
G36*
G01*
X53743750Y-44972000D02*
X54256250Y-44972000D01*
G75*
G02*
X54475000Y-45190750I0J-218750D01*
G01*
X54475000Y-45628250D01*
G75*
G02*
X54256250Y-45847000I-218750J0D01*
G01*
X53743750Y-45847000D01*
G75*
G02*
X53525000Y-45628250I0J218750D01*
G01*
X53525000Y-45190750D01*
G75*
G02*
X53743750Y-44972000I218750J0D01*
G01*
G37*
G36*
G01*
X53743750Y-43397000D02*
X54256250Y-43397000D01*
G75*
G02*
X54475000Y-43615750I0J-218750D01*
G01*
X54475000Y-44053250D01*
G75*
G02*
X54256250Y-44272000I-218750J0D01*
G01*
X53743750Y-44272000D01*
G75*
G02*
X53525000Y-44053250I0J218750D01*
G01*
X53525000Y-43615750D01*
G75*
G02*
X53743750Y-43397000I218750J0D01*
G01*
G37*
G36*
G01*
X53743750Y-37301000D02*
X54256250Y-37301000D01*
G75*
G02*
X54475000Y-37519750I0J-218750D01*
G01*
X54475000Y-37957250D01*
G75*
G02*
X54256250Y-38176000I-218750J0D01*
G01*
X53743750Y-38176000D01*
G75*
G02*
X53525000Y-37957250I0J218750D01*
G01*
X53525000Y-37519750D01*
G75*
G02*
X53743750Y-37301000I218750J0D01*
G01*
G37*
G36*
G01*
X53743750Y-38876000D02*
X54256250Y-38876000D01*
G75*
G02*
X54475000Y-39094750I0J-218750D01*
G01*
X54475000Y-39532250D01*
G75*
G02*
X54256250Y-39751000I-218750J0D01*
G01*
X53743750Y-39751000D01*
G75*
G02*
X53525000Y-39532250I0J218750D01*
G01*
X53525000Y-39094750D01*
G75*
G02*
X53743750Y-38876000I218750J0D01*
G01*
G37*
G36*
G01*
X51203750Y-38876000D02*
X51716250Y-38876000D01*
G75*
G02*
X51935000Y-39094750I0J-218750D01*
G01*
X51935000Y-39532250D01*
G75*
G02*
X51716250Y-39751000I-218750J0D01*
G01*
X51203750Y-39751000D01*
G75*
G02*
X50985000Y-39532250I0J218750D01*
G01*
X50985000Y-39094750D01*
G75*
G02*
X51203750Y-38876000I218750J0D01*
G01*
G37*
G36*
G01*
X51203750Y-37301000D02*
X51716250Y-37301000D01*
G75*
G02*
X51935000Y-37519750I0J-218750D01*
G01*
X51935000Y-37957250D01*
G75*
G02*
X51716250Y-38176000I-218750J0D01*
G01*
X51203750Y-38176000D01*
G75*
G02*
X50985000Y-37957250I0J218750D01*
G01*
X50985000Y-37519750D01*
G75*
G02*
X51203750Y-37301000I218750J0D01*
G01*
G37*
G36*
G01*
X51203750Y-44972000D02*
X51716250Y-44972000D01*
G75*
G02*
X51935000Y-45190750I0J-218750D01*
G01*
X51935000Y-45628250D01*
G75*
G02*
X51716250Y-45847000I-218750J0D01*
G01*
X51203750Y-45847000D01*
G75*
G02*
X50985000Y-45628250I0J218750D01*
G01*
X50985000Y-45190750D01*
G75*
G02*
X51203750Y-44972000I218750J0D01*
G01*
G37*
G36*
G01*
X51203750Y-43397000D02*
X51716250Y-43397000D01*
G75*
G02*
X51935000Y-43615750I0J-218750D01*
G01*
X51935000Y-44053250D01*
G75*
G02*
X51716250Y-44272000I-218750J0D01*
G01*
X51203750Y-44272000D01*
G75*
G02*
X50985000Y-44053250I0J218750D01*
G01*
X50985000Y-43615750D01*
G75*
G02*
X51203750Y-43397000I218750J0D01*
G01*
G37*
G36*
G01*
X41735000Y-56072500D02*
X41735000Y-55727500D01*
G75*
G02*
X41882500Y-55580000I147500J0D01*
G01*
X42177500Y-55580000D01*
G75*
G02*
X42325000Y-55727500I0J-147500D01*
G01*
X42325000Y-56072500D01*
G75*
G02*
X42177500Y-56220000I-147500J0D01*
G01*
X41882500Y-56220000D01*
G75*
G02*
X41735000Y-56072500I0J147500D01*
G01*
G37*
G36*
G01*
X42705000Y-56072500D02*
X42705000Y-55727500D01*
G75*
G02*
X42852500Y-55580000I147500J0D01*
G01*
X43147500Y-55580000D01*
G75*
G02*
X43295000Y-55727500I0J-147500D01*
G01*
X43295000Y-56072500D01*
G75*
G02*
X43147500Y-56220000I-147500J0D01*
G01*
X42852500Y-56220000D01*
G75*
G02*
X42705000Y-56072500I0J147500D01*
G01*
G37*
G36*
G01*
X42705000Y-63072500D02*
X42705000Y-62727500D01*
G75*
G02*
X42852500Y-62580000I147500J0D01*
G01*
X43147500Y-62580000D01*
G75*
G02*
X43295000Y-62727500I0J-147500D01*
G01*
X43295000Y-63072500D01*
G75*
G02*
X43147500Y-63220000I-147500J0D01*
G01*
X42852500Y-63220000D01*
G75*
G02*
X42705000Y-63072500I0J147500D01*
G01*
G37*
G36*
G01*
X41735000Y-63072500D02*
X41735000Y-62727500D01*
G75*
G02*
X41882500Y-62580000I147500J0D01*
G01*
X42177500Y-62580000D01*
G75*
G02*
X42325000Y-62727500I0J-147500D01*
G01*
X42325000Y-63072500D01*
G75*
G02*
X42177500Y-63220000I-147500J0D01*
G01*
X41882500Y-63220000D01*
G75*
G02*
X41735000Y-63072500I0J147500D01*
G01*
G37*
G36*
G01*
X38827500Y-58590000D02*
X39172500Y-58590000D01*
G75*
G02*
X39320000Y-58737500I0J-147500D01*
G01*
X39320000Y-59032500D01*
G75*
G02*
X39172500Y-59180000I-147500J0D01*
G01*
X38827500Y-59180000D01*
G75*
G02*
X38680000Y-59032500I0J147500D01*
G01*
X38680000Y-58737500D01*
G75*
G02*
X38827500Y-58590000I147500J0D01*
G01*
G37*
G36*
G01*
X38827500Y-57620000D02*
X39172500Y-57620000D01*
G75*
G02*
X39320000Y-57767500I0J-147500D01*
G01*
X39320000Y-58062500D01*
G75*
G02*
X39172500Y-58210000I-147500J0D01*
G01*
X38827500Y-58210000D01*
G75*
G02*
X38680000Y-58062500I0J147500D01*
G01*
X38680000Y-57767500D01*
G75*
G02*
X38827500Y-57620000I147500J0D01*
G01*
G37*
G36*
G01*
X38827500Y-61635000D02*
X39172500Y-61635000D01*
G75*
G02*
X39320000Y-61782500I0J-147500D01*
G01*
X39320000Y-62077500D01*
G75*
G02*
X39172500Y-62225000I-147500J0D01*
G01*
X38827500Y-62225000D01*
G75*
G02*
X38680000Y-62077500I0J147500D01*
G01*
X38680000Y-61782500D01*
G75*
G02*
X38827500Y-61635000I147500J0D01*
G01*
G37*
G36*
G01*
X38827500Y-62605000D02*
X39172500Y-62605000D01*
G75*
G02*
X39320000Y-62752500I0J-147500D01*
G01*
X39320000Y-63047500D01*
G75*
G02*
X39172500Y-63195000I-147500J0D01*
G01*
X38827500Y-63195000D01*
G75*
G02*
X38680000Y-63047500I0J147500D01*
G01*
X38680000Y-62752500D01*
G75*
G02*
X38827500Y-62605000I147500J0D01*
G01*
G37*
G36*
G01*
X48753000Y-46735500D02*
X48753000Y-47080500D01*
G75*
G02*
X48605500Y-47228000I-147500J0D01*
G01*
X48310500Y-47228000D01*
G75*
G02*
X48163000Y-47080500I0J147500D01*
G01*
X48163000Y-46735500D01*
G75*
G02*
X48310500Y-46588000I147500J0D01*
G01*
X48605500Y-46588000D01*
G75*
G02*
X48753000Y-46735500I0J-147500D01*
G01*
G37*
G36*
G01*
X49723000Y-46735500D02*
X49723000Y-47080500D01*
G75*
G02*
X49575500Y-47228000I-147500J0D01*
G01*
X49280500Y-47228000D01*
G75*
G02*
X49133000Y-47080500I0J147500D01*
G01*
X49133000Y-46735500D01*
G75*
G02*
X49280500Y-46588000I147500J0D01*
G01*
X49575500Y-46588000D01*
G75*
G02*
X49723000Y-46735500I0J-147500D01*
G01*
G37*
G36*
G01*
X54780000Y-46735500D02*
X54780000Y-47080500D01*
G75*
G02*
X54632500Y-47228000I-147500J0D01*
G01*
X54337500Y-47228000D01*
G75*
G02*
X54190000Y-47080500I0J147500D01*
G01*
X54190000Y-46735500D01*
G75*
G02*
X54337500Y-46588000I147500J0D01*
G01*
X54632500Y-46588000D01*
G75*
G02*
X54780000Y-46735500I0J-147500D01*
G01*
G37*
G36*
G01*
X53810000Y-46735500D02*
X53810000Y-47080500D01*
G75*
G02*
X53662500Y-47228000I-147500J0D01*
G01*
X53367500Y-47228000D01*
G75*
G02*
X53220000Y-47080500I0J147500D01*
G01*
X53220000Y-46735500D01*
G75*
G02*
X53367500Y-46588000I147500J0D01*
G01*
X53662500Y-46588000D01*
G75*
G02*
X53810000Y-46735500I0J-147500D01*
G01*
G37*
G36*
G01*
X42705000Y-59072500D02*
X42705000Y-58727500D01*
G75*
G02*
X42852500Y-58580000I147500J0D01*
G01*
X43147500Y-58580000D01*
G75*
G02*
X43295000Y-58727500I0J-147500D01*
G01*
X43295000Y-59072500D01*
G75*
G02*
X43147500Y-59220000I-147500J0D01*
G01*
X42852500Y-59220000D01*
G75*
G02*
X42705000Y-59072500I0J147500D01*
G01*
G37*
G36*
G01*
X41735000Y-59072500D02*
X41735000Y-58727500D01*
G75*
G02*
X41882500Y-58580000I147500J0D01*
G01*
X42177500Y-58580000D01*
G75*
G02*
X42325000Y-58727500I0J-147500D01*
G01*
X42325000Y-59072500D01*
G75*
G02*
X42177500Y-59220000I-147500J0D01*
G01*
X41882500Y-59220000D01*
G75*
G02*
X41735000Y-59072500I0J147500D01*
G01*
G37*
G36*
G01*
X41735000Y-65072500D02*
X41735000Y-64727500D01*
G75*
G02*
X41882500Y-64580000I147500J0D01*
G01*
X42177500Y-64580000D01*
G75*
G02*
X42325000Y-64727500I0J-147500D01*
G01*
X42325000Y-65072500D01*
G75*
G02*
X42177500Y-65220000I-147500J0D01*
G01*
X41882500Y-65220000D01*
G75*
G02*
X41735000Y-65072500I0J147500D01*
G01*
G37*
G36*
G01*
X42705000Y-65072500D02*
X42705000Y-64727500D01*
G75*
G02*
X42852500Y-64580000I147500J0D01*
G01*
X43147500Y-64580000D01*
G75*
G02*
X43295000Y-64727500I0J-147500D01*
G01*
X43295000Y-65072500D01*
G75*
G02*
X43147500Y-65220000I-147500J0D01*
G01*
X42852500Y-65220000D01*
G75*
G02*
X42705000Y-65072500I0J147500D01*
G01*
G37*
G36*
G01*
X54213000Y-40984500D02*
X54213000Y-40639500D01*
G75*
G02*
X54360500Y-40492000I147500J0D01*
G01*
X54655500Y-40492000D01*
G75*
G02*
X54803000Y-40639500I0J-147500D01*
G01*
X54803000Y-40984500D01*
G75*
G02*
X54655500Y-41132000I-147500J0D01*
G01*
X54360500Y-41132000D01*
G75*
G02*
X54213000Y-40984500I0J147500D01*
G01*
G37*
G36*
G01*
X53243000Y-40984500D02*
X53243000Y-40639500D01*
G75*
G02*
X53390500Y-40492000I147500J0D01*
G01*
X53685500Y-40492000D01*
G75*
G02*
X53833000Y-40639500I0J-147500D01*
G01*
X53833000Y-40984500D01*
G75*
G02*
X53685500Y-41132000I-147500J0D01*
G01*
X53390500Y-41132000D01*
G75*
G02*
X53243000Y-40984500I0J147500D01*
G01*
G37*
G36*
G01*
X50680000Y-40984500D02*
X50680000Y-40639500D01*
G75*
G02*
X50827500Y-40492000I147500J0D01*
G01*
X51122500Y-40492000D01*
G75*
G02*
X51270000Y-40639500I0J-147500D01*
G01*
X51270000Y-40984500D01*
G75*
G02*
X51122500Y-41132000I-147500J0D01*
G01*
X50827500Y-41132000D01*
G75*
G02*
X50680000Y-40984500I0J147500D01*
G01*
G37*
G36*
G01*
X51650000Y-40984500D02*
X51650000Y-40639500D01*
G75*
G02*
X51797500Y-40492000I147500J0D01*
G01*
X52092500Y-40492000D01*
G75*
G02*
X52240000Y-40639500I0J-147500D01*
G01*
X52240000Y-40984500D01*
G75*
G02*
X52092500Y-41132000I-147500J0D01*
G01*
X51797500Y-41132000D01*
G75*
G02*
X51650000Y-40984500I0J147500D01*
G01*
G37*
G36*
G01*
X67325000Y-47727500D02*
X67325000Y-48072500D01*
G75*
G02*
X67177500Y-48220000I-147500J0D01*
G01*
X66882500Y-48220000D01*
G75*
G02*
X66735000Y-48072500I0J147500D01*
G01*
X66735000Y-47727500D01*
G75*
G02*
X66882500Y-47580000I147500J0D01*
G01*
X67177500Y-47580000D01*
G75*
G02*
X67325000Y-47727500I0J-147500D01*
G01*
G37*
G36*
G01*
X68295000Y-47727500D02*
X68295000Y-48072500D01*
G75*
G02*
X68147500Y-48220000I-147500J0D01*
G01*
X67852500Y-48220000D01*
G75*
G02*
X67705000Y-48072500I0J147500D01*
G01*
X67705000Y-47727500D01*
G75*
G02*
X67852500Y-47580000I147500J0D01*
G01*
X68147500Y-47580000D01*
G75*
G02*
X68295000Y-47727500I0J-147500D01*
G01*
G37*
G36*
G01*
X50680000Y-47080500D02*
X50680000Y-46735500D01*
G75*
G02*
X50827500Y-46588000I147500J0D01*
G01*
X51122500Y-46588000D01*
G75*
G02*
X51270000Y-46735500I0J-147500D01*
G01*
X51270000Y-47080500D01*
G75*
G02*
X51122500Y-47228000I-147500J0D01*
G01*
X50827500Y-47228000D01*
G75*
G02*
X50680000Y-47080500I0J147500D01*
G01*
G37*
G36*
G01*
X51650000Y-47080500D02*
X51650000Y-46735500D01*
G75*
G02*
X51797500Y-46588000I147500J0D01*
G01*
X52092500Y-46588000D01*
G75*
G02*
X52240000Y-46735500I0J-147500D01*
G01*
X52240000Y-47080500D01*
G75*
G02*
X52092500Y-47228000I-147500J0D01*
G01*
X51797500Y-47228000D01*
G75*
G02*
X51650000Y-47080500I0J147500D01*
G01*
G37*
G36*
G01*
X45190000Y-52322500D02*
X45190000Y-51977500D01*
G75*
G02*
X45337500Y-51830000I147500J0D01*
G01*
X45632500Y-51830000D01*
G75*
G02*
X45780000Y-51977500I0J-147500D01*
G01*
X45780000Y-52322500D01*
G75*
G02*
X45632500Y-52470000I-147500J0D01*
G01*
X45337500Y-52470000D01*
G75*
G02*
X45190000Y-52322500I0J147500D01*
G01*
G37*
G36*
G01*
X44220000Y-52322500D02*
X44220000Y-51977500D01*
G75*
G02*
X44367500Y-51830000I147500J0D01*
G01*
X44662500Y-51830000D01*
G75*
G02*
X44810000Y-51977500I0J-147500D01*
G01*
X44810000Y-52322500D01*
G75*
G02*
X44662500Y-52470000I-147500J0D01*
G01*
X44367500Y-52470000D01*
G75*
G02*
X44220000Y-52322500I0J147500D01*
G01*
G37*
G36*
G01*
X50577500Y-53825000D02*
X50922500Y-53825000D01*
G75*
G02*
X51070000Y-53972500I0J-147500D01*
G01*
X51070000Y-54267500D01*
G75*
G02*
X50922500Y-54415000I-147500J0D01*
G01*
X50577500Y-54415000D01*
G75*
G02*
X50430000Y-54267500I0J147500D01*
G01*
X50430000Y-53972500D01*
G75*
G02*
X50577500Y-53825000I147500J0D01*
G01*
G37*
G36*
G01*
X50577500Y-52855000D02*
X50922500Y-52855000D01*
G75*
G02*
X51070000Y-53002500I0J-147500D01*
G01*
X51070000Y-53297500D01*
G75*
G02*
X50922500Y-53445000I-147500J0D01*
G01*
X50577500Y-53445000D01*
G75*
G02*
X50430000Y-53297500I0J147500D01*
G01*
X50430000Y-53002500D01*
G75*
G02*
X50577500Y-52855000I147500J0D01*
G01*
G37*
G36*
G01*
X46235000Y-50822500D02*
X46235000Y-50477500D01*
G75*
G02*
X46382500Y-50330000I147500J0D01*
G01*
X46677500Y-50330000D01*
G75*
G02*
X46825000Y-50477500I0J-147500D01*
G01*
X46825000Y-50822500D01*
G75*
G02*
X46677500Y-50970000I-147500J0D01*
G01*
X46382500Y-50970000D01*
G75*
G02*
X46235000Y-50822500I0J147500D01*
G01*
G37*
G36*
G01*
X47205000Y-50822500D02*
X47205000Y-50477500D01*
G75*
G02*
X47352500Y-50330000I147500J0D01*
G01*
X47647500Y-50330000D01*
G75*
G02*
X47795000Y-50477500I0J-147500D01*
G01*
X47795000Y-50822500D01*
G75*
G02*
X47647500Y-50970000I-147500J0D01*
G01*
X47352500Y-50970000D01*
G75*
G02*
X47205000Y-50822500I0J147500D01*
G01*
G37*
G36*
G01*
X48455000Y-50822500D02*
X48455000Y-50477500D01*
G75*
G02*
X48602500Y-50330000I147500J0D01*
G01*
X48897500Y-50330000D01*
G75*
G02*
X49045000Y-50477500I0J-147500D01*
G01*
X49045000Y-50822500D01*
G75*
G02*
X48897500Y-50970000I-147500J0D01*
G01*
X48602500Y-50970000D01*
G75*
G02*
X48455000Y-50822500I0J147500D01*
G01*
G37*
G36*
G01*
X49425000Y-50822500D02*
X49425000Y-50477500D01*
G75*
G02*
X49572500Y-50330000I147500J0D01*
G01*
X49867500Y-50330000D01*
G75*
G02*
X50015000Y-50477500I0J-147500D01*
G01*
X50015000Y-50822500D01*
G75*
G02*
X49867500Y-50970000I-147500J0D01*
G01*
X49572500Y-50970000D01*
G75*
G02*
X49425000Y-50822500I0J147500D01*
G01*
G37*
G36*
G01*
X60840000Y-43322500D02*
X60840000Y-42977500D01*
G75*
G02*
X60987500Y-42830000I147500J0D01*
G01*
X61282500Y-42830000D01*
G75*
G02*
X61430000Y-42977500I0J-147500D01*
G01*
X61430000Y-43322500D01*
G75*
G02*
X61282500Y-43470000I-147500J0D01*
G01*
X60987500Y-43470000D01*
G75*
G02*
X60840000Y-43322500I0J147500D01*
G01*
G37*
G36*
G01*
X61810000Y-43322500D02*
X61810000Y-42977500D01*
G75*
G02*
X61957500Y-42830000I147500J0D01*
G01*
X62252500Y-42830000D01*
G75*
G02*
X62400000Y-42977500I0J-147500D01*
G01*
X62400000Y-43322500D01*
G75*
G02*
X62252500Y-43470000I-147500J0D01*
G01*
X61957500Y-43470000D01*
G75*
G02*
X61810000Y-43322500I0J147500D01*
G01*
G37*
G36*
G01*
X64825000Y-44727500D02*
X64825000Y-45072500D01*
G75*
G02*
X64677500Y-45220000I-147500J0D01*
G01*
X64382500Y-45220000D01*
G75*
G02*
X64235000Y-45072500I0J147500D01*
G01*
X64235000Y-44727500D01*
G75*
G02*
X64382500Y-44580000I147500J0D01*
G01*
X64677500Y-44580000D01*
G75*
G02*
X64825000Y-44727500I0J-147500D01*
G01*
G37*
G36*
G01*
X65795000Y-44727500D02*
X65795000Y-45072500D01*
G75*
G02*
X65647500Y-45220000I-147500J0D01*
G01*
X65352500Y-45220000D01*
G75*
G02*
X65205000Y-45072500I0J147500D01*
G01*
X65205000Y-44727500D01*
G75*
G02*
X65352500Y-44580000I147500J0D01*
G01*
X65647500Y-44580000D01*
G75*
G02*
X65795000Y-44727500I0J-147500D01*
G01*
G37*
G36*
G01*
X57327500Y-56235000D02*
X57672500Y-56235000D01*
G75*
G02*
X57820000Y-56382500I0J-147500D01*
G01*
X57820000Y-56677500D01*
G75*
G02*
X57672500Y-56825000I-147500J0D01*
G01*
X57327500Y-56825000D01*
G75*
G02*
X57180000Y-56677500I0J147500D01*
G01*
X57180000Y-56382500D01*
G75*
G02*
X57327500Y-56235000I147500J0D01*
G01*
G37*
G36*
G01*
X57327500Y-57205000D02*
X57672500Y-57205000D01*
G75*
G02*
X57820000Y-57352500I0J-147500D01*
G01*
X57820000Y-57647500D01*
G75*
G02*
X57672500Y-57795000I-147500J0D01*
G01*
X57327500Y-57795000D01*
G75*
G02*
X57180000Y-57647500I0J147500D01*
G01*
X57180000Y-57352500D01*
G75*
G02*
X57327500Y-57205000I147500J0D01*
G01*
G37*
G36*
G01*
X57795000Y-47227500D02*
X57795000Y-47572500D01*
G75*
G02*
X57647500Y-47720000I-147500J0D01*
G01*
X57352500Y-47720000D01*
G75*
G02*
X57205000Y-47572500I0J147500D01*
G01*
X57205000Y-47227500D01*
G75*
G02*
X57352500Y-47080000I147500J0D01*
G01*
X57647500Y-47080000D01*
G75*
G02*
X57795000Y-47227500I0J-147500D01*
G01*
G37*
G36*
G01*
X56825000Y-47227500D02*
X56825000Y-47572500D01*
G75*
G02*
X56677500Y-47720000I-147500J0D01*
G01*
X56382500Y-47720000D01*
G75*
G02*
X56235000Y-47572500I0J147500D01*
G01*
X56235000Y-47227500D01*
G75*
G02*
X56382500Y-47080000I147500J0D01*
G01*
X56677500Y-47080000D01*
G75*
G02*
X56825000Y-47227500I0J-147500D01*
G01*
G37*
G36*
G01*
X56327500Y-71090000D02*
X56672500Y-71090000D01*
G75*
G02*
X56820000Y-71237500I0J-147500D01*
G01*
X56820000Y-71532500D01*
G75*
G02*
X56672500Y-71680000I-147500J0D01*
G01*
X56327500Y-71680000D01*
G75*
G02*
X56180000Y-71532500I0J147500D01*
G01*
X56180000Y-71237500D01*
G75*
G02*
X56327500Y-71090000I147500J0D01*
G01*
G37*
G36*
G01*
X56327500Y-72060000D02*
X56672500Y-72060000D01*
G75*
G02*
X56820000Y-72207500I0J-147500D01*
G01*
X56820000Y-72502500D01*
G75*
G02*
X56672500Y-72650000I-147500J0D01*
G01*
X56327500Y-72650000D01*
G75*
G02*
X56180000Y-72502500I0J147500D01*
G01*
X56180000Y-72207500D01*
G75*
G02*
X56327500Y-72060000I147500J0D01*
G01*
G37*
G36*
G01*
X56672500Y-70165000D02*
X56327500Y-70165000D01*
G75*
G02*
X56180000Y-70017500I0J147500D01*
G01*
X56180000Y-69722500D01*
G75*
G02*
X56327500Y-69575000I147500J0D01*
G01*
X56672500Y-69575000D01*
G75*
G02*
X56820000Y-69722500I0J-147500D01*
G01*
X56820000Y-70017500D01*
G75*
G02*
X56672500Y-70165000I-147500J0D01*
G01*
G37*
G36*
G01*
X56672500Y-69195000D02*
X56327500Y-69195000D01*
G75*
G02*
X56180000Y-69047500I0J147500D01*
G01*
X56180000Y-68752500D01*
G75*
G02*
X56327500Y-68605000I147500J0D01*
G01*
X56672500Y-68605000D01*
G75*
G02*
X56820000Y-68752500I0J-147500D01*
G01*
X56820000Y-69047500D01*
G75*
G02*
X56672500Y-69195000I-147500J0D01*
G01*
G37*
G36*
G01*
X44150000Y-56712500D02*
X44150000Y-56587500D01*
G75*
G02*
X44212500Y-56525000I62500J0D01*
G01*
X44887500Y-56525000D01*
G75*
G02*
X44950000Y-56587500I0J-62500D01*
G01*
X44950000Y-56712500D01*
G75*
G02*
X44887500Y-56775000I-62500J0D01*
G01*
X44212500Y-56775000D01*
G75*
G02*
X44150000Y-56712500I0J62500D01*
G01*
G37*
G36*
G01*
X44150000Y-57212500D02*
X44150000Y-57087500D01*
G75*
G02*
X44212500Y-57025000I62500J0D01*
G01*
X44887500Y-57025000D01*
G75*
G02*
X44950000Y-57087500I0J-62500D01*
G01*
X44950000Y-57212500D01*
G75*
G02*
X44887500Y-57275000I-62500J0D01*
G01*
X44212500Y-57275000D01*
G75*
G02*
X44150000Y-57212500I0J62500D01*
G01*
G37*
G36*
G01*
X44150000Y-57712500D02*
X44150000Y-57587500D01*
G75*
G02*
X44212500Y-57525000I62500J0D01*
G01*
X44887500Y-57525000D01*
G75*
G02*
X44950000Y-57587500I0J-62500D01*
G01*
X44950000Y-57712500D01*
G75*
G02*
X44887500Y-57775000I-62500J0D01*
G01*
X44212500Y-57775000D01*
G75*
G02*
X44150000Y-57712500I0J62500D01*
G01*
G37*
G36*
G01*
X44150000Y-58212500D02*
X44150000Y-58087500D01*
G75*
G02*
X44212500Y-58025000I62500J0D01*
G01*
X44887500Y-58025000D01*
G75*
G02*
X44950000Y-58087500I0J-62500D01*
G01*
X44950000Y-58212500D01*
G75*
G02*
X44887500Y-58275000I-62500J0D01*
G01*
X44212500Y-58275000D01*
G75*
G02*
X44150000Y-58212500I0J62500D01*
G01*
G37*
G36*
G01*
X44150000Y-58712500D02*
X44150000Y-58587500D01*
G75*
G02*
X44212500Y-58525000I62500J0D01*
G01*
X44887500Y-58525000D01*
G75*
G02*
X44950000Y-58587500I0J-62500D01*
G01*
X44950000Y-58712500D01*
G75*
G02*
X44887500Y-58775000I-62500J0D01*
G01*
X44212500Y-58775000D01*
G75*
G02*
X44150000Y-58712500I0J62500D01*
G01*
G37*
G36*
G01*
X44150000Y-59212500D02*
X44150000Y-59087500D01*
G75*
G02*
X44212500Y-59025000I62500J0D01*
G01*
X44887500Y-59025000D01*
G75*
G02*
X44950000Y-59087500I0J-62500D01*
G01*
X44950000Y-59212500D01*
G75*
G02*
X44887500Y-59275000I-62500J0D01*
G01*
X44212500Y-59275000D01*
G75*
G02*
X44150000Y-59212500I0J62500D01*
G01*
G37*
G36*
G01*
X44150000Y-59712500D02*
X44150000Y-59587500D01*
G75*
G02*
X44212500Y-59525000I62500J0D01*
G01*
X44887500Y-59525000D01*
G75*
G02*
X44950000Y-59587500I0J-62500D01*
G01*
X44950000Y-59712500D01*
G75*
G02*
X44887500Y-59775000I-62500J0D01*
G01*
X44212500Y-59775000D01*
G75*
G02*
X44150000Y-59712500I0J62500D01*
G01*
G37*
G36*
G01*
X44150000Y-60212500D02*
X44150000Y-60087500D01*
G75*
G02*
X44212500Y-60025000I62500J0D01*
G01*
X44887500Y-60025000D01*
G75*
G02*
X44950000Y-60087500I0J-62500D01*
G01*
X44950000Y-60212500D01*
G75*
G02*
X44887500Y-60275000I-62500J0D01*
G01*
X44212500Y-60275000D01*
G75*
G02*
X44150000Y-60212500I0J62500D01*
G01*
G37*
G36*
G01*
X44150000Y-60712500D02*
X44150000Y-60587500D01*
G75*
G02*
X44212500Y-60525000I62500J0D01*
G01*
X44887500Y-60525000D01*
G75*
G02*
X44950000Y-60587500I0J-62500D01*
G01*
X44950000Y-60712500D01*
G75*
G02*
X44887500Y-60775000I-62500J0D01*
G01*
X44212500Y-60775000D01*
G75*
G02*
X44150000Y-60712500I0J62500D01*
G01*
G37*
G36*
G01*
X44150000Y-61212500D02*
X44150000Y-61087500D01*
G75*
G02*
X44212500Y-61025000I62500J0D01*
G01*
X44887500Y-61025000D01*
G75*
G02*
X44950000Y-61087500I0J-62500D01*
G01*
X44950000Y-61212500D01*
G75*
G02*
X44887500Y-61275000I-62500J0D01*
G01*
X44212500Y-61275000D01*
G75*
G02*
X44150000Y-61212500I0J62500D01*
G01*
G37*
G36*
G01*
X44150000Y-61712500D02*
X44150000Y-61587500D01*
G75*
G02*
X44212500Y-61525000I62500J0D01*
G01*
X44887500Y-61525000D01*
G75*
G02*
X44950000Y-61587500I0J-62500D01*
G01*
X44950000Y-61712500D01*
G75*
G02*
X44887500Y-61775000I-62500J0D01*
G01*
X44212500Y-61775000D01*
G75*
G02*
X44150000Y-61712500I0J62500D01*
G01*
G37*
G36*
G01*
X44150000Y-62212500D02*
X44150000Y-62087500D01*
G75*
G02*
X44212500Y-62025000I62500J0D01*
G01*
X44887500Y-62025000D01*
G75*
G02*
X44950000Y-62087500I0J-62500D01*
G01*
X44950000Y-62212500D01*
G75*
G02*
X44887500Y-62275000I-62500J0D01*
G01*
X44212500Y-62275000D01*
G75*
G02*
X44150000Y-62212500I0J62500D01*
G01*
G37*
G36*
G01*
X44150000Y-62712500D02*
X44150000Y-62587500D01*
G75*
G02*
X44212500Y-62525000I62500J0D01*
G01*
X44887500Y-62525000D01*
G75*
G02*
X44950000Y-62587500I0J-62500D01*
G01*
X44950000Y-62712500D01*
G75*
G02*
X44887500Y-62775000I-62500J0D01*
G01*
X44212500Y-62775000D01*
G75*
G02*
X44150000Y-62712500I0J62500D01*
G01*
G37*
G36*
G01*
X44150000Y-63212500D02*
X44150000Y-63087500D01*
G75*
G02*
X44212500Y-63025000I62500J0D01*
G01*
X44887500Y-63025000D01*
G75*
G02*
X44950000Y-63087500I0J-62500D01*
G01*
X44950000Y-63212500D01*
G75*
G02*
X44887500Y-63275000I-62500J0D01*
G01*
X44212500Y-63275000D01*
G75*
G02*
X44150000Y-63212500I0J62500D01*
G01*
G37*
G36*
G01*
X44150000Y-63712500D02*
X44150000Y-63587500D01*
G75*
G02*
X44212500Y-63525000I62500J0D01*
G01*
X44887500Y-63525000D01*
G75*
G02*
X44950000Y-63587500I0J-62500D01*
G01*
X44950000Y-63712500D01*
G75*
G02*
X44887500Y-63775000I-62500J0D01*
G01*
X44212500Y-63775000D01*
G75*
G02*
X44150000Y-63712500I0J62500D01*
G01*
G37*
G36*
G01*
X44150000Y-64212500D02*
X44150000Y-64087500D01*
G75*
G02*
X44212500Y-64025000I62500J0D01*
G01*
X44887500Y-64025000D01*
G75*
G02*
X44950000Y-64087500I0J-62500D01*
G01*
X44950000Y-64212500D01*
G75*
G02*
X44887500Y-64275000I-62500J0D01*
G01*
X44212500Y-64275000D01*
G75*
G02*
X44150000Y-64212500I0J62500D01*
G01*
G37*
G36*
G01*
X45125000Y-65187500D02*
X45125000Y-64512500D01*
G75*
G02*
X45187500Y-64450000I62500J0D01*
G01*
X45312500Y-64450000D01*
G75*
G02*
X45375000Y-64512500I0J-62500D01*
G01*
X45375000Y-65187500D01*
G75*
G02*
X45312500Y-65250000I-62500J0D01*
G01*
X45187500Y-65250000D01*
G75*
G02*
X45125000Y-65187500I0J62500D01*
G01*
G37*
G36*
G01*
X45625000Y-65187500D02*
X45625000Y-64512500D01*
G75*
G02*
X45687500Y-64450000I62500J0D01*
G01*
X45812500Y-64450000D01*
G75*
G02*
X45875000Y-64512500I0J-62500D01*
G01*
X45875000Y-65187500D01*
G75*
G02*
X45812500Y-65250000I-62500J0D01*
G01*
X45687500Y-65250000D01*
G75*
G02*
X45625000Y-65187500I0J62500D01*
G01*
G37*
G36*
G01*
X46125000Y-65187500D02*
X46125000Y-64512500D01*
G75*
G02*
X46187500Y-64450000I62500J0D01*
G01*
X46312500Y-64450000D01*
G75*
G02*
X46375000Y-64512500I0J-62500D01*
G01*
X46375000Y-65187500D01*
G75*
G02*
X46312500Y-65250000I-62500J0D01*
G01*
X46187500Y-65250000D01*
G75*
G02*
X46125000Y-65187500I0J62500D01*
G01*
G37*
G36*
G01*
X46625000Y-65187500D02*
X46625000Y-64512500D01*
G75*
G02*
X46687500Y-64450000I62500J0D01*
G01*
X46812500Y-64450000D01*
G75*
G02*
X46875000Y-64512500I0J-62500D01*
G01*
X46875000Y-65187500D01*
G75*
G02*
X46812500Y-65250000I-62500J0D01*
G01*
X46687500Y-65250000D01*
G75*
G02*
X46625000Y-65187500I0J62500D01*
G01*
G37*
G36*
G01*
X47125000Y-65187500D02*
X47125000Y-64512500D01*
G75*
G02*
X47187500Y-64450000I62500J0D01*
G01*
X47312500Y-64450000D01*
G75*
G02*
X47375000Y-64512500I0J-62500D01*
G01*
X47375000Y-65187500D01*
G75*
G02*
X47312500Y-65250000I-62500J0D01*
G01*
X47187500Y-65250000D01*
G75*
G02*
X47125000Y-65187500I0J62500D01*
G01*
G37*
G36*
G01*
X47625000Y-65187500D02*
X47625000Y-64512500D01*
G75*
G02*
X47687500Y-64450000I62500J0D01*
G01*
X47812500Y-64450000D01*
G75*
G02*
X47875000Y-64512500I0J-62500D01*
G01*
X47875000Y-65187500D01*
G75*
G02*
X47812500Y-65250000I-62500J0D01*
G01*
X47687500Y-65250000D01*
G75*
G02*
X47625000Y-65187500I0J62500D01*
G01*
G37*
G36*
G01*
X48125000Y-65187500D02*
X48125000Y-64512500D01*
G75*
G02*
X48187500Y-64450000I62500J0D01*
G01*
X48312500Y-64450000D01*
G75*
G02*
X48375000Y-64512500I0J-62500D01*
G01*
X48375000Y-65187500D01*
G75*
G02*
X48312500Y-65250000I-62500J0D01*
G01*
X48187500Y-65250000D01*
G75*
G02*
X48125000Y-65187500I0J62500D01*
G01*
G37*
G36*
G01*
X48625000Y-65187500D02*
X48625000Y-64512500D01*
G75*
G02*
X48687500Y-64450000I62500J0D01*
G01*
X48812500Y-64450000D01*
G75*
G02*
X48875000Y-64512500I0J-62500D01*
G01*
X48875000Y-65187500D01*
G75*
G02*
X48812500Y-65250000I-62500J0D01*
G01*
X48687500Y-65250000D01*
G75*
G02*
X48625000Y-65187500I0J62500D01*
G01*
G37*
G36*
G01*
X49125000Y-65187500D02*
X49125000Y-64512500D01*
G75*
G02*
X49187500Y-64450000I62500J0D01*
G01*
X49312500Y-64450000D01*
G75*
G02*
X49375000Y-64512500I0J-62500D01*
G01*
X49375000Y-65187500D01*
G75*
G02*
X49312500Y-65250000I-62500J0D01*
G01*
X49187500Y-65250000D01*
G75*
G02*
X49125000Y-65187500I0J62500D01*
G01*
G37*
G36*
G01*
X49625000Y-65187500D02*
X49625000Y-64512500D01*
G75*
G02*
X49687500Y-64450000I62500J0D01*
G01*
X49812500Y-64450000D01*
G75*
G02*
X49875000Y-64512500I0J-62500D01*
G01*
X49875000Y-65187500D01*
G75*
G02*
X49812500Y-65250000I-62500J0D01*
G01*
X49687500Y-65250000D01*
G75*
G02*
X49625000Y-65187500I0J62500D01*
G01*
G37*
G36*
G01*
X50125000Y-65187500D02*
X50125000Y-64512500D01*
G75*
G02*
X50187500Y-64450000I62500J0D01*
G01*
X50312500Y-64450000D01*
G75*
G02*
X50375000Y-64512500I0J-62500D01*
G01*
X50375000Y-65187500D01*
G75*
G02*
X50312500Y-65250000I-62500J0D01*
G01*
X50187500Y-65250000D01*
G75*
G02*
X50125000Y-65187500I0J62500D01*
G01*
G37*
G36*
G01*
X50625000Y-65187500D02*
X50625000Y-64512500D01*
G75*
G02*
X50687500Y-64450000I62500J0D01*
G01*
X50812500Y-64450000D01*
G75*
G02*
X50875000Y-64512500I0J-62500D01*
G01*
X50875000Y-65187500D01*
G75*
G02*
X50812500Y-65250000I-62500J0D01*
G01*
X50687500Y-65250000D01*
G75*
G02*
X50625000Y-65187500I0J62500D01*
G01*
G37*
G36*
G01*
X51125000Y-65187500D02*
X51125000Y-64512500D01*
G75*
G02*
X51187500Y-64450000I62500J0D01*
G01*
X51312500Y-64450000D01*
G75*
G02*
X51375000Y-64512500I0J-62500D01*
G01*
X51375000Y-65187500D01*
G75*
G02*
X51312500Y-65250000I-62500J0D01*
G01*
X51187500Y-65250000D01*
G75*
G02*
X51125000Y-65187500I0J62500D01*
G01*
G37*
G36*
G01*
X51625000Y-65187500D02*
X51625000Y-64512500D01*
G75*
G02*
X51687500Y-64450000I62500J0D01*
G01*
X51812500Y-64450000D01*
G75*
G02*
X51875000Y-64512500I0J-62500D01*
G01*
X51875000Y-65187500D01*
G75*
G02*
X51812500Y-65250000I-62500J0D01*
G01*
X51687500Y-65250000D01*
G75*
G02*
X51625000Y-65187500I0J62500D01*
G01*
G37*
G36*
G01*
X52125000Y-65187500D02*
X52125000Y-64512500D01*
G75*
G02*
X52187500Y-64450000I62500J0D01*
G01*
X52312500Y-64450000D01*
G75*
G02*
X52375000Y-64512500I0J-62500D01*
G01*
X52375000Y-65187500D01*
G75*
G02*
X52312500Y-65250000I-62500J0D01*
G01*
X52187500Y-65250000D01*
G75*
G02*
X52125000Y-65187500I0J62500D01*
G01*
G37*
G36*
G01*
X52625000Y-65187500D02*
X52625000Y-64512500D01*
G75*
G02*
X52687500Y-64450000I62500J0D01*
G01*
X52812500Y-64450000D01*
G75*
G02*
X52875000Y-64512500I0J-62500D01*
G01*
X52875000Y-65187500D01*
G75*
G02*
X52812500Y-65250000I-62500J0D01*
G01*
X52687500Y-65250000D01*
G75*
G02*
X52625000Y-65187500I0J62500D01*
G01*
G37*
G36*
G01*
X53050000Y-64212500D02*
X53050000Y-64087500D01*
G75*
G02*
X53112500Y-64025000I62500J0D01*
G01*
X53787500Y-64025000D01*
G75*
G02*
X53850000Y-64087500I0J-62500D01*
G01*
X53850000Y-64212500D01*
G75*
G02*
X53787500Y-64275000I-62500J0D01*
G01*
X53112500Y-64275000D01*
G75*
G02*
X53050000Y-64212500I0J62500D01*
G01*
G37*
G36*
G01*
X53050000Y-63712500D02*
X53050000Y-63587500D01*
G75*
G02*
X53112500Y-63525000I62500J0D01*
G01*
X53787500Y-63525000D01*
G75*
G02*
X53850000Y-63587500I0J-62500D01*
G01*
X53850000Y-63712500D01*
G75*
G02*
X53787500Y-63775000I-62500J0D01*
G01*
X53112500Y-63775000D01*
G75*
G02*
X53050000Y-63712500I0J62500D01*
G01*
G37*
G36*
G01*
X53050000Y-63212500D02*
X53050000Y-63087500D01*
G75*
G02*
X53112500Y-63025000I62500J0D01*
G01*
X53787500Y-63025000D01*
G75*
G02*
X53850000Y-63087500I0J-62500D01*
G01*
X53850000Y-63212500D01*
G75*
G02*
X53787500Y-63275000I-62500J0D01*
G01*
X53112500Y-63275000D01*
G75*
G02*
X53050000Y-63212500I0J62500D01*
G01*
G37*
G36*
G01*
X53050000Y-62712500D02*
X53050000Y-62587500D01*
G75*
G02*
X53112500Y-62525000I62500J0D01*
G01*
X53787500Y-62525000D01*
G75*
G02*
X53850000Y-62587500I0J-62500D01*
G01*
X53850000Y-62712500D01*
G75*
G02*
X53787500Y-62775000I-62500J0D01*
G01*
X53112500Y-62775000D01*
G75*
G02*
X53050000Y-62712500I0J62500D01*
G01*
G37*
G36*
G01*
X53050000Y-62212500D02*
X53050000Y-62087500D01*
G75*
G02*
X53112500Y-62025000I62500J0D01*
G01*
X53787500Y-62025000D01*
G75*
G02*
X53850000Y-62087500I0J-62500D01*
G01*
X53850000Y-62212500D01*
G75*
G02*
X53787500Y-62275000I-62500J0D01*
G01*
X53112500Y-62275000D01*
G75*
G02*
X53050000Y-62212500I0J62500D01*
G01*
G37*
G36*
G01*
X53050000Y-61712500D02*
X53050000Y-61587500D01*
G75*
G02*
X53112500Y-61525000I62500J0D01*
G01*
X53787500Y-61525000D01*
G75*
G02*
X53850000Y-61587500I0J-62500D01*
G01*
X53850000Y-61712500D01*
G75*
G02*
X53787500Y-61775000I-62500J0D01*
G01*
X53112500Y-61775000D01*
G75*
G02*
X53050000Y-61712500I0J62500D01*
G01*
G37*
G36*
G01*
X53050000Y-61212500D02*
X53050000Y-61087500D01*
G75*
G02*
X53112500Y-61025000I62500J0D01*
G01*
X53787500Y-61025000D01*
G75*
G02*
X53850000Y-61087500I0J-62500D01*
G01*
X53850000Y-61212500D01*
G75*
G02*
X53787500Y-61275000I-62500J0D01*
G01*
X53112500Y-61275000D01*
G75*
G02*
X53050000Y-61212500I0J62500D01*
G01*
G37*
G36*
G01*
X53050000Y-60712500D02*
X53050000Y-60587500D01*
G75*
G02*
X53112500Y-60525000I62500J0D01*
G01*
X53787500Y-60525000D01*
G75*
G02*
X53850000Y-60587500I0J-62500D01*
G01*
X53850000Y-60712500D01*
G75*
G02*
X53787500Y-60775000I-62500J0D01*
G01*
X53112500Y-60775000D01*
G75*
G02*
X53050000Y-60712500I0J62500D01*
G01*
G37*
G36*
G01*
X53050000Y-60212500D02*
X53050000Y-60087500D01*
G75*
G02*
X53112500Y-60025000I62500J0D01*
G01*
X53787500Y-60025000D01*
G75*
G02*
X53850000Y-60087500I0J-62500D01*
G01*
X53850000Y-60212500D01*
G75*
G02*
X53787500Y-60275000I-62500J0D01*
G01*
X53112500Y-60275000D01*
G75*
G02*
X53050000Y-60212500I0J62500D01*
G01*
G37*
G36*
G01*
X53050000Y-59712500D02*
X53050000Y-59587500D01*
G75*
G02*
X53112500Y-59525000I62500J0D01*
G01*
X53787500Y-59525000D01*
G75*
G02*
X53850000Y-59587500I0J-62500D01*
G01*
X53850000Y-59712500D01*
G75*
G02*
X53787500Y-59775000I-62500J0D01*
G01*
X53112500Y-59775000D01*
G75*
G02*
X53050000Y-59712500I0J62500D01*
G01*
G37*
G36*
G01*
X53050000Y-59212500D02*
X53050000Y-59087500D01*
G75*
G02*
X53112500Y-59025000I62500J0D01*
G01*
X53787500Y-59025000D01*
G75*
G02*
X53850000Y-59087500I0J-62500D01*
G01*
X53850000Y-59212500D01*
G75*
G02*
X53787500Y-59275000I-62500J0D01*
G01*
X53112500Y-59275000D01*
G75*
G02*
X53050000Y-59212500I0J62500D01*
G01*
G37*
G36*
G01*
X53050000Y-58712500D02*
X53050000Y-58587500D01*
G75*
G02*
X53112500Y-58525000I62500J0D01*
G01*
X53787500Y-58525000D01*
G75*
G02*
X53850000Y-58587500I0J-62500D01*
G01*
X53850000Y-58712500D01*
G75*
G02*
X53787500Y-58775000I-62500J0D01*
G01*
X53112500Y-58775000D01*
G75*
G02*
X53050000Y-58712500I0J62500D01*
G01*
G37*
G36*
G01*
X53050000Y-58212500D02*
X53050000Y-58087500D01*
G75*
G02*
X53112500Y-58025000I62500J0D01*
G01*
X53787500Y-58025000D01*
G75*
G02*
X53850000Y-58087500I0J-62500D01*
G01*
X53850000Y-58212500D01*
G75*
G02*
X53787500Y-58275000I-62500J0D01*
G01*
X53112500Y-58275000D01*
G75*
G02*
X53050000Y-58212500I0J62500D01*
G01*
G37*
G36*
G01*
X53050000Y-57712500D02*
X53050000Y-57587500D01*
G75*
G02*
X53112500Y-57525000I62500J0D01*
G01*
X53787500Y-57525000D01*
G75*
G02*
X53850000Y-57587500I0J-62500D01*
G01*
X53850000Y-57712500D01*
G75*
G02*
X53787500Y-57775000I-62500J0D01*
G01*
X53112500Y-57775000D01*
G75*
G02*
X53050000Y-57712500I0J62500D01*
G01*
G37*
G36*
G01*
X53050000Y-57212500D02*
X53050000Y-57087500D01*
G75*
G02*
X53112500Y-57025000I62500J0D01*
G01*
X53787500Y-57025000D01*
G75*
G02*
X53850000Y-57087500I0J-62500D01*
G01*
X53850000Y-57212500D01*
G75*
G02*
X53787500Y-57275000I-62500J0D01*
G01*
X53112500Y-57275000D01*
G75*
G02*
X53050000Y-57212500I0J62500D01*
G01*
G37*
G36*
G01*
X53050000Y-56712500D02*
X53050000Y-56587500D01*
G75*
G02*
X53112500Y-56525000I62500J0D01*
G01*
X53787500Y-56525000D01*
G75*
G02*
X53850000Y-56587500I0J-62500D01*
G01*
X53850000Y-56712500D01*
G75*
G02*
X53787500Y-56775000I-62500J0D01*
G01*
X53112500Y-56775000D01*
G75*
G02*
X53050000Y-56712500I0J62500D01*
G01*
G37*
G36*
G01*
X52625000Y-56287500D02*
X52625000Y-55612500D01*
G75*
G02*
X52687500Y-55550000I62500J0D01*
G01*
X52812500Y-55550000D01*
G75*
G02*
X52875000Y-55612500I0J-62500D01*
G01*
X52875000Y-56287500D01*
G75*
G02*
X52812500Y-56350000I-62500J0D01*
G01*
X52687500Y-56350000D01*
G75*
G02*
X52625000Y-56287500I0J62500D01*
G01*
G37*
G36*
G01*
X52125000Y-56287500D02*
X52125000Y-55612500D01*
G75*
G02*
X52187500Y-55550000I62500J0D01*
G01*
X52312500Y-55550000D01*
G75*
G02*
X52375000Y-55612500I0J-62500D01*
G01*
X52375000Y-56287500D01*
G75*
G02*
X52312500Y-56350000I-62500J0D01*
G01*
X52187500Y-56350000D01*
G75*
G02*
X52125000Y-56287500I0J62500D01*
G01*
G37*
G36*
G01*
X51625000Y-56287500D02*
X51625000Y-55612500D01*
G75*
G02*
X51687500Y-55550000I62500J0D01*
G01*
X51812500Y-55550000D01*
G75*
G02*
X51875000Y-55612500I0J-62500D01*
G01*
X51875000Y-56287500D01*
G75*
G02*
X51812500Y-56350000I-62500J0D01*
G01*
X51687500Y-56350000D01*
G75*
G02*
X51625000Y-56287500I0J62500D01*
G01*
G37*
G36*
G01*
X51125000Y-56287500D02*
X51125000Y-55612500D01*
G75*
G02*
X51187500Y-55550000I62500J0D01*
G01*
X51312500Y-55550000D01*
G75*
G02*
X51375000Y-55612500I0J-62500D01*
G01*
X51375000Y-56287500D01*
G75*
G02*
X51312500Y-56350000I-62500J0D01*
G01*
X51187500Y-56350000D01*
G75*
G02*
X51125000Y-56287500I0J62500D01*
G01*
G37*
G36*
G01*
X50625000Y-56287500D02*
X50625000Y-55612500D01*
G75*
G02*
X50687500Y-55550000I62500J0D01*
G01*
X50812500Y-55550000D01*
G75*
G02*
X50875000Y-55612500I0J-62500D01*
G01*
X50875000Y-56287500D01*
G75*
G02*
X50812500Y-56350000I-62500J0D01*
G01*
X50687500Y-56350000D01*
G75*
G02*
X50625000Y-56287500I0J62500D01*
G01*
G37*
G36*
G01*
X50125000Y-56287500D02*
X50125000Y-55612500D01*
G75*
G02*
X50187500Y-55550000I62500J0D01*
G01*
X50312500Y-55550000D01*
G75*
G02*
X50375000Y-55612500I0J-62500D01*
G01*
X50375000Y-56287500D01*
G75*
G02*
X50312500Y-56350000I-62500J0D01*
G01*
X50187500Y-56350000D01*
G75*
G02*
X50125000Y-56287500I0J62500D01*
G01*
G37*
G36*
G01*
X49625000Y-56287500D02*
X49625000Y-55612500D01*
G75*
G02*
X49687500Y-55550000I62500J0D01*
G01*
X49812500Y-55550000D01*
G75*
G02*
X49875000Y-55612500I0J-62500D01*
G01*
X49875000Y-56287500D01*
G75*
G02*
X49812500Y-56350000I-62500J0D01*
G01*
X49687500Y-56350000D01*
G75*
G02*
X49625000Y-56287500I0J62500D01*
G01*
G37*
G36*
G01*
X49125000Y-56287500D02*
X49125000Y-55612500D01*
G75*
G02*
X49187500Y-55550000I62500J0D01*
G01*
X49312500Y-55550000D01*
G75*
G02*
X49375000Y-55612500I0J-62500D01*
G01*
X49375000Y-56287500D01*
G75*
G02*
X49312500Y-56350000I-62500J0D01*
G01*
X49187500Y-56350000D01*
G75*
G02*
X49125000Y-56287500I0J62500D01*
G01*
G37*
G36*
G01*
X48625000Y-56287500D02*
X48625000Y-55612500D01*
G75*
G02*
X48687500Y-55550000I62500J0D01*
G01*
X48812500Y-55550000D01*
G75*
G02*
X48875000Y-55612500I0J-62500D01*
G01*
X48875000Y-56287500D01*
G75*
G02*
X48812500Y-56350000I-62500J0D01*
G01*
X48687500Y-56350000D01*
G75*
G02*
X48625000Y-56287500I0J62500D01*
G01*
G37*
G36*
G01*
X48125000Y-56287500D02*
X48125000Y-55612500D01*
G75*
G02*
X48187500Y-55550000I62500J0D01*
G01*
X48312500Y-55550000D01*
G75*
G02*
X48375000Y-55612500I0J-62500D01*
G01*
X48375000Y-56287500D01*
G75*
G02*
X48312500Y-56350000I-62500J0D01*
G01*
X48187500Y-56350000D01*
G75*
G02*
X48125000Y-56287500I0J62500D01*
G01*
G37*
G36*
G01*
X47625000Y-56287500D02*
X47625000Y-55612500D01*
G75*
G02*
X47687500Y-55550000I62500J0D01*
G01*
X47812500Y-55550000D01*
G75*
G02*
X47875000Y-55612500I0J-62500D01*
G01*
X47875000Y-56287500D01*
G75*
G02*
X47812500Y-56350000I-62500J0D01*
G01*
X47687500Y-56350000D01*
G75*
G02*
X47625000Y-56287500I0J62500D01*
G01*
G37*
G36*
G01*
X47125000Y-56287500D02*
X47125000Y-55612500D01*
G75*
G02*
X47187500Y-55550000I62500J0D01*
G01*
X47312500Y-55550000D01*
G75*
G02*
X47375000Y-55612500I0J-62500D01*
G01*
X47375000Y-56287500D01*
G75*
G02*
X47312500Y-56350000I-62500J0D01*
G01*
X47187500Y-56350000D01*
G75*
G02*
X47125000Y-56287500I0J62500D01*
G01*
G37*
G36*
G01*
X46625000Y-56287500D02*
X46625000Y-55612500D01*
G75*
G02*
X46687500Y-55550000I62500J0D01*
G01*
X46812500Y-55550000D01*
G75*
G02*
X46875000Y-55612500I0J-62500D01*
G01*
X46875000Y-56287500D01*
G75*
G02*
X46812500Y-56350000I-62500J0D01*
G01*
X46687500Y-56350000D01*
G75*
G02*
X46625000Y-56287500I0J62500D01*
G01*
G37*
G36*
G01*
X46125000Y-56287500D02*
X46125000Y-55612500D01*
G75*
G02*
X46187500Y-55550000I62500J0D01*
G01*
X46312500Y-55550000D01*
G75*
G02*
X46375000Y-55612500I0J-62500D01*
G01*
X46375000Y-56287500D01*
G75*
G02*
X46312500Y-56350000I-62500J0D01*
G01*
X46187500Y-56350000D01*
G75*
G02*
X46125000Y-56287500I0J62500D01*
G01*
G37*
G36*
G01*
X45625000Y-56287500D02*
X45625000Y-55612500D01*
G75*
G02*
X45687500Y-55550000I62500J0D01*
G01*
X45812500Y-55550000D01*
G75*
G02*
X45875000Y-55612500I0J-62500D01*
G01*
X45875000Y-56287500D01*
G75*
G02*
X45812500Y-56350000I-62500J0D01*
G01*
X45687500Y-56350000D01*
G75*
G02*
X45625000Y-56287500I0J62500D01*
G01*
G37*
G36*
G01*
X45125000Y-56287500D02*
X45125000Y-55612500D01*
G75*
G02*
X45187500Y-55550000I62500J0D01*
G01*
X45312500Y-55550000D01*
G75*
G02*
X45375000Y-55612500I0J-62500D01*
G01*
X45375000Y-56287500D01*
G75*
G02*
X45312500Y-56350000I-62500J0D01*
G01*
X45187500Y-56350000D01*
G75*
G02*
X45125000Y-56287500I0J62500D01*
G01*
G37*
G36*
G01*
X47155085Y-59428251D02*
X47155085Y-58805083D01*
G75*
G02*
X47405083Y-58555085I249998J0D01*
G01*
X48028251Y-58555085D01*
G75*
G02*
X48278249Y-58805083I0J-249998D01*
G01*
X48278249Y-59428251D01*
G75*
G02*
X48028251Y-59678249I-249998J0D01*
G01*
X47405083Y-59678249D01*
G75*
G02*
X47155085Y-59428251I0J249998D01*
G01*
G37*
G36*
G01*
X47155085Y-60711584D02*
X47155085Y-60088416D01*
G75*
G02*
X47405083Y-59838418I249998J0D01*
G01*
X48028251Y-59838418D01*
G75*
G02*
X48278249Y-60088416I0J-249998D01*
G01*
X48278249Y-60711584D01*
G75*
G02*
X48028251Y-60961582I-249998J0D01*
G01*
X47405083Y-60961582D01*
G75*
G02*
X47155085Y-60711584I0J249998D01*
G01*
G37*
G36*
G01*
X47155085Y-61994917D02*
X47155085Y-61371749D01*
G75*
G02*
X47405083Y-61121751I249998J0D01*
G01*
X48028251Y-61121751D01*
G75*
G02*
X48278249Y-61371749I0J-249998D01*
G01*
X48278249Y-61994917D01*
G75*
G02*
X48028251Y-62244915I-249998J0D01*
G01*
X47405083Y-62244915D01*
G75*
G02*
X47155085Y-61994917I0J249998D01*
G01*
G37*
G36*
G01*
X48438418Y-59428251D02*
X48438418Y-58805083D01*
G75*
G02*
X48688416Y-58555085I249998J0D01*
G01*
X49311584Y-58555085D01*
G75*
G02*
X49561582Y-58805083I0J-249998D01*
G01*
X49561582Y-59428251D01*
G75*
G02*
X49311584Y-59678249I-249998J0D01*
G01*
X48688416Y-59678249D01*
G75*
G02*
X48438418Y-59428251I0J249998D01*
G01*
G37*
G36*
G01*
X48438418Y-60711584D02*
X48438418Y-60088416D01*
G75*
G02*
X48688416Y-59838418I249998J0D01*
G01*
X49311584Y-59838418D01*
G75*
G02*
X49561582Y-60088416I0J-249998D01*
G01*
X49561582Y-60711584D01*
G75*
G02*
X49311584Y-60961582I-249998J0D01*
G01*
X48688416Y-60961582D01*
G75*
G02*
X48438418Y-60711584I0J249998D01*
G01*
G37*
G36*
G01*
X48438418Y-61994917D02*
X48438418Y-61371749D01*
G75*
G02*
X48688416Y-61121751I249998J0D01*
G01*
X49311584Y-61121751D01*
G75*
G02*
X49561582Y-61371749I0J-249998D01*
G01*
X49561582Y-61994917D01*
G75*
G02*
X49311584Y-62244915I-249998J0D01*
G01*
X48688416Y-62244915D01*
G75*
G02*
X48438418Y-61994917I0J249998D01*
G01*
G37*
G36*
G01*
X49721751Y-59428251D02*
X49721751Y-58805083D01*
G75*
G02*
X49971749Y-58555085I249998J0D01*
G01*
X50594917Y-58555085D01*
G75*
G02*
X50844915Y-58805083I0J-249998D01*
G01*
X50844915Y-59428251D01*
G75*
G02*
X50594917Y-59678249I-249998J0D01*
G01*
X49971749Y-59678249D01*
G75*
G02*
X49721751Y-59428251I0J249998D01*
G01*
G37*
G36*
G01*
X49721751Y-60711584D02*
X49721751Y-60088416D01*
G75*
G02*
X49971749Y-59838418I249998J0D01*
G01*
X50594917Y-59838418D01*
G75*
G02*
X50844915Y-60088416I0J-249998D01*
G01*
X50844915Y-60711584D01*
G75*
G02*
X50594917Y-60961582I-249998J0D01*
G01*
X49971749Y-60961582D01*
G75*
G02*
X49721751Y-60711584I0J249998D01*
G01*
G37*
G36*
G01*
X49721751Y-61994917D02*
X49721751Y-61371749D01*
G75*
G02*
X49971749Y-61121751I249998J0D01*
G01*
X50594917Y-61121751D01*
G75*
G02*
X50844915Y-61371749I0J-249998D01*
G01*
X50844915Y-61994917D01*
G75*
G02*
X50594917Y-62244915I-249998J0D01*
G01*
X49971749Y-62244915D01*
G75*
G02*
X49721751Y-61994917I0J249998D01*
G01*
G37*
G36*
G01*
X56250000Y-48950000D02*
X56250000Y-48750000D01*
G75*
G02*
X56350000Y-48650000I100000J0D01*
G01*
X56650000Y-48650000D01*
G75*
G02*
X56750000Y-48750000I0J-100000D01*
G01*
X56750000Y-48950000D01*
G75*
G02*
X56650000Y-49050000I-100000J0D01*
G01*
X56350000Y-49050000D01*
G75*
G02*
X56250000Y-48950000I0J100000D01*
G01*
G37*
G36*
G01*
X56250000Y-49925000D02*
X56250000Y-49775000D01*
G75*
G02*
X56325000Y-49700000I75000J0D01*
G01*
X56675000Y-49700000D01*
G75*
G02*
X56750000Y-49775000I0J-75000D01*
G01*
X56750000Y-49925000D01*
G75*
G02*
X56675000Y-50000000I-75000J0D01*
G01*
X56325000Y-50000000D01*
G75*
G02*
X56250000Y-49925000I0J75000D01*
G01*
G37*
G36*
G01*
X56250000Y-49425000D02*
X56250000Y-49275000D01*
G75*
G02*
X56325000Y-49200000I75000J0D01*
G01*
X56675000Y-49200000D01*
G75*
G02*
X56750000Y-49275000I0J-75000D01*
G01*
X56750000Y-49425000D01*
G75*
G02*
X56675000Y-49500000I-75000J0D01*
G01*
X56325000Y-49500000D01*
G75*
G02*
X56250000Y-49425000I0J75000D01*
G01*
G37*
G36*
G01*
X56250000Y-50450000D02*
X56250000Y-50250000D01*
G75*
G02*
X56350000Y-50150000I100000J0D01*
G01*
X56650000Y-50150000D01*
G75*
G02*
X56750000Y-50250000I0J-100000D01*
G01*
X56750000Y-50450000D01*
G75*
G02*
X56650000Y-50550000I-100000J0D01*
G01*
X56350000Y-50550000D01*
G75*
G02*
X56250000Y-50450000I0J100000D01*
G01*
G37*
G36*
G01*
X57250000Y-49425000D02*
X57250000Y-49275000D01*
G75*
G02*
X57325000Y-49200000I75000J0D01*
G01*
X57675000Y-49200000D01*
G75*
G02*
X57750000Y-49275000I0J-75000D01*
G01*
X57750000Y-49425000D01*
G75*
G02*
X57675000Y-49500000I-75000J0D01*
G01*
X57325000Y-49500000D01*
G75*
G02*
X57250000Y-49425000I0J75000D01*
G01*
G37*
G36*
G01*
X57250000Y-48950000D02*
X57250000Y-48750000D01*
G75*
G02*
X57350000Y-48650000I100000J0D01*
G01*
X57650000Y-48650000D01*
G75*
G02*
X57750000Y-48750000I0J-100000D01*
G01*
X57750000Y-48950000D01*
G75*
G02*
X57650000Y-49050000I-100000J0D01*
G01*
X57350000Y-49050000D01*
G75*
G02*
X57250000Y-48950000I0J100000D01*
G01*
G37*
G36*
G01*
X57250000Y-49925000D02*
X57250000Y-49775000D01*
G75*
G02*
X57325000Y-49700000I75000J0D01*
G01*
X57675000Y-49700000D01*
G75*
G02*
X57750000Y-49775000I0J-75000D01*
G01*
X57750000Y-49925000D01*
G75*
G02*
X57675000Y-50000000I-75000J0D01*
G01*
X57325000Y-50000000D01*
G75*
G02*
X57250000Y-49925000I0J75000D01*
G01*
G37*
G36*
G01*
X57250000Y-50450000D02*
X57250000Y-50250000D01*
G75*
G02*
X57350000Y-50150000I100000J0D01*
G01*
X57650000Y-50150000D01*
G75*
G02*
X57750000Y-50250000I0J-100000D01*
G01*
X57750000Y-50450000D01*
G75*
G02*
X57650000Y-50550000I-100000J0D01*
G01*
X57350000Y-50550000D01*
G75*
G02*
X57250000Y-50450000I0J100000D01*
G01*
G37*
G36*
G01*
X56250000Y-51550000D02*
X56250000Y-51350000D01*
G75*
G02*
X56350000Y-51250000I100000J0D01*
G01*
X56650000Y-51250000D01*
G75*
G02*
X56750000Y-51350000I0J-100000D01*
G01*
X56750000Y-51550000D01*
G75*
G02*
X56650000Y-51650000I-100000J0D01*
G01*
X56350000Y-51650000D01*
G75*
G02*
X56250000Y-51550000I0J100000D01*
G01*
G37*
G36*
G01*
X56250000Y-52525000D02*
X56250000Y-52375000D01*
G75*
G02*
X56325000Y-52300000I75000J0D01*
G01*
X56675000Y-52300000D01*
G75*
G02*
X56750000Y-52375000I0J-75000D01*
G01*
X56750000Y-52525000D01*
G75*
G02*
X56675000Y-52600000I-75000J0D01*
G01*
X56325000Y-52600000D01*
G75*
G02*
X56250000Y-52525000I0J75000D01*
G01*
G37*
G36*
G01*
X56250000Y-52025000D02*
X56250000Y-51875000D01*
G75*
G02*
X56325000Y-51800000I75000J0D01*
G01*
X56675000Y-51800000D01*
G75*
G02*
X56750000Y-51875000I0J-75000D01*
G01*
X56750000Y-52025000D01*
G75*
G02*
X56675000Y-52100000I-75000J0D01*
G01*
X56325000Y-52100000D01*
G75*
G02*
X56250000Y-52025000I0J75000D01*
G01*
G37*
G36*
G01*
X56250000Y-53050000D02*
X56250000Y-52850000D01*
G75*
G02*
X56350000Y-52750000I100000J0D01*
G01*
X56650000Y-52750000D01*
G75*
G02*
X56750000Y-52850000I0J-100000D01*
G01*
X56750000Y-53050000D01*
G75*
G02*
X56650000Y-53150000I-100000J0D01*
G01*
X56350000Y-53150000D01*
G75*
G02*
X56250000Y-53050000I0J100000D01*
G01*
G37*
G36*
G01*
X57250000Y-52025000D02*
X57250000Y-51875000D01*
G75*
G02*
X57325000Y-51800000I75000J0D01*
G01*
X57675000Y-51800000D01*
G75*
G02*
X57750000Y-51875000I0J-75000D01*
G01*
X57750000Y-52025000D01*
G75*
G02*
X57675000Y-52100000I-75000J0D01*
G01*
X57325000Y-52100000D01*
G75*
G02*
X57250000Y-52025000I0J75000D01*
G01*
G37*
G36*
G01*
X57250000Y-51550000D02*
X57250000Y-51350000D01*
G75*
G02*
X57350000Y-51250000I100000J0D01*
G01*
X57650000Y-51250000D01*
G75*
G02*
X57750000Y-51350000I0J-100000D01*
G01*
X57750000Y-51550000D01*
G75*
G02*
X57650000Y-51650000I-100000J0D01*
G01*
X57350000Y-51650000D01*
G75*
G02*
X57250000Y-51550000I0J100000D01*
G01*
G37*
G36*
G01*
X57250000Y-52525000D02*
X57250000Y-52375000D01*
G75*
G02*
X57325000Y-52300000I75000J0D01*
G01*
X57675000Y-52300000D01*
G75*
G02*
X57750000Y-52375000I0J-75000D01*
G01*
X57750000Y-52525000D01*
G75*
G02*
X57675000Y-52600000I-75000J0D01*
G01*
X57325000Y-52600000D01*
G75*
G02*
X57250000Y-52525000I0J75000D01*
G01*
G37*
G36*
G01*
X57250000Y-53050000D02*
X57250000Y-52850000D01*
G75*
G02*
X57350000Y-52750000I100000J0D01*
G01*
X57650000Y-52750000D01*
G75*
G02*
X57750000Y-52850000I0J-100000D01*
G01*
X57750000Y-53050000D01*
G75*
G02*
X57650000Y-53150000I-100000J0D01*
G01*
X57350000Y-53150000D01*
G75*
G02*
X57250000Y-53050000I0J100000D01*
G01*
G37*
G36*
G01*
X66750000Y-49600000D02*
X66750000Y-49400000D01*
G75*
G02*
X66850000Y-49300000I100000J0D01*
G01*
X67150000Y-49300000D01*
G75*
G02*
X67250000Y-49400000I0J-100000D01*
G01*
X67250000Y-49600000D01*
G75*
G02*
X67150000Y-49700000I-100000J0D01*
G01*
X66850000Y-49700000D01*
G75*
G02*
X66750000Y-49600000I0J100000D01*
G01*
G37*
G36*
G01*
X66750000Y-50575000D02*
X66750000Y-50425000D01*
G75*
G02*
X66825000Y-50350000I75000J0D01*
G01*
X67175000Y-50350000D01*
G75*
G02*
X67250000Y-50425000I0J-75000D01*
G01*
X67250000Y-50575000D01*
G75*
G02*
X67175000Y-50650000I-75000J0D01*
G01*
X66825000Y-50650000D01*
G75*
G02*
X66750000Y-50575000I0J75000D01*
G01*
G37*
G36*
G01*
X66750000Y-50075000D02*
X66750000Y-49925000D01*
G75*
G02*
X66825000Y-49850000I75000J0D01*
G01*
X67175000Y-49850000D01*
G75*
G02*
X67250000Y-49925000I0J-75000D01*
G01*
X67250000Y-50075000D01*
G75*
G02*
X67175000Y-50150000I-75000J0D01*
G01*
X66825000Y-50150000D01*
G75*
G02*
X66750000Y-50075000I0J75000D01*
G01*
G37*
G36*
G01*
X66750000Y-51100000D02*
X66750000Y-50900000D01*
G75*
G02*
X66850000Y-50800000I100000J0D01*
G01*
X67150000Y-50800000D01*
G75*
G02*
X67250000Y-50900000I0J-100000D01*
G01*
X67250000Y-51100000D01*
G75*
G02*
X67150000Y-51200000I-100000J0D01*
G01*
X66850000Y-51200000D01*
G75*
G02*
X66750000Y-51100000I0J100000D01*
G01*
G37*
G36*
G01*
X67750000Y-50075000D02*
X67750000Y-49925000D01*
G75*
G02*
X67825000Y-49850000I75000J0D01*
G01*
X68175000Y-49850000D01*
G75*
G02*
X68250000Y-49925000I0J-75000D01*
G01*
X68250000Y-50075000D01*
G75*
G02*
X68175000Y-50150000I-75000J0D01*
G01*
X67825000Y-50150000D01*
G75*
G02*
X67750000Y-50075000I0J75000D01*
G01*
G37*
G36*
G01*
X67750000Y-49600000D02*
X67750000Y-49400000D01*
G75*
G02*
X67850000Y-49300000I100000J0D01*
G01*
X68150000Y-49300000D01*
G75*
G02*
X68250000Y-49400000I0J-100000D01*
G01*
X68250000Y-49600000D01*
G75*
G02*
X68150000Y-49700000I-100000J0D01*
G01*
X67850000Y-49700000D01*
G75*
G02*
X67750000Y-49600000I0J100000D01*
G01*
G37*
G36*
G01*
X67750000Y-50575000D02*
X67750000Y-50425000D01*
G75*
G02*
X67825000Y-50350000I75000J0D01*
G01*
X68175000Y-50350000D01*
G75*
G02*
X68250000Y-50425000I0J-75000D01*
G01*
X68250000Y-50575000D01*
G75*
G02*
X68175000Y-50650000I-75000J0D01*
G01*
X67825000Y-50650000D01*
G75*
G02*
X67750000Y-50575000I0J75000D01*
G01*
G37*
G36*
G01*
X67750000Y-51100000D02*
X67750000Y-50900000D01*
G75*
G02*
X67850000Y-50800000I100000J0D01*
G01*
X68150000Y-50800000D01*
G75*
G02*
X68250000Y-50900000I0J-100000D01*
G01*
X68250000Y-51100000D01*
G75*
G02*
X68150000Y-51200000I-100000J0D01*
G01*
X67850000Y-51200000D01*
G75*
G02*
X67750000Y-51100000I0J100000D01*
G01*
G37*
G36*
G01*
X66750000Y-52200000D02*
X66750000Y-52000000D01*
G75*
G02*
X66850000Y-51900000I100000J0D01*
G01*
X67150000Y-51900000D01*
G75*
G02*
X67250000Y-52000000I0J-100000D01*
G01*
X67250000Y-52200000D01*
G75*
G02*
X67150000Y-52300000I-100000J0D01*
G01*
X66850000Y-52300000D01*
G75*
G02*
X66750000Y-52200000I0J100000D01*
G01*
G37*
G36*
G01*
X66750000Y-53175000D02*
X66750000Y-53025000D01*
G75*
G02*
X66825000Y-52950000I75000J0D01*
G01*
X67175000Y-52950000D01*
G75*
G02*
X67250000Y-53025000I0J-75000D01*
G01*
X67250000Y-53175000D01*
G75*
G02*
X67175000Y-53250000I-75000J0D01*
G01*
X66825000Y-53250000D01*
G75*
G02*
X66750000Y-53175000I0J75000D01*
G01*
G37*
G36*
G01*
X66750000Y-52675000D02*
X66750000Y-52525000D01*
G75*
G02*
X66825000Y-52450000I75000J0D01*
G01*
X67175000Y-52450000D01*
G75*
G02*
X67250000Y-52525000I0J-75000D01*
G01*
X67250000Y-52675000D01*
G75*
G02*
X67175000Y-52750000I-75000J0D01*
G01*
X66825000Y-52750000D01*
G75*
G02*
X66750000Y-52675000I0J75000D01*
G01*
G37*
G36*
G01*
X66750000Y-53700000D02*
X66750000Y-53500000D01*
G75*
G02*
X66850000Y-53400000I100000J0D01*
G01*
X67150000Y-53400000D01*
G75*
G02*
X67250000Y-53500000I0J-100000D01*
G01*
X67250000Y-53700000D01*
G75*
G02*
X67150000Y-53800000I-100000J0D01*
G01*
X66850000Y-53800000D01*
G75*
G02*
X66750000Y-53700000I0J100000D01*
G01*
G37*
G36*
G01*
X67750000Y-52675000D02*
X67750000Y-52525000D01*
G75*
G02*
X67825000Y-52450000I75000J0D01*
G01*
X68175000Y-52450000D01*
G75*
G02*
X68250000Y-52525000I0J-75000D01*
G01*
X68250000Y-52675000D01*
G75*
G02*
X68175000Y-52750000I-75000J0D01*
G01*
X67825000Y-52750000D01*
G75*
G02*
X67750000Y-52675000I0J75000D01*
G01*
G37*
G36*
G01*
X67750000Y-52200000D02*
X67750000Y-52000000D01*
G75*
G02*
X67850000Y-51900000I100000J0D01*
G01*
X68150000Y-51900000D01*
G75*
G02*
X68250000Y-52000000I0J-100000D01*
G01*
X68250000Y-52200000D01*
G75*
G02*
X68150000Y-52300000I-100000J0D01*
G01*
X67850000Y-52300000D01*
G75*
G02*
X67750000Y-52200000I0J100000D01*
G01*
G37*
G36*
G01*
X67750000Y-53175000D02*
X67750000Y-53025000D01*
G75*
G02*
X67825000Y-52950000I75000J0D01*
G01*
X68175000Y-52950000D01*
G75*
G02*
X68250000Y-53025000I0J-75000D01*
G01*
X68250000Y-53175000D01*
G75*
G02*
X68175000Y-53250000I-75000J0D01*
G01*
X67825000Y-53250000D01*
G75*
G02*
X67750000Y-53175000I0J75000D01*
G01*
G37*
G36*
G01*
X67750000Y-53700000D02*
X67750000Y-53500000D01*
G75*
G02*
X67850000Y-53400000I100000J0D01*
G01*
X68150000Y-53400000D01*
G75*
G02*
X68250000Y-53500000I0J-100000D01*
G01*
X68250000Y-53700000D01*
G75*
G02*
X68150000Y-53800000I-100000J0D01*
G01*
X67850000Y-53800000D01*
G75*
G02*
X67750000Y-53700000I0J100000D01*
G01*
G37*
G36*
G01*
X57250000Y-60450000D02*
X57250000Y-60250000D01*
G75*
G02*
X57350000Y-60150000I100000J0D01*
G01*
X57650000Y-60150000D01*
G75*
G02*
X57750000Y-60250000I0J-100000D01*
G01*
X57750000Y-60450000D01*
G75*
G02*
X57650000Y-60550000I-100000J0D01*
G01*
X57350000Y-60550000D01*
G75*
G02*
X57250000Y-60450000I0J100000D01*
G01*
G37*
G36*
G01*
X57250000Y-59925000D02*
X57250000Y-59775000D01*
G75*
G02*
X57325000Y-59700000I75000J0D01*
G01*
X57675000Y-59700000D01*
G75*
G02*
X57750000Y-59775000I0J-75000D01*
G01*
X57750000Y-59925000D01*
G75*
G02*
X57675000Y-60000000I-75000J0D01*
G01*
X57325000Y-60000000D01*
G75*
G02*
X57250000Y-59925000I0J75000D01*
G01*
G37*
G36*
G01*
X57250000Y-58950000D02*
X57250000Y-58750000D01*
G75*
G02*
X57350000Y-58650000I100000J0D01*
G01*
X57650000Y-58650000D01*
G75*
G02*
X57750000Y-58750000I0J-100000D01*
G01*
X57750000Y-58950000D01*
G75*
G02*
X57650000Y-59050000I-100000J0D01*
G01*
X57350000Y-59050000D01*
G75*
G02*
X57250000Y-58950000I0J100000D01*
G01*
G37*
G36*
G01*
X57250000Y-59425000D02*
X57250000Y-59275000D01*
G75*
G02*
X57325000Y-59200000I75000J0D01*
G01*
X57675000Y-59200000D01*
G75*
G02*
X57750000Y-59275000I0J-75000D01*
G01*
X57750000Y-59425000D01*
G75*
G02*
X57675000Y-59500000I-75000J0D01*
G01*
X57325000Y-59500000D01*
G75*
G02*
X57250000Y-59425000I0J75000D01*
G01*
G37*
G36*
G01*
X56250000Y-60450000D02*
X56250000Y-60250000D01*
G75*
G02*
X56350000Y-60150000I100000J0D01*
G01*
X56650000Y-60150000D01*
G75*
G02*
X56750000Y-60250000I0J-100000D01*
G01*
X56750000Y-60450000D01*
G75*
G02*
X56650000Y-60550000I-100000J0D01*
G01*
X56350000Y-60550000D01*
G75*
G02*
X56250000Y-60450000I0J100000D01*
G01*
G37*
G36*
G01*
X56250000Y-59425000D02*
X56250000Y-59275000D01*
G75*
G02*
X56325000Y-59200000I75000J0D01*
G01*
X56675000Y-59200000D01*
G75*
G02*
X56750000Y-59275000I0J-75000D01*
G01*
X56750000Y-59425000D01*
G75*
G02*
X56675000Y-59500000I-75000J0D01*
G01*
X56325000Y-59500000D01*
G75*
G02*
X56250000Y-59425000I0J75000D01*
G01*
G37*
G36*
G01*
X56250000Y-59925000D02*
X56250000Y-59775000D01*
G75*
G02*
X56325000Y-59700000I75000J0D01*
G01*
X56675000Y-59700000D01*
G75*
G02*
X56750000Y-59775000I0J-75000D01*
G01*
X56750000Y-59925000D01*
G75*
G02*
X56675000Y-60000000I-75000J0D01*
G01*
X56325000Y-60000000D01*
G75*
G02*
X56250000Y-59925000I0J75000D01*
G01*
G37*
G36*
G01*
X56250000Y-58950000D02*
X56250000Y-58750000D01*
G75*
G02*
X56350000Y-58650000I100000J0D01*
G01*
X56650000Y-58650000D01*
G75*
G02*
X56750000Y-58750000I0J-100000D01*
G01*
X56750000Y-58950000D01*
G75*
G02*
X56650000Y-59050000I-100000J0D01*
G01*
X56350000Y-59050000D01*
G75*
G02*
X56250000Y-58950000I0J100000D01*
G01*
G37*
G36*
G01*
X66750000Y-59600000D02*
X66750000Y-59400000D01*
G75*
G02*
X66850000Y-59300000I100000J0D01*
G01*
X67150000Y-59300000D01*
G75*
G02*
X67250000Y-59400000I0J-100000D01*
G01*
X67250000Y-59600000D01*
G75*
G02*
X67150000Y-59700000I-100000J0D01*
G01*
X66850000Y-59700000D01*
G75*
G02*
X66750000Y-59600000I0J100000D01*
G01*
G37*
G36*
G01*
X66750000Y-60575000D02*
X66750000Y-60425000D01*
G75*
G02*
X66825000Y-60350000I75000J0D01*
G01*
X67175000Y-60350000D01*
G75*
G02*
X67250000Y-60425000I0J-75000D01*
G01*
X67250000Y-60575000D01*
G75*
G02*
X67175000Y-60650000I-75000J0D01*
G01*
X66825000Y-60650000D01*
G75*
G02*
X66750000Y-60575000I0J75000D01*
G01*
G37*
G36*
G01*
X66750000Y-60075000D02*
X66750000Y-59925000D01*
G75*
G02*
X66825000Y-59850000I75000J0D01*
G01*
X67175000Y-59850000D01*
G75*
G02*
X67250000Y-59925000I0J-75000D01*
G01*
X67250000Y-60075000D01*
G75*
G02*
X67175000Y-60150000I-75000J0D01*
G01*
X66825000Y-60150000D01*
G75*
G02*
X66750000Y-60075000I0J75000D01*
G01*
G37*
G36*
G01*
X66750000Y-61100000D02*
X66750000Y-60900000D01*
G75*
G02*
X66850000Y-60800000I100000J0D01*
G01*
X67150000Y-60800000D01*
G75*
G02*
X67250000Y-60900000I0J-100000D01*
G01*
X67250000Y-61100000D01*
G75*
G02*
X67150000Y-61200000I-100000J0D01*
G01*
X66850000Y-61200000D01*
G75*
G02*
X66750000Y-61100000I0J100000D01*
G01*
G37*
G36*
G01*
X67750000Y-60075000D02*
X67750000Y-59925000D01*
G75*
G02*
X67825000Y-59850000I75000J0D01*
G01*
X68175000Y-59850000D01*
G75*
G02*
X68250000Y-59925000I0J-75000D01*
G01*
X68250000Y-60075000D01*
G75*
G02*
X68175000Y-60150000I-75000J0D01*
G01*
X67825000Y-60150000D01*
G75*
G02*
X67750000Y-60075000I0J75000D01*
G01*
G37*
G36*
G01*
X67750000Y-59600000D02*
X67750000Y-59400000D01*
G75*
G02*
X67850000Y-59300000I100000J0D01*
G01*
X68150000Y-59300000D01*
G75*
G02*
X68250000Y-59400000I0J-100000D01*
G01*
X68250000Y-59600000D01*
G75*
G02*
X68150000Y-59700000I-100000J0D01*
G01*
X67850000Y-59700000D01*
G75*
G02*
X67750000Y-59600000I0J100000D01*
G01*
G37*
G36*
G01*
X67750000Y-60575000D02*
X67750000Y-60425000D01*
G75*
G02*
X67825000Y-60350000I75000J0D01*
G01*
X68175000Y-60350000D01*
G75*
G02*
X68250000Y-60425000I0J-75000D01*
G01*
X68250000Y-60575000D01*
G75*
G02*
X68175000Y-60650000I-75000J0D01*
G01*
X67825000Y-60650000D01*
G75*
G02*
X67750000Y-60575000I0J75000D01*
G01*
G37*
G36*
G01*
X67750000Y-61100000D02*
X67750000Y-60900000D01*
G75*
G02*
X67850000Y-60800000I100000J0D01*
G01*
X68150000Y-60800000D01*
G75*
G02*
X68250000Y-60900000I0J-100000D01*
G01*
X68250000Y-61100000D01*
G75*
G02*
X68150000Y-61200000I-100000J0D01*
G01*
X67850000Y-61200000D01*
G75*
G02*
X67750000Y-61100000I0J100000D01*
G01*
G37*
G36*
G01*
X67750000Y-63700000D02*
X67750000Y-63500000D01*
G75*
G02*
X67850000Y-63400000I100000J0D01*
G01*
X68150000Y-63400000D01*
G75*
G02*
X68250000Y-63500000I0J-100000D01*
G01*
X68250000Y-63700000D01*
G75*
G02*
X68150000Y-63800000I-100000J0D01*
G01*
X67850000Y-63800000D01*
G75*
G02*
X67750000Y-63700000I0J100000D01*
G01*
G37*
G36*
G01*
X67750000Y-63175000D02*
X67750000Y-63025000D01*
G75*
G02*
X67825000Y-62950000I75000J0D01*
G01*
X68175000Y-62950000D01*
G75*
G02*
X68250000Y-63025000I0J-75000D01*
G01*
X68250000Y-63175000D01*
G75*
G02*
X68175000Y-63250000I-75000J0D01*
G01*
X67825000Y-63250000D01*
G75*
G02*
X67750000Y-63175000I0J75000D01*
G01*
G37*
G36*
G01*
X67750000Y-62200000D02*
X67750000Y-62000000D01*
G75*
G02*
X67850000Y-61900000I100000J0D01*
G01*
X68150000Y-61900000D01*
G75*
G02*
X68250000Y-62000000I0J-100000D01*
G01*
X68250000Y-62200000D01*
G75*
G02*
X68150000Y-62300000I-100000J0D01*
G01*
X67850000Y-62300000D01*
G75*
G02*
X67750000Y-62200000I0J100000D01*
G01*
G37*
G36*
G01*
X67750000Y-62675000D02*
X67750000Y-62525000D01*
G75*
G02*
X67825000Y-62450000I75000J0D01*
G01*
X68175000Y-62450000D01*
G75*
G02*
X68250000Y-62525000I0J-75000D01*
G01*
X68250000Y-62675000D01*
G75*
G02*
X68175000Y-62750000I-75000J0D01*
G01*
X67825000Y-62750000D01*
G75*
G02*
X67750000Y-62675000I0J75000D01*
G01*
G37*
G36*
G01*
X66750000Y-63700000D02*
X66750000Y-63500000D01*
G75*
G02*
X66850000Y-63400000I100000J0D01*
G01*
X67150000Y-63400000D01*
G75*
G02*
X67250000Y-63500000I0J-100000D01*
G01*
X67250000Y-63700000D01*
G75*
G02*
X67150000Y-63800000I-100000J0D01*
G01*
X66850000Y-63800000D01*
G75*
G02*
X66750000Y-63700000I0J100000D01*
G01*
G37*
G36*
G01*
X66750000Y-62675000D02*
X66750000Y-62525000D01*
G75*
G02*
X66825000Y-62450000I75000J0D01*
G01*
X67175000Y-62450000D01*
G75*
G02*
X67250000Y-62525000I0J-75000D01*
G01*
X67250000Y-62675000D01*
G75*
G02*
X67175000Y-62750000I-75000J0D01*
G01*
X66825000Y-62750000D01*
G75*
G02*
X66750000Y-62675000I0J75000D01*
G01*
G37*
G36*
G01*
X66750000Y-63175000D02*
X66750000Y-63025000D01*
G75*
G02*
X66825000Y-62950000I75000J0D01*
G01*
X67175000Y-62950000D01*
G75*
G02*
X67250000Y-63025000I0J-75000D01*
G01*
X67250000Y-63175000D01*
G75*
G02*
X67175000Y-63250000I-75000J0D01*
G01*
X66825000Y-63250000D01*
G75*
G02*
X66750000Y-63175000I0J75000D01*
G01*
G37*
G36*
G01*
X66750000Y-62200000D02*
X66750000Y-62000000D01*
G75*
G02*
X66850000Y-61900000I100000J0D01*
G01*
X67150000Y-61900000D01*
G75*
G02*
X67250000Y-62000000I0J-100000D01*
G01*
X67250000Y-62200000D01*
G75*
G02*
X67150000Y-62300000I-100000J0D01*
G01*
X66850000Y-62300000D01*
G75*
G02*
X66750000Y-62200000I0J100000D01*
G01*
G37*
G36*
G01*
X52950000Y-48850000D02*
X52550000Y-48850000D01*
G75*
G02*
X52350000Y-48650000I0J200000D01*
G01*
X52350000Y-48150000D01*
G75*
G02*
X52550000Y-47950000I200000J0D01*
G01*
X52950000Y-47950000D01*
G75*
G02*
X53150000Y-48150000I0J-200000D01*
G01*
X53150000Y-48650000D01*
G75*
G02*
X52950000Y-48850000I-200000J0D01*
G01*
G37*
G36*
G01*
X53900000Y-50850000D02*
X53500000Y-50850000D01*
G75*
G02*
X53300000Y-50650000I0J200000D01*
G01*
X53300000Y-50150000D01*
G75*
G02*
X53500000Y-49950000I200000J0D01*
G01*
X53900000Y-49950000D01*
G75*
G02*
X54100000Y-50150000I0J-200000D01*
G01*
X54100000Y-50650000D01*
G75*
G02*
X53900000Y-50850000I-200000J0D01*
G01*
G37*
G36*
G01*
X52000000Y-50850000D02*
X51600000Y-50850000D01*
G75*
G02*
X51400000Y-50650000I0J200000D01*
G01*
X51400000Y-50150000D01*
G75*
G02*
X51600000Y-49950000I200000J0D01*
G01*
X52000000Y-49950000D01*
G75*
G02*
X52200000Y-50150000I0J-200000D01*
G01*
X52200000Y-50650000D01*
G75*
G02*
X52000000Y-50850000I-200000J0D01*
G01*
G37*
G36*
G01*
X43880000Y-48937500D02*
X43880000Y-49262500D01*
G75*
G02*
X43717500Y-49425000I-162500J0D01*
G01*
X42982500Y-49425000D01*
G75*
G02*
X42820000Y-49262500I0J162500D01*
G01*
X42820000Y-48937500D01*
G75*
G02*
X42982500Y-48775000I162500J0D01*
G01*
X43717500Y-48775000D01*
G75*
G02*
X43880000Y-48937500I0J-162500D01*
G01*
G37*
G36*
G01*
X43880000Y-47987500D02*
X43880000Y-48312500D01*
G75*
G02*
X43717500Y-48475000I-162500J0D01*
G01*
X42982500Y-48475000D01*
G75*
G02*
X42820000Y-48312500I0J162500D01*
G01*
X42820000Y-47987500D01*
G75*
G02*
X42982500Y-47825000I162500J0D01*
G01*
X43717500Y-47825000D01*
G75*
G02*
X43880000Y-47987500I0J-162500D01*
G01*
G37*
G36*
G01*
X43880000Y-47037500D02*
X43880000Y-47362500D01*
G75*
G02*
X43717500Y-47525000I-162500J0D01*
G01*
X42982500Y-47525000D01*
G75*
G02*
X42820000Y-47362500I0J162500D01*
G01*
X42820000Y-47037500D01*
G75*
G02*
X42982500Y-46875000I162500J0D01*
G01*
X43717500Y-46875000D01*
G75*
G02*
X43880000Y-47037500I0J-162500D01*
G01*
G37*
G36*
G01*
X41680000Y-47037500D02*
X41680000Y-47362500D01*
G75*
G02*
X41517500Y-47525000I-162500J0D01*
G01*
X40782500Y-47525000D01*
G75*
G02*
X40620000Y-47362500I0J162500D01*
G01*
X40620000Y-47037500D01*
G75*
G02*
X40782500Y-46875000I162500J0D01*
G01*
X41517500Y-46875000D01*
G75*
G02*
X41680000Y-47037500I0J-162500D01*
G01*
G37*
G36*
G01*
X41680000Y-48937500D02*
X41680000Y-49262500D01*
G75*
G02*
X41517500Y-49425000I-162500J0D01*
G01*
X40782500Y-49425000D01*
G75*
G02*
X40620000Y-49262500I0J162500D01*
G01*
X40620000Y-48937500D01*
G75*
G02*
X40782500Y-48775000I162500J0D01*
G01*
X41517500Y-48775000D01*
G75*
G02*
X41680000Y-48937500I0J-162500D01*
G01*
G37*
G36*
G01*
X41680000Y-44687500D02*
X41680000Y-45012500D01*
G75*
G02*
X41517500Y-45175000I-162500J0D01*
G01*
X40782500Y-45175000D01*
G75*
G02*
X40620000Y-45012500I0J162500D01*
G01*
X40620000Y-44687500D01*
G75*
G02*
X40782500Y-44525000I162500J0D01*
G01*
X41517500Y-44525000D01*
G75*
G02*
X41680000Y-44687500I0J-162500D01*
G01*
G37*
G36*
G01*
X41680000Y-42787500D02*
X41680000Y-43112500D01*
G75*
G02*
X41517500Y-43275000I-162500J0D01*
G01*
X40782500Y-43275000D01*
G75*
G02*
X40620000Y-43112500I0J162500D01*
G01*
X40620000Y-42787500D01*
G75*
G02*
X40782500Y-42625000I162500J0D01*
G01*
X41517500Y-42625000D01*
G75*
G02*
X41680000Y-42787500I0J-162500D01*
G01*
G37*
G36*
G01*
X43880000Y-42787500D02*
X43880000Y-43112500D01*
G75*
G02*
X43717500Y-43275000I-162500J0D01*
G01*
X42982500Y-43275000D01*
G75*
G02*
X42820000Y-43112500I0J162500D01*
G01*
X42820000Y-42787500D01*
G75*
G02*
X42982500Y-42625000I162500J0D01*
G01*
X43717500Y-42625000D01*
G75*
G02*
X43880000Y-42787500I0J-162500D01*
G01*
G37*
G36*
G01*
X43880000Y-43737500D02*
X43880000Y-44062500D01*
G75*
G02*
X43717500Y-44225000I-162500J0D01*
G01*
X42982500Y-44225000D01*
G75*
G02*
X42820000Y-44062500I0J162500D01*
G01*
X42820000Y-43737500D01*
G75*
G02*
X42982500Y-43575000I162500J0D01*
G01*
X43717500Y-43575000D01*
G75*
G02*
X43880000Y-43737500I0J-162500D01*
G01*
G37*
G36*
G01*
X43880000Y-44687500D02*
X43880000Y-45012500D01*
G75*
G02*
X43717500Y-45175000I-162500J0D01*
G01*
X42982500Y-45175000D01*
G75*
G02*
X42820000Y-45012500I0J162500D01*
G01*
X42820000Y-44687500D01*
G75*
G02*
X42982500Y-44525000I162500J0D01*
G01*
X43717500Y-44525000D01*
G75*
G02*
X43880000Y-44687500I0J-162500D01*
G01*
G37*
G36*
G01*
X49730000Y-53937500D02*
X49730000Y-54262500D01*
G75*
G02*
X49567500Y-54425000I-162500J0D01*
G01*
X48832500Y-54425000D01*
G75*
G02*
X48670000Y-54262500I0J162500D01*
G01*
X48670000Y-53937500D01*
G75*
G02*
X48832500Y-53775000I162500J0D01*
G01*
X49567500Y-53775000D01*
G75*
G02*
X49730000Y-53937500I0J-162500D01*
G01*
G37*
G36*
G01*
X49730000Y-52987500D02*
X49730000Y-53312500D01*
G75*
G02*
X49567500Y-53475000I-162500J0D01*
G01*
X48832500Y-53475000D01*
G75*
G02*
X48670000Y-53312500I0J162500D01*
G01*
X48670000Y-52987500D01*
G75*
G02*
X48832500Y-52825000I162500J0D01*
G01*
X49567500Y-52825000D01*
G75*
G02*
X49730000Y-52987500I0J-162500D01*
G01*
G37*
G36*
G01*
X49730000Y-52037500D02*
X49730000Y-52362500D01*
G75*
G02*
X49567500Y-52525000I-162500J0D01*
G01*
X48832500Y-52525000D01*
G75*
G02*
X48670000Y-52362500I0J162500D01*
G01*
X48670000Y-52037500D01*
G75*
G02*
X48832500Y-51875000I162500J0D01*
G01*
X49567500Y-51875000D01*
G75*
G02*
X49730000Y-52037500I0J-162500D01*
G01*
G37*
G36*
G01*
X47530000Y-52037500D02*
X47530000Y-52362500D01*
G75*
G02*
X47367500Y-52525000I-162500J0D01*
G01*
X46632500Y-52525000D01*
G75*
G02*
X46470000Y-52362500I0J162500D01*
G01*
X46470000Y-52037500D01*
G75*
G02*
X46632500Y-51875000I162500J0D01*
G01*
X47367500Y-51875000D01*
G75*
G02*
X47530000Y-52037500I0J-162500D01*
G01*
G37*
G36*
G01*
X47530000Y-53937500D02*
X47530000Y-54262500D01*
G75*
G02*
X47367500Y-54425000I-162500J0D01*
G01*
X46632500Y-54425000D01*
G75*
G02*
X46470000Y-54262500I0J162500D01*
G01*
X46470000Y-53937500D01*
G75*
G02*
X46632500Y-53775000I162500J0D01*
G01*
X47367500Y-53775000D01*
G75*
G02*
X47530000Y-53937500I0J-162500D01*
G01*
G37*
G36*
G01*
X47530000Y-52987500D02*
X47530000Y-53312500D01*
G75*
G02*
X47367500Y-53475000I-162500J0D01*
G01*
X46632500Y-53475000D01*
G75*
G02*
X46470000Y-53312500I0J162500D01*
G01*
X46470000Y-52987500D01*
G75*
G02*
X46632500Y-52825000I162500J0D01*
G01*
X47367500Y-52825000D01*
G75*
G02*
X47530000Y-52987500I0J-162500D01*
G01*
G37*
G36*
G01*
X43550000Y-52100000D02*
X43550000Y-52700000D01*
G75*
G02*
X43250000Y-53000000I-300000J0D01*
G01*
X42450000Y-53000000D01*
G75*
G02*
X42150000Y-52700000I0J300000D01*
G01*
X42150000Y-52100000D01*
G75*
G02*
X42450000Y-51800000I300000J0D01*
G01*
X43250000Y-51800000D01*
G75*
G02*
X43550000Y-52100000I0J-300000D01*
G01*
G37*
G36*
G01*
X41350000Y-52100000D02*
X41350000Y-52700000D01*
G75*
G02*
X41050000Y-53000000I-300000J0D01*
G01*
X40250000Y-53000000D01*
G75*
G02*
X39950000Y-52700000I0J300000D01*
G01*
X39950000Y-52100000D01*
G75*
G02*
X40250000Y-51800000I300000J0D01*
G01*
X41050000Y-51800000D01*
G75*
G02*
X41350000Y-52100000I0J-300000D01*
G01*
G37*
G36*
G01*
X41350000Y-53800000D02*
X41350000Y-54400000D01*
G75*
G02*
X41050000Y-54700000I-300000J0D01*
G01*
X40250000Y-54700000D01*
G75*
G02*
X39950000Y-54400000I0J300000D01*
G01*
X39950000Y-53800000D01*
G75*
G02*
X40250000Y-53500000I300000J0D01*
G01*
X41050000Y-53500000D01*
G75*
G02*
X41350000Y-53800000I0J-300000D01*
G01*
G37*
G36*
G01*
X43550000Y-53800000D02*
X43550000Y-54400000D01*
G75*
G02*
X43250000Y-54700000I-300000J0D01*
G01*
X42450000Y-54700000D01*
G75*
G02*
X42150000Y-54400000I0J300000D01*
G01*
X42150000Y-53800000D01*
G75*
G02*
X42450000Y-53500000I300000J0D01*
G01*
X43250000Y-53500000D01*
G75*
G02*
X43550000Y-53800000I0J-300000D01*
G01*
G37*
G36*
G01*
X33295000Y-67977500D02*
X33295000Y-68322500D01*
G75*
G02*
X33147500Y-68470000I-147500J0D01*
G01*
X32852500Y-68470000D01*
G75*
G02*
X32705000Y-68322500I0J147500D01*
G01*
X32705000Y-67977500D01*
G75*
G02*
X32852500Y-67830000I147500J0D01*
G01*
X33147500Y-67830000D01*
G75*
G02*
X33295000Y-67977500I0J-147500D01*
G01*
G37*
G36*
G01*
X32325000Y-67977500D02*
X32325000Y-68322500D01*
G75*
G02*
X32177500Y-68470000I-147500J0D01*
G01*
X31882500Y-68470000D01*
G75*
G02*
X31735000Y-68322500I0J147500D01*
G01*
X31735000Y-67977500D01*
G75*
G02*
X31882500Y-67830000I147500J0D01*
G01*
X32177500Y-67830000D01*
G75*
G02*
X32325000Y-67977500I0J-147500D01*
G01*
G37*
G36*
G01*
X40077500Y-56340000D02*
X40422500Y-56340000D01*
G75*
G02*
X40570000Y-56487500I0J-147500D01*
G01*
X40570000Y-56782500D01*
G75*
G02*
X40422500Y-56930000I-147500J0D01*
G01*
X40077500Y-56930000D01*
G75*
G02*
X39930000Y-56782500I0J147500D01*
G01*
X39930000Y-56487500D01*
G75*
G02*
X40077500Y-56340000I147500J0D01*
G01*
G37*
G36*
G01*
X40077500Y-55370000D02*
X40422500Y-55370000D01*
G75*
G02*
X40570000Y-55517500I0J-147500D01*
G01*
X40570000Y-55812500D01*
G75*
G02*
X40422500Y-55960000I-147500J0D01*
G01*
X40077500Y-55960000D01*
G75*
G02*
X39930000Y-55812500I0J147500D01*
G01*
X39930000Y-55517500D01*
G75*
G02*
X40077500Y-55370000I147500J0D01*
G01*
G37*
G36*
G01*
X38827500Y-55355000D02*
X39172500Y-55355000D01*
G75*
G02*
X39320000Y-55502500I0J-147500D01*
G01*
X39320000Y-55797500D01*
G75*
G02*
X39172500Y-55945000I-147500J0D01*
G01*
X38827500Y-55945000D01*
G75*
G02*
X38680000Y-55797500I0J147500D01*
G01*
X38680000Y-55502500D01*
G75*
G02*
X38827500Y-55355000I147500J0D01*
G01*
G37*
G36*
G01*
X38827500Y-56325000D02*
X39172500Y-56325000D01*
G75*
G02*
X39320000Y-56472500I0J-147500D01*
G01*
X39320000Y-56767500D01*
G75*
G02*
X39172500Y-56915000I-147500J0D01*
G01*
X38827500Y-56915000D01*
G75*
G02*
X38680000Y-56767500I0J147500D01*
G01*
X38680000Y-56472500D01*
G75*
G02*
X38827500Y-56325000I147500J0D01*
G01*
G37*
G36*
G01*
X33280000Y-66727500D02*
X33280000Y-67072500D01*
G75*
G02*
X33132500Y-67220000I-147500J0D01*
G01*
X32837500Y-67220000D01*
G75*
G02*
X32690000Y-67072500I0J147500D01*
G01*
X32690000Y-66727500D01*
G75*
G02*
X32837500Y-66580000I147500J0D01*
G01*
X33132500Y-66580000D01*
G75*
G02*
X33280000Y-66727500I0J-147500D01*
G01*
G37*
G36*
G01*
X32310000Y-66727500D02*
X32310000Y-67072500D01*
G75*
G02*
X32162500Y-67220000I-147500J0D01*
G01*
X31867500Y-67220000D01*
G75*
G02*
X31720000Y-67072500I0J147500D01*
G01*
X31720000Y-66727500D01*
G75*
G02*
X31867500Y-66580000I147500J0D01*
G01*
X32162500Y-66580000D01*
G75*
G02*
X32310000Y-66727500I0J-147500D01*
G01*
G37*
G36*
G01*
X50077500Y-48825000D02*
X50422500Y-48825000D01*
G75*
G02*
X50570000Y-48972500I0J-147500D01*
G01*
X50570000Y-49267500D01*
G75*
G02*
X50422500Y-49415000I-147500J0D01*
G01*
X50077500Y-49415000D01*
G75*
G02*
X49930000Y-49267500I0J147500D01*
G01*
X49930000Y-48972500D01*
G75*
G02*
X50077500Y-48825000I147500J0D01*
G01*
G37*
G36*
G01*
X50077500Y-47855000D02*
X50422500Y-47855000D01*
G75*
G02*
X50570000Y-48002500I0J-147500D01*
G01*
X50570000Y-48297500D01*
G75*
G02*
X50422500Y-48445000I-147500J0D01*
G01*
X50077500Y-48445000D01*
G75*
G02*
X49930000Y-48297500I0J147500D01*
G01*
X49930000Y-48002500D01*
G75*
G02*
X50077500Y-47855000I147500J0D01*
G01*
G37*
G36*
G01*
X54827500Y-52870000D02*
X55172500Y-52870000D01*
G75*
G02*
X55320000Y-53017500I0J-147500D01*
G01*
X55320000Y-53312500D01*
G75*
G02*
X55172500Y-53460000I-147500J0D01*
G01*
X54827500Y-53460000D01*
G75*
G02*
X54680000Y-53312500I0J147500D01*
G01*
X54680000Y-53017500D01*
G75*
G02*
X54827500Y-52870000I147500J0D01*
G01*
G37*
G36*
G01*
X54827500Y-53840000D02*
X55172500Y-53840000D01*
G75*
G02*
X55320000Y-53987500I0J-147500D01*
G01*
X55320000Y-54282500D01*
G75*
G02*
X55172500Y-54430000I-147500J0D01*
G01*
X54827500Y-54430000D01*
G75*
G02*
X54680000Y-54282500I0J147500D01*
G01*
X54680000Y-53987500D01*
G75*
G02*
X54827500Y-53840000I147500J0D01*
G01*
G37*
M02*
