G04 #@! TF.GenerationSoftware,KiCad,Pcbnew,(5.1.9-0-10_14)*
G04 #@! TF.CreationDate,2021-04-05T09:48:25+08:00*
G04 #@! TF.ProjectId,tigard,74696761-7264-42e6-9b69-6361645f7063,v1.1*
G04 #@! TF.SameCoordinates,Original*
G04 #@! TF.FileFunction,Soldermask,Bot*
G04 #@! TF.FilePolarity,Negative*
%FSLAX46Y46*%
G04 Gerber Fmt 4.6, Leading zero omitted, Abs format (unit mm)*
G04 Created by KiCad (PCBNEW (5.1.9-0-10_14)) date 2021-04-05 09:48:25*
%MOMM*%
%LPD*%
G01*
G04 APERTURE LIST*
%ADD10O,1.000000X1.000000*%
%ADD11O,2.200000X1.100000*%
%ADD12C,0.750000*%
%ADD13O,1.700000X1.100000*%
%ADD14O,1.800000X1.800000*%
%ADD15C,2.100000*%
%ADD16C,1.500000*%
%ADD17C,0.100000*%
%ADD18C,3.300000*%
G04 APERTURE END LIST*
D10*
X45137580Y-71128420D03*
X45137580Y-69858420D03*
X46407580Y-71128420D03*
X46407580Y-69858420D03*
X47677580Y-71128420D03*
X47677580Y-69858420D03*
X48947580Y-71128420D03*
X48947580Y-69858420D03*
X50217580Y-71128420D03*
X50217580Y-69858420D03*
X51487580Y-71128420D03*
X51487580Y-69858420D03*
X52757580Y-71128420D03*
G36*
G01*
X52307580Y-69358420D02*
X53207580Y-69358420D01*
G75*
G02*
X53257580Y-69408420I0J-50000D01*
G01*
X53257580Y-70308420D01*
G75*
G02*
X53207580Y-70358420I-50000J0D01*
G01*
X52307580Y-70358420D01*
G75*
G02*
X52257580Y-70308420I0J50000D01*
G01*
X52257580Y-69408420D01*
G75*
G02*
X52307580Y-69358420I50000J0D01*
G01*
G37*
X71145000Y-43860000D03*
X72415000Y-43860000D03*
X71145000Y-42590000D03*
X72415000Y-42590000D03*
X71145000Y-41320000D03*
X72415000Y-41320000D03*
X71145000Y-40050000D03*
X72415000Y-40050000D03*
X72415000Y-38780000D03*
G36*
G01*
X70645000Y-39230000D02*
X70645000Y-38330000D01*
G75*
G02*
X70695000Y-38280000I50000J0D01*
G01*
X71595000Y-38280000D01*
G75*
G02*
X71645000Y-38330000I0J-50000D01*
G01*
X71645000Y-39230000D01*
G75*
G02*
X71595000Y-39280000I-50000J0D01*
G01*
X70695000Y-39280000D01*
G75*
G02*
X70645000Y-39230000I0J50000D01*
G01*
G37*
D11*
X36130000Y-64720000D03*
X36130000Y-56080000D03*
D12*
X35600000Y-57510000D03*
D13*
X31950000Y-56080000D03*
D12*
X35600000Y-63290000D03*
D13*
X31950000Y-64720000D03*
G36*
G01*
X70880000Y-49390000D02*
X70880000Y-48490000D01*
G75*
G02*
X71330000Y-48040000I450000J0D01*
G01*
X72230000Y-48040000D01*
G75*
G02*
X72680000Y-48490000I0J-450000D01*
G01*
X72680000Y-49390000D01*
G75*
G02*
X72230000Y-49840000I-450000J0D01*
G01*
X71330000Y-49840000D01*
G75*
G02*
X70880000Y-49390000I0J450000D01*
G01*
G37*
D14*
X71780000Y-51480000D03*
X71780000Y-54020000D03*
X71780000Y-56560000D03*
X71780000Y-59100000D03*
X71780000Y-61640000D03*
X71780000Y-64180000D03*
X71780000Y-66720000D03*
X71780000Y-69260000D03*
D15*
X38890000Y-33700000D03*
D16*
X64080000Y-40200000D03*
X61580000Y-40200000D03*
G36*
G01*
X58330000Y-40575000D02*
X58330000Y-39825000D01*
G75*
G02*
X58705000Y-39450000I375000J0D01*
G01*
X59455000Y-39450000D01*
G75*
G02*
X59830000Y-39825000I0J-375000D01*
G01*
X59830000Y-40575000D01*
G75*
G02*
X59455000Y-40950000I-375000J0D01*
G01*
X58705000Y-40950000D01*
G75*
G02*
X58330000Y-40575000I0J375000D01*
G01*
G37*
X64080000Y-36900000D03*
X61580000Y-36900000D03*
X59080000Y-36900000D03*
G36*
G01*
X66250000Y-68360000D02*
X67150000Y-68360000D01*
G75*
G02*
X67600000Y-68810000I0J-450000D01*
G01*
X67600000Y-69710000D01*
G75*
G02*
X67150000Y-70160000I-450000J0D01*
G01*
X66250000Y-70160000D01*
G75*
G02*
X65800000Y-69710000I0J450000D01*
G01*
X65800000Y-68810000D01*
G75*
G02*
X66250000Y-68360000I450000J0D01*
G01*
G37*
D14*
X66700000Y-71800000D03*
X64160000Y-69260000D03*
X64160000Y-71800000D03*
X61620000Y-69260000D03*
X61620000Y-71800000D03*
X59080000Y-69260000D03*
X59080000Y-71800000D03*
G36*
G01*
X46830000Y-34600000D02*
X45930000Y-34600000D01*
G75*
G02*
X45480000Y-34150000I0J450000D01*
G01*
X45480000Y-33250000D01*
G75*
G02*
X45930000Y-32800000I450000J0D01*
G01*
X46830000Y-32800000D01*
G75*
G02*
X47280000Y-33250000I0J-450000D01*
G01*
X47280000Y-34150000D01*
G75*
G02*
X46830000Y-34600000I-450000J0D01*
G01*
G37*
X48920000Y-33700000D03*
X51460000Y-33700000D03*
X54000000Y-33700000D03*
X56540000Y-33700000D03*
X59080000Y-33700000D03*
X61620000Y-33700000D03*
X64160000Y-33700000D03*
X66700000Y-33700000D03*
D16*
X33200000Y-50400000D03*
X33200000Y-48400000D03*
X33200000Y-46400000D03*
X33200000Y-42400000D03*
G36*
G01*
X32825000Y-39650000D02*
X33575000Y-39650000D01*
G75*
G02*
X33950000Y-40025000I0J-375000D01*
G01*
X33950000Y-40775000D01*
G75*
G02*
X33575000Y-41150000I-375000J0D01*
G01*
X32825000Y-41150000D01*
G75*
G02*
X32450000Y-40775000I0J375000D01*
G01*
X32450000Y-40025000D01*
G75*
G02*
X32825000Y-39650000I375000J0D01*
G01*
G37*
X36500000Y-50400000D03*
X36500000Y-48400000D03*
X36500000Y-46400000D03*
X36500000Y-42400000D03*
X36500000Y-40400000D03*
D17*
G36*
X35990245Y-54199039D02*
G01*
X35980866Y-54196194D01*
X35972221Y-54191573D01*
X35964645Y-54185355D01*
X35958427Y-54177779D01*
X35953806Y-54169134D01*
X35950961Y-54159755D01*
X35950000Y-54150000D01*
X35950000Y-52650000D01*
X35950961Y-52640245D01*
X35953806Y-52630866D01*
X35958427Y-52622221D01*
X35964645Y-52614645D01*
X35972221Y-52608427D01*
X35980866Y-52603806D01*
X35990245Y-52600961D01*
X36000000Y-52600000D01*
X36500000Y-52600000D01*
X36506111Y-52600602D01*
X36524534Y-52600602D01*
X36529435Y-52600843D01*
X36578266Y-52605653D01*
X36583119Y-52606373D01*
X36631244Y-52615945D01*
X36636005Y-52617137D01*
X36682960Y-52631381D01*
X36687579Y-52633034D01*
X36732912Y-52651811D01*
X36737349Y-52653909D01*
X36780622Y-52677040D01*
X36784829Y-52679562D01*
X36825628Y-52706822D01*
X36829570Y-52709746D01*
X36867499Y-52740874D01*
X36871134Y-52744169D01*
X36905831Y-52778866D01*
X36909126Y-52782501D01*
X36940254Y-52820430D01*
X36943178Y-52824372D01*
X36970438Y-52865171D01*
X36972960Y-52869378D01*
X36996091Y-52912651D01*
X36998189Y-52917088D01*
X37016966Y-52962421D01*
X37018619Y-52967040D01*
X37032863Y-53013995D01*
X37034055Y-53018756D01*
X37043627Y-53066881D01*
X37044347Y-53071734D01*
X37049157Y-53120565D01*
X37049398Y-53125466D01*
X37049398Y-53143889D01*
X37050000Y-53150000D01*
X37050000Y-53650000D01*
X37049398Y-53656111D01*
X37049398Y-53674534D01*
X37049157Y-53679435D01*
X37044347Y-53728266D01*
X37043627Y-53733119D01*
X37034055Y-53781244D01*
X37032863Y-53786005D01*
X37018619Y-53832960D01*
X37016966Y-53837579D01*
X36998189Y-53882912D01*
X36996091Y-53887349D01*
X36972960Y-53930622D01*
X36970438Y-53934829D01*
X36943178Y-53975628D01*
X36940254Y-53979570D01*
X36909126Y-54017499D01*
X36905831Y-54021134D01*
X36871134Y-54055831D01*
X36867499Y-54059126D01*
X36829570Y-54090254D01*
X36825628Y-54093178D01*
X36784829Y-54120438D01*
X36780622Y-54122960D01*
X36737349Y-54146091D01*
X36732912Y-54148189D01*
X36687579Y-54166966D01*
X36682960Y-54168619D01*
X36636005Y-54182863D01*
X36631244Y-54184055D01*
X36583119Y-54193627D01*
X36578266Y-54194347D01*
X36529435Y-54199157D01*
X36524534Y-54199398D01*
X36506111Y-54199398D01*
X36500000Y-54200000D01*
X36000000Y-54200000D01*
X35990245Y-54199039D01*
G37*
G36*
X35193889Y-54199398D02*
G01*
X35175466Y-54199398D01*
X35170565Y-54199157D01*
X35121734Y-54194347D01*
X35116881Y-54193627D01*
X35068756Y-54184055D01*
X35063995Y-54182863D01*
X35017040Y-54168619D01*
X35012421Y-54166966D01*
X34967088Y-54148189D01*
X34962651Y-54146091D01*
X34919378Y-54122960D01*
X34915171Y-54120438D01*
X34874372Y-54093178D01*
X34870430Y-54090254D01*
X34832501Y-54059126D01*
X34828866Y-54055831D01*
X34794169Y-54021134D01*
X34790874Y-54017499D01*
X34759746Y-53979570D01*
X34756822Y-53975628D01*
X34729562Y-53934829D01*
X34727040Y-53930622D01*
X34703909Y-53887349D01*
X34701811Y-53882912D01*
X34683034Y-53837579D01*
X34681381Y-53832960D01*
X34667137Y-53786005D01*
X34665945Y-53781244D01*
X34656373Y-53733119D01*
X34655653Y-53728266D01*
X34650843Y-53679435D01*
X34650602Y-53674534D01*
X34650602Y-53656111D01*
X34650000Y-53650000D01*
X34650000Y-53150000D01*
X34650602Y-53143889D01*
X34650602Y-53125466D01*
X34650843Y-53120565D01*
X34655653Y-53071734D01*
X34656373Y-53066881D01*
X34665945Y-53018756D01*
X34667137Y-53013995D01*
X34681381Y-52967040D01*
X34683034Y-52962421D01*
X34701811Y-52917088D01*
X34703909Y-52912651D01*
X34727040Y-52869378D01*
X34729562Y-52865171D01*
X34756822Y-52824372D01*
X34759746Y-52820430D01*
X34790874Y-52782501D01*
X34794169Y-52778866D01*
X34828866Y-52744169D01*
X34832501Y-52740874D01*
X34870430Y-52709746D01*
X34874372Y-52706822D01*
X34915171Y-52679562D01*
X34919378Y-52677040D01*
X34962651Y-52653909D01*
X34967088Y-52651811D01*
X35012421Y-52633034D01*
X35017040Y-52631381D01*
X35063995Y-52617137D01*
X35068756Y-52615945D01*
X35116881Y-52606373D01*
X35121734Y-52605653D01*
X35170565Y-52600843D01*
X35175466Y-52600602D01*
X35193889Y-52600602D01*
X35200000Y-52600000D01*
X35700000Y-52600000D01*
X35709755Y-52600961D01*
X35719134Y-52603806D01*
X35727779Y-52608427D01*
X35735355Y-52614645D01*
X35741573Y-52622221D01*
X35746194Y-52630866D01*
X35749039Y-52640245D01*
X35750000Y-52650000D01*
X35750000Y-54150000D01*
X35749039Y-54159755D01*
X35746194Y-54169134D01*
X35741573Y-54177779D01*
X35735355Y-54185355D01*
X35727779Y-54191573D01*
X35719134Y-54196194D01*
X35709755Y-54199039D01*
X35700000Y-54200000D01*
X35200000Y-54200000D01*
X35193889Y-54199398D01*
G37*
G36*
X64390245Y-43449039D02*
G01*
X64380866Y-43446194D01*
X64372221Y-43441573D01*
X64364645Y-43435355D01*
X64358427Y-43427779D01*
X64353806Y-43419134D01*
X64350961Y-43409755D01*
X64350000Y-43400000D01*
X64350000Y-41900000D01*
X64350961Y-41890245D01*
X64353806Y-41880866D01*
X64358427Y-41872221D01*
X64364645Y-41864645D01*
X64372221Y-41858427D01*
X64380866Y-41853806D01*
X64390245Y-41850961D01*
X64400000Y-41850000D01*
X64900000Y-41850000D01*
X64906111Y-41850602D01*
X64924534Y-41850602D01*
X64929435Y-41850843D01*
X64978266Y-41855653D01*
X64983119Y-41856373D01*
X65031244Y-41865945D01*
X65036005Y-41867137D01*
X65082960Y-41881381D01*
X65087579Y-41883034D01*
X65132912Y-41901811D01*
X65137349Y-41903909D01*
X65180622Y-41927040D01*
X65184829Y-41929562D01*
X65225628Y-41956822D01*
X65229570Y-41959746D01*
X65267499Y-41990874D01*
X65271134Y-41994169D01*
X65305831Y-42028866D01*
X65309126Y-42032501D01*
X65340254Y-42070430D01*
X65343178Y-42074372D01*
X65370438Y-42115171D01*
X65372960Y-42119378D01*
X65396091Y-42162651D01*
X65398189Y-42167088D01*
X65416966Y-42212421D01*
X65418619Y-42217040D01*
X65432863Y-42263995D01*
X65434055Y-42268756D01*
X65443627Y-42316881D01*
X65444347Y-42321734D01*
X65449157Y-42370565D01*
X65449398Y-42375466D01*
X65449398Y-42393889D01*
X65450000Y-42400000D01*
X65450000Y-42900000D01*
X65449398Y-42906111D01*
X65449398Y-42924534D01*
X65449157Y-42929435D01*
X65444347Y-42978266D01*
X65443627Y-42983119D01*
X65434055Y-43031244D01*
X65432863Y-43036005D01*
X65418619Y-43082960D01*
X65416966Y-43087579D01*
X65398189Y-43132912D01*
X65396091Y-43137349D01*
X65372960Y-43180622D01*
X65370438Y-43184829D01*
X65343178Y-43225628D01*
X65340254Y-43229570D01*
X65309126Y-43267499D01*
X65305831Y-43271134D01*
X65271134Y-43305831D01*
X65267499Y-43309126D01*
X65229570Y-43340254D01*
X65225628Y-43343178D01*
X65184829Y-43370438D01*
X65180622Y-43372960D01*
X65137349Y-43396091D01*
X65132912Y-43398189D01*
X65087579Y-43416966D01*
X65082960Y-43418619D01*
X65036005Y-43432863D01*
X65031244Y-43434055D01*
X64983119Y-43443627D01*
X64978266Y-43444347D01*
X64929435Y-43449157D01*
X64924534Y-43449398D01*
X64906111Y-43449398D01*
X64900000Y-43450000D01*
X64400000Y-43450000D01*
X64390245Y-43449039D01*
G37*
G36*
X63593889Y-43449398D02*
G01*
X63575466Y-43449398D01*
X63570565Y-43449157D01*
X63521734Y-43444347D01*
X63516881Y-43443627D01*
X63468756Y-43434055D01*
X63463995Y-43432863D01*
X63417040Y-43418619D01*
X63412421Y-43416966D01*
X63367088Y-43398189D01*
X63362651Y-43396091D01*
X63319378Y-43372960D01*
X63315171Y-43370438D01*
X63274372Y-43343178D01*
X63270430Y-43340254D01*
X63232501Y-43309126D01*
X63228866Y-43305831D01*
X63194169Y-43271134D01*
X63190874Y-43267499D01*
X63159746Y-43229570D01*
X63156822Y-43225628D01*
X63129562Y-43184829D01*
X63127040Y-43180622D01*
X63103909Y-43137349D01*
X63101811Y-43132912D01*
X63083034Y-43087579D01*
X63081381Y-43082960D01*
X63067137Y-43036005D01*
X63065945Y-43031244D01*
X63056373Y-42983119D01*
X63055653Y-42978266D01*
X63050843Y-42929435D01*
X63050602Y-42924534D01*
X63050602Y-42906111D01*
X63050000Y-42900000D01*
X63050000Y-42400000D01*
X63050602Y-42393889D01*
X63050602Y-42375466D01*
X63050843Y-42370565D01*
X63055653Y-42321734D01*
X63056373Y-42316881D01*
X63065945Y-42268756D01*
X63067137Y-42263995D01*
X63081381Y-42217040D01*
X63083034Y-42212421D01*
X63101811Y-42167088D01*
X63103909Y-42162651D01*
X63127040Y-42119378D01*
X63129562Y-42115171D01*
X63156822Y-42074372D01*
X63159746Y-42070430D01*
X63190874Y-42032501D01*
X63194169Y-42028866D01*
X63228866Y-41994169D01*
X63232501Y-41990874D01*
X63270430Y-41959746D01*
X63274372Y-41956822D01*
X63315171Y-41929562D01*
X63319378Y-41927040D01*
X63362651Y-41903909D01*
X63367088Y-41901811D01*
X63412421Y-41883034D01*
X63417040Y-41881381D01*
X63463995Y-41867137D01*
X63468756Y-41865945D01*
X63516881Y-41856373D01*
X63521734Y-41855653D01*
X63570565Y-41850843D01*
X63575466Y-41850602D01*
X63593889Y-41850602D01*
X63600000Y-41850000D01*
X64100000Y-41850000D01*
X64109755Y-41850961D01*
X64119134Y-41853806D01*
X64127779Y-41858427D01*
X64135355Y-41864645D01*
X64141573Y-41872221D01*
X64146194Y-41880866D01*
X64149039Y-41890245D01*
X64150000Y-41900000D01*
X64150000Y-43400000D01*
X64149039Y-43409755D01*
X64146194Y-43419134D01*
X64141573Y-43427779D01*
X64135355Y-43435355D01*
X64127779Y-43441573D01*
X64119134Y-43446194D01*
X64109755Y-43449039D01*
X64100000Y-43450000D01*
X63600000Y-43450000D01*
X63593889Y-43449398D01*
G37*
D18*
X33000000Y-33000000D03*
X73000000Y-33000000D03*
X33000000Y-73000000D03*
X73000000Y-73000000D03*
M02*
