M48
; DRILL file {KiCad (5.1.9-0-10_14)} date Monday, April 05, 2021 at 09:48:29 AM
; FORMAT={-:-/ absolute / inch / decimal}
; #@! TF.CreationDate,2021-04-05T09:48:29+08:00
; #@! TF.GenerationSoftware,Kicad,Pcbnew,(5.1.9-0-10_14)
; #@! TF.FileFunction,Plated,1,4,PTH
FMAT,2
INCH
T1C0.0079
T2C0.0098
T3C0.0157
T4C0.0197
T5C0.0236
T6C0.0354
T7C0.0394
%
G90
G05
T1
X1.8533Y-2.3022
X1.8533Y-2.3527
X1.8533Y-2.4032
X1.8533Y-2.4537
X1.9039Y-2.3022
X1.9039Y-2.3527
X1.9039Y-2.4032
X1.9039Y-2.4537
X1.9544Y-2.3022
X1.9544Y-2.3527
X1.9544Y-2.4032
X1.9544Y-2.4537
X2.0049Y-2.3022
X2.0049Y-2.3527
X2.0049Y-2.4032
X2.0049Y-2.4537
T2
X1.5354Y-2.0531
X1.5846Y-2.2598
X1.6142Y-2.0039
X1.624Y-2.2008
X1.624Y-2.2402
X1.624Y-2.3189
X1.624Y-2.437
X1.624Y-2.4764
X1.624Y-2.5157
X1.624Y-2.5551
X1.624Y-2.5945
X1.7224Y-2.0236
X1.7224Y-2.4173
X1.7264Y-2.5945
X1.7439Y-2.2106
X1.752Y-2.0236
X1.752Y-2.1811
X1.7539Y-2.5551
X1.7815Y-2.5846
X1.7913Y-2.0236
X1.8012Y-1.9941
X1.8012Y-2.1713
X1.8012Y-2.6043
X1.8209Y-2.5846
X1.8254Y-2.1561
X1.8602Y-2.5846
X1.8799Y-1.7258
X1.8799Y-2.6043
X1.8996Y-2.5846
X1.9193Y-2.1614
X1.9281Y-1.876
X1.939Y-2.5939
X1.9488Y-1.8957
X1.9488Y-1.9339
X1.9685Y-2.5939
X1.9783Y-1.4858
X1.9783Y-1.7258
X1.9783Y-2.0433
X1.998Y-2.063
X1.998Y-2.5939
X2.0451Y-1.6398
X2.0451Y-1.876
X2.0472Y-2.1614
X2.0768Y-1.4858
X2.0768Y-1.9843
X2.0866Y-2.063
X2.0965Y-2.0236
X2.1104Y-2.6889
X2.1358Y-2.2028
X2.1457Y-1.876
X2.1457Y-2.3287
X2.1457Y-2.3681
X2.1457Y-2.4075
X2.1457Y-2.4862
X2.1457Y-2.5591
X2.1513Y-2.8986
X2.1654Y-2.3091
X2.1654Y-2.3484
X2.1654Y-2.3878
X2.1654Y-2.4272
X2.1752Y-1.6068
X2.1752Y-1.9429
X2.1752Y-1.9823
X2.1752Y-2.2244
X2.189Y-2.5945
X2.1949Y-1.9232
X2.1949Y-1.9626
X2.1949Y-2.0256
X2.1949Y-2.5256
X2.1949Y-2.7514
X2.1949Y-2.8498
X2.1985Y-2.3947
X2.2244Y-2.1949
X2.2256Y-1.8366
X2.2441Y-2.1063
X2.2539Y-2.7126
X2.2726Y-1.836
X2.2933Y-2.2256
X2.3031Y-2.5945
X2.315Y-1.5177
X2.3228Y-2.5748
X2.3819Y-2.1191
X2.3819Y-2.1447
X2.3917Y-2.25
X2.3917Y-2.2795
X2.3917Y-2.3081
X2.3917Y-2.3593
X2.3917Y-2.4104
X2.3917Y-2.4616
X2.4114Y-2.3337
X2.4114Y-2.3848
X2.4114Y-2.436
X2.4114Y-2.4872
X2.4213Y-1.94
X2.4213Y-2.1122
X2.4567Y-1.5177
X2.4606Y-1.9656
X2.4606Y-2.1122
X2.4705Y-2.5256
X2.4924Y-2.5605
X2.499Y-1.9911
X2.5039Y-2.1319
X2.5098Y-1.7677
X2.5098Y-2.0167
X2.5098Y-2.2106
X2.5118Y-2.3681
X2.5118Y-2.4705
X2.5551Y-1.6299
X2.6063Y-1.5728
X2.6142Y-2.1949
X2.6181Y-1.8563
X2.6181Y-2.25
X2.6181Y-2.2795
X2.6181Y-2.5384
X2.622Y-1.4311
X2.628Y-2.3183
X2.639Y-1.9154
X2.6581Y-2.1364
X2.6772Y-1.5906
X2.6772Y-1.6268
X2.6772Y-1.7268
X2.6772Y-1.8563
X2.6772Y-2.313
X2.7067Y-2.0236
X2.7067Y-2.4646
X2.7067Y-2.5039
X2.7264Y-2.4843
X2.8122Y-1.8099
X2.907Y-1.8274
X2.9582Y-1.7917
T3
X1.326Y-2.1713
X1.326Y-2.5835
X1.5077Y-2.7268
X1.547Y-2.8449
X1.565Y-1.6929
X1.565Y-1.8602
X1.6201Y-1.8071
X1.7618Y-1.6929
X1.7618Y-1.8602
X2.7492Y-1.4823
T4
X1.7771Y-2.7503
X1.7771Y-2.8003
X1.8271Y-2.7503
X1.8271Y-2.8003
X1.8771Y-2.7503
X1.8771Y-2.8003
X1.9271Y-2.7503
X1.9271Y-2.8003
X1.9771Y-2.7503
X1.9771Y-2.8003
X2.0271Y-2.7503
X2.0271Y-2.8003
X2.0771Y-2.7503
X2.0771Y-2.8003
X2.801Y-1.5268
X2.801Y-1.5768
X2.801Y-1.6268
X2.801Y-1.6768
X2.801Y-1.7268
X2.851Y-1.5268
X2.851Y-1.5768
X2.851Y-1.6268
X2.851Y-1.6768
X2.851Y-1.7268
T6
X1.3071Y-1.5906
X1.3071Y-1.6693
X1.3071Y-1.8268
X1.3071Y-1.9055
X1.3071Y-1.9843
X1.437Y-1.5906
X1.437Y-1.6693
X1.437Y-1.8268
X1.437Y-1.9055
X1.437Y-1.9843
X2.326Y-1.4528
X2.326Y-1.5827
X2.4244Y-1.4528
X2.4244Y-1.5827
X2.5228Y-1.4528
X2.5228Y-1.5827
T7
X1.5311Y-1.3268
X1.826Y-1.3268
X1.926Y-1.3268
X2.026Y-1.3268
X2.126Y-1.3268
X2.226Y-1.3268
X2.326Y-1.3268
X2.326Y-2.7268
X2.326Y-2.8268
X2.426Y-1.3268
X2.426Y-2.7268
X2.426Y-2.8268
X2.526Y-1.3268
X2.526Y-2.7268
X2.526Y-2.8268
X2.626Y-1.3268
X2.626Y-2.7268
X2.626Y-2.8268
X2.826Y-1.9268
X2.826Y-2.0268
X2.826Y-2.1268
X2.826Y-2.2268
X2.826Y-2.3268
X2.826Y-2.4268
X2.826Y-2.5268
X2.826Y-2.6268
X2.826Y-2.7268
T5
G00X1.2697Y-2.2079
M15
G01X1.2461Y-2.2079
M16
G05
G00X1.2697Y-2.548
M15
G01X1.2461Y-2.548
M16
G05
G00X1.4441Y-2.2079
M15
G01X1.4008Y-2.2079
M16
G05
G00X1.4441Y-2.548
M15
G01X1.4008Y-2.548
M16
G05
T0
M30
